#VRML V2.0 utf8
# 3D model generated by easyeda2kicad.py (https://github.com/uPesy/easyeda2kicad.py)

Shape{
    appearance Appearance {
        material  Material 	{
            diffuseColor 0.8549019607843137 0.8549019607843137 0.8549019607843137
            specularColor 0.2549019607843137 0.2549019607843137 0.2549019607843137
            ambientIntensity 0.8549
            transparency 0.0
            shininess 0.5
        }
    }
    geometry IndexedFaceSet {
        ccw TRUE
        solid FALSE
        coord DEF co Coordinate {
            point [
                0.0903 0.4466 1.1777, 0.0894 0.447 1.1777, 0.0894 0.4463 1.1777, 0.1021 0.4466 1.1777, 0.1 0.4463 1.1777, 0.1127 0.4463 1.1777, 1.3386 0.1354 1.1777, 1.3386 0.2142 1.1777, 0.8112 0.2142 1.1777, 0.4331 0.5124 1.1777, 0.4331 0.5793 1.1777, 0.2364 0.5793 1.1777, -0.4331 0.1354 1.1777, -0.4331 -0.0811 1.1777, -0.006 -0.0811 1.1777, 0.0627 0.5788 1.1777, 0.0665 0.5793 1.1777, 0.0462 0.5793 1.1777, 0.2073 0.5418 1.1777, 0.1886 0.5418 1.1777, 0.2125 0.5278 1.1777, 0.1886 0.5124 1.1777, 0.2198 0.5278 1.1777, 0.2364 0.5124 1.1777, 0.2004 0.5789 1.1777, 0.1739 0.5278 1.1777, 0.1725 0.5124 1.1777, 0.1812 0.5278 1.1777, 0.1861 0.5418 1.1777, 0.08 0.5717 1.1777, 0.0764 0.573 1.1777, 0.08 0.5352 1.1777, 0.0701 0.5738 1.1777, 0.0677 0.5736 1.1777, 0.0633 0.5727 1.1777, 0.0593 0.5707 1.1777, 0.0562 0.5681 1.1777, 0.0558 0.5677 1.1777, 0.0534 0.5642 1.1777, 0.0517 0.5598 1.1777, 0.0508 0.5527 1.1777, 0.0509 0.5504 1.1777, 0.0771 0.534 1.1777, 0.0713 0.5329 1.1777, 0.069 0.5328 1.1777, 0.0518 0.5454 1.1777, 0.0535 0.5413 1.1777, 0.0558 0.5382 1.1777, 0.0573 0.5368 1.1777, 0.0645 0.5333 1.1777, 0.0607 0.5345 1.1777, 0.0816 0.571 1.1777, 0.0821 0.5362 1.1777, 0.0821 0.5707 1.1777, 0.0894 0.5124 1.1777, 0.0894 0.5793 1.1777, 0.08 0.529 1.1777, 0.08 0.5124 1.1777, 0.0813 0.5295 1.1777, 0.0821 0.5299 1.1777, 0.0755 0.5793 1.1777, 0.0767 0.5792 1.1777, 0.08 0.5793 1.1777, 0.08 0.5783 1.1777, 0.0821 0.5776 1.1777, 0.0476 0.5674 1.1777, 0.0513 0.5722 1.1777, 0.0525 0.5734 1.1777, 0.0573 0.5768 1.1777, 0.0431 0.5793 1.1777, 0.0451 0.5617 1.1777, 0.0462 0.5641 1.1777, 0.0462 0.5408 1.1777, 0.0449 0.5441 1.1777, 0.0431 0.5124 1.1777, 0.0439 0.5524 1.1777, 0.044 0.555 1.1777, 0.0594 0.5282 1.1777, 0.0546 0.5305 1.1777, 0.0462 0.5124 1.1777, 0.0505 0.5339 1.1777, 0.05 0.5344 1.1777, 0.047 0.5387 1.1777, 0.0758 0.5277 1.1777, 0.068 0.5269 1.1777, 0.0649 0.5271 1.1777, 0.1725 0.4463 1.1777, 0.1725 0.4468 1.1777, 0.1563 0.4468 1.1777, 0.1563 0.4978 1.1777, 0.1494 0.4832 1.1777, 0.1349 0.4463 1.1777, 0.1311 0.4558 1.1777, 0.1319 0.4528 1.1777, 0.132 0.4528 1.1777, 0.1323 0.4541 1.1777, 0.1328 0.4558 1.1777, 0.1246 0.4744 1.1777, 0.1428 0.4832 1.1777, 0.1246 0.5124 1.1777, 0.1246 0.4463 1.1777, 0.1246 0.4572 1.1777, 0.1144 0.4832 1.1777, 0.1127 0.5124 1.1777, 0.1216 0.4832 1.1777, 0.1287 0.4469 1.1777, 0.1285 0.4463 1.1777, 0.1259 0.4402 1.1777, 0.1127 0.4261 1.1777, 0.1157 0.4301 1.1777, 0.1157 0.4358 1.1777, 0.1234 0.4366 1.1777, 0.1246 0.4379 1.1777, 0.1246 0.4379 1.1777, 0.1246 0.4307 1.1777, 0.1224 0.4299 1.1777, 0.1246 0.4261 1.1777, 0.1199 0.4296 1.1777, 0.1184 0.4296 1.1777, 0.1194 0.4351 1.1777, 0.121 0.4353 1.1777, 0.1224 0.4358 1.1777, 0.1329 0.4413 1.1777, 0.13 0.4356 1.1777, 0.1725 0.4261 1.1777, 0.1276 0.4328 1.1777, 0.1272 0.4324 1.1777, 0.125 0.4309 1.1777, -0.4331 0.2142 1.1777, -1.3386 0.2142 1.1777, -1.3386 0.1354 1.1777, -0.1898 0.424 1.1777, -0.1812 0.4227 1.1777, -0.1798 0.4226 1.1777, -0.4331 0.4261 1.1777, -0.1948 0.4261 1.1777, -0.1982 0.4275 1.1777, -0.232 0.4551 1.1777, -0.2433 0.4648 1.1777, -0.4331 0.4463 1.1777, -0.2189 0.4487 1.1777, -0.2053 0.4329 1.1777, -0.2107 0.4395 1.1777, -0.2138 0.4463 1.1777, -0.2143 0.4473 1.1777, -0.2516 0.4766 1.1777, -0.2568 0.4901 1.1777, -0.4331 0.5124 1.1777, -0.2586 0.5043 1.1777, -0.2585 0.5078 1.1777, -0.2577 0.5124 1.1777, -0.4331 0.5793 1.1777, -0.256 0.5215 1.1777, -0.2503 0.5345 1.1777, -0.2415 0.5457 1.1777, -0.1754 0.5784 1.1777, -0.1998 0.5631 1.1777, -0.184 0.5711 1.1777, -0.1956 0.5629 1.1777, -0.1914 0.5624 1.1777, -0.2391 0.548 1.1777, -0.2275 0.5562 1.1777, -0.2141 0.5614 1.1777, -0.1651 0.5847 1.1777, -0.4331 0.6593 1.1777, -0.174 0.5793 1.1777, -0.1482 0.5907 1.1777, -0.1319 0.5926 1.1777, -0.006 0.6593 1.1777, -0.1146 0.5905 1.1777, -0.0966 0.5835 1.1777, -0.4331 0.726 1.1777, 0.2765 0.4468 1.1777, 0.2364 0.4463 1.1777, 0.2838 0.4468 1.1777, 0.4331 0.4463 1.1777, 0.2643 0.4978 1.1777, 0.1886 0.5793 1.1777, 0.1933 0.5789 1.1777, 0.1886 0.5664 1.1777, 0.2713 0.4607 1.1777, 0.25 0.4607 1.1777, 0.2451 0.4468 1.1777, 0.2378 0.4468 1.1777, 0.2573 0.4978 1.1777, 0.4331 -0.0811 1.1777, 0.4331 0.1354 1.1777, 0.2364 0.4261 1.1777, 0.4331 0.4261 1.1777, 0.4331 0.2142 1.1777, 0.8112 0.1354 1.1777, 0.1089 0.4627 1.1777, 0.1101 0.461 1.1777, 0.1093 0.4762 1.1777, 0.0927 0.4824 1.1777, 0.0906 0.4812 1.1777, 0.0894 0.4801 1.1777, 0.1108 0.4591 1.1777, 0.1111 0.4567 1.1777, 0.1108 0.4541 1.1777, 0.11 0.4521 1.1777, 0.1088 0.4504 1.1777, 0.0962 0.4836 1.1777, 0.1007 0.4841 1.1777, 0.1093 0.4825 1.1777, 0.1052 0.4837 1.1777, 0.107 0.4488 1.1777, 0.1054 0.4479 1.1777, 0.1001 0.4789 1.1777, 0.0982 0.4787 1.1777, 0.0931 0.474 1.1777, 0.0965 0.4783 1.1777, 0.095 0.4775 1.1777, 0.0931 0.4731 1.1777, 0.0934 0.4721 1.1777, 0.0938 0.4713 1.1777, 0.0945 0.4706 1.1777, 0.0967 0.4692 1.1777, 0.1041 0.4784 1.1777, 0.1007 0.4675 1.1777, 0.1078 0.4771 1.1777, 0.1032 0.4664 1.1777, 0.1074 0.4641 1.1777, 0.0941 0.4767 1.1777, 0.0935 0.4759 1.1777, 0.0932 0.475 1.1777, 0.0864 0.4547 1.1777, 0.08 0.4463 1.1777, 0.0864 0.4481 1.1777, 0.0887 0.4795 1.1777, 0.0875 0.4778 1.1777, 0.089 0.4531 1.1777, 0.0894 0.4529 1.1777, 0.0894 0.4665 1.1777, 0.0883 0.4676 1.1777, 0.0875 0.469 1.1777, 0.0868 0.4709 1.1777, 0.0865 0.4734 1.1777, 0.0867 0.4757 1.1777, 0.0893 0.4665 1.1777, 0.093 0.4516 1.1777, 0.0962 0.4628 1.1777, 0.0924 0.4646 1.1777, 0.097 0.4511 1.1777, 0.0972 0.4511 1.1777, 0.1004 0.461 1.1777, 0.1005 0.4515 1.1777, 0.1045 0.4561 1.1777, 0.1044 0.4569 1.1777, 0.1022 0.4521 1.1777, 0.1028 0.4525 1.1777, 0.1035 0.4531 1.1777, 0.1041 0.4539 1.1777, 0.1044 0.4548 1.1777, 0.1042 0.4579 1.1777, 0.1037 0.4587 1.1777, 0.1029 0.4595 1.1777, 0.0894 0.4261 1.1777, 0.0963 0.4459 1.1777, 0.0927 0.4463 1.1777, 0.117 0.4354 1.1777, 0.0714 0.4468 1.1777, 0.0635 0.4463 1.1777, 0.0512 0.4643 1.1777, 0.052 0.4745 1.1777, 0.0498 0.4625 1.1777, 0.0489 0.4602 1.1777, 0.0714 0.4524 1.1777, 0.0712 0.4524 1.1777, 0.0696 0.4501 1.1777, 0.0675 0.4481 1.1777, 0.0562 0.4464 1.1777, 0.0538 0.4473 1.1777, 0.0462 0.4463 1.1777, 0.0496 0.4515 1.1777, 0.0488 0.4536 1.1777, 0.0662 0.4474 1.1777, 0.0637 0.4464 1.1777, 0.0532 0.466 1.1777, 0.056 0.4673 1.1777, 0.0558 0.4769 1.1777, 0.0606 0.4684 1.1777, 0.0662 0.4787 1.1777, 0.064 0.4789 1.1777, 0.0598 0.4784 1.1777, 0.0686 0.4837 1.1777, 0.0712 0.4829 1.1777, 0.0516 0.4488 1.1777, 0.0509 0.4495 1.1777, 0.0733 0.4816 1.1777, 0.075 0.48 1.1777, 0.0763 0.4779 1.1777, 0.052 0.4807 1.1777, 0.0534 0.4815 1.1777, 0.0581 0.4833 1.1777, 0.0646 0.4841 1.1777, 0.0714 0.47 1.1777, 0.0712 0.4728 1.1777, 0.0705 0.4751 1.1777, 0.0697 0.4764 1.1777, 0.0485 0.4565 1.1777, 0.0485 0.4575 1.1777, 0.0773 0.4749 1.1777, 0.0778 0.4702 1.1777, 0.0778 0.4468 1.1777, 0.0688 0.4774 1.1777, 0.0676 0.4781 1.1777, 0.0563 0.4463 1.1777, 0.0462 0.4261 1.1777, 0.06 0.4459 1.1777, -0.0906 0.5793 1.1777, -0.006 0.5793 1.1777, -0.0825 0.5737 1.1777, -0.0699 0.5589 1.1777, -0.0298 0.5124 1.1777, -0.006 0.5124 1.1777, -0.033 0.5204 1.1777, -0.0404 0.5307 1.1777, -0.0503 0.539 1.1777, -0.0629 0.545 1.1777, -0.0611 0.5444 1.1777, -0.1458 0.4463 1.1777, -0.1458 0.4462 1.1777, -0.006 0.4261 1.1777, -0.1501 0.4381 1.1777, -0.1557 0.4319 1.1777, -0.1629 0.4268 1.1777, -0.1648 0.4261 1.1777, -0.0994 0.4678 1.1777, -0.0969 0.4687 1.1777, -0.0927 0.4894 1.1777, -0.1526 0.4833 1.1777, -0.1039 0.5087 1.1777, -0.1589 0.489 1.1777, -0.1666 0.4932 1.1777, -0.1017 0.4662 1.1777, -0.0332 0.473 1.1777, -0.0404 0.4629 1.1777, -0.006 0.4463 1.1777, -0.0496 0.5002 1.1777, -0.0513 0.5072 1.1777, -0.0541 0.5124 1.1777, -0.2348 0.5124 1.1777, -0.0286 0.5093 1.1777, -0.0269 0.4974 1.1777, -0.0286 0.4845 1.1777, -0.0941 0.4691 1.1777, -0.0938 0.4691 1.1777, -0.0927 0.4688 1.1777, -0.2327 0.4906 1.1777, -0.2284 0.4832 1.1777, -0.2099 0.4795 1.1777, -0.2218 0.4765 1.1777, -0.2139 0.4716 1.1777, -0.1965 0.4915 1.1777, -0.2039 0.4863 1.1777, -0.2357 0.5051 1.1777, -0.2353 0.4995 1.1777, -0.1885 0.4945 1.1777, -0.1798 0.4956 1.1777, -0.1754 0.4954 1.1777, -0.0503 0.4546 1.1777, -0.0613 0.4492 1.1777, -0.0734 0.4466 1.1777, -0.1054 0.4579 1.1777, -0.1053 0.4593 1.1777, -0.1435 0.4626 1.1777, -0.1045 0.462 1.1777, -0.1032 0.4645 1.1777, -0.0568 0.4779 1.1777, -0.0528 0.4835 1.1777, -0.0503 0.49 1.1777, -0.0495 0.4971 1.1777, -0.0948 0.4466 1.1777, -0.0969 0.4469 1.1777, -0.0993 0.4479 1.1777, -0.1016 0.4495 1.1777, -0.1025 0.4504 1.1777, -0.1041 0.4527 1.1777, -0.105 0.4551 1.1777, -0.1437 0.4552 1.1777, -0.1435 0.4589 1.1777, -0.0919 0.4687 1.1777, -0.0756 0.4687 1.1777, -0.0691 0.47 1.1777, -0.0627 0.473 1.1777, -0.0573 0.4773 1.1777, -0.0885 0.5472 1.1777, -0.0967 0.557 1.1777, -0.1802 0.5359 1.1777, -0.0976 0.5578 1.1777, -0.1078 0.5649 1.1777, -0.1746 0.5474 1.1777, -0.1828 0.5373 1.1777, -0.1909 0.5403 1.1777, -0.0547 0.5135 1.1777, -0.0589 0.5182 1.1777, -0.0778 0.5254 1.1777, -0.0645 0.5221 1.1777, -0.0709 0.5245 1.1777, -0.0807 0.5254 1.1777, -0.0829 0.5355 1.1777, -0.2121 0.539 1.1777, -0.2202 0.5347 1.1777, -0.2032 0.5412 1.1777, -0.2265 0.5292 1.1777, -0.2315 0.5219 1.1777, -0.1665 0.5571 1.1777, -0.1192 0.5693 1.1777, -0.1567 0.5642 1.1777, -0.1315 0.5708 1.1777, -0.1449 0.5691 1.1777, -0.1994 0.5414 1.1777, -0.2346 0.5138 1.1777, 0.1629 0.4698 1.1777, 0.1629 0.4526 1.1777, 0.1725 0.4526 1.1777, 0.1812 0.4756 1.1777, 0.1812 0.4698 1.1777, 0.1886 0.4463 1.1777, 0.1725 0.4978 1.1777, 0.1826 0.4978 1.1777, 0.1826 0.492 1.1777, 0.1838 0.4468 1.1777, 0.1838 0.4526 1.1777, 0.1725 0.4698 1.1777, 0.1725 0.492 1.1777, 0.1725 0.4756 1.1777, 0.1629 0.492 1.1777, 0.1629 0.4756 1.1777, 0.1127 0.5508 1.1777, 0.099 0.5508 1.1777, 0.1127 0.5336 1.1777, 0.099 0.5336 1.1777, 0.1246 0.5793 1.1777, 0.1172 0.5566 1.1777, 0.1172 0.5508 1.1777, 0.1127 0.5566 1.1777, 0.1187 0.573 1.1777, 0.1187 0.5789 1.1777, 0.1127 0.5793 1.1777, 0.1127 0.5789 1.1777, 0.1127 0.573 1.1777, 0.099 0.573 1.1777, 0.099 0.5566 1.1777, 0.0924 0.5789 1.1777, 0.0924 0.5278 1.1777, 0.1127 0.5278 1.1777, 0.1198 0.5278 1.1777, 0.1198 0.5336 1.1777, 0.1934 0.4468 1.1777, 0.2075 0.4468 1.1777, 0.2336 0.4637 1.1777, 0.2311 0.4584 1.1777, 0.2273 0.4539 1.1777, 0.222 0.4501 1.1777, 0.2161 0.4478 1.1777, 0.1934 0.4978 1.1777, 0.208 0.4978 1.1777, 0.2158 0.497 1.1777, 0.222 0.4947 1.1777, 0.2273 0.4911 1.1777, 0.2291 0.4893 1.1777, 0.2323 0.4849 1.1777, 0.2342 0.48 1.1777, 0.235 0.473 1.1777, 0.2348 0.4697 1.1777, 0.1886 0.4261 1.1777, 0.1295 0.5278 1.1777, 0.1709 0.5507 1.1777, 0.1697 0.5447 1.1777, 0.1671 0.5395 1.1777, 0.1633 0.5349 1.1777, 0.1683 0.5659 1.1777, 0.1702 0.561 1.1777, 0.1725 0.5793 1.1777, 0.171 0.554 1.1777, 0.158 0.5311 1.1777, 0.1522 0.5288 1.1777, 0.1435 0.5278 1.1777, 0.1295 0.5789 1.1777, 0.144 0.5789 1.1777, 0.1518 0.578 1.1777, 0.158 0.5757 1.1777, 0.1633 0.5721 1.1777, 0.1652 0.5703 1.1777, 0.08 0.4261 1.1777, 0.08 0.6593 1.1777, 0.0894 0.6593 1.1777, 0.1127 0.6593 1.1777, 0.1246 0.6593 1.1777, 0.1725 0.6593 1.1777, 0.1886 0.6593 1.1777, 0.2364 0.6593 1.1777, 0.4331 0.6593 1.1777, 0.2364 -0.0811 1.1777, 0.1886 -0.0811 1.1777, 0.1725 -0.0811 1.1777, 0.1246 -0.0811 1.1777, 0.1127 -0.0811 1.1777, 0.0894 -0.0811 1.1777, 0.08 -0.0811 1.1777, 0.0462 -0.0811 1.1777, 0.0431 0.4261 1.1777, 0.0431 -0.0811 1.1777, 0.0431 0.4463 1.1777, -0.171 0.4237 1.1777, 0.0149 0.4468 1.1777, 0.0149 0.4978 1.1777, 0.0412 0.4978 1.1777, 0.0412 0.492 1.1777, 0.0215 0.4698 1.1777, 0.0215 0.4526 1.1777, 0.0397 0.4698 1.1777, 0.0423 0.4526 1.1777, 0.0397 0.4756 1.1777, 0.0215 0.492 1.1777, 0.0215 0.4756 1.1777, 0.0423 0.4468 1.1777, 0.0215 0.5789 1.1777, 0.0215 0.5336 1.1777, 0.0418 0.5336 1.1777, 0.0149 0.5278 1.1777, 0.0149 0.5789 1.1777, 0.0418 0.5278 1.1777, 0.0431 0.6593 1.1777, 0.0462 0.6593 1.1777, 0.07 0.5797 1.1777, -0.006 0.726 1.1777, 0.0431 0.726 1.1777, 0.0462 0.726 1.1777, 0.08 0.726 1.1777, 0.0894 0.726 1.1777, 0.1127 0.726 1.1777, 0.1246 0.726 1.1777, 0.1725 0.726 1.1777, 0.1886 0.726 1.1777, 0.2364 0.726 1.1777, 0.4331 0.726 1.1777, 0.4331 0.1354 1.1742, 1.2958 0.1354 1.1742, 0.9843 0.1354 0.1107, 0.9843 0.1354 0.0753, 1.2958 0.1354 0.1107, 1.3386 0.1354 0.0753, 1.3386 0.2142 0.0753, 1.2958 0.2142 0.0753, 0.9843 0.2142 0.0753, 0.9843 0.2142 0.0, 1.2958 0.2142 0.0, 1.029 0.726 0.0, 1.251 0.726 0.0, -0.9946 -0.1992 1.1449, -1.2665 -0.1992 1.1449, -0.9946 -0.1992 0.8627, -1.2665 -0.1992 0.8627, 1.2958 0.2142 1.1742, 1.251 0.726 1.1294, 0.4331 0.2142 1.1742, 0.4331 0.726 1.1294, -1.251 0.726 1.1294, -1.2958 0.2142 1.1742, -0.4331 0.726 1.1294, -0.4331 0.2142 1.1742, 0.9946 -0.1992 1.1449, 1.2665 -0.1992 1.1449, 0.9843 -0.0811 1.1553, 0.4331 -0.0811 1.1553, -0.4331 -0.0811 1.1553, -0.4331 0.1354 1.1742, -0.9843 -0.0811 1.1553, -1.2958 0.1354 1.1742, -1.2958 0.2142 0.0753, -1.3386 0.2142 0.0753, -1.2958 0.1354 0.1107, -1.3386 0.1354 0.0753, -0.9843 0.1354 0.1107, -0.9843 0.1354 0.0753, -1.2768 -0.0811 0.8524, -1.2768 -0.0811 0.1297, 1.2768 -0.0811 0.1297, 1.2768 -0.0811 0.8524, 1.2665 -0.1992 0.8627, -1.251 0.726 0.0, -1.2958 0.2142 0.0, 0.9946 -0.1992 0.8627, 1.029 0.726 0.1107, -1.029 0.726 0.1107, -1.029 0.726 0.0, -0.9843 0.2142 0.0753, -0.9843 -0.0811 0.8524, 0.9843 -0.0811 0.8524, -0.9843 0.2142 0.0, -0.8484 0.1354 0.1107, -0.6516 0.1354 0.1107, -0.3484 0.1354 0.1107, -0.1516 0.1354 0.1107, 0.1516 0.1354 0.1107, 0.3484 0.1354 0.1107, 0.6516 0.1354 0.1107, 0.8484 0.1354 0.1107, 0.1516 0.2142 0.1107, 0.9843 0.2142 0.1107, 0.8484 0.2142 0.1107, 0.6516 0.2142 0.1107, -0.8484 0.2142 0.1107, 0.3484 0.2142 0.1107, -0.1516 0.2142 0.1107, -0.3484 0.2142 0.1107, -0.6516 0.2142 0.1107, -0.9843 0.2142 0.1107
            ]
        }
        coordIndex [
            0,1,2,-1,3,4,5,-1,6,7,8,-1,9,10,11,-1,12,13,14,-1,15,16,17,-1,18,19,20,-1,20,19,21,-1,20,21,22,-1,22,21,23,-1,22,23,24,-1,25,26,27,-1,27,26,21,-1,27,21,28,-1,28,21,19,-1,29,30,31,-1,31,30,32,-1,31,32,33,-1,33,34,31,-1,31,34,35,-1,31,35,36,-1,36,37,31,-1,31,37,38,-1,31,38,39,-1,39,40,31,-1,31,40,41,-1,31,41,42,-1,42,41,43,-1,43,41,44,-1,44,41,45,-1,44,45,46,-1,46,47,44,-1,44,47,48,-1,44,48,49,-1,49,48,50,-1,29,31,51,-1,51,31,52,-1,51,52,53,-1,53,52,54,-1,53,54,55,-1,56,57,58,-1,58,57,54,-1,58,54,59,-1,59,54,52,-1,60,61,62,-1,62,61,63,-1,62,63,55,-1,55,63,64,-1,55,64,53,-1,17,65,66,-1,66,67,17,-1,17,67,68,-1,17,68,15,-1,69,70,17,-1,17,70,71,-1,17,71,65,-1,72,73,74,-1,74,73,75,-1,74,75,69,-1,69,75,76,-1,69,76,70,-1,77,78,79,-1,78,80,79,-1,79,80,81,-1,79,81,82,-1,56,83,57,-1,57,83,84,-1,57,84,79,-1,79,84,85,-1,79,85,77,-1,86,87,88,-1,89,90,88,-1,88,90,91,-1,88,91,86,-1,92,93,94,-1,94,95,92,-1,92,95,96,-1,92,96,97,-1,97,96,98,-1,97,98,99,-1,100,101,5,-1,5,101,102,-1,5,102,103,-1,103,102,99,-1,99,102,104,-1,99,104,97,-1,105,101,106,-1,106,101,100,-1,106,100,107,-1,108,109,110,-1,111,112,100,-1,100,112,113,-1,100,113,107,-1,114,115,116,-1,116,115,117,-1,116,117,108,-1,108,117,118,-1,108,118,109,-1,119,120,100,-1,100,120,121,-1,100,121,111,-1,122,123,124,-1,122,124,91,-1,123,125,124,-1,124,125,126,-1,124,126,116,-1,116,126,127,-1,116,127,114,-1,128,129,130,-1,131,12,132,-1,132,12,133,-1,130,12,128,-1,128,12,131,-1,128,131,134,-1,134,131,135,-1,134,135,136,-1,137,138,139,-1,137,139,140,-1,136,141,134,-1,134,141,142,-1,134,142,139,-1,139,142,143,-1,139,143,140,-1,140,143,144,-1,138,145,139,-1,139,145,146,-1,139,146,147,-1,147,146,148,-1,148,149,147,-1,147,149,150,-1,147,150,151,-1,150,152,151,-1,151,152,153,-1,151,153,154,-1,155,156,157,-1,157,156,158,-1,157,158,159,-1,154,160,151,-1,151,160,161,-1,151,161,162,-1,163,164,165,-1,165,164,151,-1,165,151,155,-1,155,151,162,-1,155,162,156,-1,166,167,168,-1,168,167,169,-1,168,169,170,-1,163,166,164,-1,164,166,168,-1,164,168,171,-1,172,173,174,-1,174,173,175,-1,174,175,176,-1,176,175,9,-1,176,9,23,-1,23,9,11,-1,23,11,24,-1,24,11,177,-1,24,177,178,-1,178,177,179,-1,180,181,172,-1,172,181,182,-1,172,182,173,-1,173,182,183,-1,173,183,23,-1,23,183,184,-1,23,184,176,-1,185,186,187,-1,188,187,189,-1,189,187,186,-1,189,186,8,-1,8,186,190,-1,8,190,6,-1,191,192,193,-1,194,54,195,-1,195,54,196,-1,197,198,5,-1,198,199,5,-1,5,199,200,-1,5,200,201,-1,194,202,54,-1,54,202,203,-1,54,203,103,-1,192,197,193,-1,193,197,5,-1,193,5,204,-1,204,5,103,-1,204,103,205,-1,205,103,203,-1,201,206,5,-1,5,206,207,-1,5,207,3,-1,208,209,210,-1,210,209,211,-1,210,211,212,-1,210,213,208,-1,208,213,214,-1,208,214,215,-1,215,216,208,-1,208,216,217,-1,208,217,218,-1,218,217,219,-1,218,219,220,-1,220,219,221,-1,220,221,193,-1,193,221,222,-1,193,222,191,-1,223,224,212,-1,212,224,225,-1,212,225,210,-1,226,57,227,-1,2,1,227,-1,227,1,228,-1,227,228,226,-1,196,54,229,-1,229,54,57,-1,229,57,230,-1,231,232,233,-1,234,235,226,-1,235,236,226,-1,226,236,237,-1,226,237,57,-1,57,237,238,-1,57,238,230,-1,231,233,226,-1,226,233,239,-1,226,239,234,-1,240,241,232,-1,232,241,242,-1,232,242,233,-1,240,243,241,-1,241,243,244,-1,241,244,245,-1,245,244,246,-1,245,247,248,-1,246,249,245,-1,245,249,250,-1,245,250,251,-1,251,252,245,-1,245,252,253,-1,245,253,247,-1,248,254,245,-1,245,254,255,-1,245,255,256,-1,257,258,259,-1,258,257,4,-1,4,257,108,-1,4,108,5,-1,5,108,110,-1,5,110,100,-1,100,110,260,-1,100,260,119,-1,261,262,227,-1,263,264,265,-1,265,264,266,-1,267,268,261,-1,261,268,269,-1,261,269,270,-1,271,272,273,-1,273,274,275,-1,270,276,261,-1,261,276,277,-1,261,277,262,-1,263,278,264,-1,264,278,279,-1,264,279,280,-1,280,279,281,-1,282,283,281,-1,281,283,284,-1,281,284,280,-1,285,286,57,-1,272,287,273,-1,273,287,288,-1,273,288,274,-1,286,289,57,-1,57,289,290,-1,57,290,291,-1,292,293,79,-1,79,293,294,-1,79,294,57,-1,57,294,295,-1,57,295,285,-1,296,297,281,-1,281,297,298,-1,281,298,299,-1,275,300,273,-1,273,300,301,-1,273,301,79,-1,79,301,266,-1,79,266,292,-1,292,266,264,-1,291,302,57,-1,57,302,303,-1,57,303,227,-1,227,303,304,-1,227,304,261,-1,299,305,281,-1,281,305,306,-1,281,306,282,-1,271,273,307,-1,307,273,308,-1,307,308,309,-1,170,310,311,-1,311,310,312,-1,311,312,313,-1,314,315,316,-1,316,315,311,-1,316,311,317,-1,317,311,318,-1,313,319,311,-1,311,319,320,-1,311,320,318,-1,321,322,323,-1,323,322,324,-1,324,325,323,-1,323,325,326,-1,323,326,327,-1,328,329,330,-1,331,332,333,-1,333,332,334,-1,328,330,335,-1,336,337,338,-1,339,340,332,-1,332,340,341,-1,332,341,342,-1,314,343,315,-1,315,343,344,-1,315,344,338,-1,338,344,345,-1,338,345,336,-1,329,346,330,-1,330,346,347,-1,330,347,348,-1,349,350,351,-1,351,350,352,-1,351,352,353,-1,354,342,355,-1,355,342,356,-1,355,356,351,-1,351,356,357,-1,351,357,349,-1,354,358,342,-1,342,358,359,-1,342,359,332,-1,332,359,360,-1,332,360,334,-1,337,361,338,-1,338,361,362,-1,338,362,363,-1,364,365,366,-1,366,365,367,-1,366,367,330,-1,330,367,368,-1,330,368,335,-1,369,370,330,-1,330,370,371,-1,330,371,332,-1,332,371,372,-1,332,372,339,-1,373,374,321,-1,374,375,321,-1,321,375,376,-1,321,376,377,-1,377,378,321,-1,321,378,379,-1,321,379,380,-1,380,379,364,-1,380,364,381,-1,381,364,366,-1,348,382,330,-1,330,382,383,-1,330,383,384,-1,384,385,330,-1,330,385,386,-1,330,386,369,-1,387,388,389,-1,388,390,389,-1,389,390,391,-1,389,391,392,-1,341,389,342,-1,342,389,393,-1,342,393,394,-1,395,396,397,-1,397,396,398,-1,397,398,399,-1,395,397,341,-1,341,397,400,-1,341,400,389,-1,389,400,401,-1,389,401,387,-1,402,403,404,-1,404,403,405,-1,404,405,406,-1,392,391,407,-1,407,391,408,-1,407,408,409,-1,409,408,410,-1,409,410,411,-1,394,412,342,-1,342,412,404,-1,342,404,413,-1,413,404,406,-1,414,415,416,-1,417,418,419,-1,98,90,99,-1,99,90,89,-1,99,89,26,-1,26,89,420,-1,26,420,21,-1,21,420,421,-1,21,421,422,-1,87,86,423,-1,423,86,419,-1,423,419,424,-1,424,419,418,-1,424,418,416,-1,416,418,425,-1,416,425,414,-1,422,426,427,-1,427,426,428,-1,427,428,429,-1,430,431,432,-1,432,431,433,-1,434,435,436,-1,437,435,438,-1,438,435,434,-1,438,434,439,-1,439,434,440,-1,439,440,441,-1,438,442,437,-1,437,442,443,-1,437,443,444,-1,441,440,445,-1,445,440,55,-1,445,55,446,-1,446,55,54,-1,446,54,447,-1,447,54,103,-1,447,103,448,-1,448,103,99,-1,448,99,449,-1,450,419,451,-1,451,419,173,-1,427,417,422,-1,422,417,419,-1,422,419,21,-1,21,419,450,-1,452,453,173,-1,173,453,454,-1,454,455,173,-1,173,455,456,-1,173,456,451,-1,450,457,21,-1,21,457,458,-1,21,458,23,-1,23,458,459,-1,23,459,460,-1,460,461,23,-1,23,461,462,-1,23,462,463,-1,463,464,23,-1,23,464,465,-1,23,465,173,-1,173,465,466,-1,173,466,452,-1,91,124,86,-1,86,124,467,-1,86,467,419,-1,419,467,187,-1,419,187,173,-1,173,187,188,-1,173,188,175,-1,430,432,436,-1,436,432,449,-1,436,449,434,-1,434,449,99,-1,434,99,468,-1,469,470,26,-1,26,470,471,-1,26,471,472,-1,473,474,475,-1,475,474,476,-1,472,477,26,-1,26,477,478,-1,26,478,99,-1,99,478,479,-1,99,479,468,-1,468,480,434,-1,434,480,481,-1,434,481,475,-1,475,481,482,-1,475,482,483,-1,483,484,475,-1,475,484,485,-1,475,485,473,-1,179,177,25,-1,25,177,475,-1,25,475,26,-1,26,475,476,-1,26,476,469,-1,309,308,262,-1,262,308,486,-1,262,486,227,-1,227,486,257,-1,227,257,2,-1,2,257,259,-1,2,259,0,-1,60,62,487,-1,487,62,55,-1,487,55,488,-1,488,55,440,-1,488,440,489,-1,489,440,434,-1,489,434,490,-1,490,434,475,-1,490,475,491,-1,491,475,177,-1,491,177,492,-1,492,177,11,-1,492,11,493,-1,493,11,10,-1,493,10,494,-1,185,187,495,-1,495,187,467,-1,495,467,496,-1,496,467,124,-1,496,124,497,-1,497,124,116,-1,497,116,498,-1,498,116,108,-1,498,108,499,-1,499,108,257,-1,499,257,500,-1,500,257,486,-1,500,486,501,-1,501,486,308,-1,501,308,502,-1,503,504,502,-1,82,72,79,-1,79,72,74,-1,79,74,273,-1,273,74,505,-1,273,505,308,-1,504,323,14,-1,14,323,327,-1,14,327,12,-1,12,327,506,-1,12,506,133,-1,504,503,323,-1,323,503,338,-1,323,338,321,-1,321,338,363,-1,321,363,373,-1,502,308,503,-1,503,308,505,-1,503,505,338,-1,338,505,507,-1,338,507,315,-1,315,507,508,-1,315,508,74,-1,74,508,509,-1,74,509,510,-1,511,512,513,-1,513,512,514,-1,513,514,515,-1,516,517,510,-1,510,517,515,-1,510,515,74,-1,74,515,514,-1,74,514,505,-1,505,514,518,-1,505,518,507,-1,519,520,521,-1,522,523,311,-1,311,523,519,-1,311,519,69,-1,69,519,521,-1,69,521,74,-1,74,521,524,-1,74,524,315,-1,315,524,522,-1,315,522,311,-1,170,311,168,-1,168,311,69,-1,168,69,525,-1,525,69,17,-1,525,17,526,-1,526,17,16,-1,526,16,487,-1,487,16,527,-1,487,527,60,-1,171,168,528,-1,528,168,525,-1,528,525,529,-1,529,525,526,-1,529,526,530,-1,530,526,487,-1,530,487,531,-1,531,487,488,-1,531,488,532,-1,532,488,489,-1,532,489,533,-1,533,489,490,-1,533,490,534,-1,534,490,491,-1,534,491,535,-1,535,491,492,-1,535,492,536,-1,536,492,493,-1,536,493,537,-1,537,493,494,-1,537,494,538,-1,186,539,540,-1,541,542,543,-1,543,542,544,-1,543,544,540,-1,540,544,6,-1,540,6,186,-1,545,544,546,-1,546,544,542,-1,546,542,547,-1,548,549,547,-1,547,549,546,-1,550,551,548,-1,548,551,549,-1,552,553,554,-1,554,553,555,-1,556,557,558,-1,558,557,559,-1,560,561,562,-1,562,561,563,-1,564,565,566,-1,566,565,540,-1,566,540,567,-1,567,540,539,-1,568,569,570,-1,570,569,571,-1,570,571,552,-1,552,571,553,-1,558,189,556,-1,556,189,7,-1,556,7,546,-1,546,7,545,-1,128,563,561,-1,572,573,561,-1,561,573,129,-1,561,129,128,-1,569,12,571,-1,571,12,130,-1,571,130,574,-1,574,130,575,-1,574,575,576,-1,576,575,577,-1,555,553,578,-1,578,553,571,-1,578,571,579,-1,579,571,574,-1,580,543,581,-1,581,543,540,-1,581,540,582,-1,582,540,565,-1,561,560,572,-1,572,560,583,-1,572,583,584,-1,549,551,546,-1,546,551,557,-1,546,557,556,-1,565,564,582,-1,582,564,585,-1,562,171,538,-1,559,557,586,-1,586,557,551,-1,586,551,550,-1,538,559,562,-1,562,559,586,-1,562,586,560,-1,560,586,587,-1,560,587,583,-1,583,587,588,-1,589,577,572,-1,572,577,575,-1,572,575,573,-1,129,573,130,-1,130,573,575,-1,545,7,544,-1,544,7,6,-1,13,12,568,-1,568,12,569,-1,567,539,185,-1,185,539,186,-1,559,538,558,-1,558,538,189,-1,563,128,562,-1,562,128,171,-1,590,570,554,-1,554,570,552,-1,590,578,579,-1,579,580,591,-1,591,580,581,-1,185,13,567,-1,567,13,568,-1,591,566,579,-1,579,566,567,-1,579,567,590,-1,590,567,568,-1,590,568,570,-1,585,564,591,-1,591,564,566,-1,585,591,582,-1,582,591,581,-1,590,554,578,-1,578,554,555,-1,589,572,592,-1,592,572,584,-1,579,574,576,-1,576,593,579,-1,579,593,594,-1,579,594,595,-1,595,596,579,-1,579,596,597,-1,579,597,580,-1,580,597,598,-1,580,598,599,-1,599,600,580,-1,580,600,541,-1,580,541,543,-1,592,584,588,-1,588,584,583,-1,601,597,596,-1,541,600,602,-1,602,600,603,-1,602,603,586,-1,586,603,604,-1,605,593,576,-1,599,598,604,-1,604,598,606,-1,604,606,586,-1,586,606,601,-1,586,601,607,-1,607,601,596,-1,595,594,608,-1,608,594,609,-1,607,608,586,-1,586,608,609,-1,586,609,587,-1,587,609,605,-1,587,605,610,-1,610,605,576,-1,547,542,602,-1,602,542,541,-1,610,576,589,-1,589,576,577,-1,592,588,589,-1,589,588,587,-1,589,587,610,-1,602,586,547,-1,547,586,550,-1,547,550,548,-1,
        ]
    }
}
Shape{
    appearance Appearance {
        material  Material 	{
            diffuseColor 0.6666666666666666 0.6666666666666666 0.6666666666666666
            specularColor 0.4666666666666667 0.4666666666666667 0.4666666666666667
            ambientIntensity 0.6667
            transparency 0.0
            shininess 0.5
        }
    }
    geometry IndexedFaceSet {
        ccw TRUE
        solid FALSE
        coord DEF co Coordinate {
            point [
                -0.8484 -0.1669 0.4724, -0.8484 -0.1988 0.107, -0.6516 -0.1669 0.4724, -0.6516 -0.1988 0.107, -0.8484 -0.0884 0.4656, -0.6516 -0.0884 0.4656, -0.8484 -0.1204 0.1001, -0.6516 -0.1204 0.1001, -0.8484 -0.1202 0.0953, -0.6516 -0.1202 0.0953, -0.8484 -0.1189 0.0907, -0.6516 -0.1189 0.0907, -0.8484 -0.1165 0.0866, -0.6516 -0.1165 0.0866, -0.8484 -0.1131 0.0831, -0.6516 -0.1131 0.0831, -0.8484 -0.1091 0.0806, -0.6516 -0.1091 0.0806, -0.8484 -0.1045 0.0791, -0.6516 -0.1045 0.0791, -0.8484 -0.0997 0.0788, -0.6516 -0.0997 0.0788, -0.8484 0.1168 0.0907, -0.6516 0.1168 0.0907, -0.8484 0.1217 0.0916, -0.6516 0.1217 0.0916, -0.8484 0.1262 0.0937, -0.6516 0.1262 0.0937, -0.8484 0.13 0.0968, -0.6516 0.13 0.0968, -0.8484 0.133 0.1008, -0.6516 0.133 0.1008, -0.8484 0.1348 0.1054, -0.6516 0.1348 0.1054, -0.8484 0.1354 0.1103, -0.6516 0.1354 0.1103, -0.8484 0.1354 0.1107, -0.6516 0.1354 0.1107, -0.8484 0.2142 0.1103, -0.8484 0.2142 0.1107, -0.6516 0.2142 0.1103, -0.6516 0.2142 0.1107, -0.6516 0.2111 0.0857, -0.8484 0.2111 0.0857, -0.6516 0.2019 0.0627, -0.8484 0.2019 0.0627, -0.6516 0.1872 0.0427, -0.8484 0.1872 0.0427, -0.6516 0.1681 0.027, -0.8484 0.1681 0.027, -0.6516 0.1456 0.0165, -0.8484 0.1456 0.0165, -0.6516 0.1212 0.0121, -0.8484 0.1212 0.0121, -0.8484 -0.0954 0.0001, -0.6516 -0.0954 0.0001, -0.6516 -0.1193 0.0018, -0.8484 -0.1193 0.0018, -0.6516 -0.1422 0.0091, -0.8484 -0.1422 0.0091, -0.6516 -0.1626 0.0218, -0.8484 -0.1626 0.0218, -0.6516 -0.1793 0.0391, -0.8484 -0.1793 0.0391, -0.6516 -0.1914 0.0599, -0.8484 -0.1914 0.0599, -0.6516 -0.198 0.083, -0.8484 -0.198 0.083, -0.3484 -0.1669 0.4724, -0.3484 -0.1988 0.107, -0.1516 -0.1669 0.4724, -0.1516 -0.1988 0.107, -0.3484 -0.0884 0.4656, -0.1516 -0.0884 0.4656, -0.3484 -0.1204 0.1001, -0.1516 -0.1204 0.1001, -0.3484 -0.1202 0.0953, -0.1516 -0.1202 0.0953, -0.3484 -0.1189 0.0907, -0.1516 -0.1189 0.0907, -0.3484 -0.1165 0.0866, -0.1516 -0.1165 0.0866, -0.3484 -0.1131 0.0831, -0.1516 -0.1131 0.0831, -0.3484 -0.1091 0.0806, -0.1516 -0.1091 0.0806, -0.3484 -0.1045 0.0791, -0.1516 -0.1045 0.0791, -0.3484 -0.0997 0.0788, -0.1516 -0.0997 0.0788, -0.3484 0.1168 0.0907, -0.1516 0.1168 0.0907, -0.3484 0.1217 0.0916, -0.1516 0.1217 0.0916, -0.3484 0.1262 0.0937, -0.1516 0.1262 0.0937, -0.3484 0.13 0.0968, -0.1516 0.13 0.0968, -0.3484 0.133 0.1008, -0.1516 0.133 0.1008, -0.3484 0.1348 0.1054, -0.1516 0.1348 0.1054, -0.3484 0.1354 0.1103, -0.1516 0.1354 0.1103, -0.3484 0.1354 0.1107, -0.1516 0.1354 0.1107, -0.3484 0.2142 0.1103, -0.3484 0.2142 0.1107, -0.1516 0.2142 0.1103, -0.1516 0.2142 0.1107, -0.1516 0.2111 0.0857, -0.3484 0.2111 0.0857, -0.1516 0.2019 0.0627, -0.3484 0.2019 0.0627, -0.1516 0.1872 0.0427, -0.3484 0.1872 0.0427, -0.1516 0.1681 0.027, -0.3484 0.1681 0.027, -0.1516 0.1456 0.0165, -0.3484 0.1456 0.0165, -0.1516 0.1212 0.0121, -0.3484 0.1212 0.0121, -0.3484 -0.0954 0.0001, -0.1516 -0.0954 0.0001, -0.1516 -0.1193 0.0018, -0.3484 -0.1193 0.0018, -0.1516 -0.1422 0.0091, -0.3484 -0.1422 0.0091, -0.1516 -0.1626 0.0218, -0.3484 -0.1626 0.0218, -0.1516 -0.1793 0.0391, -0.3484 -0.1793 0.0391, -0.1516 -0.1914 0.0599, -0.3484 -0.1914 0.0599, -0.1516 -0.198 0.083, -0.3484 -0.198 0.083, 0.1516 -0.1669 0.4724, 0.1516 -0.1988 0.107, 0.3484 -0.1669 0.4724, 0.3484 -0.1988 0.107, 0.1516 -0.0884 0.4656, 0.3484 -0.0884 0.4656, 0.1516 -0.1204 0.1001, 0.3484 -0.1204 0.1001, 0.1516 -0.1202 0.0953, 0.3484 -0.1202 0.0953, 0.1516 -0.1189 0.0907, 0.3484 -0.1189 0.0907, 0.1516 -0.1165 0.0866, 0.3484 -0.1165 0.0866, 0.1516 -0.1131 0.0831, 0.3484 -0.1131 0.0831, 0.1516 -0.1091 0.0806, 0.3484 -0.1091 0.0806, 0.1516 -0.1045 0.0791, 0.3484 -0.1045 0.0791, 0.1516 -0.0997 0.0788, 0.3484 -0.0997 0.0788, 0.1516 0.1168 0.0907, 0.3484 0.1168 0.0907, 0.1516 0.1217 0.0916, 0.3484 0.1217 0.0916, 0.1516 0.1262 0.0937, 0.3484 0.1262 0.0937, 0.1516 0.13 0.0968, 0.3484 0.13 0.0968, 0.1516 0.133 0.1008, 0.3484 0.133 0.1008, 0.1516 0.1348 0.1054, 0.3484 0.1348 0.1054, 0.1516 0.1354 0.1103, 0.3484 0.1354 0.1103, 0.1516 0.1354 0.1107, 0.3484 0.1354 0.1107, 0.1516 0.2142 0.1103, 0.1516 0.2142 0.1107, 0.3484 0.2142 0.1103, 0.3484 0.2142 0.1107, 0.3484 0.2111 0.0857, 0.1516 0.2111 0.0857, 0.3484 0.2019 0.0627, 0.1516 0.2019 0.0627, 0.3484 0.1872 0.0427, 0.1516 0.1872 0.0427, 0.3484 0.1681 0.027, 0.1516 0.1681 0.027, 0.3484 0.1456 0.0165, 0.1516 0.1456 0.0165, 0.3484 0.1212 0.0121, 0.1516 0.1212 0.0121, 0.1516 -0.0954 0.0001, 0.3484 -0.0954 0.0001, 0.3484 -0.1193 0.0018, 0.1516 -0.1193 0.0018, 0.3484 -0.1422 0.0091, 0.1516 -0.1422 0.0091, 0.3484 -0.1626 0.0218, 0.1516 -0.1626 0.0218, 0.3484 -0.1793 0.0391, 0.1516 -0.1793 0.0391, 0.3484 -0.1914 0.0599, 0.1516 -0.1914 0.0599, 0.3484 -0.198 0.083, 0.1516 -0.198 0.083, 0.6516 -0.1669 0.4724, 0.6516 -0.1988 0.107, 0.8484 -0.1669 0.4724, 0.8484 -0.1988 0.107, 0.6516 -0.0884 0.4656, 0.8484 -0.0884 0.4656, 0.6516 -0.1204 0.1001, 0.8484 -0.1204 0.1001, 0.6516 -0.1202 0.0953, 0.8484 -0.1202 0.0953, 0.6516 -0.1189 0.0907, 0.8484 -0.1189 0.0907, 0.6516 -0.1165 0.0866, 0.8484 -0.1165 0.0866, 0.6516 -0.1131 0.0831, 0.8484 -0.1131 0.0831, 0.6516 -0.1091 0.0806, 0.8484 -0.1091 0.0806, 0.6516 -0.1045 0.0791, 0.8484 -0.1045 0.0791, 0.6516 -0.0997 0.0788, 0.8484 -0.0997 0.0788, 0.6516 0.1168 0.0907, 0.8484 0.1168 0.0907, 0.6516 0.1217 0.0916, 0.8484 0.1217 0.0916, 0.6516 0.1262 0.0937, 0.8484 0.1262 0.0937, 0.6516 0.13 0.0968, 0.8484 0.13 0.0968, 0.6516 0.133 0.1008, 0.8484 0.133 0.1008, 0.6516 0.1348 0.1054, 0.8484 0.1348 0.1054, 0.6516 0.1354 0.1103, 0.8484 0.1354 0.1103, 0.6516 0.1354 0.1107, 0.8484 0.1354 0.1107, 0.6516 0.2142 0.1103, 0.6516 0.2142 0.1107, 0.8484 0.2142 0.1103, 0.8484 0.2142 0.1107, 0.8484 0.2111 0.0857, 0.6516 0.2111 0.0857, 0.8484 0.2019 0.0627, 0.6516 0.2019 0.0627, 0.8484 0.1872 0.0427, 0.6516 0.1872 0.0427, 0.8484 0.1681 0.027, 0.6516 0.1681 0.027, 0.8484 0.1456 0.0165, 0.6516 0.1456 0.0165, 0.8484 0.1212 0.0121, 0.6516 0.1212 0.0121, 0.6516 -0.0954 0.0001, 0.8484 -0.0954 0.0001, 0.8484 -0.1193 0.0018, 0.6516 -0.1193 0.0018, 0.8484 -0.1422 0.0091, 0.6516 -0.1422 0.0091, 0.8484 -0.1626 0.0218, 0.6516 -0.1626 0.0218, 0.8484 -0.1793 0.0391, 0.6516 -0.1793 0.0391, 0.8484 -0.1914 0.0599, 0.6516 -0.1914 0.0599, 0.8484 -0.198 0.083, 0.6516 -0.198 0.083
            ]
        }
        coordIndex [
            0,1,2,-1,2,1,3,-1,4,0,5,-1,5,0,2,-1,6,4,7,-1,7,4,5,-1,6,7,8,-1,8,7,9,-1,8,9,10,-1,10,9,11,-1,10,11,12,-1,12,11,13,-1,12,13,14,-1,14,13,15,-1,14,15,16,-1,16,15,17,-1,16,17,18,-1,18,17,19,-1,18,19,20,-1,20,19,21,-1,22,20,23,-1,23,20,21,-1,22,23,24,-1,24,23,25,-1,24,25,26,-1,26,25,27,-1,26,27,28,-1,28,27,29,-1,28,29,30,-1,30,29,31,-1,30,31,32,-1,32,31,33,-1,32,33,34,-1,34,33,35,-1,36,34,37,-1,37,34,35,-1,38,39,40,-1,40,39,41,-1,38,40,42,-1,38,42,43,-1,43,42,44,-1,43,44,45,-1,45,44,46,-1,45,46,47,-1,47,46,48,-1,47,48,49,-1,49,48,50,-1,49,50,51,-1,51,50,52,-1,51,52,53,-1,54,53,55,-1,55,53,52,-1,54,55,56,-1,54,56,57,-1,57,56,58,-1,57,58,59,-1,59,58,60,-1,59,60,61,-1,61,60,62,-1,61,62,63,-1,63,62,64,-1,63,64,65,-1,65,64,66,-1,65,66,67,-1,67,66,3,-1,67,3,1,-1,36,39,34,-1,34,39,38,-1,34,38,32,-1,32,38,43,-1,32,43,30,-1,30,43,45,-1,30,45,28,-1,28,45,47,-1,28,47,26,-1,26,47,49,-1,26,49,24,-1,24,49,51,-1,24,51,22,-1,22,51,53,-1,22,53,20,-1,20,53,54,-1,20,54,18,-1,18,54,57,-1,18,57,16,-1,16,57,59,-1,16,59,14,-1,14,59,61,-1,14,61,12,-1,12,61,63,-1,12,63,10,-1,10,63,65,-1,10,65,8,-1,8,65,67,-1,8,67,6,-1,6,67,1,-1,6,1,4,-1,4,1,0,-1,5,2,7,-1,7,2,3,-1,7,3,9,-1,9,3,66,-1,9,66,11,-1,11,66,64,-1,11,64,13,-1,13,64,62,-1,13,62,15,-1,15,62,60,-1,15,60,17,-1,17,60,58,-1,17,58,19,-1,19,58,56,-1,19,56,21,-1,21,56,55,-1,21,55,23,-1,23,55,52,-1,23,52,25,-1,25,52,50,-1,25,50,27,-1,27,50,48,-1,27,48,29,-1,29,48,46,-1,29,46,31,-1,31,46,44,-1,31,44,33,-1,33,44,42,-1,33,42,35,-1,35,42,40,-1,35,40,37,-1,37,40,41,-1,68,69,70,-1,70,69,71,-1,72,68,73,-1,73,68,70,-1,74,72,75,-1,75,72,73,-1,74,75,76,-1,76,75,77,-1,76,77,78,-1,78,77,79,-1,78,79,80,-1,80,79,81,-1,80,81,82,-1,82,81,83,-1,82,83,84,-1,84,83,85,-1,84,85,86,-1,86,85,87,-1,86,87,88,-1,88,87,89,-1,90,88,91,-1,91,88,89,-1,90,91,92,-1,92,91,93,-1,92,93,94,-1,94,93,95,-1,94,95,96,-1,96,95,97,-1,96,97,98,-1,98,97,99,-1,98,99,100,-1,100,99,101,-1,100,101,102,-1,102,101,103,-1,104,102,105,-1,105,102,103,-1,106,107,108,-1,108,107,109,-1,106,108,110,-1,106,110,111,-1,111,110,112,-1,111,112,113,-1,113,112,114,-1,113,114,115,-1,115,114,116,-1,115,116,117,-1,117,116,118,-1,117,118,119,-1,119,118,120,-1,119,120,121,-1,122,121,123,-1,123,121,120,-1,122,123,124,-1,122,124,125,-1,125,124,126,-1,125,126,127,-1,127,126,128,-1,127,128,129,-1,129,128,130,-1,129,130,131,-1,131,130,132,-1,131,132,133,-1,133,132,134,-1,133,134,135,-1,135,134,71,-1,135,71,69,-1,104,107,102,-1,102,107,106,-1,102,106,100,-1,100,106,111,-1,100,111,98,-1,98,111,113,-1,98,113,96,-1,96,113,115,-1,96,115,94,-1,94,115,117,-1,94,117,92,-1,92,117,119,-1,92,119,90,-1,90,119,121,-1,90,121,88,-1,88,121,122,-1,88,122,86,-1,86,122,125,-1,86,125,84,-1,84,125,127,-1,84,127,82,-1,82,127,129,-1,82,129,80,-1,80,129,131,-1,80,131,78,-1,78,131,133,-1,78,133,76,-1,76,133,135,-1,76,135,74,-1,74,135,69,-1,74,69,72,-1,72,69,68,-1,73,70,75,-1,75,70,71,-1,75,71,77,-1,77,71,134,-1,77,134,79,-1,79,134,132,-1,79,132,81,-1,81,132,130,-1,81,130,83,-1,83,130,128,-1,83,128,85,-1,85,128,126,-1,85,126,87,-1,87,126,124,-1,87,124,89,-1,89,124,123,-1,89,123,91,-1,91,123,120,-1,91,120,93,-1,93,120,118,-1,93,118,95,-1,95,118,116,-1,95,116,97,-1,97,116,114,-1,97,114,99,-1,99,114,112,-1,99,112,101,-1,101,112,110,-1,101,110,103,-1,103,110,108,-1,103,108,105,-1,105,108,109,-1,136,137,138,-1,138,137,139,-1,140,136,141,-1,141,136,138,-1,142,140,143,-1,143,140,141,-1,142,143,144,-1,144,143,145,-1,144,145,146,-1,146,145,147,-1,146,147,148,-1,148,147,149,-1,148,149,150,-1,150,149,151,-1,150,151,152,-1,152,151,153,-1,152,153,154,-1,154,153,155,-1,154,155,156,-1,156,155,157,-1,158,156,159,-1,159,156,157,-1,158,159,160,-1,160,159,161,-1,160,161,162,-1,162,161,163,-1,162,163,164,-1,164,163,165,-1,164,165,166,-1,166,165,167,-1,166,167,168,-1,168,167,169,-1,168,169,170,-1,170,169,171,-1,172,170,173,-1,173,170,171,-1,174,175,176,-1,176,175,177,-1,174,176,178,-1,174,178,179,-1,179,178,180,-1,179,180,181,-1,181,180,182,-1,181,182,183,-1,183,182,184,-1,183,184,185,-1,185,184,186,-1,185,186,187,-1,187,186,188,-1,187,188,189,-1,190,189,191,-1,191,189,188,-1,190,191,192,-1,190,192,193,-1,193,192,194,-1,193,194,195,-1,195,194,196,-1,195,196,197,-1,197,196,198,-1,197,198,199,-1,199,198,200,-1,199,200,201,-1,201,200,202,-1,201,202,203,-1,203,202,139,-1,203,139,137,-1,172,175,170,-1,170,175,174,-1,170,174,168,-1,168,174,179,-1,168,179,166,-1,166,179,181,-1,166,181,164,-1,164,181,183,-1,164,183,162,-1,162,183,185,-1,162,185,160,-1,160,185,187,-1,160,187,158,-1,158,187,189,-1,158,189,156,-1,156,189,190,-1,156,190,154,-1,154,190,193,-1,154,193,152,-1,152,193,195,-1,152,195,150,-1,150,195,197,-1,150,197,148,-1,148,197,199,-1,148,199,146,-1,146,199,201,-1,146,201,144,-1,144,201,203,-1,144,203,142,-1,142,203,137,-1,142,137,140,-1,140,137,136,-1,141,138,143,-1,143,138,139,-1,143,139,145,-1,145,139,202,-1,145,202,147,-1,147,202,200,-1,147,200,149,-1,149,200,198,-1,149,198,151,-1,151,198,196,-1,151,196,153,-1,153,196,194,-1,153,194,155,-1,155,194,192,-1,155,192,157,-1,157,192,191,-1,157,191,159,-1,159,191,188,-1,159,188,161,-1,161,188,186,-1,161,186,163,-1,163,186,184,-1,163,184,165,-1,165,184,182,-1,165,182,167,-1,167,182,180,-1,167,180,169,-1,169,180,178,-1,169,178,171,-1,171,178,176,-1,171,176,173,-1,173,176,177,-1,204,205,206,-1,206,205,207,-1,208,204,209,-1,209,204,206,-1,210,208,211,-1,211,208,209,-1,210,211,212,-1,212,211,213,-1,212,213,214,-1,214,213,215,-1,214,215,216,-1,216,215,217,-1,216,217,218,-1,218,217,219,-1,218,219,220,-1,220,219,221,-1,220,221,222,-1,222,221,223,-1,222,223,224,-1,224,223,225,-1,226,224,227,-1,227,224,225,-1,226,227,228,-1,228,227,229,-1,228,229,230,-1,230,229,231,-1,230,231,232,-1,232,231,233,-1,232,233,234,-1,234,233,235,-1,234,235,236,-1,236,235,237,-1,236,237,238,-1,238,237,239,-1,240,238,241,-1,241,238,239,-1,242,243,244,-1,244,243,245,-1,242,244,246,-1,242,246,247,-1,247,246,248,-1,247,248,249,-1,249,248,250,-1,249,250,251,-1,251,250,252,-1,251,252,253,-1,253,252,254,-1,253,254,255,-1,255,254,256,-1,255,256,257,-1,258,257,259,-1,259,257,256,-1,258,259,260,-1,258,260,261,-1,261,260,262,-1,261,262,263,-1,263,262,264,-1,263,264,265,-1,265,264,266,-1,265,266,267,-1,267,266,268,-1,267,268,269,-1,269,268,270,-1,269,270,271,-1,271,270,207,-1,271,207,205,-1,240,243,238,-1,238,243,242,-1,238,242,236,-1,236,242,247,-1,236,247,234,-1,234,247,249,-1,234,249,232,-1,232,249,251,-1,232,251,230,-1,230,251,253,-1,230,253,228,-1,228,253,255,-1,228,255,226,-1,226,255,257,-1,226,257,224,-1,224,257,258,-1,224,258,222,-1,222,258,261,-1,222,261,220,-1,220,261,263,-1,220,263,218,-1,218,263,265,-1,218,265,216,-1,216,265,267,-1,216,267,214,-1,214,267,269,-1,214,269,212,-1,212,269,271,-1,212,271,210,-1,210,271,205,-1,210,205,208,-1,208,205,204,-1,209,206,211,-1,211,206,207,-1,211,207,213,-1,213,207,270,-1,213,270,215,-1,215,270,268,-1,215,268,217,-1,217,268,266,-1,217,266,219,-1,219,266,264,-1,219,264,221,-1,221,264,262,-1,221,262,223,-1,223,262,260,-1,223,260,225,-1,225,260,259,-1,225,259,227,-1,227,259,256,-1,227,256,229,-1,229,256,254,-1,229,254,231,-1,231,254,252,-1,231,252,233,-1,233,252,250,-1,233,250,235,-1,235,250,248,-1,235,248,237,-1,237,248,246,-1,237,246,239,-1,239,246,244,-1,239,244,241,-1,241,244,245,-1,
        ]
    }
}
Shape{
    appearance Appearance {
        material  Material 	{
            diffuseColor 0.0 0.0 0.0
            specularColor 0.0 0.0 0.0
            ambientIntensity 0.0
            transparency 0.0
            shininess 0.5
        }
    }
    geometry IndexedFaceSet {
        ccw TRUE
        solid FALSE
        coord DEF co Coordinate {
            point [
                0.2273 0.4539 1.1816, 0.222 0.4574 1.1816, 0.222 0.4501 1.1816, 0.2187 0.4551 1.1816, 0.2161 0.4478 1.1816, 0.2145 0.4534 1.1816, 0.2075 0.4468 1.1816, 0.2074 0.4526 1.1816, 0.1934 0.4468 1.1816, 0.2 0.4526 1.1816, 0.1934 0.4978 1.1816, 0.2 0.492 1.1816, 0.208 0.4978 1.1816, 0.2077 0.492 1.1816, 0.2083 0.492 1.1816, 0.2158 0.497 1.1816, 0.2148 0.4911 1.1816, 0.222 0.4947 1.1816, 0.2191 0.4894 1.1816, 0.2273 0.4911 1.1816, 0.2225 0.4872 1.1816, 0.2291 0.4893 1.1816, 0.2239 0.4858 1.1816, 0.2323 0.4849 1.1816, 0.2259 0.4829 1.1816, 0.2342 0.48 1.1816, 0.2273 0.4792 1.1816, 0.235 0.473 1.1816, 0.2281 0.4728 1.1816, 0.2348 0.4697 1.1816, 0.2279 0.4693 1.1816, 0.2336 0.4637 1.1816, 0.2268 0.4646 1.1816, 0.2311 0.4584 1.1816, 0.225 0.4609 1.1816, 0.2226 0.4579 1.1816, 0.2273 0.4539 1.1777, 0.2311 0.4584 1.1777, 0.2336 0.4637 1.1777, 0.2348 0.4697 1.1777, 0.235 0.473 1.1777, 0.2342 0.48 1.1777, 0.2323 0.4849 1.1777, 0.2291 0.4893 1.1777, 0.2273 0.4911 1.1777, 0.222 0.4947 1.1777, 0.2158 0.497 1.1777, 0.208 0.4978 1.1777, 0.1934 0.4978 1.1777, 0.1934 0.4468 1.1777, 0.2075 0.4468 1.1777, 0.2161 0.4478 1.1777, 0.222 0.4501 1.1777, 0.2225 0.4872 1.1777, 0.2239 0.4858 1.1777, 0.2259 0.4829 1.1777, 0.2273 0.4792 1.1777, 0.2281 0.4728 1.1777, 0.2077 0.492 1.1777, 0.2083 0.492 1.1777, 0.2148 0.4911 1.1777, 0.2191 0.4894 1.1777, 0.2 0.492 1.1777, 0.2 0.4526 1.1777, 0.2074 0.4526 1.1777, 0.2226 0.4579 1.1777, 0.222 0.4574 1.1777, 0.2187 0.4551 1.1777, 0.2145 0.4534 1.1777, 0.2279 0.4693 1.1777, 0.2268 0.4646 1.1777, 0.225 0.4609 1.1777
            ]
        }
        coordIndex [
            0,1,2,-1,2,1,3,-1,2,3,4,-1,4,3,5,-1,4,5,6,-1,6,5,7,-1,6,7,8,-1,8,7,9,-1,8,9,10,-1,10,9,11,-1,10,11,12,-1,11,13,12,-1,12,13,14,-1,12,14,15,-1,15,14,16,-1,15,16,17,-1,17,16,18,-1,17,18,19,-1,19,18,20,-1,19,20,21,-1,21,20,22,-1,21,22,23,-1,23,22,24,-1,23,24,25,-1,25,24,26,-1,25,26,27,-1,27,26,28,-1,27,28,29,-1,29,28,30,-1,29,30,31,-1,31,30,32,-1,31,32,33,-1,33,32,34,-1,33,34,0,-1,0,34,35,-1,0,35,1,-1,0,36,37,-1,0,37,33,-1,33,37,38,-1,33,38,31,-1,31,38,39,-1,31,39,29,-1,29,39,40,-1,29,40,27,-1,27,40,41,-1,27,41,25,-1,25,41,42,-1,25,42,23,-1,23,42,43,-1,23,43,21,-1,21,43,44,-1,21,44,19,-1,19,44,45,-1,19,45,17,-1,17,45,46,-1,17,46,15,-1,15,46,47,-1,15,47,12,-1,10,12,48,-1,48,12,47,-1,8,10,49,-1,49,10,48,-1,6,8,50,-1,50,8,49,-1,6,50,51,-1,6,51,4,-1,4,51,52,-1,4,52,2,-1,2,52,36,-1,2,36,0,-1,20,53,54,-1,20,54,22,-1,22,54,55,-1,22,55,24,-1,24,55,56,-1,24,56,26,-1,26,56,57,-1,26,57,28,-1,13,58,59,-1,13,59,14,-1,14,59,60,-1,14,60,16,-1,16,60,61,-1,16,61,18,-1,18,61,53,-1,18,53,20,-1,13,11,58,-1,58,11,62,-1,11,9,62,-1,62,9,63,-1,9,7,63,-1,63,7,64,-1,35,65,66,-1,35,66,1,-1,1,66,67,-1,1,67,3,-1,3,67,68,-1,3,68,5,-1,5,68,64,-1,5,64,7,-1,28,57,69,-1,28,69,30,-1,30,69,70,-1,30,70,32,-1,32,70,71,-1,32,71,34,-1,34,71,65,-1,34,65,35,-1,
        ]
    }
}
Shape{
    appearance Appearance {
        material  Material 	{
            diffuseColor 0.8549019607843137 0.8549019607843137 0.8549019607843137
            specularColor 0.2549019607843137 0.2549019607843137 0.2549019607843137
            ambientIntensity 0.8549
            transparency 0.0
            shininess 0.5
        }
    }
    geometry IndexedFaceSet {
        ccw TRUE
        solid FALSE
        coord DEF co Coordinate {
            point [
                0.2187 0.4551 1.1777, 0.222 0.4574 1.1777, 0.2083 0.492 1.1777, 0.2 0.492 1.1777, 0.2 0.4526 1.1777, 0.2077 0.492 1.1777, 0.2074 0.4526 1.1777, 0.2145 0.4534 1.1777, 0.2226 0.4579 1.1777, 0.225 0.4609 1.1777, 0.2268 0.4646 1.1777, 0.2281 0.4728 1.1777, 0.2225 0.4872 1.1777, 0.2191 0.4894 1.1777, 0.2273 0.4792 1.1777, 0.2259 0.4829 1.1777, 0.2239 0.4858 1.1777, 0.2279 0.4693 1.1777, 0.2148 0.4911 1.1777
            ]
        }
        coordIndex [
            0,1,2,-1,3,4,5,-1,5,4,6,-1,5,6,2,-1,2,6,7,-1,2,7,0,-1,1,8,2,-1,2,8,9,-1,2,9,10,-1,11,12,13,-1,14,15,11,-1,11,15,16,-1,11,16,12,-1,10,17,2,-1,2,17,11,-1,2,11,18,-1,18,11,13,-1,
        ]
    }
}
Shape{
    appearance Appearance {
        material  Material 	{
            diffuseColor 0.0 0.0 0.0
            specularColor 0.0 0.0 0.0
            ambientIntensity 0.0
            transparency 0.0
            shininess 0.5
        }
    }
    geometry IndexedFaceSet {
        ccw TRUE
        solid FALSE
        coord DEF co Coordinate {
            point [
                0.1328 0.4558 1.1816, 0.1328 0.4558 1.1777, 0.1323 0.4541 1.1777, 0.1323 0.4541 1.1816, 0.132 0.4528 1.1777, 0.132 0.4528 1.1816, 0.1319 0.4528 1.1816, 0.1319 0.4528 1.1777, 0.1311 0.4558 1.1816, 0.1311 0.4558 1.1777, 0.1216 0.4832 1.1816, 0.1246 0.4744 1.1777, 0.1216 0.4832 1.1777, 0.1144 0.4832 1.1816, 0.1144 0.4832 1.1777, 0.1287 0.4469 1.1816, 0.1246 0.4572 1.1777, 0.1287 0.4469 1.1777, 0.1259 0.4402 1.1777, 0.1259 0.4402 1.1816, 0.1285 0.4463 1.1777, 0.1246 0.4379 1.1777, 0.1246 0.4379 1.1816, 0.1246 0.4379 1.1777, 0.1234 0.4366 1.1777, 0.1234 0.4366 1.1816, 0.1224 0.4358 1.1777, 0.1224 0.4358 1.1816, 0.121 0.4353 1.1777, 0.121 0.4353 1.1816, 0.1194 0.4351 1.1777, 0.1194 0.4351 1.1816, 0.117 0.4354 1.1777, 0.117 0.4354 1.1816, 0.1157 0.4358 1.1777, 0.1157 0.4358 1.1816, 0.1157 0.4301 1.1816, 0.1157 0.4301 1.1777, 0.1184 0.4296 1.1777, 0.1184 0.4296 1.1816, 0.1199 0.4296 1.1777, 0.1199 0.4296 1.1816, 0.1224 0.4299 1.1777, 0.1224 0.4299 1.1816, 0.1246 0.4307 1.1777, 0.125 0.4309 1.1816, 0.125 0.4309 1.1777, 0.1272 0.4324 1.1777, 0.1272 0.4324 1.1816, 0.1276 0.4328 1.1777, 0.1276 0.4328 1.1816, 0.13 0.4356 1.1777, 0.13 0.4356 1.1816, 0.1329 0.4413 1.1777, 0.1329 0.4413 1.1816, 0.1494 0.4832 1.1777, 0.1494 0.4832 1.1816, 0.1349 0.4463 1.1777, 0.1428 0.4832 1.1816, 0.1428 0.4832 1.1777, 0.0963 0.4459 1.1777, 0.1 0.4463 1.1777, 0.0963 0.4459 1.1816, 0.1021 0.4466 1.1816, 0.1021 0.4466 1.1777, 0.1054 0.4479 1.1777, 0.1054 0.4479 1.1816, 0.107 0.4488 1.1777, 0.107 0.4488 1.1816, 0.1088 0.4504 1.1777, 0.1088 0.4504 1.1816, 0.11 0.4521 1.1777, 0.11 0.4521 1.1816, 0.1108 0.4541 1.1777, 0.1108 0.4541 1.1816, 0.1111 0.4567 1.1777, 0.1111 0.4567 1.1816, 0.1108 0.4591 1.1777, 0.1108 0.4591 1.1816, 0.1101 0.461 1.1777, 0.1101 0.461 1.1816, 0.1089 0.4627 1.1777, 0.1089 0.4627 1.1816, 0.1074 0.4641 1.1777, 0.1074 0.4641 1.1816, 0.1032 0.4664 1.1777, 0.1032 0.4664 1.1816, 0.1007 0.4675 1.1777, 0.1007 0.4675 1.1816, 0.0967 0.4692 1.1777, 0.0967 0.4692 1.1816, 0.0945 0.4706 1.1777, 0.0945 0.4706 1.1816, 0.0938 0.4713 1.1777, 0.0938 0.4713 1.1816, 0.0934 0.4721 1.1777, 0.0934 0.4721 1.1816, 0.0931 0.4731 1.1777, 0.0931 0.4731 1.1816, 0.0931 0.474 1.1777, 0.0931 0.474 1.1816, 0.0932 0.475 1.1777, 0.0932 0.475 1.1816, 0.0935 0.4759 1.1777, 0.0935 0.4759 1.1816, 0.0941 0.4767 1.1777, 0.0941 0.4767 1.1816, 0.095 0.4775 1.1777, 0.095 0.4775 1.1816, 0.0965 0.4783 1.1777, 0.0965 0.4783 1.1816, 0.0982 0.4787 1.1777, 0.0982 0.4787 1.1816, 0.1001 0.4789 1.1777, 0.1001 0.4789 1.1816, 0.1041 0.4784 1.1777, 0.1041 0.4784 1.1816, 0.1078 0.4771 1.1777, 0.1078 0.4771 1.1816, 0.1093 0.4762 1.1777, 0.1093 0.4762 1.1816, 0.1093 0.4825 1.1816, 0.1093 0.4825 1.1777, 0.1052 0.4837 1.1777, 0.1052 0.4837 1.1816, 0.1007 0.4841 1.1777, 0.1007 0.4841 1.1816, 0.0962 0.4836 1.1777, 0.0962 0.4836 1.1816, 0.0927 0.4824 1.1777, 0.0927 0.4824 1.1816, 0.0906 0.4812 1.1777, 0.0906 0.4812 1.1816, 0.0894 0.4801 1.1777, 0.0887 0.4795 1.1816, 0.0887 0.4795 1.1777, 0.0875 0.4778 1.1777, 0.0875 0.4778 1.1816, 0.0867 0.4757 1.1777, 0.0867 0.4757 1.1816, 0.0865 0.4734 1.1777, 0.0865 0.4734 1.1816, 0.0868 0.4709 1.1777, 0.0868 0.4709 1.1816, 0.0875 0.469 1.1777, 0.0875 0.469 1.1816, 0.0883 0.4676 1.1777, 0.0883 0.4676 1.1816, 0.0962 0.4628 1.1777, 0.0962 0.4628 1.1816, 0.0924 0.4646 1.1816, 0.0893 0.4665 1.1777, 0.0893 0.4665 1.1816, 0.0894 0.4665 1.1777, 0.0924 0.4646 1.1777, 0.1004 0.461 1.1777, 0.1004 0.461 1.1816, 0.1029 0.4595 1.1777, 0.1029 0.4595 1.1816, 0.1037 0.4587 1.1777, 0.1037 0.4587 1.1816, 0.1042 0.4579 1.1777, 0.1042 0.4579 1.1816, 0.1044 0.4569 1.1777, 0.1044 0.4569 1.1816, 0.1045 0.4561 1.1777, 0.1045 0.4561 1.1816, 0.1044 0.4548 1.1777, 0.1044 0.4548 1.1816, 0.1041 0.4539 1.1777, 0.1041 0.4539 1.1816, 0.1035 0.4531 1.1777, 0.1035 0.4531 1.1816, 0.1028 0.4525 1.1777, 0.1028 0.4525 1.1816, 0.1022 0.4521 1.1777, 0.1022 0.4521 1.1816, 0.1005 0.4515 1.1777, 0.1005 0.4515 1.1816, 0.0972 0.4511 1.1777, 0.0972 0.4511 1.1816, 0.097 0.4511 1.1777, 0.097 0.4511 1.1816, 0.0864 0.4547 1.1777, 0.0864 0.4547 1.1816, 0.089 0.4531 1.1816, 0.093 0.4516 1.1777, 0.093 0.4516 1.1816, 0.0894 0.4529 1.1777, 0.089 0.4531 1.1777, 0.0864 0.4481 1.1816, 0.0864 0.4481 1.1777, 0.0894 0.447 1.1777, 0.0903 0.4466 1.1816, 0.0927 0.4463 1.1777, 0.0903 0.4466 1.1777, 0.0714 0.4468 1.1816, 0.0778 0.4468 1.1816, 0.0714 0.4524 1.1816, 0.0778 0.4702 1.1816, 0.0628 0.4639 1.1816, 0.0714 0.4651 1.1816, 0.0714 0.4616 1.1816, 0.0712 0.4524 1.1816, 0.0678 0.4534 1.1816, 0.0696 0.4501 1.1816, 0.066 0.4521 1.1816, 0.0532 0.466 1.1816, 0.0512 0.4643 1.1816, 0.0559 0.4607 1.1816, 0.0714 0.4612 1.1816, 0.071 0.4583 1.1816, 0.07 0.456 1.1816, 0.0686 0.4541 1.1816, 0.052 0.4807 1.1816, 0.052 0.4745 1.1816, 0.0534 0.4815 1.1816, 0.0558 0.4769 1.1816, 0.0581 0.4833 1.1816, 0.0598 0.4784 1.1816, 0.0646 0.4841 1.1816, 0.064 0.4789 1.1816, 0.0686 0.4837 1.1816, 0.0662 0.4787 1.1816, 0.0712 0.4829 1.1816, 0.0676 0.4781 1.1816, 0.0733 0.4816 1.1816, 0.0688 0.4774 1.1816, 0.075 0.48 1.1816, 0.0697 0.4764 1.1816, 0.0763 0.4779 1.1816, 0.0705 0.4751 1.1816, 0.0773 0.4749 1.1816, 0.0712 0.4728 1.1816, 0.0714 0.47 1.1816, 0.0553 0.4595 1.1816, 0.0498 0.4625 1.1816, 0.055 0.4581 1.1816, 0.0606 0.4684 1.1816, 0.0574 0.4623 1.1816, 0.0589 0.463 1.1816, 0.0563 0.4534 1.1816, 0.0516 0.4488 1.1816, 0.0568 0.4528 1.1816, 0.0538 0.4473 1.1816, 0.0581 0.4519 1.1816, 0.0562 0.4464 1.1816, 0.0595 0.4514 1.1816, 0.06 0.4459 1.1816, 0.0617 0.4512 1.1816, 0.0637 0.4464 1.1816, 0.0641 0.4514 1.1816, 0.0662 0.4474 1.1816, 0.0675 0.4481 1.1816, 0.0567 0.4617 1.1816, 0.056 0.4673 1.1816, 0.0489 0.4602 1.1816, 0.0485 0.4575 1.1816, 0.055 0.4571 1.1816, 0.0485 0.4565 1.1816, 0.0551 0.4556 1.1816, 0.0488 0.4536 1.1816, 0.0555 0.4544 1.1816, 0.0496 0.4515 1.1816, 0.0509 0.4495 1.1816, 0.064 0.4789 1.1777, 0.0662 0.4787 1.1777, 0.0676 0.4781 1.1777, 0.0688 0.4774 1.1777, 0.0697 0.4764 1.1777, 0.0705 0.4751 1.1777, 0.0712 0.4728 1.1777, 0.0714 0.47 1.1777, 0.0606 0.4684 1.1777, 0.056 0.4673 1.1777, 0.0532 0.466 1.1777, 0.0512 0.4643 1.1777, 0.0498 0.4625 1.1777, 0.0489 0.4602 1.1777, 0.0485 0.4575 1.1777, 0.0485 0.4565 1.1777, 0.0488 0.4536 1.1777, 0.0496 0.4515 1.1777, 0.0509 0.4495 1.1777, 0.0516 0.4488 1.1777, 0.06 0.4459 1.1777, 0.0563 0.4463 1.1777, 0.0562 0.4464 1.1777, 0.0538 0.4473 1.1777, 0.0635 0.4463 1.1777, 0.0637 0.4464 1.1777, 0.0662 0.4474 1.1777, 0.0675 0.4481 1.1777, 0.0696 0.4501 1.1777, 0.0712 0.4524 1.1777, 0.0714 0.4524 1.1777, 0.0714 0.4468 1.1777, 0.0778 0.4468 1.1777, 0.0778 0.4702 1.1777, 0.0773 0.4749 1.1777, 0.0763 0.4779 1.1777, 0.075 0.48 1.1777, 0.0733 0.4816 1.1777, 0.0712 0.4829 1.1777, 0.0686 0.4837 1.1777, 0.0646 0.4841 1.1777, 0.0581 0.4833 1.1777, 0.0534 0.4815 1.1777, 0.052 0.4807 1.1777, 0.052 0.4745 1.1777, 0.0558 0.4769 1.1777, 0.0598 0.4784 1.1777, 0.0686 0.4541 1.1777, 0.0678 0.4534 1.1777, 0.066 0.4521 1.1777, 0.0641 0.4514 1.1777, 0.0617 0.4512 1.1777, 0.0714 0.4616 1.1777, 0.0714 0.4612 1.1777, 0.071 0.4583 1.1777, 0.07 0.456 1.1777, 0.0714 0.4651 1.1777, 0.0628 0.4639 1.1777, 0.0567 0.4617 1.1777, 0.0574 0.4623 1.1777, 0.0589 0.463 1.1777, 0.055 0.4571 1.1777, 0.055 0.4581 1.1777, 0.0553 0.4595 1.1777, 0.0559 0.4607 1.1777, 0.0568 0.4528 1.1777, 0.0563 0.4534 1.1777, 0.0555 0.4544 1.1777, 0.0551 0.4556 1.1777, 0.0595 0.4514 1.1777, 0.0581 0.4519 1.1777
            ]
        }
        coordIndex [
            0,1,2,-1,0,2,3,-1,3,2,4,-1,3,4,5,-1,6,5,7,-1,7,5,4,-1,8,6,9,-1,9,6,7,-1,8,9,10,-1,10,9,11,-1,10,11,12,-1,13,10,14,-1,14,10,12,-1,13,14,15,-1,15,14,16,-1,15,16,17,-1,18,19,20,-1,20,19,15,-1,20,15,17,-1,18,21,19,-1,19,21,22,-1,21,23,22,-1,22,23,24,-1,22,24,25,-1,25,24,26,-1,25,26,27,-1,27,26,28,-1,27,28,29,-1,29,28,30,-1,29,30,31,-1,31,30,32,-1,31,32,33,-1,33,32,34,-1,33,34,35,-1,36,35,37,-1,37,35,34,-1,36,37,38,-1,36,38,39,-1,39,38,40,-1,39,40,41,-1,41,40,42,-1,41,42,43,-1,43,42,44,-1,43,44,45,-1,44,46,45,-1,45,46,47,-1,45,47,48,-1,48,47,49,-1,48,49,50,-1,50,49,51,-1,50,51,52,-1,52,51,53,-1,52,53,54,-1,55,56,57,-1,57,56,54,-1,57,54,53,-1,58,56,59,-1,59,56,55,-1,0,58,1,-1,1,58,59,-1,3,5,54,-1,56,58,54,-1,54,58,0,-1,54,0,3,-1,10,13,8,-1,8,13,15,-1,8,15,6,-1,35,36,33,-1,33,36,39,-1,33,39,31,-1,31,39,41,-1,31,41,29,-1,29,41,43,-1,29,43,27,-1,27,43,45,-1,27,45,25,-1,5,6,54,-1,54,6,15,-1,54,15,52,-1,15,19,52,-1,52,19,22,-1,52,22,50,-1,50,22,25,-1,50,25,48,-1,48,25,45,-1,60,61,62,-1,62,61,63,-1,61,64,63,-1,63,64,65,-1,63,65,66,-1,66,65,67,-1,66,67,68,-1,68,67,69,-1,68,69,70,-1,70,69,71,-1,70,71,72,-1,72,71,73,-1,72,73,74,-1,74,73,75,-1,74,75,76,-1,76,75,77,-1,76,77,78,-1,78,77,79,-1,78,79,80,-1,80,79,81,-1,80,81,82,-1,82,81,83,-1,82,83,84,-1,84,83,85,-1,84,85,86,-1,86,85,87,-1,86,87,88,-1,88,87,89,-1,88,89,90,-1,90,89,91,-1,90,91,92,-1,92,91,93,-1,92,93,94,-1,94,93,95,-1,94,95,96,-1,96,95,97,-1,96,97,98,-1,98,97,99,-1,98,99,100,-1,100,99,101,-1,100,101,102,-1,102,101,103,-1,102,103,104,-1,104,103,105,-1,104,105,106,-1,106,105,107,-1,106,107,108,-1,108,107,109,-1,108,109,110,-1,110,109,111,-1,110,111,112,-1,112,111,113,-1,112,113,114,-1,114,113,115,-1,114,115,116,-1,116,115,117,-1,116,117,118,-1,118,117,119,-1,118,119,120,-1,121,120,122,-1,122,120,119,-1,121,122,123,-1,121,123,124,-1,124,123,125,-1,124,125,126,-1,126,125,127,-1,126,127,128,-1,128,127,129,-1,128,129,130,-1,130,129,131,-1,130,131,132,-1,131,133,132,-1,132,133,134,-1,133,135,134,-1,134,135,136,-1,134,136,137,-1,137,136,138,-1,137,138,139,-1,139,138,140,-1,139,140,141,-1,141,140,142,-1,141,142,143,-1,143,142,144,-1,143,144,145,-1,145,144,146,-1,145,146,147,-1,148,149,150,-1,147,146,151,-1,147,151,152,-1,152,151,153,-1,152,153,150,-1,150,153,154,-1,150,154,148,-1,149,148,155,-1,149,155,156,-1,156,155,157,-1,156,157,158,-1,158,157,159,-1,158,159,160,-1,160,159,161,-1,160,161,162,-1,162,161,163,-1,162,163,164,-1,164,163,165,-1,164,165,166,-1,166,165,167,-1,166,167,168,-1,168,167,169,-1,168,169,170,-1,170,169,171,-1,170,171,172,-1,172,171,173,-1,172,173,174,-1,174,173,175,-1,174,175,176,-1,176,175,177,-1,176,177,178,-1,178,177,179,-1,178,179,180,-1,180,179,181,-1,180,181,182,-1,183,184,185,-1,182,181,186,-1,182,186,187,-1,187,186,188,-1,187,188,185,-1,185,188,189,-1,185,189,183,-1,190,184,191,-1,191,184,183,-1,191,192,190,-1,190,192,193,-1,60,62,194,-1,194,62,193,-1,194,193,195,-1,195,193,192,-1,106,108,130,-1,130,108,128,-1,156,88,149,-1,149,88,90,-1,66,68,172,-1,172,68,70,-1,172,70,170,-1,170,70,72,-1,170,72,168,-1,168,72,74,-1,168,74,166,-1,166,74,76,-1,166,76,164,-1,164,76,78,-1,164,78,162,-1,162,78,80,-1,162,80,160,-1,160,80,82,-1,160,82,158,-1,158,82,84,-1,158,84,156,-1,156,84,86,-1,156,86,88,-1,62,182,193,-1,193,182,187,-1,193,187,190,-1,190,187,185,-1,190,185,184,-1,108,110,128,-1,128,110,112,-1,128,112,126,-1,126,112,114,-1,126,114,124,-1,124,114,116,-1,124,116,121,-1,121,116,118,-1,121,118,120,-1,172,174,66,-1,66,174,176,-1,66,176,63,-1,63,176,178,-1,63,178,62,-1,62,178,180,-1,62,180,182,-1,130,132,106,-1,106,132,134,-1,106,134,104,-1,104,134,137,-1,104,137,102,-1,102,137,139,-1,102,139,100,-1,100,139,141,-1,100,141,98,-1,98,141,143,-1,98,143,96,-1,96,143,145,-1,96,145,94,-1,94,145,147,-1,94,147,92,-1,92,147,152,-1,92,152,90,-1,90,152,150,-1,90,150,149,-1,196,197,198,-1,198,197,199,-1,200,201,199,-1,199,201,202,-1,203,204,205,-1,205,204,206,-1,207,208,209,-1,202,210,199,-1,199,210,211,-1,199,211,198,-1,198,211,212,-1,198,212,203,-1,203,212,213,-1,203,213,204,-1,214,215,216,-1,216,215,217,-1,216,217,218,-1,218,217,219,-1,218,219,220,-1,220,219,221,-1,220,221,222,-1,222,221,223,-1,222,223,224,-1,224,223,225,-1,224,225,226,-1,226,225,227,-1,226,227,228,-1,228,227,229,-1,228,229,230,-1,230,229,231,-1,230,231,232,-1,232,231,233,-1,232,233,199,-1,199,233,234,-1,199,234,200,-1,209,208,235,-1,235,208,236,-1,235,236,237,-1,238,239,234,-1,234,239,240,-1,234,240,200,-1,241,242,243,-1,243,242,244,-1,243,244,245,-1,245,244,246,-1,245,246,247,-1,247,246,248,-1,247,248,249,-1,249,248,250,-1,249,250,251,-1,251,250,252,-1,251,252,206,-1,206,252,253,-1,206,253,205,-1,209,254,207,-1,207,254,239,-1,207,239,255,-1,255,239,238,-1,236,256,237,-1,237,256,257,-1,237,257,258,-1,258,257,259,-1,258,259,260,-1,260,259,261,-1,260,261,262,-1,262,261,263,-1,262,263,241,-1,241,263,264,-1,241,264,242,-1,221,265,266,-1,221,266,223,-1,223,266,267,-1,223,267,225,-1,225,267,268,-1,225,268,227,-1,227,268,269,-1,227,269,229,-1,229,269,270,-1,229,270,231,-1,231,270,271,-1,231,271,233,-1,233,271,272,-1,233,272,234,-1,238,234,273,-1,273,234,272,-1,238,273,274,-1,238,274,255,-1,255,274,275,-1,255,275,207,-1,207,275,276,-1,207,276,208,-1,208,276,277,-1,208,277,236,-1,236,277,278,-1,236,278,256,-1,256,278,279,-1,256,279,257,-1,257,279,280,-1,257,280,259,-1,259,280,281,-1,259,281,261,-1,261,281,282,-1,261,282,263,-1,263,282,283,-1,263,283,264,-1,264,283,284,-1,264,284,242,-1,285,248,286,-1,286,248,246,-1,286,246,287,-1,287,246,244,-1,287,244,288,-1,288,244,242,-1,288,242,284,-1,285,289,248,-1,248,289,250,-1,289,290,250,-1,250,290,291,-1,250,291,252,-1,252,291,292,-1,252,292,253,-1,253,292,293,-1,253,293,205,-1,205,293,294,-1,205,294,203,-1,198,203,295,-1,295,203,294,-1,196,198,296,-1,296,198,295,-1,197,196,297,-1,297,196,296,-1,199,197,298,-1,298,197,297,-1,199,298,299,-1,199,299,232,-1,232,299,300,-1,232,300,230,-1,230,300,301,-1,230,301,228,-1,228,301,302,-1,228,302,226,-1,226,302,303,-1,226,303,224,-1,224,303,304,-1,224,304,222,-1,222,304,305,-1,222,305,220,-1,220,305,306,-1,220,306,218,-1,218,306,307,-1,218,307,216,-1,216,307,308,-1,216,308,214,-1,215,214,309,-1,309,214,308,-1,215,309,310,-1,215,310,217,-1,217,310,311,-1,217,311,219,-1,219,311,265,-1,219,265,221,-1,213,312,313,-1,213,313,204,-1,204,313,314,-1,204,314,206,-1,206,314,315,-1,206,315,251,-1,251,315,316,-1,251,316,249,-1,202,317,318,-1,202,318,210,-1,210,318,319,-1,210,319,211,-1,211,319,320,-1,211,320,212,-1,212,320,312,-1,212,312,213,-1,202,201,317,-1,317,201,321,-1,201,200,321,-1,321,200,322,-1,254,323,324,-1,254,324,239,-1,239,324,325,-1,239,325,240,-1,240,325,322,-1,240,322,200,-1,258,326,327,-1,258,327,237,-1,237,327,328,-1,237,328,235,-1,235,328,329,-1,235,329,209,-1,209,329,323,-1,209,323,254,-1,243,330,331,-1,243,331,241,-1,241,331,332,-1,241,332,262,-1,262,332,333,-1,262,333,260,-1,260,333,326,-1,260,326,258,-1,249,316,334,-1,249,334,247,-1,247,334,335,-1,247,335,245,-1,245,335,330,-1,245,330,243,-1,
        ]
    }
}
Shape{
    appearance Appearance {
        material  Material 	{
            diffuseColor 0.8549019607843137 0.8549019607843137 0.8549019607843137
            specularColor 0.2549019607843137 0.2549019607843137 0.2549019607843137
            ambientIntensity 0.8549
            transparency 0.0
            shininess 0.5
        }
    }
    geometry IndexedFaceSet {
        ccw TRUE
        solid FALSE
        coord DEF co Coordinate {
            point [
                0.0714 0.4612 1.1777, 0.0714 0.4616 1.1777, 0.0567 0.4617 1.1777, 0.0714 0.4651 1.1777, 0.0628 0.4639 1.1777, 0.0589 0.463 1.1777, 0.0574 0.4623 1.1777, 0.071 0.4583 1.1777, 0.0559 0.4607 1.1777, 0.07 0.456 1.1777, 0.0563 0.4534 1.1777, 0.0568 0.4528 1.1777, 0.0678 0.4534 1.1777, 0.0555 0.4544 1.1777, 0.066 0.4521 1.1777, 0.0641 0.4514 1.1777, 0.0617 0.4512 1.1777, 0.0553 0.4595 1.1777, 0.055 0.4581 1.1777, 0.0686 0.4541 1.1777, 0.055 0.4571 1.1777, 0.0551 0.4556 1.1777, 0.0581 0.4519 1.1777, 0.0595 0.4514 1.1777
            ]
        }
        coordIndex [
            0,1,2,-1,1,3,4,-1,4,5,1,-1,1,5,6,-1,1,6,2,-1,0,2,7,-1,7,2,8,-1,7,8,9,-1,10,11,12,-1,10,12,13,-1,14,12,15,-1,15,12,16,-1,8,17,9,-1,9,17,18,-1,9,18,19,-1,19,18,20,-1,19,20,12,-1,12,20,21,-1,12,21,13,-1,11,22,12,-1,12,22,23,-1,12,23,16,-1,
        ]
    }
}
Shape{
    appearance Appearance {
        material  Material 	{
            diffuseColor 0.0 0.0 0.0
            specularColor 0.0 0.0 0.0
            ambientIntensity 0.0
            transparency 0.0
            shininess 0.5
        }
    }
    geometry IndexedFaceSet {
        ccw TRUE
        solid FALSE
        coord DEF co Coordinate {
            point [
                -0.2107 0.4395 1.1816, -0.2053 0.4329 1.1816, -0.2139 0.4716 1.1816, -0.2202 0.5347 1.1816, -0.2121 0.539 1.1816, -0.2141 0.5614 1.1816, -0.1914 0.5624 1.1816, -0.1802 0.5359 1.1816, -0.1746 0.5474 1.1816, -0.1435 0.4589 1.1816, -0.1435 0.4626 1.1816, -0.1743 0.4714 1.1816, -0.1777 0.4725 1.1816, -0.2218 0.4765 1.1816, -0.2189 0.4487 1.1816, -0.2143 0.4473 1.1816, -0.1998 0.5631 1.1816, -0.1688 0.4671 1.1816, -0.1671 0.4641 1.1816, -0.1437 0.4552 1.1816, -0.0927 0.4894 1.1816, -0.1039 0.5087 1.1816, -0.1526 0.4833 1.1816, -0.1802 0.4727 1.1816, -0.1836 0.4723 1.1816, -0.1885 0.4945 1.1816, -0.1868 0.4711 1.1816, -0.1965 0.4915 1.1816, -0.1896 0.4691 1.1816, -0.2039 0.4863 1.1816, -0.1914 0.4672 1.1816, -0.2099 0.4795 1.1816, -0.1932 0.4641 1.1816, -0.1942 0.4607 1.1816, -0.1666 0.4932 1.1816, -0.1754 0.4954 1.1816, -0.1798 0.4956 1.1816, -0.1713 0.4696 1.1816, -0.1897 0.4481 1.1816, -0.1868 0.4461 1.1816, -0.1982 0.4275 1.1816, -0.1835 0.4448 1.1816, -0.0807 0.5254 1.1816, -0.0778 0.5254 1.1816, -0.0629 0.545 1.1816, -0.0709 0.5245 1.1816, -0.0611 0.5444 1.1816, -0.0645 0.5221 1.1816, -0.0503 0.539 1.1816, -0.0404 0.5307 1.1816, -0.184 0.5711 1.1816, -0.1665 0.5571 1.1816, -0.1754 0.5784 1.1816, -0.1567 0.5642 1.1816, -0.1651 0.5847 1.1816, -0.2032 0.5412 1.1816, -0.1994 0.5414 1.1816, -0.1956 0.5629 1.1816, -0.1909 0.5403 1.1816, -0.1828 0.5373 1.1816, -0.1589 0.489 1.1816, -0.0404 0.4629 1.1816, -0.0573 0.4773 1.1816, -0.0503 0.4546 1.1816, -0.0627 0.473 1.1816, -0.0613 0.4492 1.1816, -0.0691 0.47 1.1816, -0.0734 0.4466 1.1816, -0.0756 0.4687 1.1816, -0.0948 0.4466 1.1816, -0.0919 0.4687 1.1816, -0.0969 0.4469 1.1816, -0.192 0.4508 1.1816, -0.1935 0.4538 1.1816, -0.1943 0.4571 1.1816, -0.0589 0.5182 1.1816, -0.0547 0.5135 1.1816, -0.033 0.5204 1.1816, -0.0513 0.5072 1.1816, -0.0286 0.5093 1.1816, -0.0496 0.5002 1.1816, -0.0269 0.4974 1.1816, -0.0495 0.4971 1.1816, -0.0286 0.4845 1.1816, -0.0503 0.49 1.1816, -0.0332 0.473 1.1816, -0.0528 0.4835 1.1816, -0.0568 0.4779 1.1816, -0.0825 0.5737 1.1816, -0.0967 0.557 1.1816, -0.0699 0.5589 1.1816, -0.0885 0.5472 1.1816, -0.0829 0.5355 1.1816, -0.2346 0.5138 1.1816, -0.2585 0.5078 1.1816, -0.2357 0.5051 1.1816, -0.2586 0.5043 1.1816, -0.2353 0.4995 1.1816, -0.2568 0.4901 1.1816, -0.2327 0.4906 1.1816, -0.2516 0.4766 1.1816, -0.2284 0.4832 1.1816, -0.2433 0.4648 1.1816, -0.232 0.4551 1.1816, -0.1482 0.5907 1.1816, -0.1449 0.5691 1.1816, -0.1319 0.5926 1.1816, -0.1315 0.5708 1.1816, -0.1146 0.5905 1.1816, -0.1192 0.5693 1.1816, -0.0966 0.5835 1.1816, -0.1078 0.5649 1.1816, -0.0976 0.5578 1.1816, -0.2275 0.5562 1.1816, -0.2391 0.548 1.1816, -0.2265 0.5292 1.1816, -0.2415 0.5457 1.1816, -0.2315 0.5219 1.1816, -0.2503 0.5345 1.1816, -0.256 0.5215 1.1816, -0.1898 0.424 1.1816, -0.1812 0.4227 1.1816, -0.1802 0.4444 1.1816, -0.1798 0.4226 1.1816, -0.1767 0.4448 1.1816, -0.171 0.4237 1.1816, -0.1735 0.4461 1.1816, -0.1629 0.4268 1.1816, -0.1708 0.448 1.1816, -0.1557 0.4319 1.1816, -0.1684 0.4506 1.1816, -0.1501 0.4381 1.1816, -0.1668 0.4538 1.1816, -0.1458 0.4462 1.1816, -0.1661 0.4573 1.1816, -0.1662 0.4608 1.1816, -0.0938 0.4691 1.1816, -0.1025 0.4504 1.1816, -0.1016 0.4495 1.1816, -0.0927 0.4688 1.1816, -0.0993 0.4479 1.1816, -0.1054 0.4579 1.1816, -0.105 0.4551 1.1816, -0.1041 0.4527 1.1816, -0.0969 0.4687 1.1816, -0.0994 0.4678 1.1816, -0.1053 0.4593 1.1816, -0.1017 0.4662 1.1816, -0.1032 0.4645 1.1816, -0.1045 0.462 1.1816, -0.0941 0.4691 1.1816, -0.0269 0.4974 1.1777, -0.0286 0.5093 1.1777, -0.0298 0.5124 1.1777, -0.033 0.5204 1.1777, -0.0404 0.5307 1.1777, -0.0503 0.539 1.1777, -0.0611 0.5444 1.1777, -0.0629 0.545 1.1777, -0.0699 0.5589 1.1777, -0.0825 0.5737 1.1777, -0.0906 0.5793 1.1777, -0.0966 0.5835 1.1777, -0.1146 0.5905 1.1777, -0.1319 0.5926 1.1777, -0.1754 0.5784 1.1777, -0.174 0.5793 1.1777, -0.1651 0.5847 1.1777, -0.1482 0.5907 1.1777, -0.184 0.5711 1.1777, -0.1914 0.5624 1.1777, -0.1956 0.5629 1.1777, -0.1998 0.5631 1.1777, -0.2141 0.5614 1.1777, -0.2275 0.5562 1.1777, -0.2391 0.548 1.1777, -0.2415 0.5457 1.1777, -0.256 0.5215 1.1777, -0.2503 0.5345 1.1777, -0.2577 0.5124 1.1777, -0.2585 0.5078 1.1777, -0.2586 0.5043 1.1777, -0.2568 0.4901 1.1777, -0.2516 0.4766 1.1777, -0.2433 0.4648 1.1777, -0.232 0.4551 1.1777, -0.2189 0.4487 1.1777, -0.2143 0.4473 1.1777, -0.2138 0.4463 1.1777, -0.2107 0.4395 1.1777, -0.2053 0.4329 1.1777, -0.1982 0.4275 1.1777, -0.1948 0.4261 1.1777, -0.1898 0.424 1.1777, -0.1812 0.4227 1.1777, -0.1798 0.4226 1.1777, -0.1435 0.4589 1.1777, -0.171 0.4237 1.1777, -0.1648 0.4261 1.1777, -0.1629 0.4268 1.1777, -0.1557 0.4319 1.1777, -0.1501 0.4381 1.1777, -0.1458 0.4462 1.1777, -0.1458 0.4463 1.1777, -0.1437 0.4552 1.1777, -0.1435 0.4626 1.1777, -0.0927 0.4894 1.1777, -0.1039 0.5087 1.1777, -0.1526 0.4833 1.1777, -0.1589 0.489 1.1777, -0.1666 0.4932 1.1777, -0.1754 0.4954 1.1777, -0.1798 0.4956 1.1777, -0.1885 0.4945 1.1777, -0.1965 0.4915 1.1777, -0.2039 0.4863 1.1777, -0.2099 0.4795 1.1777, -0.2139 0.4716 1.1777, -0.2218 0.4765 1.1777, -0.2284 0.4832 1.1777, -0.2327 0.4906 1.1777, -0.2353 0.4995 1.1777, -0.2357 0.5051 1.1777, -0.2348 0.5124 1.1777, -0.2346 0.5138 1.1777, -0.2315 0.5219 1.1777, -0.2265 0.5292 1.1777, -0.2202 0.5347 1.1777, -0.2121 0.539 1.1777, -0.2032 0.5412 1.1777, -0.1994 0.5414 1.1777, -0.1909 0.5403 1.1777, -0.1828 0.5373 1.1777, -0.1802 0.5359 1.1777, -0.1746 0.5474 1.1777, -0.1665 0.5571 1.1777, -0.1567 0.5642 1.1777, -0.1449 0.5691 1.1777, -0.1315 0.5708 1.1777, -0.1192 0.5693 1.1777, -0.1078 0.5649 1.1777, -0.0976 0.5578 1.1777, -0.0967 0.557 1.1777, -0.0885 0.5472 1.1777, -0.0829 0.5355 1.1777, -0.0807 0.5254 1.1777, -0.0778 0.5254 1.1777, -0.0709 0.5245 1.1777, -0.0645 0.5221 1.1777, -0.0589 0.5182 1.1777, -0.0547 0.5135 1.1777, -0.0541 0.5124 1.1777, -0.0513 0.5072 1.1777, -0.0496 0.5002 1.1777, -0.0495 0.4971 1.1777, -0.0503 0.49 1.1777, -0.0528 0.4835 1.1777, -0.0568 0.4779 1.1777, -0.0573 0.4773 1.1777, -0.0627 0.473 1.1777, -0.0691 0.47 1.1777, -0.0756 0.4687 1.1777, -0.0919 0.4687 1.1777, -0.0927 0.4688 1.1777, -0.0938 0.4691 1.1777, -0.0941 0.4691 1.1777, -0.0969 0.4687 1.1777, -0.0994 0.4678 1.1777, -0.1017 0.4662 1.1777, -0.1032 0.4645 1.1777, -0.1045 0.462 1.1777, -0.1053 0.4593 1.1777, -0.1054 0.4579 1.1777, -0.105 0.4551 1.1777, -0.1041 0.4527 1.1777, -0.1025 0.4504 1.1777, -0.1016 0.4495 1.1777, -0.0993 0.4479 1.1777, -0.0969 0.4469 1.1777, -0.0948 0.4466 1.1777, -0.0734 0.4466 1.1777, -0.0613 0.4492 1.1777, -0.0503 0.4546 1.1777, -0.0404 0.4629 1.1777, -0.0332 0.473 1.1777, -0.0286 0.4845 1.1777, -0.1802 0.4727 1.1777, -0.1777 0.4725 1.1777, -0.1743 0.4714 1.1777, -0.1713 0.4696 1.1777, -0.1688 0.4671 1.1777, -0.1671 0.4641 1.1777, -0.1662 0.4608 1.1777, -0.1661 0.4573 1.1777, -0.1668 0.4538 1.1777, -0.1684 0.4506 1.1777, -0.1708 0.448 1.1777, -0.1735 0.4461 1.1777, -0.1767 0.4448 1.1777, -0.1802 0.4444 1.1777, -0.1835 0.4448 1.1777, -0.1868 0.4461 1.1777, -0.1897 0.4481 1.1777, -0.192 0.4508 1.1777, -0.1935 0.4538 1.1777, -0.1943 0.4571 1.1777, -0.1942 0.4607 1.1777, -0.1932 0.4641 1.1777, -0.1914 0.4672 1.1777, -0.1896 0.4691 1.1777, -0.1868 0.4711 1.1777, -0.1836 0.4723 1.1777
            ]
        }
        coordIndex [
            0,1,2,-1,3,4,5,-1,6,7,8,-1,9,10,11,-1,11,10,12,-1,13,14,2,-1,2,14,15,-1,2,15,0,-1,5,4,16,-1,17,18,19,-1,20,21,10,-1,10,21,22,-1,10,22,12,-1,12,22,23,-1,24,25,26,-1,26,25,27,-1,26,27,28,-1,28,27,29,-1,28,29,30,-1,30,29,31,-1,30,31,32,-1,32,31,2,-1,32,2,33,-1,34,35,24,-1,24,35,36,-1,24,36,25,-1,9,11,19,-1,19,11,37,-1,19,37,17,-1,38,1,39,-1,39,1,40,-1,39,40,41,-1,42,43,44,-1,44,43,45,-1,44,45,46,-1,46,45,47,-1,46,47,48,-1,48,47,49,-1,6,8,50,-1,50,8,51,-1,50,51,52,-1,52,51,53,-1,52,53,54,-1,4,55,16,-1,16,55,56,-1,16,56,57,-1,57,56,58,-1,57,58,6,-1,6,58,59,-1,6,59,7,-1,23,22,24,-1,24,22,60,-1,24,60,34,-1,61,62,63,-1,63,62,64,-1,63,64,65,-1,65,64,66,-1,65,66,67,-1,67,66,68,-1,67,68,69,-1,69,68,70,-1,69,70,71,-1,38,72,1,-1,1,72,73,-1,1,73,2,-1,2,73,74,-1,2,74,33,-1,47,75,49,-1,49,75,76,-1,49,76,77,-1,77,76,78,-1,77,78,79,-1,79,78,80,-1,79,80,81,-1,81,80,82,-1,81,82,83,-1,83,82,84,-1,83,84,85,-1,85,84,86,-1,85,86,61,-1,61,86,87,-1,61,87,62,-1,88,89,90,-1,90,89,91,-1,90,91,44,-1,44,91,92,-1,44,92,42,-1,93,94,95,-1,95,94,96,-1,95,96,97,-1,97,96,98,-1,97,98,99,-1,99,98,100,-1,99,100,101,-1,101,100,102,-1,101,102,13,-1,13,102,103,-1,13,103,14,-1,54,53,104,-1,104,53,105,-1,104,105,106,-1,106,105,107,-1,106,107,108,-1,108,107,109,-1,108,109,110,-1,110,109,111,-1,110,111,88,-1,88,111,112,-1,88,112,89,-1,5,113,3,-1,3,113,114,-1,3,114,115,-1,115,114,116,-1,115,116,117,-1,117,116,118,-1,117,118,93,-1,93,118,119,-1,93,119,94,-1,40,120,41,-1,41,120,121,-1,41,121,122,-1,122,121,123,-1,122,123,124,-1,124,123,125,-1,124,125,126,-1,126,125,127,-1,126,127,128,-1,128,127,129,-1,128,129,130,-1,130,129,131,-1,130,131,132,-1,132,131,133,-1,132,133,134,-1,134,133,19,-1,134,19,135,-1,135,19,18,-1,136,137,138,-1,70,139,71,-1,71,139,136,-1,71,136,140,-1,140,136,138,-1,141,142,136,-1,136,142,143,-1,136,143,137,-1,144,145,146,-1,145,147,146,-1,146,147,148,-1,146,148,149,-1,141,136,146,-1,146,136,150,-1,146,150,144,-1,81,151,152,-1,81,152,79,-1,79,152,153,-1,79,153,77,-1,153,154,77,-1,77,154,155,-1,77,155,49,-1,49,155,156,-1,49,156,48,-1,48,156,157,-1,48,157,46,-1,46,157,158,-1,46,158,44,-1,44,158,159,-1,44,159,90,-1,90,159,160,-1,90,160,88,-1,88,160,110,-1,110,160,161,-1,161,162,110,-1,110,162,163,-1,110,163,108,-1,108,163,164,-1,108,164,106,-1,165,52,166,-1,166,52,54,-1,166,54,167,-1,167,54,104,-1,167,104,168,-1,168,104,106,-1,168,106,164,-1,52,165,169,-1,52,169,50,-1,50,169,170,-1,50,170,6,-1,6,170,171,-1,6,171,57,-1,57,171,172,-1,57,172,16,-1,16,172,173,-1,16,173,5,-1,5,173,174,-1,5,174,113,-1,113,174,175,-1,113,175,114,-1,114,175,176,-1,114,176,116,-1,177,118,178,-1,178,118,116,-1,178,116,176,-1,179,94,177,-1,177,94,119,-1,177,119,118,-1,179,180,94,-1,94,180,181,-1,94,181,96,-1,96,181,182,-1,96,182,98,-1,98,182,183,-1,98,183,100,-1,100,183,184,-1,100,184,102,-1,102,184,185,-1,102,185,103,-1,103,185,186,-1,103,186,14,-1,14,186,187,-1,14,187,15,-1,15,187,188,-1,15,188,0,-1,188,189,0,-1,0,189,190,-1,0,190,1,-1,1,190,191,-1,1,191,40,-1,40,191,192,-1,40,192,120,-1,192,193,120,-1,120,193,194,-1,120,194,121,-1,121,194,195,-1,121,195,123,-1,196,9,19,-1,123,195,197,-1,123,197,125,-1,125,197,198,-1,125,198,127,-1,198,199,127,-1,127,199,200,-1,127,200,129,-1,129,200,201,-1,129,201,131,-1,131,201,202,-1,131,202,133,-1,133,202,203,-1,133,203,19,-1,19,203,204,-1,19,204,196,-1,10,9,205,-1,205,9,196,-1,20,10,206,-1,206,10,205,-1,21,20,207,-1,207,20,206,-1,22,21,208,-1,208,21,207,-1,22,208,209,-1,22,209,60,-1,60,209,210,-1,60,210,34,-1,34,210,211,-1,34,211,35,-1,35,211,212,-1,35,212,36,-1,36,212,213,-1,36,213,25,-1,25,213,214,-1,25,214,27,-1,27,214,215,-1,27,215,29,-1,29,215,216,-1,29,216,31,-1,31,216,217,-1,31,217,2,-1,2,217,218,-1,2,218,13,-1,13,218,219,-1,13,219,101,-1,101,219,220,-1,101,220,99,-1,99,220,221,-1,99,221,97,-1,97,221,222,-1,97,222,95,-1,222,223,95,-1,95,223,93,-1,223,224,93,-1,93,224,225,-1,93,225,117,-1,117,225,226,-1,117,226,115,-1,115,226,227,-1,115,227,3,-1,3,227,228,-1,3,228,4,-1,4,228,229,-1,4,229,55,-1,55,229,230,-1,55,230,56,-1,56,230,231,-1,56,231,58,-1,58,231,232,-1,58,232,59,-1,59,232,233,-1,59,233,7,-1,7,233,234,-1,7,234,8,-1,8,234,235,-1,8,235,51,-1,51,235,236,-1,51,236,53,-1,53,236,237,-1,53,237,105,-1,105,237,238,-1,105,238,107,-1,107,238,239,-1,107,239,109,-1,109,239,240,-1,109,240,111,-1,111,240,241,-1,111,241,112,-1,112,241,242,-1,112,242,89,-1,89,242,243,-1,89,243,91,-1,91,243,244,-1,91,244,92,-1,92,244,245,-1,92,245,42,-1,43,42,246,-1,246,42,245,-1,43,246,247,-1,43,247,45,-1,45,247,248,-1,45,248,47,-1,47,248,249,-1,47,249,75,-1,75,249,250,-1,75,250,76,-1,76,250,251,-1,76,251,78,-1,251,252,78,-1,78,252,253,-1,78,253,80,-1,80,253,254,-1,80,254,82,-1,82,254,255,-1,82,255,84,-1,84,255,256,-1,84,256,86,-1,86,256,257,-1,86,257,87,-1,87,257,258,-1,87,258,62,-1,62,258,259,-1,62,259,64,-1,64,259,260,-1,64,260,66,-1,66,260,261,-1,66,261,68,-1,70,68,262,-1,262,68,261,-1,70,262,263,-1,70,263,139,-1,139,263,264,-1,139,264,136,-1,136,264,265,-1,136,265,150,-1,150,265,266,-1,150,266,144,-1,144,266,267,-1,144,267,145,-1,145,267,268,-1,145,268,147,-1,147,268,269,-1,147,269,148,-1,148,269,270,-1,148,270,149,-1,149,270,271,-1,149,271,146,-1,146,271,272,-1,146,272,141,-1,141,272,273,-1,141,273,142,-1,142,273,274,-1,142,274,143,-1,143,274,275,-1,143,275,137,-1,137,275,276,-1,137,276,138,-1,138,276,277,-1,138,277,140,-1,140,277,278,-1,140,278,71,-1,71,278,279,-1,71,279,69,-1,67,69,280,-1,280,69,279,-1,67,280,281,-1,67,281,65,-1,65,281,282,-1,65,282,63,-1,63,282,283,-1,63,283,61,-1,61,283,284,-1,61,284,85,-1,85,284,285,-1,85,285,83,-1,83,285,151,-1,83,151,81,-1,23,286,287,-1,23,287,12,-1,12,287,288,-1,12,288,11,-1,11,288,289,-1,11,289,37,-1,37,289,290,-1,37,290,17,-1,17,290,291,-1,17,291,18,-1,18,291,292,-1,18,292,135,-1,135,292,293,-1,135,293,134,-1,134,293,294,-1,134,294,132,-1,132,294,295,-1,132,295,130,-1,130,295,296,-1,130,296,128,-1,128,296,297,-1,128,297,126,-1,126,297,298,-1,126,298,124,-1,124,298,299,-1,124,299,122,-1,122,299,300,-1,122,300,41,-1,41,300,301,-1,41,301,39,-1,39,301,302,-1,39,302,38,-1,38,302,303,-1,38,303,72,-1,72,303,304,-1,72,304,73,-1,73,304,305,-1,73,305,74,-1,74,305,306,-1,74,306,33,-1,33,306,307,-1,33,307,32,-1,32,307,308,-1,32,308,30,-1,30,308,309,-1,30,309,28,-1,28,309,310,-1,28,310,26,-1,26,310,311,-1,26,311,24,-1,24,311,286,-1,24,286,23,-1,
        ]
    }
}
Shape{
    appearance Appearance {
        material  Material 	{
            diffuseColor 0.8549019607843137 0.8549019607843137 0.8549019607843137
            specularColor 0.2549019607843137 0.2549019607843137 0.2549019607843137
            ambientIntensity 0.8549
            transparency 0.0
            shininess 0.5
        }
    }
    geometry IndexedFaceSet {
        ccw TRUE
        solid FALSE
        coord DEF co Coordinate {
            point [
                -0.1802 0.4444 1.1777, -0.1896 0.4691 1.1777, -0.1914 0.4672 1.1777, -0.1802 0.4727 1.1777, -0.1777 0.4725 1.1777, -0.1767 0.4448 1.1777, -0.1836 0.4723 1.1777, -0.1868 0.4711 1.1777, -0.1708 0.448 1.1777, -0.1688 0.4671 1.1777, -0.1713 0.4696 1.1777, -0.1935 0.4538 1.1777, -0.192 0.4508 1.1777, -0.1897 0.4481 1.1777, -0.1735 0.4461 1.1777, -0.1743 0.4714 1.1777, -0.1932 0.4641 1.1777, -0.1942 0.4607 1.1777, -0.1943 0.4571 1.1777, -0.1868 0.4461 1.1777, -0.1835 0.4448 1.1777, -0.1668 0.4538 1.1777, -0.1661 0.4573 1.1777, -0.1684 0.4506 1.1777, -0.1662 0.4608 1.1777, -0.1671 0.4641 1.1777
            ]
        }
        coordIndex [
            0,1,2,-1,3,0,4,-1,4,0,5,-1,3,6,0,-1,0,6,7,-1,0,7,1,-1,8,9,10,-1,11,12,2,-1,2,12,13,-1,5,14,4,-1,4,14,8,-1,4,8,15,-1,15,8,10,-1,16,17,2,-1,2,17,18,-1,2,18,11,-1,13,19,2,-1,2,19,20,-1,2,20,0,-1,21,22,23,-1,23,22,24,-1,23,24,8,-1,8,24,25,-1,8,25,9,-1,
        ]
    }
}
Shape{
    appearance Appearance {
        material  Material 	{
            diffuseColor 0.0 0.0 0.0
            specularColor 0.0 0.0 0.0
            ambientIntensity 0.0
            transparency 0.0
            shininess 0.5
        }
    }
    geometry IndexedFaceSet {
        ccw TRUE
        solid FALSE
        coord DEF co Coordinate {
            point [
                0.1633 0.5349 1.1816, 0.1581 0.5384 1.1816, 0.158 0.5311 1.1816, 0.1548 0.5361 1.1816, 0.1522 0.5288 1.1816, 0.1505 0.5345 1.1816, 0.1435 0.5278 1.1816, 0.1435 0.5336 1.1816, 0.1295 0.5278 1.1816, 0.1361 0.5336 1.1816, 0.1295 0.5789 1.1816, 0.1361 0.573 1.1816, 0.144 0.5789 1.1816, 0.1438 0.573 1.1816, 0.1443 0.573 1.1816, 0.1518 0.578 1.1816, 0.1508 0.5721 1.1816, 0.158 0.5757 1.1816, 0.1552 0.5704 1.1816, 0.1633 0.5721 1.1816, 0.1585 0.5682 1.1816, 0.1652 0.5703 1.1816, 0.1599 0.5668 1.1816, 0.1683 0.5659 1.1816, 0.1619 0.5639 1.1816, 0.1702 0.561 1.1816, 0.1634 0.5602 1.1816, 0.171 0.554 1.1816, 0.1641 0.5538 1.1816, 0.1709 0.5507 1.1816, 0.1639 0.5503 1.1816, 0.1697 0.5447 1.1816, 0.1629 0.5457 1.1816, 0.1671 0.5395 1.1816, 0.1611 0.5419 1.1816, 0.1587 0.5389 1.1816, 0.1633 0.5349 1.1777, 0.1671 0.5395 1.1777, 0.1697 0.5447 1.1777, 0.1709 0.5507 1.1777, 0.171 0.554 1.1777, 0.1702 0.561 1.1777, 0.1683 0.5659 1.1777, 0.1652 0.5703 1.1777, 0.1633 0.5721 1.1777, 0.158 0.5757 1.1777, 0.1518 0.578 1.1777, 0.144 0.5789 1.1777, 0.1295 0.5789 1.1777, 0.1295 0.5278 1.1777, 0.1435 0.5278 1.1777, 0.1522 0.5288 1.1777, 0.158 0.5311 1.1777, 0.1585 0.5682 1.1777, 0.1599 0.5668 1.1777, 0.1619 0.5639 1.1777, 0.1634 0.5602 1.1777, 0.1641 0.5538 1.1777, 0.1438 0.573 1.1777, 0.1443 0.573 1.1777, 0.1508 0.5721 1.1777, 0.1552 0.5704 1.1777, 0.1361 0.573 1.1777, 0.1361 0.5336 1.1777, 0.1435 0.5336 1.1777, 0.1587 0.5389 1.1777, 0.1581 0.5384 1.1777, 0.1548 0.5361 1.1777, 0.1505 0.5345 1.1777, 0.1639 0.5503 1.1777, 0.1629 0.5457 1.1777, 0.1611 0.5419 1.1777
            ]
        }
        coordIndex [
            0,1,2,-1,2,1,3,-1,2,3,4,-1,4,3,5,-1,4,5,6,-1,6,5,7,-1,6,7,8,-1,8,7,9,-1,8,9,10,-1,10,9,11,-1,10,11,12,-1,11,13,12,-1,12,13,14,-1,12,14,15,-1,15,14,16,-1,15,16,17,-1,17,16,18,-1,17,18,19,-1,19,18,20,-1,19,20,21,-1,21,20,22,-1,21,22,23,-1,23,22,24,-1,23,24,25,-1,25,24,26,-1,25,26,27,-1,27,26,28,-1,27,28,29,-1,29,28,30,-1,29,30,31,-1,31,30,32,-1,31,32,33,-1,33,32,34,-1,33,34,0,-1,0,34,35,-1,0,35,1,-1,0,36,37,-1,0,37,33,-1,33,37,38,-1,33,38,31,-1,31,38,39,-1,31,39,29,-1,29,39,40,-1,29,40,27,-1,27,40,41,-1,27,41,25,-1,25,41,42,-1,25,42,23,-1,23,42,43,-1,23,43,21,-1,21,43,44,-1,21,44,19,-1,19,44,45,-1,19,45,17,-1,17,45,46,-1,17,46,15,-1,15,46,47,-1,15,47,12,-1,10,12,48,-1,48,12,47,-1,8,10,49,-1,49,10,48,-1,6,8,50,-1,50,8,49,-1,6,50,51,-1,6,51,4,-1,4,51,52,-1,4,52,2,-1,2,52,36,-1,2,36,0,-1,20,53,54,-1,20,54,22,-1,22,54,55,-1,22,55,24,-1,24,55,56,-1,24,56,26,-1,26,56,57,-1,26,57,28,-1,13,58,59,-1,13,59,14,-1,14,59,60,-1,14,60,16,-1,16,60,61,-1,16,61,18,-1,18,61,53,-1,18,53,20,-1,13,11,58,-1,58,11,62,-1,11,9,62,-1,62,9,63,-1,9,7,63,-1,63,7,64,-1,35,65,66,-1,35,66,1,-1,1,66,67,-1,1,67,3,-1,3,67,68,-1,3,68,5,-1,5,68,64,-1,5,64,7,-1,28,57,69,-1,28,69,30,-1,30,69,70,-1,30,70,32,-1,32,70,71,-1,32,71,34,-1,34,71,65,-1,34,65,35,-1,
        ]
    }
}
Shape{
    appearance Appearance {
        material  Material 	{
            diffuseColor 0.8549019607843137 0.8549019607843137 0.8549019607843137
            specularColor 0.2549019607843137 0.2549019607843137 0.2549019607843137
            ambientIntensity 0.8549
            transparency 0.0
            shininess 0.5
        }
    }
    geometry IndexedFaceSet {
        ccw TRUE
        solid FALSE
        coord DEF co Coordinate {
            point [
                0.1548 0.5361 1.1777, 0.1581 0.5384 1.1777, 0.1443 0.573 1.1777, 0.1361 0.573 1.1777, 0.1361 0.5336 1.1777, 0.1438 0.573 1.1777, 0.1435 0.5336 1.1777, 0.1505 0.5345 1.1777, 0.1587 0.5389 1.1777, 0.1611 0.5419 1.1777, 0.1629 0.5457 1.1777, 0.1641 0.5538 1.1777, 0.1585 0.5682 1.1777, 0.1552 0.5704 1.1777, 0.1634 0.5602 1.1777, 0.1619 0.5639 1.1777, 0.1599 0.5668 1.1777, 0.1639 0.5503 1.1777, 0.1508 0.5721 1.1777
            ]
        }
        coordIndex [
            0,1,2,-1,3,4,5,-1,5,4,6,-1,5,6,2,-1,2,6,7,-1,2,7,0,-1,1,8,2,-1,2,8,9,-1,2,9,10,-1,11,12,13,-1,14,15,11,-1,11,15,16,-1,11,16,12,-1,10,17,2,-1,2,17,11,-1,2,11,18,-1,18,11,13,-1,
        ]
    }
}
Shape{
    appearance Appearance {
        material  Material 	{
            diffuseColor 0.0 0.0 0.0
            specularColor 0.0 0.0 0.0
            ambientIntensity 0.0
            transparency 0.0
            shininess 0.5
        }
    }
    geometry IndexedFaceSet {
        ccw TRUE
        solid FALSE
        coord DEF co Coordinate {
            point [
                0.069 0.5328 1.1816, 0.069 0.5328 1.1777, 0.0645 0.5333 1.1777, 0.0645 0.5333 1.1816, 0.0607 0.5345 1.1777, 0.0607 0.5345 1.1816, 0.0573 0.5368 1.1777, 0.0573 0.5368 1.1816, 0.0558 0.5382 1.1777, 0.0558 0.5382 1.1816, 0.0535 0.5413 1.1777, 0.0535 0.5413 1.1816, 0.0518 0.5454 1.1777, 0.0518 0.5454 1.1816, 0.0509 0.5504 1.1777, 0.0509 0.5504 1.1816, 0.0508 0.5527 1.1777, 0.0508 0.5527 1.1816, 0.0517 0.5598 1.1777, 0.0517 0.5598 1.1816, 0.0534 0.5642 1.1777, 0.0534 0.5642 1.1816, 0.0558 0.5677 1.1777, 0.0558 0.5677 1.1816, 0.0562 0.5681 1.1777, 0.0562 0.5681 1.1816, 0.0593 0.5707 1.1777, 0.0593 0.5707 1.1816, 0.0633 0.5727 1.1777, 0.0633 0.5727 1.1816, 0.0677 0.5736 1.1777, 0.0677 0.5736 1.1816, 0.0701 0.5738 1.1777, 0.0701 0.5738 1.1816, 0.0821 0.5707 1.1777, 0.0821 0.5707 1.1816, 0.0816 0.571 1.1816, 0.0764 0.573 1.1777, 0.0764 0.573 1.1816, 0.08 0.5717 1.1777, 0.0816 0.571 1.1777, 0.0821 0.5776 1.1816, 0.0821 0.5776 1.1777, 0.08 0.5783 1.1777, 0.0767 0.5792 1.1816, 0.07 0.5797 1.1777, 0.07 0.5797 1.1816, 0.0755 0.5793 1.1777, 0.0767 0.5792 1.1777, 0.0665 0.5793 1.1777, 0.0627 0.5788 1.1816, 0.0627 0.5788 1.1777, 0.0573 0.5768 1.1777, 0.0573 0.5768 1.1816, 0.0525 0.5734 1.1777, 0.0525 0.5734 1.1816, 0.0513 0.5722 1.1777, 0.0513 0.5722 1.1816, 0.0476 0.5674 1.1777, 0.0462 0.5641 1.1777, 0.0451 0.5617 1.1816, 0.0476 0.5674 1.1816, 0.0451 0.5617 1.1777, 0.044 0.555 1.1777, 0.044 0.555 1.1816, 0.0439 0.5524 1.1777, 0.0439 0.5524 1.1816, 0.0449 0.5441 1.1777, 0.0449 0.5441 1.1816, 0.0462 0.5408 1.1777, 0.047 0.5387 1.1816, 0.047 0.5387 1.1777, 0.05 0.5344 1.1777, 0.05 0.5344 1.1816, 0.0505 0.5339 1.1777, 0.0505 0.5339 1.1816, 0.0546 0.5305 1.1777, 0.0546 0.5305 1.1816, 0.0594 0.5282 1.1777, 0.0594 0.5282 1.1816, 0.0649 0.5271 1.1777, 0.0649 0.5271 1.1816, 0.068 0.5269 1.1777, 0.068 0.5269 1.1816, 0.0821 0.5299 1.1777, 0.0821 0.5299 1.1816, 0.0813 0.5295 1.1816, 0.0758 0.5277 1.1777, 0.0758 0.5277 1.1816, 0.08 0.529 1.1777, 0.0813 0.5295 1.1777, 0.0821 0.5362 1.1816, 0.0821 0.5362 1.1777, 0.08 0.5352 1.1777, 0.0771 0.534 1.1816, 0.0771 0.534 1.1777, 0.0713 0.5329 1.1777, 0.0713 0.5329 1.1816, 0.2521 0.4665 1.1816, 0.25 0.4607 1.1816, 0.2693 0.4665 1.1816, 0.2713 0.4607 1.1816, 0.2598 0.4877 1.1816, 0.2573 0.4978 1.1816, 0.2378 0.4468 1.1816, 0.2451 0.4468 1.1816, 0.2602 0.4893 1.1816, 0.2606 0.4913 1.1816, 0.2643 0.4978 1.1816, 0.2607 0.4913 1.1816, 0.2612 0.4892 1.1816, 0.2615 0.4877 1.1816, 0.2838 0.4468 1.1816, 0.2765 0.4468 1.1816, 0.2573 0.4978 1.1777, 0.2643 0.4978 1.1777, 0.2378 0.4468 1.1777, 0.2451 0.4468 1.1777, 0.25 0.4607 1.1777, 0.2713 0.4607 1.1777, 0.2765 0.4468 1.1777, 0.2838 0.4468 1.1777, 0.2598 0.4877 1.1777, 0.2602 0.4893 1.1777, 0.2606 0.4913 1.1777, 0.2521 0.4665 1.1777, 0.2693 0.4665 1.1777, 0.2615 0.4877 1.1777, 0.2607 0.4913 1.1777, 0.2612 0.4892 1.1777
            ]
        }
        coordIndex [
            0,1,2,-1,0,2,3,-1,3,2,4,-1,3,4,5,-1,5,4,6,-1,5,6,7,-1,7,6,8,-1,7,8,9,-1,9,8,10,-1,9,10,11,-1,11,10,12,-1,11,12,13,-1,13,12,14,-1,13,14,15,-1,15,14,16,-1,15,16,17,-1,17,16,18,-1,17,18,19,-1,19,18,20,-1,19,20,21,-1,21,20,22,-1,21,22,23,-1,23,22,24,-1,23,24,25,-1,25,24,26,-1,25,26,27,-1,27,26,28,-1,27,28,29,-1,29,28,30,-1,29,30,31,-1,31,30,32,-1,31,32,33,-1,34,35,36,-1,33,32,37,-1,33,37,38,-1,38,37,39,-1,38,39,36,-1,36,39,40,-1,36,40,34,-1,41,35,42,-1,42,35,34,-1,41,42,43,-1,41,43,44,-1,45,46,47,-1,47,46,44,-1,47,44,48,-1,48,44,43,-1,46,45,49,-1,46,49,50,-1,49,51,50,-1,50,51,52,-1,50,52,53,-1,53,52,54,-1,53,54,55,-1,55,54,56,-1,55,56,57,-1,57,56,58,-1,59,60,58,-1,58,60,61,-1,58,61,57,-1,59,62,60,-1,60,62,63,-1,60,63,64,-1,64,63,65,-1,64,65,66,-1,66,65,67,-1,66,67,68,-1,68,67,69,-1,68,69,70,-1,69,71,70,-1,70,71,72,-1,70,72,73,-1,73,72,74,-1,73,74,75,-1,75,74,76,-1,75,76,77,-1,77,76,78,-1,77,78,79,-1,79,78,80,-1,79,80,81,-1,81,80,82,-1,81,82,83,-1,84,85,86,-1,83,82,87,-1,83,87,88,-1,88,87,89,-1,88,89,86,-1,86,89,90,-1,86,90,84,-1,91,85,92,-1,92,85,84,-1,91,92,93,-1,91,93,94,-1,93,95,94,-1,94,95,96,-1,94,96,97,-1,97,96,1,-1,97,1,0,-1,27,29,50,-1,19,21,61,-1,61,21,57,-1,50,29,46,-1,66,17,64,-1,64,17,19,-1,64,19,60,-1,60,19,61,-1,29,31,46,-1,46,31,33,-1,46,33,44,-1,44,33,38,-1,44,38,41,-1,41,38,36,-1,41,36,35,-1,85,91,86,-1,86,91,94,-1,86,94,88,-1,88,94,97,-1,88,97,83,-1,83,97,0,-1,83,0,81,-1,81,0,3,-1,81,3,79,-1,79,3,5,-1,79,5,77,-1,77,5,7,-1,77,7,75,-1,75,7,9,-1,75,9,73,-1,73,9,11,-1,73,11,70,-1,70,11,68,-1,68,11,13,-1,68,13,66,-1,66,13,15,-1,66,15,17,-1,21,23,57,-1,57,23,25,-1,57,25,55,-1,55,25,27,-1,55,27,53,-1,53,27,50,-1,98,99,100,-1,100,99,101,-1,102,103,98,-1,98,103,104,-1,98,104,99,-1,99,104,105,-1,102,106,103,-1,103,106,107,-1,103,107,108,-1,108,107,109,-1,108,109,110,-1,110,111,108,-1,108,111,100,-1,108,100,112,-1,112,100,101,-1,112,101,113,-1,103,108,114,-1,114,108,115,-1,104,103,116,-1,116,103,114,-1,105,104,117,-1,117,104,116,-1,99,105,118,-1,118,105,117,-1,101,99,119,-1,119,99,118,-1,113,101,120,-1,120,101,119,-1,112,113,121,-1,121,113,120,-1,108,112,115,-1,115,112,121,-1,102,122,123,-1,102,123,106,-1,106,123,124,-1,106,124,107,-1,102,98,122,-1,122,98,125,-1,98,100,125,-1,125,100,126,-1,100,111,126,-1,126,111,127,-1,109,128,129,-1,109,129,110,-1,110,129,127,-1,110,127,111,-1,109,107,128,-1,128,107,124,-1,
        ]
    }
}
Shape{
    appearance Appearance {
        material  Material 	{
            diffuseColor 0.8549019607843137 0.8549019607843137 0.8549019607843137
            specularColor 0.2549019607843137 0.2549019607843137 0.2549019607843137
            ambientIntensity 0.8549
            transparency 0.0
            shininess 0.5
        }
    }
    geometry IndexedFaceSet {
        ccw TRUE
        solid FALSE
        coord DEF co Coordinate {
            point [
                0.2607 0.4913 1.1777, 0.2606 0.4913 1.1777, 0.2612 0.4892 1.1777, 0.2602 0.4893 1.1777, 0.2615 0.4877 1.1777, 0.2598 0.4877 1.1777, 0.2693 0.4665 1.1777, 0.2521 0.4665 1.1777
            ]
        }
        coordIndex [
            0,1,2,-1,2,1,3,-1,2,3,4,-1,4,3,5,-1,4,5,6,-1,6,5,7,-1,
        ]
    }
}
Shape{
    appearance Appearance {
        material  Material 	{
            diffuseColor 0.0 0.0 0.0
            specularColor 0.0 0.0 0.0
            ambientIntensity 0.0
            transparency 0.0
            shininess 0.5
        }
    }
    geometry IndexedFaceSet {
        ccw TRUE
        solid FALSE
        coord DEF co Coordinate {
            point [
                0.1838 0.4526 1.1816, 0.1838 0.4526 1.1777, 0.1629 0.4526 1.1816, 0.1725 0.4526 1.1777, 0.1629 0.4526 1.1777, 0.1629 0.4698 1.1816, 0.1629 0.4698 1.1777, 0.1812 0.4698 1.1816, 0.1725 0.4698 1.1777, 0.1812 0.4698 1.1777, 0.1812 0.4756 1.1816, 0.1812 0.4756 1.1777, 0.1629 0.4756 1.1777, 0.1629 0.4756 1.1816, 0.1725 0.4756 1.1777, 0.1629 0.492 1.1816, 0.1629 0.492 1.1777, 0.1826 0.492 1.1777, 0.1826 0.492 1.1816, 0.1725 0.492 1.1777, 0.1826 0.4978 1.1816, 0.1826 0.4978 1.1777, 0.1563 0.4978 1.1777, 0.1563 0.4978 1.1816, 0.1725 0.4978 1.1777, 0.1563 0.4468 1.1816, 0.1563 0.4468 1.1777, 0.1838 0.4468 1.1816, 0.1725 0.4468 1.1777, 0.1838 0.4468 1.1777, 0.0215 0.4526 1.1816, 0.0423 0.4526 1.1816, 0.0215 0.4526 1.1777, 0.0423 0.4526 1.1777, 0.0215 0.4698 1.1816, 0.0215 0.4698 1.1777, 0.0397 0.4698 1.1816, 0.0397 0.4698 1.1777, 0.0397 0.4756 1.1816, 0.0397 0.4756 1.1777, 0.0215 0.4756 1.1816, 0.0215 0.4756 1.1777, 0.0215 0.492 1.1816, 0.0215 0.492 1.1777, 0.0412 0.492 1.1816, 0.0412 0.492 1.1777, 0.0412 0.4978 1.1816, 0.0412 0.4978 1.1777, 0.0149 0.4978 1.1816, 0.0149 0.4978 1.1777, 0.0149 0.4468 1.1816, 0.0149 0.4468 1.1777, 0.0423 0.4468 1.1816, 0.0423 0.4468 1.1777, 0.1882 0.5475 1.1816, 0.1861 0.5418 1.1816, 0.2053 0.5475 1.1816, 0.2073 0.5418 1.1816, 0.1958 0.5688 1.1816, 0.1933 0.5789 1.1816, 0.1739 0.5278 1.1816, 0.1812 0.5278 1.1816, 0.1962 0.5703 1.1816, 0.1966 0.5723 1.1816, 0.2004 0.5789 1.1816, 0.1968 0.5723 1.1816, 0.1972 0.5702 1.1816, 0.1976 0.5688 1.1816, 0.2198 0.5278 1.1816, 0.2125 0.5278 1.1816, 0.1933 0.5789 1.1777, 0.2004 0.5789 1.1777, 0.1739 0.5278 1.1777, 0.1886 0.5664 1.1777, 0.1812 0.5278 1.1777, 0.1861 0.5418 1.1777, 0.2073 0.5418 1.1777, 0.1886 0.5418 1.1777, 0.2125 0.5278 1.1777, 0.2198 0.5278 1.1777, 0.1958 0.5688 1.1777, 0.1962 0.5703 1.1777, 0.1966 0.5723 1.1777, 0.1882 0.5475 1.1777, 0.2053 0.5475 1.1777, 0.1976 0.5688 1.1777, 0.1968 0.5723 1.1777, 0.1972 0.5702 1.1777
            ]
        }
        coordIndex [
            0,1,2,-1,2,1,3,-1,2,3,4,-1,5,2,6,-1,6,2,4,-1,5,6,7,-1,7,6,8,-1,7,8,9,-1,10,7,11,-1,11,7,9,-1,12,13,14,-1,14,13,10,-1,14,10,11,-1,15,13,16,-1,16,13,12,-1,17,18,19,-1,19,18,15,-1,19,15,16,-1,20,18,21,-1,21,18,17,-1,22,23,24,-1,24,23,20,-1,24,20,21,-1,25,23,26,-1,26,23,22,-1,25,26,27,-1,27,26,28,-1,27,28,29,-1,0,27,1,-1,1,27,29,-1,25,27,0,-1,0,2,25,-1,25,2,5,-1,25,5,23,-1,18,20,15,-1,15,20,23,-1,15,23,13,-1,13,23,5,-1,13,5,10,-1,10,5,7,-1,30,31,32,-1,32,31,33,-1,34,30,35,-1,35,30,32,-1,36,34,37,-1,37,34,35,-1,38,36,39,-1,39,36,37,-1,40,38,41,-1,41,38,39,-1,42,40,43,-1,43,40,41,-1,44,42,45,-1,45,42,43,-1,46,44,47,-1,47,44,45,-1,48,46,49,-1,49,46,47,-1,50,48,51,-1,51,48,49,-1,52,50,53,-1,53,50,51,-1,31,52,33,-1,33,52,53,-1,50,52,31,-1,31,30,50,-1,50,30,34,-1,50,34,48,-1,44,46,42,-1,42,46,48,-1,42,48,40,-1,40,48,34,-1,40,34,38,-1,38,34,36,-1,54,55,56,-1,56,55,57,-1,58,59,54,-1,54,59,60,-1,54,60,55,-1,55,60,61,-1,58,62,59,-1,59,62,63,-1,59,63,64,-1,64,63,65,-1,64,65,66,-1,66,67,64,-1,64,67,56,-1,64,56,68,-1,68,56,57,-1,68,57,69,-1,59,64,70,-1,70,64,71,-1,72,60,73,-1,73,60,59,-1,73,59,70,-1,61,60,74,-1,74,60,72,-1,55,61,75,-1,75,61,74,-1,76,57,77,-1,77,57,55,-1,77,55,75,-1,69,57,78,-1,78,57,76,-1,68,69,79,-1,79,69,78,-1,64,68,71,-1,71,68,79,-1,58,80,81,-1,58,81,62,-1,62,81,82,-1,62,82,63,-1,58,54,80,-1,80,54,83,-1,54,56,83,-1,83,56,84,-1,56,67,84,-1,84,67,85,-1,65,86,87,-1,65,87,66,-1,66,87,85,-1,66,85,67,-1,65,63,86,-1,86,63,82,-1,
        ]
    }
}
Shape{
    appearance Appearance {
        material  Material 	{
            diffuseColor 0.8549019607843137 0.8549019607843137 0.8549019607843137
            specularColor 0.2549019607843137 0.2549019607843137 0.2549019607843137
            ambientIntensity 0.8549
            transparency 0.0
            shininess 0.5
        }
    }
    geometry IndexedFaceSet {
        ccw TRUE
        solid FALSE
        coord DEF co Coordinate {
            point [
                0.1968 0.5723 1.1777, 0.1966 0.5723 1.1777, 0.1972 0.5702 1.1777, 0.1962 0.5703 1.1777, 0.1976 0.5688 1.1777, 0.1958 0.5688 1.1777, 0.2053 0.5475 1.1777, 0.1882 0.5475 1.1777
            ]
        }
        coordIndex [
            0,1,2,-1,2,1,3,-1,2,3,4,-1,4,3,5,-1,4,5,6,-1,6,5,7,-1,
        ]
    }
}
Shape{
    appearance Appearance {
        material  Material 	{
            diffuseColor 0.0 0.0 0.0
            specularColor 0.0 0.0 0.0
            ambientIntensity 0.0
            transparency 0.0
            shininess 0.5
        }
    }
    geometry IndexedFaceSet {
        ccw TRUE
        solid FALSE
        coord DEF co Coordinate {
            point [
                0.099 0.5336 1.1777, 0.099 0.5336 1.1816, 0.1127 0.5336 1.1777, 0.1198 0.5336 1.1816, 0.1198 0.5336 1.1777, 0.099 0.5508 1.1816, 0.099 0.5508 1.1777, 0.1172 0.5508 1.1816, 0.1127 0.5508 1.1777, 0.1172 0.5508 1.1777, 0.1172 0.5566 1.1816, 0.1172 0.5566 1.1777, 0.099 0.5566 1.1777, 0.099 0.5566 1.1816, 0.1127 0.5566 1.1777, 0.099 0.573 1.1816, 0.099 0.573 1.1777, 0.1187 0.573 1.1816, 0.1127 0.573 1.1777, 0.1187 0.573 1.1777, 0.1187 0.5789 1.1816, 0.1187 0.5789 1.1777, 0.0924 0.5789 1.1777, 0.0924 0.5789 1.1816, 0.1127 0.5789 1.1777, 0.0924 0.5278 1.1816, 0.0924 0.5278 1.1777, 0.1198 0.5278 1.1816, 0.1127 0.5278 1.1777, 0.1198 0.5278 1.1777, 0.0215 0.5336 1.1816, 0.0418 0.5336 1.1816, 0.0215 0.5336 1.1777, 0.0418 0.5336 1.1777, 0.0215 0.5789 1.1816, 0.0215 0.5789 1.1777, 0.0149 0.5789 1.1816, 0.0149 0.5789 1.1777, 0.0149 0.5278 1.1816, 0.0149 0.5278 1.1777, 0.0418 0.5278 1.1816, 0.0418 0.5278 1.1777
            ]
        }
        coordIndex [
            0,1,2,-1,2,1,3,-1,2,3,4,-1,5,1,6,-1,6,1,0,-1,5,6,7,-1,7,6,8,-1,7,8,9,-1,10,7,11,-1,11,7,9,-1,12,13,14,-1,14,13,10,-1,14,10,11,-1,15,13,16,-1,16,13,12,-1,15,16,17,-1,17,16,18,-1,17,18,19,-1,20,17,21,-1,21,17,19,-1,22,23,24,-1,24,23,20,-1,24,20,21,-1,25,23,26,-1,26,23,22,-1,25,26,27,-1,27,26,28,-1,27,28,29,-1,3,27,4,-1,4,27,29,-1,25,27,3,-1,3,1,25,-1,25,1,5,-1,25,5,23,-1,17,20,15,-1,15,20,23,-1,15,23,13,-1,13,23,5,-1,13,5,10,-1,10,5,7,-1,30,31,32,-1,32,31,33,-1,34,30,35,-1,35,30,32,-1,36,34,37,-1,37,34,35,-1,38,36,39,-1,39,36,37,-1,40,38,41,-1,41,38,39,-1,31,40,33,-1,33,40,41,-1,34,36,30,-1,30,36,38,-1,30,38,31,-1,31,38,40,-1,
        ]
    }
}