#VRML V2.0 utf8
# 3D model generated by easyeda2kicad.py (https://github.com/uPesy/easyeda2kicad.py)

Shape{
    appearance Appearance {
        material  Material 	{
            diffuseColor 0.7529411764705882 0.7529411764705882 0.7529411764705882
            specularColor 0.3764705882352941 0.3764705882352941 0.3764705882352941
            ambientIntensity 0.7529
            transparency 0.0
            shininess 0.5
        }
    }
    geometry IndexedFaceSet {
        ccw TRUE
        solid FALSE
        coord DEF co Coordinate {
            point [
                -1.4567 2.2047 0.9055, -1.4567 2.2047 1.6929, -1.4567 1.811 0.9055, -1.4567 1.811 1.6929, -1.5748 2.2047 0.9055, -1.5748 1.811 0.9055, -1.5748 2.2047 1.6929, -1.5748 1.811 1.6929, -1.5755 2.2047 1.698, -1.5755 1.811 1.698, -1.5774 2.2047 1.7028, -1.5774 1.811 1.7028, -1.5806 2.2047 1.7068, -1.5806 1.811 1.7068, -1.5846 2.2047 1.71, -1.5846 1.811 1.71, -1.5894 2.2047 1.7119, -1.5894 1.811 1.7119, -1.5945 2.2047 1.7126, -1.5945 1.811 1.7126, -1.6929 2.2047 1.7126, -1.6929 1.811 1.7126, -1.698 2.2047 1.7119, -1.698 1.811 1.7119, -1.7027 2.2047 1.71, -1.7027 1.811 1.71, -1.7068 2.2047 1.7068, -1.7068 1.811 1.7068, -1.7099 2.2047 1.7028, -1.7099 1.811 1.7028, -1.7119 2.2047 1.698, -1.7119 1.811 1.698, -1.7126 2.2047 1.6929, -1.7126 1.811 1.6929, -1.7126 2.2047 -0.7087, -1.7126 1.8216 -0.748, -1.7126 1.8341 -0.7643, -1.7126 1.8504 -0.7769, -1.7126 1.811 -0.7087, -1.7126 1.8898 -0.7874, -1.7126 2.126 -0.7874, -1.7126 1.8137 -0.729, -1.7126 1.8694 -0.7847, -1.7126 2.1654 -0.7769, -1.7126 2.1817 -0.7643, -1.7126 2.1942 -0.748, -1.7126 2.1464 -0.7847, -1.7126 2.202 -0.729, -1.8307 1.8898 -0.7874, -1.8307 2.126 -0.7874, -1.8307 2.2047 -0.7087, -1.8307 2.2047 1.6929, -1.8307 1.811 -0.7087, -1.8307 1.811 1.6929, -1.8307 1.8504 -0.7769, -1.8307 1.8341 -0.7643, -1.8307 1.8216 -0.748, -1.8307 2.1942 -0.748, -1.8307 2.1817 -0.7643, -1.8307 2.1654 -0.7769, -1.8307 1.8694 -0.7847, -1.8307 1.8137 -0.729, -1.8307 2.202 -0.729, -1.8307 2.1464 -0.7847, -1.826 1.811 1.7286, -1.826 2.2047 1.7286, -1.8122 1.811 1.7618, -1.8122 2.2047 1.7618, -1.7903 1.811 1.7904, -1.7903 2.2047 1.7904, -1.7618 1.811 1.8122, -1.7618 2.2047 1.8122, -1.7286 1.811 1.826, -1.7286 2.2047 1.826, -1.6929 1.811 1.8307, -1.6929 2.2047 1.8307, -1.5945 2.2047 1.8307, -1.5945 1.811 1.8307, -1.5588 1.811 1.826, -1.5588 2.2047 1.826, -1.5256 1.811 1.8122, -1.5256 2.2047 1.8122, -1.497 1.811 1.7904, -1.497 2.2047 1.7904, -1.4751 1.811 1.7618, -1.4751 2.2047 1.7618, -1.4614 1.811 1.7286, -1.4614 2.2047 1.7286, -1.4567 -0.5512 0.9055, -1.4567 -0.5512 1.6929, -1.4567 -0.9449 0.9055, -1.4567 -0.9449 1.6929, -1.5748 -0.5512 0.9055, -1.5748 -0.9449 0.9055, -1.5748 -0.5512 1.6929, -1.5748 -0.9449 1.6929, -1.5755 -0.5512 1.698, -1.5755 -0.9449 1.698, -1.5774 -0.5512 1.7028, -1.5774 -0.9449 1.7028, -1.5806 -0.5512 1.7068, -1.5806 -0.9449 1.7068, -1.5846 -0.5512 1.71, -1.5846 -0.9449 1.71, -1.5894 -0.5512 1.7119, -1.5894 -0.9449 1.7119, -1.5945 -0.5512 1.7126, -1.5945 -0.9449 1.7126, -1.6929 -0.5512 1.7126, -1.6929 -0.9449 1.7126, -1.698 -0.5512 1.7119, -1.698 -0.9449 1.7119, -1.7027 -0.5512 1.71, -1.7027 -0.9449 1.71, -1.7068 -0.5512 1.7068, -1.7068 -0.9449 1.7068, -1.7099 -0.5512 1.7028, -1.7099 -0.9449 1.7028, -1.7119 -0.5512 1.698, -1.7119 -0.9449 1.698, -1.7126 -0.5512 1.6929, -1.7126 -0.9449 1.6929, -1.7126 -0.5512 -0.7087, -1.7126 -0.6299 -0.7874, -1.7126 -0.8865 -0.7847, -1.7126 -0.8661 -0.7874, -1.7126 -0.9449 -0.7087, -1.7126 -0.9343 -0.748, -1.7126 -0.9218 -0.7643, -1.7126 -0.9055 -0.7769, -1.7126 -0.9422 -0.729, -1.7126 -0.5906 -0.7769, -1.7126 -0.5742 -0.7643, -1.7126 -0.5617 -0.748, -1.7126 -0.6095 -0.7847, -1.7126 -0.5539 -0.729, -1.8307 -0.8661 -0.7874, -1.8307 -0.6299 -0.7874, -1.8307 -0.9449 -0.7087, -1.8307 -0.9449 1.6929, -1.8307 -0.5512 1.6929, -1.8307 -0.6095 -0.7847, -1.8307 -0.5512 -0.7087, -1.8307 -0.5617 -0.748, -1.8307 -0.5742 -0.7643, -1.8307 -0.5906 -0.7769, -1.8307 -0.8865 -0.7847, -1.8307 -0.9055 -0.7769, -1.8307 -0.9218 -0.7643, -1.8307 -0.9343 -0.748, -1.8307 -0.9422 -0.729, -1.8307 -0.5539 -0.729, -1.826 -0.9449 1.7286, -1.826 -0.5512 1.7286, -1.8122 -0.9449 1.7618, -1.8122 -0.5512 1.7618, -1.7903 -0.9449 1.7904, -1.7903 -0.5512 1.7904, -1.7618 -0.9449 1.8122, -1.7618 -0.5512 1.8122, -1.7286 -0.9449 1.826, -1.7286 -0.5512 1.826, -1.6929 -0.9449 1.8307, -1.6929 -0.5512 1.8307, -1.5945 -0.5512 1.8307, -1.5945 -0.9449 1.8307, -1.5588 -0.9449 1.826, -1.5588 -0.5512 1.826, -1.5256 -0.9449 1.8122, -1.5256 -0.5512 1.8122, -1.497 -0.9449 1.7904, -1.497 -0.5512 1.7904, -1.4751 -0.9449 1.7618, -1.4751 -0.5512 1.7618, -1.4614 -0.9449 1.7286, -1.4614 -0.5512 1.7286
            ]
        }
        coordIndex [
            0,1,2,-1,2,1,3,-1,4,0,5,-1,5,0,2,-1,6,4,7,-1,7,4,5,-1,6,7,8,-1,8,7,9,-1,8,9,10,-1,10,9,11,-1,10,11,12,-1,12,11,13,-1,12,13,14,-1,14,13,15,-1,14,15,16,-1,16,15,17,-1,16,17,18,-1,18,17,19,-1,20,18,21,-1,21,18,19,-1,20,21,22,-1,22,21,23,-1,22,23,24,-1,24,23,25,-1,24,25,26,-1,26,25,27,-1,26,27,28,-1,28,27,29,-1,28,29,30,-1,30,29,31,-1,30,31,32,-1,32,31,33,-1,34,32,33,-1,35,36,37,-1,33,38,34,-1,34,38,39,-1,34,39,40,-1,38,41,39,-1,39,41,35,-1,39,35,42,-1,42,35,37,-1,43,44,45,-1,40,46,34,-1,34,46,43,-1,34,43,47,-1,47,43,45,-1,48,49,39,-1,39,49,40,-1,49,48,50,-1,50,48,51,-1,51,48,52,-1,51,52,53,-1,54,55,56,-1,57,58,59,-1,48,60,52,-1,52,60,54,-1,52,54,61,-1,61,54,56,-1,50,62,49,-1,49,62,57,-1,49,57,63,-1,63,57,59,-1,51,53,64,-1,51,64,65,-1,65,64,66,-1,65,66,67,-1,67,66,68,-1,67,68,69,-1,69,68,70,-1,69,70,71,-1,71,70,72,-1,71,72,73,-1,73,72,74,-1,73,74,75,-1,76,75,77,-1,77,75,74,-1,76,77,78,-1,76,78,79,-1,79,78,80,-1,79,80,81,-1,81,80,82,-1,81,82,83,-1,83,82,84,-1,83,84,85,-1,85,84,86,-1,85,86,87,-1,87,86,3,-1,87,3,1,-1,34,50,32,-1,32,50,51,-1,32,51,30,-1,30,51,65,-1,30,65,28,-1,28,65,67,-1,28,67,26,-1,26,67,69,-1,26,69,24,-1,24,69,71,-1,24,71,22,-1,22,71,73,-1,22,73,20,-1,20,73,75,-1,20,75,18,-1,18,75,76,-1,18,76,16,-1,16,76,79,-1,16,79,14,-1,14,79,81,-1,14,81,12,-1,12,81,83,-1,12,83,10,-1,10,83,85,-1,10,85,8,-1,8,85,87,-1,8,87,6,-1,6,87,1,-1,6,1,4,-1,4,1,0,-1,5,2,7,-1,7,2,3,-1,7,3,9,-1,9,3,86,-1,9,86,11,-1,11,86,84,-1,11,84,13,-1,13,84,82,-1,13,82,15,-1,15,82,80,-1,15,80,17,-1,17,80,78,-1,17,78,19,-1,19,78,77,-1,19,77,21,-1,21,77,74,-1,21,74,23,-1,23,74,72,-1,23,72,25,-1,25,72,70,-1,25,70,27,-1,27,70,68,-1,27,68,29,-1,29,68,66,-1,29,66,31,-1,31,66,64,-1,31,64,33,-1,33,64,53,-1,33,53,38,-1,38,53,52,-1,38,52,61,-1,38,61,41,-1,41,61,56,-1,41,56,35,-1,35,56,55,-1,35,55,36,-1,36,55,54,-1,36,54,37,-1,37,54,60,-1,37,60,42,-1,42,60,48,-1,42,48,39,-1,50,34,47,-1,50,47,62,-1,62,47,45,-1,62,45,57,-1,57,45,44,-1,57,44,58,-1,58,44,43,-1,58,43,59,-1,59,43,46,-1,59,46,63,-1,63,46,40,-1,63,40,49,-1,88,89,90,-1,90,89,91,-1,92,88,93,-1,93,88,90,-1,94,92,95,-1,95,92,93,-1,94,95,96,-1,96,95,97,-1,96,97,98,-1,98,97,99,-1,98,99,100,-1,100,99,101,-1,100,101,102,-1,102,101,103,-1,102,103,104,-1,104,103,105,-1,104,105,106,-1,106,105,107,-1,108,106,109,-1,109,106,107,-1,108,109,110,-1,110,109,111,-1,110,111,112,-1,112,111,113,-1,112,113,114,-1,114,113,115,-1,114,115,116,-1,116,115,117,-1,116,117,118,-1,118,117,119,-1,118,119,120,-1,120,119,121,-1,122,120,123,-1,124,125,126,-1,123,120,125,-1,125,120,121,-1,125,121,126,-1,127,128,129,-1,124,126,129,-1,129,126,130,-1,129,130,127,-1,131,132,133,-1,123,134,122,-1,122,134,131,-1,122,131,135,-1,135,131,133,-1,136,137,125,-1,125,137,123,-1,138,139,140,-1,141,137,142,-1,143,144,145,-1,142,137,140,-1,140,137,136,-1,140,136,138,-1,138,136,146,-1,138,146,147,-1,148,149,147,-1,147,149,150,-1,147,150,138,-1,141,142,145,-1,145,142,151,-1,145,151,143,-1,140,139,152,-1,140,152,153,-1,153,152,154,-1,153,154,155,-1,155,154,156,-1,155,156,157,-1,157,156,158,-1,157,158,159,-1,159,158,160,-1,159,160,161,-1,161,160,162,-1,161,162,163,-1,164,163,165,-1,165,163,162,-1,164,165,166,-1,164,166,167,-1,167,166,168,-1,167,168,169,-1,169,168,170,-1,169,170,171,-1,171,170,172,-1,171,172,173,-1,173,172,174,-1,173,174,175,-1,175,174,91,-1,175,91,89,-1,122,142,120,-1,120,142,140,-1,120,140,118,-1,118,140,153,-1,118,153,116,-1,116,153,155,-1,116,155,114,-1,114,155,157,-1,114,157,112,-1,112,157,159,-1,112,159,110,-1,110,159,161,-1,110,161,108,-1,108,161,163,-1,108,163,106,-1,106,163,164,-1,106,164,104,-1,104,164,167,-1,104,167,102,-1,102,167,169,-1,102,169,100,-1,100,169,171,-1,100,171,98,-1,98,171,173,-1,98,173,96,-1,96,173,175,-1,96,175,94,-1,94,175,89,-1,94,89,92,-1,92,89,88,-1,93,90,95,-1,95,90,91,-1,95,91,97,-1,97,91,174,-1,97,174,99,-1,99,174,172,-1,99,172,101,-1,101,172,170,-1,101,170,103,-1,103,170,168,-1,103,168,105,-1,105,168,166,-1,105,166,107,-1,107,166,165,-1,107,165,109,-1,109,165,162,-1,109,162,111,-1,111,162,160,-1,111,160,113,-1,113,160,158,-1,113,158,115,-1,115,158,156,-1,115,156,117,-1,117,156,154,-1,117,154,119,-1,119,154,152,-1,119,152,121,-1,121,152,139,-1,121,139,126,-1,126,139,138,-1,126,138,150,-1,126,150,130,-1,130,150,149,-1,130,149,127,-1,127,149,148,-1,127,148,128,-1,128,148,147,-1,128,147,129,-1,129,147,146,-1,129,146,124,-1,124,146,136,-1,124,136,125,-1,142,122,135,-1,142,135,151,-1,151,135,133,-1,151,133,143,-1,143,133,132,-1,143,132,144,-1,144,132,131,-1,144,131,145,-1,145,131,134,-1,145,134,141,-1,141,134,123,-1,141,123,137,-1,
        ]
    }
}
Shape{
    appearance Appearance {
        material  Material 	{
            diffuseColor 0.25098039215686274 0.25098039215686274 0.25098039215686274
            specularColor 0.12549019607843137 0.12549019607843137 0.12549019607843137
            ambientIntensity 0.251
            transparency 0.0
            shininess 0.5
        }
    }
    geometry IndexedFaceSet {
        ccw TRUE
        solid FALSE
        coord DEF co Coordinate {
            point [
                -1.939 -2.0079 -0.0787, -2.0275 -2.0079 -0.0787, -2.0275 -1.0876 -0.0787, -0.9006 1.2501 -0.0787, -0.8964 1.2484 -0.0787, -0.8964 0.9301 -0.0787, -0.865 1.2353 -0.0787, -0.8268 1.2303 -0.0787, -0.7224 1.2736 -0.0787, -0.6329 0.9301 -0.0787, -0.7529 1.2501 -0.0787, -0.7885 1.2353 -0.0787, -0.6989 1.3041 -0.0787, -0.6842 1.3397 -0.0787, -0.6791 1.378 -0.0787, -0.6842 1.4162 -0.0787, -0.6329 2.7953 -0.0787, -0.6989 1.4518 -0.0787, -0.7224 1.4823 -0.0787, -0.7529 1.5058 -0.0787, -0.7885 1.5206 -0.0787, -0.8964 2.7953 -0.0787, -0.8268 1.5256 -0.0787, -0.9546 1.3041 -0.0787, -0.9312 1.2736 -0.0787, -1.0242 0.9301 -0.0787, -0.9312 1.4823 -0.0787, -0.9546 1.4518 -0.0787, -1.0242 2.7953 -0.0787, -0.865 1.5206 -0.0787, -0.8964 1.5075 -0.0787, -0.9006 1.5058 -0.0787, -0.9694 1.4162 -0.0787, -0.9744 1.378 -0.0787, -0.9694 1.3397 -0.0787, -0.6329 -1.0876 -0.0787, -0.6989 -1.3041 -0.0787, -0.7224 -1.2736 -0.0787, -0.8964 -2.0079 -0.0787, -0.8964 -1.5075 -0.0787, -0.865 -1.5206 -0.0787, -0.8268 -1.2303 -0.0787, -0.8964 -1.0876 -0.0787, -0.7885 -1.2353 -0.0787, -0.7529 -1.2501 -0.0787, -0.6989 -1.4518 -0.0787, -0.6329 -2.0079 -0.0787, -0.7224 -1.4823 -0.0787, -0.7529 -1.5058 -0.0787, -0.8268 -2.0079 -0.0787, -0.8268 -1.5256 -0.0787, -0.7885 -1.5206 -0.0787, -0.6842 -1.4162 -0.0787, -0.6791 -1.378 -0.0787, -0.6842 -1.3397 -0.0787, -0.865 -1.2353 -0.0787, -0.8964 -1.2484 -0.0787, -1.0242 -1.0876 -0.0787, -0.9006 -1.2501 -0.0787, -0.9312 -1.2736 -0.0787, -0.9546 -1.3041 -0.0787, -0.9694 -1.3397 -0.0787, -0.9006 -1.5058 -0.0787, -1.0242 -2.0079 -0.0787, -0.9312 -1.4823 -0.0787, -0.9744 -1.378 -0.0787, -0.9694 -1.4162 -0.0787, -0.9546 -1.4518 -0.0787, -1.6929 0.2362 -0.0787, -1.6929 0.2958 -0.0787, -1.4795 0.2958 -0.0787, -1.6929 0.495 -0.0787, -1.4795 0.495 -0.0787, -1.939 0.495 -0.0787, -1.8504 0.2958 -0.0787, -1.939 0.2958 -0.0787, -1.8504 0.2362 -0.0787, -1.939 -0.1575 -0.0787, -1.4795 -0.1575 -0.0787, -1.4795 0.9301 -0.0787, -1.6929 0.6299 -0.0787, -1.939 0.9301 -0.0787, -1.8504 0.6299 -0.0787, -1.8504 0.495 -0.0787, 0.0394 2.7953 -0.0787, 0.0394 2.0079 -0.0787, 0.1969 2.7953 -0.0787, 0.374 2.7953 -0.0787, 0.1969 2.0079 -0.0787, 0.374 0.9301 -0.0787, -0.8964 0.495 -0.0787, -1.0242 0.495 -0.0787, -0.9712 0.4938 -0.0787, -0.9996 0.4908 -0.0787, -1.0162 0.3059 -0.0787, -0.9935 0.2991 -0.0787, -1.0242 0.2958 -0.0787, -0.9691 0.297 -0.0787, -0.8964 0.2958 -0.0787, -0.9156 0.297 -0.0787, -0.9156 0.4938 -0.0787, -1.1173 0.297 -0.0787, -1.0884 0.297 -0.0787, -1.2373 0.297 -0.0787, -1.2174 0.3522 -0.0787, -1.136 0.3522 -0.0787, -1.0443 0.4682 -0.0787, -1.0582 0.4527 -0.0787, -1.1629 0.4938 -0.0787, -1.0673 0.4358 -0.0787, -1.0642 0.3509 -0.0787, -1.0529 0.3333 -0.0787, -1.0367 0.3178 -0.0787, -1.0242 0.3105 -0.0787, -1.1893 0.4938 -0.0787, -1.0226 0.4827 -0.0787, -1.0242 0.4816 -0.0787, -1.044 0.4683 -0.0787, -1.0726 0.4164 -0.0787, -1.074 0.3979 -0.0787, -1.0713 0.3715 -0.0787, -0.7332 0.4884 -0.0787, -0.7332 0.462 -0.0787, -0.7716 0.4938 -0.0787, -0.8724 0.4938 -0.0787, -0.8724 0.4722 -0.0787, -0.8772 0.3186 -0.0787, -0.8772 0.297 -0.0787, -0.7716 0.297 -0.0787, -0.7332 0.3072 -0.0787, -0.7332 0.3288 -0.0787, -0.6643 0.3182 -0.0787, -0.6826 0.3162 -0.0787, -0.6677 0.4724 -0.0787, -0.711 0.4715 -0.0787, -0.7296 0.3268 -0.0787, -0.798 0.3858 -0.0787, -0.798 0.3186 -0.0787, -0.8676 0.3858 -0.0787, -0.8676 0.4074 -0.0787, -0.798 0.4074 -0.0787, -0.798 0.4722 -0.0787, -0.6871 0.4746 -0.0787, -0.7088 0.3191 -0.0787, -0.6329 0.451 -0.0787, -0.6329 0.3369 -0.0787, -0.6393 0.458 -0.0787, -0.6378 0.3317 -0.0787, -0.6529 0.4671 -0.0787, -0.6499 0.3235 -0.0787, -0.6131 0.3933 -0.0787, -0.6151 0.372 -0.0787, -0.6141 0.4086 -0.0787, -0.6274 0.4449 -0.0787, -0.6193 0.4297 -0.0787, -0.6205 0.3551 -0.0787, -0.6286 0.3414 -0.0787, -0.7042 0.495 -0.0787, -0.6451 0.4882 -0.0787, -0.6671 0.4946 -0.0787, -0.6329 0.495 -0.0787, -0.6721 0.495 -0.0787, -0.6868 0.4962 -0.0787, -0.6357 0.3037 -0.0787, -0.6329 0.3054 -0.0787, -0.6329 0.2958 -0.0787, -0.5699 0.297 -0.0787, -0.4691 0.297 -0.0787, -0.5971 0.442 -0.0787, -0.6086 0.4604 -0.0787, -0.4955 0.4938 -0.0787, -0.6264 0.4775 -0.0787, -0.6329 0.4812 -0.0787, -0.6198 0.3138 -0.0787, -0.605 0.3293 -0.0787, -0.5699 0.3186 -0.0787, -0.5945 0.3481 -0.0787, -0.4955 0.3186 -0.0787, -0.5886 0.3689 -0.0787, -0.5867 0.3917 -0.0787, -0.5895 0.4197 -0.0787, -0.6844 0.2947 -0.0787, -0.6329 -0.1575 -0.0787, -0.6923 0.2958 -0.0787, -0.8964 -0.1575 -0.0787, -0.679 0.2946 -0.0787, -0.6674 0.2958 -0.0787, -0.6547 0.2971 -0.0787, -1.939 -1.0876 -0.0787, -1.4795 -2.0079 -0.0787, -1.4795 -1.0876 -0.0787, -1.0242 -0.1575 -0.0787, -1.6929 -0.9449 -0.0787, -1.8504 -0.9449 -0.0787, -1.8504 -0.5512 -0.0787, -1.6929 -0.5512 -0.0787, -0.4691 0.4938 -0.0787, 0.374 0.495 -0.0787, 0.374 0.2958 -0.0787, 0.374 -0.1575 -0.0787, 0.374 -1.0876 -0.0787, 0.374 -2.0079 -0.0787, -0.7122 0.2986 -0.0787, -0.7104 0.4946 -0.0787, -1.2661 0.297 -0.0787, -1.4795 2.7953 -0.0787, -1.939 2.7953 -0.0787, -1.8504 2.2047 -0.0787, -1.8504 1.811 -0.0787, -1.6929 2.2047 -0.0787, -1.6929 1.811 -0.0787, -2.0275 -0.1575 -0.0787, -2.0275 0.2958 -0.0787, -2.0275 0.495 -0.0787, -2.0275 0.9301 -0.0787, -2.0275 2.7953 -0.0787, -1.8504 2.2047 0.7087, -1.9488 2.2047 0.7087, -1.8504 1.811 0.7087, -1.9488 1.811 0.7087, -1.8504 0.6299 0.7087, -1.9488 0.6299 0.7087, -1.8504 0.2362 0.7087, -1.9488 0.2362 0.7087, -1.8504 -0.5512 0.7087, -1.9488 -0.5512 0.7087, -1.8504 -0.9449 0.7087, -1.9488 -0.9449 0.7087, 0.374 -2.0079 1.8898, 0.1565 -2.0079 0.8614, 0.1328 -2.0079 0.6865, 0.0783 -2.0079 0.5187, -0.8268 -2.0079 1.8898, -0.651 -2.0079 1.8739, -0.4809 -2.0079 1.827, -0.3219 -2.0079 1.7504, -0.0053 -2.0079 0.3633, -0.1153 -2.0079 0.2253, -0.2482 -2.0079 0.1092, -0.3997 -2.0079 0.0187, -0.5649 -2.0079 -0.0433, -0.7385 -2.0079 -0.0748, -0.1792 -2.0079 1.6467, -0.0572 -2.0079 1.5192, 0.04 -2.0079 1.3719, 0.1093 -2.0079 1.2097, 0.1486 -2.0079 1.0376, 0.374 1.7717 1.8898, 0.374 2.7953 1.8898, 0.374 2.4803 1.8898, 0.374 2.4803 0.7087, 0.374 1.7717 0.7087, 0.1969 2.7953 1.1024, -0.122 2.7953 0.8314, -0.122 2.7953 0.9796, 0.0394 2.7953 1.1024, -0.1528 2.7953 1.1245, -0.213 2.7953 1.2598, -0.3001 2.7953 1.3797, -0.4102 2.7953 1.4788, -0.5385 2.7953 1.5529, -0.6794 2.7953 1.5987, -0.8268 2.7953 1.6142, -2.0275 2.7953 1.8898, -0.9741 2.7953 1.5987, -1.115 2.7953 1.5529, -0.4102 2.7953 0.3322, -0.3001 2.7953 0.4313, -0.213 2.7953 0.5512, -0.1528 2.7953 0.6865, -1.2433 2.7953 1.4788, -1.3534 2.7953 1.3797, -1.4405 2.7953 1.2598, -1.115 2.7953 0.2581, -0.9741 2.7953 0.2123, -0.8268 2.7953 0.1969, -0.6794 2.7953 0.2123, -0.5385 2.7953 0.2581, -1.5007 2.7953 1.1245, -1.5315 2.7953 0.9796, -1.5315 2.7953 0.8314, -1.5007 2.7953 0.6865, -1.4405 2.7953 0.5512, -1.3534 2.7953 0.4313, -1.2433 2.7953 0.3322, -2.0275 -2.0079 1.8898, -0.915 -2.0079 -0.0748, -1.0886 -2.0079 -0.0433, -1.7628 -2.0079 1.2097, -1.6935 -2.0079 1.3719, -1.5963 -2.0079 1.5192, -1.4743 -2.0079 1.6467, -1.3316 -2.0079 1.7504, -1.1726 -2.0079 1.827, -1.0025 -2.0079 1.8739, -1.2538 -2.0079 0.0187, -1.4053 -2.0079 0.1092, -1.5382 -2.0079 0.2253, -1.6482 -2.0079 0.3633, -1.7318 -2.0079 0.5187, -1.7863 -2.0079 0.6865, -1.81 -2.0079 0.8614, -1.8021 -2.0079 1.0376, -0.0984 2.4803 1.8898, -1.437 0.6299 1.8898, -0.0984 1.7717 1.8898, -1.437 0.2362 1.8898, -1.9488 0.2362 1.8898, -1.9488 0.6299 1.8898, -1.437 -0.5512 1.8898, -1.437 -0.9449 1.8898, -1.9488 -0.9449 1.8898, -1.9488 -0.5512 1.8898, -1.437 1.811 1.8898, -1.437 2.2047 1.8898, -1.9488 2.2047 1.8898, -1.9488 1.811 1.8898, -0.7385 -2.7165 -0.0748, -0.8268 -2.7165 -0.0787, -0.915 -2.7165 -0.0748, -1.0886 -2.7165 -0.0433, -1.2538 -2.7165 0.0187, -1.4053 -2.7165 0.1092, -1.5382 -2.7165 0.2253, -1.6482 -2.7165 0.3633, -1.7318 -2.7165 0.5187, -1.7863 -2.7165 0.6865, -1.81 -2.7165 0.8614, -1.8021 -2.7165 1.0376, -1.7628 -2.7165 1.2097, -1.6935 -2.7165 1.3719, -1.5963 -2.7165 1.5192, -1.4743 -2.7165 1.6467, -1.3316 -2.7165 1.7504, -1.1726 -2.7165 1.827, -1.0025 -2.7165 1.8739, -0.8268 -2.7165 1.8898, -0.651 -2.7165 1.8739, -0.4809 -2.7165 1.827, -0.3219 -2.7165 1.7504, -0.1792 -2.7165 1.6467, -0.0572 -2.7165 1.5192, 0.04 -2.7165 1.3719, 0.1093 -2.7165 1.2097, 0.1486 -2.7165 1.0376, 0.1565 -2.7165 0.8614, 0.1328 -2.7165 0.6865, 0.0783 -2.7165 0.5187, -0.0053 -2.7165 0.3633, -0.1153 -2.7165 0.2253, -0.2482 -2.7165 0.1092, -0.3997 -2.7165 0.0187, -0.5649 -2.7165 -0.0433, -0.9079 -2.7953 0.0036, -0.8268 -2.7953 0.1181, -1.0677 -2.7953 0.0326, -0.9804 -2.7953 0.1332, -1.2196 -2.7953 0.0897, -1.1281 -2.7953 0.178, -1.359 -2.7953 0.1729, -1.2642 -2.7953 0.2508, -1.4813 -2.7953 0.2797, -1.3835 -2.7953 0.3487, -1.5825 -2.7953 0.4067, -1.4815 -2.7953 0.4681, -1.6594 -2.7953 0.5496, -1.5542 -2.7953 0.6042, -1.7096 -2.7953 0.704, -1.599 -2.7953 0.7519, -1.7314 -2.7953 0.8649, -1.6142 -2.7953 0.9055, -1.7241 -2.7953 1.0271, -1.599 -2.7953 1.0591, -1.688 -2.7953 1.1853, -1.5542 -2.7953 1.2068, -1.6241 -2.7953 1.3346, -1.4815 -2.7953 1.343, -0.1721 -2.7953 1.343, -0.1188 -2.7953 1.4701, -0.27 -2.7953 1.4623, -0.231 -2.7953 1.5874, -0.3893 -2.7953 1.5602, -0.3623 -2.7953 1.6828, -0.5254 -2.7953 1.633, -0.5086 -2.7953 1.7533, -0.6731 -2.7953 1.6778, -0.6651 -2.7953 1.7965, -0.8268 -2.7953 1.6929, -0.8268 -2.7953 1.811, -0.9804 -2.7953 1.6778, -0.9884 -2.7953 1.7965, -1.1281 -2.7953 1.633, -1.1449 -2.7953 1.7533, -1.2642 -2.7953 1.5602, -1.2912 -2.7953 1.6828, -1.3835 -2.7953 1.4623, -1.4225 -2.7953 1.5874, -1.5347 -2.7953 1.4701, -0.8268 -2.7953 0.0, -0.7456 -2.7953 0.0036, -0.6731 -2.7953 0.1332, -0.5859 -2.7953 0.0326, -0.5254 -2.7953 0.178, -0.4339 -2.7953 0.0897, -0.3893 -2.7953 0.2508, -0.2945 -2.7953 0.1729, -0.27 -2.7953 0.3487, -0.1723 -2.7953 0.2797, -0.1721 -2.7953 0.4681, -0.071 -2.7953 0.4067, -0.0993 -2.7953 0.6042, 0.0059 -2.7953 0.5496, -0.0545 -2.7953 0.7519, 0.056 -2.7953 0.704, -0.0394 -2.7953 0.9055, 0.0778 -2.7953 0.8649, -0.0545 -2.7953 1.0591, 0.0706 -2.7953 1.0271, -0.0993 -2.7953 1.2068, 0.0344 -2.7953 1.1853, -0.0294 -2.7953 1.3346, -1.437 -0.9449 1.2658, -1.3513 -2.7165 1.378, -1.416 -2.7165 1.2992, -1.4405 -0.9449 1.2598, -1.4378 -2.7165 1.2584, -1.4815 -2.7165 1.1767, -1.5007 -0.9449 1.1245, -1.4976 -2.7165 1.1236, -1.5218 -2.7165 1.0438, -1.5315 -0.9449 0.9796, -1.5282 -2.7165 0.9793, -1.5354 -2.7165 0.9055, -1.5315 -0.9449 0.8314, -1.5075 1.811 0.7087, -1.5315 1.811 0.8314, -1.5315 0.6299 0.8314, -1.4976 -2.7165 0.6875, -1.5075 0.6299 0.7087, -1.5075 0.2362 0.7087, -1.437 0.6299 1.2658, -1.437 0.2362 1.2658, -1.437 -0.5512 1.2658, -1.4405 0.2362 1.2598, -1.4405 -0.5512 1.2598, -1.5007 0.2362 1.1245, -1.5007 -0.5512 1.1245, -1.5315 0.2362 0.9796, -1.5315 -0.5512 0.9796, -1.5315 0.2362 0.8314, -1.5315 -0.5512 0.8314, -1.5075 -0.5512 0.7087, -1.5075 -0.9449 0.7087, -1.5218 -2.7165 0.7673, -1.5282 -2.7165 0.8318, -1.5315 0.6299 0.9796, -1.5315 1.811 0.9796, -1.5007 0.6299 1.1245, -1.5007 1.811 1.1245, -1.4405 0.6299 1.2598, -1.4405 1.811 1.2598, -1.437 1.811 1.2658, -1.437 2.2047 1.2658, -1.4405 2.2047 1.2598, -1.5007 2.2047 1.1245, -1.5315 2.2047 0.9796, -1.5315 2.2047 0.8314, -1.5075 2.2047 0.7087, -0.8268 -2.7165 0.1969, -0.6885 -2.7165 0.2105, -0.6797 -2.7165 0.2132, -0.5556 -2.7165 0.2508, -0.5393 -2.7165 0.2595, -0.433 -2.7165 0.3163, -0.4116 -2.7165 0.3339, -0.3257 -2.7165 0.4044, -0.3022 -2.7165 0.433, -0.2375 -2.7165 0.5118, -0.2157 -2.7165 0.5526, -0.172 -2.7165 0.6343, -0.1559 -2.7165 0.6875, -0.1317 -2.7165 0.7673, -0.1254 -2.7165 0.8318, -0.1181 -2.7165 0.9055, -0.1254 -2.7165 0.9793, -0.1317 -2.7165 1.0438, -0.1559 -2.7165 1.1236, -0.172 -2.7165 1.1767, -0.2157 -2.7165 1.2584, -0.2375 -2.7165 1.2992, -0.3022 -2.7165 1.378, -0.3257 -2.7165 1.4066, -0.4116 -2.7165 1.4771, -0.433 -2.7165 1.4947, -0.5393 -2.7165 1.5515, -0.5556 -2.7165 1.5602, -0.6797 -2.7165 1.5979, -0.6885 -2.7165 1.6006, -0.8268 -2.7165 1.6142, -0.965 -2.7165 1.6006, -0.9739 -2.7165 1.5979, -1.098 -2.7165 1.5602, -1.1143 -2.7165 1.5515, -1.2205 -2.7165 1.4947, -1.3279 -2.7165 1.4066, -1.2419 -2.7165 1.4771, -1.4815 -2.7165 0.6343, -1.4378 -2.7165 0.5526, -1.416 -2.7165 0.5118, -1.3513 -2.7165 0.433, -1.3279 -2.7165 0.4044, -1.2419 -2.7165 0.3339, -1.2205 -2.7165 0.3163, -1.1143 -2.7165 0.2595, -1.098 -2.7165 0.2508, -0.9739 -2.7165 0.2132, -0.965 -2.7165 0.2105, -0.0984 1.7717 0.7087, -0.0984 2.4803 0.7087, 0.0394 2.4803 0.7087, 0.0394 2.4803 1.1024, 0.1969 2.4803 0.7087, 0.1969 2.4803 1.1024, 0.0394 2.0079 0.7087, 0.1969 2.0079 0.7087, -1.6929 -0.5512 0.7087, -1.6929 -0.9449 0.7087
            ]
        }
        coordIndex [
            0,1,2,-1,3,4,5,-1,5,4,6,-1,5,6,7,-1,8,9,10,-1,10,9,11,-1,8,12,9,-1,9,12,13,-1,9,13,14,-1,14,15,16,-1,16,15,17,-1,16,17,18,-1,18,19,16,-1,16,19,20,-1,16,20,21,-1,21,20,22,-1,23,24,25,-1,26,27,28,-1,22,29,21,-1,21,29,30,-1,21,30,28,-1,28,30,31,-1,28,31,26,-1,27,32,28,-1,28,32,33,-1,28,33,25,-1,25,33,34,-1,25,34,23,-1,35,36,37,-1,38,39,40,-1,41,42,43,-1,43,42,35,-1,43,35,44,-1,44,35,37,-1,45,46,47,-1,47,46,48,-1,38,40,49,-1,49,40,50,-1,49,50,46,-1,46,50,51,-1,46,51,48,-1,45,52,46,-1,46,52,53,-1,46,53,35,-1,35,53,54,-1,35,54,36,-1,41,55,42,-1,42,55,56,-1,42,56,57,-1,57,56,58,-1,58,59,57,-1,57,59,60,-1,57,60,61,-1,39,38,62,-1,62,38,63,-1,62,63,64,-1,65,66,63,-1,63,66,67,-1,63,67,64,-1,68,69,70,-1,70,69,71,-1,70,71,72,-1,73,74,75,-1,75,74,76,-1,75,76,77,-1,77,76,78,-1,72,71,79,-1,79,71,80,-1,79,80,81,-1,81,80,82,-1,81,82,73,-1,73,82,83,-1,73,83,74,-1,14,16,9,-1,9,16,84,-1,9,84,85,-1,86,87,88,-1,88,87,89,-1,88,89,85,-1,25,90,91,-1,91,90,92,-1,91,92,93,-1,94,95,96,-1,96,95,97,-1,96,97,98,-1,98,97,99,-1,98,99,90,-1,90,99,100,-1,90,100,92,-1,101,102,96,-1,103,104,105,-1,106,107,108,-1,108,107,109,-1,110,111,102,-1,102,111,112,-1,102,112,96,-1,96,112,113,-1,96,113,94,-1,91,108,114,-1,93,115,91,-1,91,115,116,-1,91,116,108,-1,108,116,117,-1,108,117,106,-1,109,118,108,-1,108,118,119,-1,108,119,102,-1,102,119,120,-1,102,120,110,-1,121,122,123,-1,123,124,90,-1,124,125,90,-1,90,125,126,-1,90,126,98,-1,98,126,127,-1,98,127,128,-1,129,128,130,-1,130,128,123,-1,131,132,133,-1,123,122,130,-1,130,122,134,-1,130,134,135,-1,136,137,138,-1,138,137,126,-1,138,126,139,-1,139,126,125,-1,139,125,140,-1,140,125,141,-1,134,142,135,-1,135,142,133,-1,135,133,143,-1,143,133,132,-1,144,145,146,-1,146,145,147,-1,146,147,148,-1,148,147,133,-1,133,147,149,-1,133,149,131,-1,144,150,151,-1,150,144,152,-1,152,144,153,-1,152,153,154,-1,151,155,144,-1,144,155,156,-1,144,156,145,-1,157,5,9,-1,9,5,7,-1,9,7,11,-1,158,159,160,-1,160,159,161,-1,160,161,9,-1,9,161,162,-1,9,162,157,-1,163,164,165,-1,165,164,166,-1,165,166,167,-1,168,169,170,-1,170,169,171,-1,170,171,160,-1,160,171,172,-1,160,172,158,-1,164,173,166,-1,166,173,174,-1,166,174,175,-1,175,174,176,-1,175,176,177,-1,176,178,177,-1,177,178,179,-1,177,179,170,-1,170,179,180,-1,170,180,168,-1,181,182,183,-1,183,182,184,-1,181,185,182,-1,182,185,186,-1,182,186,165,-1,165,186,187,-1,165,187,163,-1,0,188,189,-1,189,188,190,-1,189,190,63,-1,63,190,57,-1,63,57,65,-1,65,57,61,-1,190,78,57,-1,57,78,191,-1,57,191,42,-1,42,191,184,-1,42,184,35,-1,35,184,182,-1,192,190,193,-1,193,190,188,-1,193,188,194,-1,194,188,77,-1,194,77,195,-1,195,77,78,-1,195,78,192,-1,192,78,190,-1,196,197,167,-1,167,197,198,-1,167,198,165,-1,165,198,199,-1,165,199,182,-1,182,199,200,-1,182,200,35,-1,35,200,201,-1,35,201,46,-1,76,68,78,-1,78,68,70,-1,78,70,191,-1,191,70,96,-1,191,96,184,-1,184,96,98,-1,184,98,183,-1,183,98,128,-1,183,128,202,-1,202,128,129,-1,85,89,9,-1,9,89,197,-1,9,197,160,-1,160,197,196,-1,160,196,170,-1,24,3,25,-1,25,3,5,-1,25,5,90,-1,90,5,157,-1,90,157,123,-1,123,157,203,-1,123,203,121,-1,105,101,103,-1,103,101,96,-1,103,96,204,-1,204,96,70,-1,204,70,114,-1,114,70,72,-1,114,72,91,-1,91,72,79,-1,91,79,25,-1,25,79,205,-1,25,205,28,-1,206,207,208,-1,207,206,209,-1,209,206,205,-1,209,205,210,-1,210,205,79,-1,210,79,208,-1,208,79,81,-1,208,81,206,-1,0,2,188,-1,188,2,211,-1,188,211,77,-1,77,211,212,-1,77,212,75,-1,75,212,213,-1,75,213,73,-1,73,213,214,-1,73,214,81,-1,81,214,215,-1,81,215,206,-1,216,217,218,-1,218,217,219,-1,220,221,222,-1,222,221,223,-1,224,225,226,-1,226,225,227,-1,228,229,201,-1,201,229,230,-1,201,230,231,-1,232,233,228,-1,228,233,234,-1,228,234,235,-1,231,236,201,-1,201,236,237,-1,201,237,238,-1,238,239,201,-1,201,239,240,-1,201,240,46,-1,46,240,241,-1,46,241,49,-1,235,242,228,-1,228,242,243,-1,228,243,244,-1,244,245,228,-1,228,245,246,-1,228,246,229,-1,201,200,228,-1,228,200,199,-1,228,199,247,-1,248,249,87,-1,87,249,250,-1,87,250,89,-1,89,250,251,-1,89,251,197,-1,197,251,247,-1,197,247,198,-1,198,247,199,-1,87,86,252,-1,253,254,255,-1,255,254,256,-1,255,256,252,-1,87,252,248,-1,248,252,256,-1,248,256,257,-1,257,258,248,-1,248,258,259,-1,248,259,260,-1,260,261,248,-1,248,261,262,-1,248,262,263,-1,263,262,264,-1,263,264,265,-1,266,267,84,-1,84,267,268,-1,84,268,255,-1,255,268,269,-1,255,269,253,-1,265,270,263,-1,263,270,271,-1,263,271,272,-1,205,273,28,-1,28,273,274,-1,28,274,21,-1,21,274,275,-1,21,275,16,-1,16,275,276,-1,16,276,84,-1,84,276,277,-1,84,277,266,-1,272,278,263,-1,263,278,279,-1,263,279,215,-1,215,279,280,-1,280,281,215,-1,215,281,282,-1,215,282,206,-1,206,282,283,-1,206,283,205,-1,205,283,284,-1,205,284,273,-1,215,214,263,-1,263,214,213,-1,263,213,285,-1,285,213,212,-1,212,211,285,-1,285,211,2,-1,285,2,1,-1,38,49,286,-1,38,286,63,-1,63,286,287,-1,63,287,189,-1,288,289,285,-1,289,290,285,-1,285,290,291,-1,285,291,292,-1,292,293,285,-1,285,293,294,-1,285,294,232,-1,287,295,189,-1,189,295,296,-1,189,296,0,-1,0,296,297,-1,0,297,1,-1,1,297,298,-1,1,298,299,-1,299,300,1,-1,1,300,301,-1,1,301,285,-1,285,301,302,-1,285,302,288,-1,303,304,305,-1,305,304,306,-1,307,308,263,-1,303,249,248,-1,247,309,228,-1,228,309,310,-1,228,310,232,-1,232,310,311,-1,232,311,285,-1,285,311,312,-1,263,285,307,-1,307,285,312,-1,307,312,306,-1,306,312,309,-1,306,309,305,-1,305,309,247,-1,308,304,313,-1,313,304,303,-1,313,303,314,-1,314,303,248,-1,314,248,315,-1,315,248,263,-1,315,263,316,-1,316,263,308,-1,316,308,313,-1,317,318,49,-1,49,318,286,-1,318,319,286,-1,286,319,320,-1,286,320,287,-1,287,320,321,-1,287,321,295,-1,295,321,322,-1,295,322,296,-1,296,322,323,-1,296,323,297,-1,297,323,324,-1,297,324,298,-1,298,324,325,-1,298,325,299,-1,299,325,326,-1,299,326,300,-1,300,326,327,-1,300,327,301,-1,301,327,328,-1,301,328,302,-1,302,328,329,-1,302,329,288,-1,288,329,330,-1,288,330,289,-1,289,330,331,-1,289,331,290,-1,290,331,332,-1,290,332,291,-1,291,332,333,-1,291,333,292,-1,292,333,334,-1,292,334,293,-1,293,334,335,-1,293,335,294,-1,294,335,336,-1,294,336,232,-1,232,336,337,-1,232,337,233,-1,233,337,338,-1,233,338,234,-1,234,338,339,-1,234,339,235,-1,235,339,340,-1,235,340,242,-1,242,340,341,-1,242,341,243,-1,243,341,342,-1,243,342,244,-1,244,342,343,-1,244,343,245,-1,245,343,344,-1,245,344,246,-1,246,344,345,-1,246,345,229,-1,229,345,346,-1,229,346,230,-1,230,346,347,-1,230,347,231,-1,231,347,348,-1,231,348,236,-1,236,348,349,-1,236,349,237,-1,237,349,350,-1,237,350,238,-1,238,350,351,-1,238,351,239,-1,239,351,352,-1,239,352,240,-1,240,352,317,-1,240,317,241,-1,241,317,49,-1,353,354,355,-1,355,354,356,-1,355,356,357,-1,357,356,358,-1,357,358,359,-1,359,358,360,-1,359,360,361,-1,361,360,362,-1,361,362,363,-1,363,362,364,-1,363,364,365,-1,365,364,366,-1,365,366,367,-1,367,366,368,-1,367,368,369,-1,369,368,370,-1,369,370,371,-1,371,370,372,-1,371,372,373,-1,373,372,374,-1,373,374,375,-1,375,374,376,-1,377,378,379,-1,379,378,380,-1,379,380,381,-1,381,380,382,-1,381,382,383,-1,383,382,384,-1,383,384,385,-1,385,384,386,-1,385,386,387,-1,387,386,388,-1,387,388,389,-1,389,388,390,-1,389,390,391,-1,391,390,392,-1,391,392,393,-1,393,392,394,-1,393,394,395,-1,395,394,396,-1,395,396,376,-1,376,396,397,-1,376,397,375,-1,353,398,354,-1,354,398,399,-1,354,399,400,-1,400,399,401,-1,400,401,402,-1,402,401,403,-1,402,403,404,-1,404,403,405,-1,404,405,406,-1,406,405,407,-1,406,407,408,-1,408,407,409,-1,408,409,410,-1,410,409,411,-1,410,411,412,-1,412,411,413,-1,412,413,414,-1,414,413,415,-1,414,415,416,-1,416,415,417,-1,416,417,418,-1,418,417,419,-1,418,419,377,-1,377,419,420,-1,377,420,378,-1,421,422,423,-1,421,423,424,-1,423,425,424,-1,424,425,426,-1,424,426,427,-1,426,428,427,-1,427,428,429,-1,427,429,430,-1,429,431,430,-1,430,431,432,-1,430,432,433,-1,434,435,436,-1,437,438,439,-1,440,271,441,-1,441,271,442,-1,441,442,443,-1,443,442,444,-1,443,444,445,-1,445,444,446,-1,445,446,447,-1,447,446,448,-1,447,448,449,-1,449,448,450,-1,449,450,439,-1,439,450,451,-1,439,451,437,-1,437,451,452,-1,437,452,453,-1,453,452,433,-1,453,433,454,-1,454,433,432,-1,436,435,455,-1,455,435,456,-1,455,456,457,-1,457,456,458,-1,457,458,459,-1,459,458,460,-1,459,460,440,-1,440,460,461,-1,440,461,271,-1,271,461,462,-1,271,462,272,-1,272,462,463,-1,272,463,278,-1,278,463,464,-1,278,464,279,-1,279,464,465,-1,279,465,280,-1,280,465,466,-1,280,466,281,-1,281,466,467,-1,281,467,434,-1,468,469,275,-1,275,469,276,-1,469,470,276,-1,276,470,471,-1,276,471,277,-1,471,472,277,-1,277,472,473,-1,277,473,266,-1,473,474,266,-1,266,474,475,-1,266,475,267,-1,475,476,267,-1,267,476,477,-1,267,477,268,-1,477,478,268,-1,268,478,479,-1,268,479,269,-1,479,480,269,-1,269,480,481,-1,269,481,253,-1,481,482,253,-1,253,482,483,-1,253,483,254,-1,483,484,254,-1,254,484,485,-1,254,485,256,-1,485,486,256,-1,256,486,487,-1,256,487,257,-1,487,488,257,-1,257,488,489,-1,257,489,258,-1,489,490,258,-1,258,490,491,-1,258,491,259,-1,259,491,492,-1,259,492,260,-1,492,493,260,-1,260,493,494,-1,260,494,261,-1,494,495,261,-1,261,495,496,-1,261,496,262,-1,262,496,497,-1,497,498,262,-1,262,498,499,-1,262,499,264,-1,499,500,264,-1,264,500,501,-1,264,501,265,-1,501,502,265,-1,265,502,503,-1,265,503,270,-1,421,442,422,-1,422,442,271,-1,422,271,504,-1,504,271,270,-1,504,270,505,-1,505,270,503,-1,436,438,434,-1,434,438,437,-1,434,437,281,-1,281,437,506,-1,281,506,282,-1,506,507,282,-1,282,507,508,-1,282,508,283,-1,508,509,283,-1,283,509,510,-1,283,510,284,-1,284,510,511,-1,284,511,273,-1,511,512,273,-1,273,512,513,-1,273,513,274,-1,513,514,274,-1,274,514,515,-1,274,515,275,-1,275,515,516,-1,275,516,468,-1,399,398,318,-1,318,398,319,-1,398,353,319,-1,319,353,355,-1,319,355,320,-1,320,355,357,-1,320,357,321,-1,321,357,359,-1,321,359,322,-1,322,359,361,-1,322,361,323,-1,323,361,363,-1,323,363,324,-1,324,363,365,-1,324,365,325,-1,325,365,367,-1,325,367,326,-1,326,367,369,-1,326,369,327,-1,327,369,371,-1,327,371,328,-1,328,371,373,-1,328,373,329,-1,329,373,375,-1,329,375,330,-1,330,375,397,-1,330,397,331,-1,331,397,396,-1,331,396,332,-1,332,396,394,-1,332,394,333,-1,333,394,392,-1,333,392,334,-1,334,392,390,-1,334,390,335,-1,335,390,388,-1,335,388,336,-1,336,388,386,-1,336,386,337,-1,337,386,384,-1,337,384,338,-1,338,384,382,-1,338,382,339,-1,339,382,380,-1,339,380,340,-1,340,380,378,-1,340,378,341,-1,341,378,420,-1,341,420,342,-1,342,420,419,-1,342,419,343,-1,343,419,417,-1,343,417,344,-1,344,417,415,-1,344,415,345,-1,345,415,413,-1,345,413,346,-1,346,413,411,-1,346,411,347,-1,347,411,409,-1,347,409,348,-1,348,409,407,-1,348,407,349,-1,349,407,405,-1,349,405,350,-1,350,405,403,-1,350,403,351,-1,351,403,401,-1,351,401,352,-1,352,401,399,-1,352,399,317,-1,317,399,318,-1,358,356,515,-1,515,514,358,-1,358,514,513,-1,358,513,360,-1,513,512,360,-1,360,512,511,-1,360,511,362,-1,511,510,362,-1,362,510,509,-1,362,509,364,-1,509,508,364,-1,364,508,507,-1,364,507,366,-1,507,506,366,-1,366,506,437,-1,366,437,368,-1,437,453,368,-1,368,453,454,-1,368,454,370,-1,370,454,432,-1,370,432,372,-1,372,432,431,-1,431,429,372,-1,372,429,428,-1,372,428,374,-1,428,426,374,-1,374,426,425,-1,374,425,376,-1,425,423,376,-1,376,423,422,-1,376,422,395,-1,422,504,395,-1,395,504,505,-1,395,505,393,-1,505,503,393,-1,393,503,502,-1,393,502,391,-1,502,501,391,-1,391,501,500,-1,391,500,389,-1,389,500,499,-1,389,499,387,-1,387,499,498,-1,387,498,385,-1,498,497,385,-1,385,497,496,-1,385,496,383,-1,496,495,383,-1,383,495,494,-1,383,494,381,-1,494,493,381,-1,381,493,492,-1,381,492,379,-1,492,491,379,-1,379,491,490,-1,379,490,377,-1,490,489,377,-1,377,489,488,-1,377,488,418,-1,488,487,418,-1,418,487,486,-1,418,486,416,-1,486,485,416,-1,416,485,484,-1,416,484,414,-1,414,484,483,-1,414,483,412,-1,412,483,482,-1,482,481,412,-1,412,481,480,-1,412,480,410,-1,480,479,410,-1,410,479,478,-1,410,478,408,-1,478,477,408,-1,408,477,476,-1,408,476,406,-1,476,475,406,-1,406,475,474,-1,406,474,404,-1,474,473,404,-1,404,473,472,-1,404,472,402,-1,472,471,402,-1,402,471,470,-1,402,470,400,-1,400,470,469,-1,400,469,354,-1,354,469,468,-1,354,468,356,-1,356,468,516,-1,356,516,515,-1,251,517,247,-1,247,517,305,-1,517,518,305,-1,305,518,303,-1,518,519,520,-1,521,250,522,-1,522,250,249,-1,522,249,520,-1,520,249,303,-1,520,303,518,-1,519,518,523,-1,523,518,517,-1,523,517,524,-1,524,517,251,-1,524,251,521,-1,521,251,250,-1,252,522,255,-1,255,522,520,-1,522,252,521,-1,521,252,86,-1,521,86,524,-1,524,86,88,-1,523,85,519,-1,519,85,84,-1,519,84,520,-1,520,84,255,-1,85,523,88,-1,88,523,524,-1,312,225,224,-1,194,195,224,-1,224,195,525,-1,442,309,444,-1,444,309,312,-1,444,312,446,-1,446,312,448,-1,448,312,224,-1,448,224,450,-1,450,224,525,-1,450,525,451,-1,309,442,310,-1,310,442,421,-1,427,430,311,-1,227,311,226,-1,226,311,526,-1,226,526,193,-1,193,526,192,-1,311,430,526,-1,526,430,433,-1,526,433,452,-1,310,421,311,-1,311,421,424,-1,311,424,427,-1,526,452,525,-1,525,452,451,-1,227,225,311,-1,311,225,312,-1,
        ]
    }
}
Shape{
    appearance Appearance {
        material  Material 	{
            diffuseColor 0.5019607843137255 0.25098039215686274 0.0
            specularColor 0.44313725490196076 0.2196078431372549 0.0
            ambientIntensity 0.2974
            transparency 0.0
            shininess 0.5
        }
    }
    geometry IndexedFaceSet {
        ccw TRUE
        solid FALSE
        coord DEF co Coordinate {
            point [
                -1.8504 -0.9449 0.7087, -1.8504 -0.9449 -0.0787, -1.8504 -0.5512 0.7087, -1.8504 -0.5512 -0.0787, -1.6929 -0.5512 0.7087, -1.6929 -0.5512 -0.0787, -1.6929 -0.9449 0.7087, -1.6929 -0.9449 -0.0787
            ]
        }
        coordIndex [
            0,1,2,-1,2,1,3,-1,4,5,6,-1,6,5,7,-1,
        ]
    }
}
Shape{
    appearance Appearance {
        material  Material 	{
            diffuseColor 0.25098039215686274 0.25098039215686274 0.25098039215686274
            specularColor 0.12549019607843137 0.12549019607843137 0.12549019607843137
            ambientIntensity 0.251
            transparency 0.0
            shininess 0.5
        }
    }
    geometry IndexedFaceSet {
        ccw TRUE
        solid FALSE
        coord DEF co Coordinate {
            point [
                -1.9488 0.6299 1.8898, -1.9488 0.6299 0.7087, -1.8504 0.6299 0.7087, -1.8504 0.6299 -0.0787, -1.6929 0.6299 -0.0787, -1.6929 0.6299 0.7087, -1.437 0.6299 1.2658, -1.437 0.6299 1.8898, -1.4405 0.6299 1.2598, -1.5007 0.6299 1.1245, -1.5315 0.6299 0.9796, -1.5315 0.6299 0.8314, -1.5075 0.6299 0.7087, -1.437 0.2362 1.8898, -1.437 0.2362 1.2658, -1.5007 0.2362 1.1245, -1.5315 0.2362 0.9796, -1.9488 0.2362 1.8898, -1.9488 0.2362 0.7087, -1.8504 0.2362 0.7087, -1.6929 0.2362 0.7087, -1.8504 0.2362 -0.0787, -1.6929 0.2362 -0.0787, -1.5315 0.2362 0.8314, -1.5075 0.2362 0.7087, -1.4405 0.2362 1.2598, -1.8504 0.495 -0.0787, -1.8504 0.2958 -0.0787, -1.6929 0.2958 -0.0787, -1.6929 0.495 -0.0787, -1.9488 2.2047 1.8898, -1.9488 2.2047 0.7087, -1.8504 2.2047 0.7087, -1.8504 2.2047 -0.0787, -1.6929 2.2047 -0.0787, -1.6929 2.2047 0.7087, -1.437 2.2047 1.2658, -1.437 2.2047 1.8898, -1.4405 2.2047 1.2598, -1.5007 2.2047 1.1245, -1.5315 2.2047 0.9796, -1.5315 2.2047 0.8314, -1.5075 2.2047 0.7087, -1.437 1.811 1.8898, -1.437 1.811 1.2658, -1.5007 1.811 1.1245, -1.5315 1.811 0.9796, -1.9488 1.811 1.8898, -1.9488 1.811 0.7087, -1.8504 1.811 0.7087, -1.6929 1.811 0.7087, -1.8504 1.811 -0.0787, -1.6929 1.811 -0.0787, -1.5315 1.811 0.8314, -1.5075 1.811 0.7087, -1.4405 1.811 1.2598, -0.9006 -1.5058 -0.2756, -0.9312 -1.4823 -0.0787, -0.9312 -1.4823 -0.2756, -0.9546 -1.4518 -0.0787, -0.9546 -1.4518 -0.2756, -0.9694 -1.4162 -0.0787, -0.9694 -1.4162 -0.2756, -0.9744 -1.378 -0.0787, -0.9744 -1.378 -0.2756, -0.9694 -1.3397 -0.0787, -0.9694 -1.3397 -0.2756, -0.9546 -1.3041 -0.0787, -0.9546 -1.3041 -0.2756, -0.9312 -1.2736 -0.0787, -0.9312 -1.2736 -0.2756, -0.9006 -1.2501 -0.0787, -0.9006 -1.2501 -0.2756, -0.8964 -1.2484 -0.0787, -0.865 -1.2353 -0.2756, -0.865 -1.2353 -0.0787, -0.8268 -1.2303 -0.0787, -0.8268 -1.2303 -0.2756, -0.7885 -1.2353 -0.0787, -0.7885 -1.2353 -0.2756, -0.7529 -1.2501 -0.0787, -0.7529 -1.2501 -0.2756, -0.7224 -1.2736 -0.0787, -0.7224 -1.2736 -0.2756, -0.6989 -1.3041 -0.0787, -0.6989 -1.3041 -0.2756, -0.6842 -1.3397 -0.0787, -0.6842 -1.3397 -0.2756, -0.6791 -1.378 -0.0787, -0.6791 -1.378 -0.2756, -0.6842 -1.4162 -0.0787, -0.6842 -1.4162 -0.2756, -0.6989 -1.4518 -0.0787, -0.6989 -1.4518 -0.2756, -0.7224 -1.4823 -0.0787, -0.7224 -1.4823 -0.2756, -0.7529 -1.5058 -0.0787, -0.7529 -1.5058 -0.2756, -0.7885 -1.5206 -0.0787, -0.7885 -1.5206 -0.2756, -0.8268 -1.5256 -0.0787, -0.8268 -1.5256 -0.2756, -0.865 -1.5206 -0.0787, -0.865 -1.5206 -0.2756, -0.8964 -1.5075 -0.0787, -0.9006 -1.5058 -0.0787, -0.9205 -1.4321 -0.315, -0.9313 -1.406 -0.315, -0.8268 -1.378 -0.315, -0.935 -1.378 -0.315, -0.9313 -1.3499 -0.315, -0.8548 -1.4825 -0.315, -0.8809 -1.4717 -0.315, -0.9033 -1.4545 -0.315, -0.7726 -1.4717 -0.315, -0.7987 -1.4825 -0.315, -0.8268 -1.4862 -0.315, -0.7222 -1.406 -0.315, -0.733 -1.4321 -0.315, -0.7502 -1.4545 -0.315, -0.733 -1.3238 -0.315, -0.7222 -1.3499 -0.315, -0.7185 -1.378 -0.315, -0.7987 -1.2734 -0.315, -0.7726 -1.2842 -0.315, -0.7502 -1.3014 -0.315, -0.8809 -1.2842 -0.315, -0.8548 -1.2734 -0.315, -0.8268 -1.2697 -0.315, -0.9205 -1.3238 -0.315, -0.9033 -1.3014 -0.315, -0.9006 1.2501 -0.2756, -0.9312 1.2736 -0.0787, -0.9312 1.2736 -0.2756, -0.9546 1.3041 -0.0787, -0.9546 1.3041 -0.2756, -0.9694 1.3397 -0.0787, -0.9694 1.3397 -0.2756, -0.9744 1.378 -0.0787, -0.9744 1.378 -0.2756, -0.9694 1.4162 -0.0787, -0.9694 1.4162 -0.2756, -0.9546 1.4518 -0.0787, -0.9546 1.4518 -0.2756, -0.9312 1.4823 -0.0787, -0.9312 1.4823 -0.2756, -0.9006 1.5058 -0.0787, -0.9006 1.5058 -0.2756, -0.8964 1.5075 -0.0787, -0.865 1.5206 -0.2756, -0.865 1.5206 -0.0787, -0.8268 1.5256 -0.0787, -0.8268 1.5256 -0.2756, -0.7885 1.5206 -0.0787, -0.7885 1.5206 -0.2756, -0.7529 1.5058 -0.0787, -0.7529 1.5058 -0.2756, -0.7224 1.4823 -0.0787, -0.7224 1.4823 -0.2756, -0.6989 1.4518 -0.0787, -0.6989 1.4518 -0.2756, -0.6842 1.4162 -0.0787, -0.6842 1.4162 -0.2756, -0.6791 1.378 -0.0787, -0.6791 1.378 -0.2756, -0.6842 1.3397 -0.0787, -0.6842 1.3397 -0.2756, -0.6989 1.3041 -0.0787, -0.6989 1.3041 -0.2756, -0.7224 1.2736 -0.0787, -0.7224 1.2736 -0.2756, -0.7529 1.2501 -0.0787, -0.7529 1.2501 -0.2756, -0.7885 1.2353 -0.0787, -0.7885 1.2353 -0.2756, -0.8268 1.2303 -0.0787, -0.8268 1.2303 -0.2756, -0.865 1.2353 -0.0787, -0.865 1.2353 -0.2756, -0.8964 1.2484 -0.0787, -0.9006 1.2501 -0.0787, -0.9205 1.3238 -0.315, -0.9313 1.3499 -0.315, -0.8268 1.378 -0.315, -0.935 1.378 -0.315, -0.9313 1.406 -0.315, -0.8548 1.2734 -0.315, -0.8809 1.2842 -0.315, -0.9033 1.3014 -0.315, -0.7726 1.2842 -0.315, -0.7987 1.2734 -0.315, -0.8268 1.2697 -0.315, -0.7222 1.3499 -0.315, -0.733 1.3238 -0.315, -0.7502 1.3014 -0.315, -0.733 1.4321 -0.315, -0.7222 1.406 -0.315, -0.7185 1.378 -0.315, -0.7987 1.4825 -0.315, -0.7726 1.4717 -0.315, -0.7502 1.4545 -0.315, -0.8809 1.4717 -0.315, -0.8548 1.4825 -0.315, -0.8268 1.4862 -0.315, -0.9205 1.4321 -0.315, -0.9033 1.4545 -0.315
            ]
        }
        coordIndex [
            0,1,2,-1,3,4,2,-1,2,4,5,-1,6,7,8,-1,8,7,0,-1,8,0,9,-1,9,0,10,-1,10,0,2,-1,10,2,11,-1,11,2,5,-1,11,5,12,-1,7,6,13,-1,13,6,14,-1,15,16,17,-1,18,17,19,-1,19,17,20,-1,19,20,21,-1,21,20,22,-1,17,16,20,-1,20,16,23,-1,20,23,24,-1,13,14,17,-1,17,14,25,-1,17,25,15,-1,20,24,5,-1,5,24,12,-1,18,1,17,-1,17,1,0,-1,26,3,2,-1,26,2,27,-1,27,2,19,-1,27,19,21,-1,22,20,28,-1,28,20,5,-1,28,5,29,-1,29,5,4,-1,30,31,32,-1,33,34,32,-1,32,34,35,-1,36,37,38,-1,38,37,30,-1,38,30,39,-1,39,30,40,-1,40,30,32,-1,40,32,41,-1,41,32,35,-1,41,35,42,-1,37,36,43,-1,43,36,44,-1,45,46,47,-1,48,47,49,-1,49,47,50,-1,49,50,51,-1,51,50,52,-1,47,46,50,-1,50,46,53,-1,50,53,54,-1,43,44,47,-1,47,44,55,-1,47,55,45,-1,50,54,35,-1,35,54,42,-1,48,31,47,-1,47,31,30,-1,51,33,49,-1,49,33,32,-1,34,52,35,-1,35,52,50,-1,56,57,58,-1,58,57,59,-1,58,59,60,-1,60,59,61,-1,60,61,62,-1,62,61,63,-1,62,63,64,-1,64,63,65,-1,64,65,66,-1,66,65,67,-1,66,67,68,-1,68,67,69,-1,68,69,70,-1,70,69,71,-1,70,71,72,-1,72,71,73,-1,72,73,74,-1,73,75,74,-1,74,75,76,-1,74,76,77,-1,77,76,78,-1,77,78,79,-1,79,78,80,-1,79,80,81,-1,81,80,82,-1,81,82,83,-1,83,82,84,-1,83,84,85,-1,85,84,86,-1,85,86,87,-1,87,86,88,-1,87,88,89,-1,89,88,90,-1,89,90,91,-1,91,90,92,-1,91,92,93,-1,93,92,94,-1,93,94,95,-1,95,94,96,-1,95,96,97,-1,97,96,98,-1,97,98,99,-1,99,98,100,-1,99,100,101,-1,101,100,102,-1,101,102,103,-1,103,102,104,-1,103,104,56,-1,56,104,105,-1,56,105,57,-1,106,107,108,-1,108,107,109,-1,108,109,110,-1,111,112,108,-1,108,112,113,-1,108,113,106,-1,114,115,108,-1,108,115,116,-1,108,116,111,-1,117,118,108,-1,108,118,119,-1,108,119,114,-1,120,121,108,-1,108,121,122,-1,108,122,117,-1,123,124,108,-1,108,124,125,-1,108,125,120,-1,126,127,108,-1,108,127,128,-1,108,128,123,-1,110,129,108,-1,108,129,130,-1,108,130,126,-1,131,132,133,-1,133,132,134,-1,133,134,135,-1,135,134,136,-1,135,136,137,-1,137,136,138,-1,137,138,139,-1,139,138,140,-1,139,140,141,-1,141,140,142,-1,141,142,143,-1,143,142,144,-1,143,144,145,-1,145,144,146,-1,145,146,147,-1,147,146,148,-1,147,148,149,-1,148,150,149,-1,149,150,151,-1,149,151,152,-1,152,151,153,-1,152,153,154,-1,154,153,155,-1,154,155,156,-1,156,155,157,-1,156,157,158,-1,158,157,159,-1,158,159,160,-1,160,159,161,-1,160,161,162,-1,162,161,163,-1,162,163,164,-1,164,163,165,-1,164,165,166,-1,166,165,167,-1,166,167,168,-1,168,167,169,-1,168,169,170,-1,170,169,171,-1,170,171,172,-1,172,171,173,-1,172,173,174,-1,174,173,175,-1,174,175,176,-1,176,175,177,-1,176,177,178,-1,178,177,179,-1,178,179,131,-1,131,179,180,-1,131,180,132,-1,181,182,183,-1,183,182,184,-1,183,184,185,-1,186,187,183,-1,183,187,188,-1,183,188,181,-1,189,190,183,-1,183,190,191,-1,183,191,186,-1,192,193,183,-1,183,193,194,-1,183,194,189,-1,195,196,183,-1,183,196,197,-1,183,197,192,-1,198,199,183,-1,183,199,200,-1,183,200,195,-1,201,202,183,-1,183,202,203,-1,183,203,198,-1,185,204,183,-1,183,204,205,-1,183,205,201,-1,164,196,162,-1,162,196,195,-1,162,195,160,-1,160,195,200,-1,160,200,158,-1,158,200,199,-1,158,199,156,-1,156,199,198,-1,156,198,154,-1,154,198,203,-1,154,203,152,-1,152,203,202,-1,152,202,149,-1,149,202,201,-1,149,201,147,-1,147,201,205,-1,147,205,145,-1,145,205,204,-1,145,204,143,-1,143,204,185,-1,143,185,141,-1,141,185,184,-1,141,184,139,-1,139,184,182,-1,139,182,137,-1,137,182,181,-1,137,181,135,-1,135,181,188,-1,135,188,133,-1,133,188,187,-1,133,187,131,-1,131,187,186,-1,131,186,178,-1,178,186,191,-1,178,191,176,-1,176,191,190,-1,176,190,174,-1,174,190,189,-1,174,189,172,-1,172,189,194,-1,172,194,170,-1,170,194,193,-1,170,193,168,-1,168,193,192,-1,168,192,166,-1,166,192,197,-1,166,197,164,-1,164,197,196,-1,89,121,87,-1,87,121,120,-1,87,120,85,-1,85,120,125,-1,85,125,83,-1,83,125,124,-1,83,124,81,-1,81,124,123,-1,81,123,79,-1,79,123,128,-1,79,128,77,-1,77,128,127,-1,77,127,74,-1,74,127,126,-1,74,126,72,-1,72,126,130,-1,72,130,70,-1,70,130,129,-1,70,129,68,-1,68,129,110,-1,68,110,66,-1,66,110,109,-1,66,109,64,-1,64,109,107,-1,64,107,62,-1,62,107,106,-1,62,106,60,-1,60,106,113,-1,60,113,58,-1,58,113,112,-1,58,112,56,-1,56,112,111,-1,56,111,103,-1,103,111,116,-1,103,116,101,-1,101,116,115,-1,101,115,99,-1,99,115,114,-1,99,114,97,-1,97,114,119,-1,97,119,95,-1,95,119,118,-1,95,118,93,-1,93,118,117,-1,93,117,91,-1,91,117,122,-1,91,122,89,-1,89,122,121,-1,
        ]
    }
}
Shape{
    appearance Appearance {
        material  Material 	{
            diffuseColor 0.0 0.0 0.0
            specularColor 0.0 0.0 0.0
            ambientIntensity 0.0
            transparency 0.0
            shininess 0.5
        }
    }
    geometry IndexedFaceSet {
        ccw TRUE
        solid FALSE
        coord DEF co Coordinate {
            point [
                -1.1893 0.4938 -0.0783, -1.2661 0.297 -0.0783, -1.1893 0.4938 -0.0787, -1.2661 0.297 -0.0787, -1.2373 0.297 -0.0783, -1.2373 0.297 -0.0787, -1.2174 0.3522 -0.0783, -1.2174 0.3522 -0.0787, -1.136 0.3522 -0.0783, -1.136 0.3522 -0.0787, -1.1173 0.297 -0.0783, -1.1173 0.297 -0.0787, -1.0884 0.297 -0.0783, -1.0884 0.297 -0.0787, -1.1629 0.4938 -0.0783, -1.1629 0.4938 -0.0787, -1.1427 0.3738 -0.0783, -1.2085 0.3738 -0.0783, -1.1721 0.456 -0.0783, -1.1739 0.4628 -0.0783, -1.1752 0.4698 -0.0783, -1.1758 0.4698 -0.0783, -1.1771 0.4629 -0.0783, -1.1789 0.456 -0.0783, -1.1427 0.3738 -0.0787, -1.2085 0.3738 -0.0787, -1.1721 0.456 -0.0787, -1.1739 0.4628 -0.0787, -1.1752 0.4698 -0.0787, -1.1758 0.4698 -0.0787, -1.1771 0.4629 -0.0787, -1.1789 0.456 -0.0787, -0.9691 0.297 -0.0783, -0.9156 0.297 -0.0783, -0.9691 0.297 -0.0787, -0.9156 0.297 -0.0787, -0.9156 0.4938 -0.0783, -0.9156 0.4938 -0.0787, -0.9712 0.4938 -0.0783, -0.9712 0.4938 -0.0787, -1.074 0.3979 -0.0783, -1.074 0.3979 -0.0787, -1.0726 0.4164 -0.0787, -1.0726 0.4164 -0.0783, -1.0673 0.4358 -0.0787, -1.0673 0.4358 -0.0783, -1.0582 0.4527 -0.0787, -1.0582 0.4527 -0.0783, -1.0443 0.4682 -0.0787, -1.0443 0.4682 -0.0783, -1.044 0.4683 -0.0787, -1.044 0.4683 -0.0783, -1.0242 0.4816 -0.0787, -1.0226 0.4827 -0.0783, -1.0226 0.4827 -0.0787, -0.9996 0.4908 -0.0787, -0.9996 0.4908 -0.0783, -0.9935 0.2991 -0.0787, -0.9935 0.2991 -0.0783, -1.0162 0.3059 -0.0787, -1.0162 0.3059 -0.0783, -1.0242 0.3105 -0.0787, -1.0367 0.3178 -0.0783, -1.0367 0.3178 -0.0787, -1.0529 0.3333 -0.0787, -1.0529 0.3333 -0.0783, -1.0642 0.3509 -0.0787, -1.0642 0.3509 -0.0783, -1.0713 0.3715 -0.0787, -1.0713 0.3715 -0.0783, -1.0345 0.4446 -0.0783, -1.025 0.4548 -0.0783, -1.0106 0.4641 -0.0783, -0.9943 0.4697 -0.0783, -0.971 0.4722 -0.0783, -0.942 0.4722 -0.0783, -0.942 0.3186 -0.0783, -0.97 0.3186 -0.0783, -0.9907 0.3205 -0.0783, -1.0073 0.3257 -0.0783, -1.0207 0.3337 -0.0783, -1.0318 0.3446 -0.0783, -1.0401 0.3581 -0.0783, -1.0458 0.3766 -0.0783, -1.0476 0.3973 -0.0783, -1.046 0.4169 -0.0783, -1.0414 0.4325 -0.0783, -0.971 0.4722 -0.0787, -0.942 0.4722 -0.0787, -0.9943 0.4697 -0.0787, -1.0106 0.4641 -0.0787, -1.025 0.4548 -0.0787, -1.0345 0.4446 -0.0787, -1.0414 0.4325 -0.0787, -1.046 0.4169 -0.0787, -1.0476 0.3973 -0.0787, -1.0458 0.3766 -0.0787, -1.0401 0.3581 -0.0787, -1.0318 0.3446 -0.0787, -1.0207 0.3337 -0.0787, -1.0073 0.3257 -0.0787, -0.9907 0.3205 -0.0787, -0.97 0.3186 -0.0787, -0.942 0.3186 -0.0787, -0.8772 0.3186 -0.0783, -0.8772 0.297 -0.0783, -0.8772 0.3186 -0.0787, -0.8772 0.297 -0.0787, -0.7716 0.297 -0.0783, -0.7716 0.297 -0.0787, -0.7716 0.4938 -0.0783, -0.7716 0.4938 -0.0787, -0.8724 0.4938 -0.0783, -0.8724 0.4938 -0.0787, -0.8724 0.4722 -0.0783, -0.8724 0.4722 -0.0787, -0.798 0.4722 -0.0783, -0.798 0.4722 -0.0787, -0.798 0.4074 -0.0783, -0.798 0.4074 -0.0787, -0.8676 0.4074 -0.0783, -0.8676 0.4074 -0.0787, -0.8676 0.3858 -0.0783, -0.8676 0.3858 -0.0787, -0.798 0.3858 -0.0783, -0.798 0.3858 -0.0787, -0.798 0.3186 -0.0783, -0.798 0.3186 -0.0787, -0.7332 0.3288 -0.0783, -0.7332 0.3072 -0.0783, -0.7332 0.3288 -0.0787, -0.7332 0.3072 -0.0787, -0.7122 0.2986 -0.0783, -0.679 0.2946 -0.0783, -0.679 0.2946 -0.0787, -0.6844 0.2947 -0.0787, -0.6844 0.2947 -0.0783, -0.6923 0.2958 -0.0787, -0.7122 0.2986 -0.0787, -0.5867 0.3917 -0.0783, -0.5867 0.3917 -0.0787, -0.5886 0.3689 -0.0787, -0.5886 0.3689 -0.0783, -0.5945 0.3481 -0.0787, -0.5945 0.3481 -0.0783, -0.605 0.3293 -0.0787, -0.605 0.3293 -0.0783, -0.6198 0.3138 -0.0787, -0.6198 0.3138 -0.0783, -0.6329 0.3054 -0.0787, -0.6357 0.3037 -0.0783, -0.6357 0.3037 -0.0787, -0.6547 0.2971 -0.0787, -0.6547 0.2971 -0.0783, -0.6674 0.2958 -0.0787, -0.6671 0.4946 -0.0783, -0.6868 0.4962 -0.0783, -0.6721 0.495 -0.0787, -0.6868 0.4962 -0.0787, -0.6671 0.4946 -0.0787, -0.6451 0.4882 -0.0787, -0.6451 0.4882 -0.0783, -0.6329 0.4812 -0.0787, -0.6264 0.4775 -0.0783, -0.6264 0.4775 -0.0787, -0.6086 0.4604 -0.0787, -0.6086 0.4604 -0.0783, -0.5971 0.442 -0.0787, -0.5971 0.442 -0.0783, -0.5895 0.4197 -0.0787, -0.5895 0.4197 -0.0783, -0.7042 0.495 -0.0787, -0.7104 0.4946 -0.0783, -0.7104 0.4946 -0.0787, -0.7332 0.4884 -0.0783, -0.7332 0.4884 -0.0787, -0.7332 0.462 -0.0783, -0.7332 0.462 -0.0787, -0.6871 0.4746 -0.0783, -0.6871 0.4746 -0.0787, -0.711 0.4715 -0.0787, -0.711 0.4715 -0.0783, -0.6131 0.3933 -0.0783, -0.6131 0.3933 -0.0787, -0.6141 0.4086 -0.0787, -0.6141 0.4086 -0.0783, -0.6193 0.4297 -0.0787, -0.6193 0.4297 -0.0783, -0.6274 0.4449 -0.0787, -0.6274 0.4449 -0.0783, -0.6329 0.451 -0.0787, -0.6393 0.458 -0.0783, -0.6393 0.458 -0.0787, -0.6529 0.4671 -0.0787, -0.6529 0.4671 -0.0783, -0.6677 0.4724 -0.0787, -0.6677 0.4724 -0.0783, -0.6826 0.3162 -0.0783, -0.6826 0.3162 -0.0787, -0.6643 0.3182 -0.0787, -0.6643 0.3182 -0.0783, -0.6499 0.3235 -0.0787, -0.6499 0.3235 -0.0783, -0.6378 0.3317 -0.0787, -0.6378 0.3317 -0.0783, -0.6329 0.3369 -0.0787, -0.6286 0.3414 -0.0783, -0.6286 0.3414 -0.0787, -0.6205 0.3551 -0.0787, -0.6205 0.3551 -0.0783, -0.6151 0.372 -0.0787, -0.6151 0.372 -0.0783, -0.7296 0.3268 -0.0787, -0.7296 0.3268 -0.0783, -0.7088 0.3191 -0.0787, -0.7088 0.3191 -0.0783, -0.5699 0.3186 -0.0783, -0.5699 0.297 -0.0783, -0.5699 0.3186 -0.0787, -0.5699 0.297 -0.0787, -0.4691 0.297 -0.0783, -0.4691 0.297 -0.0787, -0.4691 0.4938 -0.0783, -0.4691 0.4938 -0.0787, -0.4955 0.4938 -0.0783, -0.4955 0.4938 -0.0787, -0.4955 0.3186 -0.0783, -0.4955 0.3186 -0.0787
            ]
        }
        coordIndex [
            0,1,2,-1,2,1,3,-1,1,4,3,-1,3,4,5,-1,4,6,5,-1,5,6,7,-1,6,8,7,-1,7,8,9,-1,8,10,9,-1,9,10,11,-1,10,12,11,-1,11,12,13,-1,12,14,13,-1,13,14,15,-1,14,0,15,-1,15,0,2,-1,16,8,17,-1,17,8,6,-1,18,14,16,-1,16,14,12,-1,16,12,8,-1,8,12,10,-1,18,19,14,-1,14,19,20,-1,14,20,0,-1,0,20,21,-1,0,21,22,-1,22,23,0,-1,0,23,17,-1,0,17,1,-1,1,17,6,-1,1,6,4,-1,16,17,24,-1,24,17,25,-1,18,16,26,-1,26,16,24,-1,18,26,27,-1,18,27,19,-1,19,27,28,-1,19,28,20,-1,21,20,29,-1,29,20,28,-1,21,29,30,-1,21,30,22,-1,22,30,31,-1,22,31,23,-1,17,23,25,-1,25,23,31,-1,32,33,34,-1,34,33,35,-1,33,36,35,-1,35,36,37,-1,36,38,37,-1,37,38,39,-1,40,41,42,-1,40,42,43,-1,43,42,44,-1,43,44,45,-1,45,44,46,-1,45,46,47,-1,47,46,48,-1,47,48,49,-1,49,48,50,-1,49,50,51,-1,51,50,52,-1,51,52,53,-1,52,54,53,-1,53,54,55,-1,53,55,56,-1,56,55,39,-1,56,39,38,-1,32,34,57,-1,32,57,58,-1,58,57,59,-1,58,59,60,-1,60,59,61,-1,60,61,62,-1,61,63,62,-1,62,63,64,-1,62,64,65,-1,65,64,66,-1,65,66,67,-1,67,66,68,-1,67,68,69,-1,69,68,41,-1,69,41,40,-1,45,47,70,-1,70,47,49,-1,70,49,71,-1,71,49,51,-1,71,51,72,-1,72,51,53,-1,72,53,73,-1,73,53,56,-1,73,56,74,-1,74,56,38,-1,74,38,75,-1,75,38,36,-1,75,36,76,-1,76,36,33,-1,76,33,77,-1,77,33,32,-1,77,32,78,-1,78,32,58,-1,78,58,79,-1,79,58,60,-1,79,60,80,-1,80,60,62,-1,80,62,81,-1,81,62,65,-1,81,65,82,-1,82,65,67,-1,82,67,83,-1,83,67,69,-1,83,69,84,-1,84,69,40,-1,84,40,85,-1,85,40,43,-1,85,43,86,-1,86,43,45,-1,86,45,70,-1,74,75,87,-1,87,75,88,-1,74,87,89,-1,74,89,73,-1,73,89,90,-1,73,90,72,-1,72,90,91,-1,72,91,71,-1,71,91,92,-1,71,92,70,-1,70,92,93,-1,70,93,86,-1,86,93,94,-1,86,94,85,-1,85,94,95,-1,85,95,84,-1,84,95,96,-1,84,96,83,-1,83,96,97,-1,83,97,82,-1,82,97,98,-1,82,98,81,-1,81,98,99,-1,81,99,80,-1,80,99,100,-1,80,100,79,-1,79,100,101,-1,79,101,78,-1,78,101,102,-1,78,102,77,-1,76,77,103,-1,103,77,102,-1,75,76,88,-1,88,76,103,-1,104,105,106,-1,106,105,107,-1,105,108,107,-1,107,108,109,-1,108,110,109,-1,109,110,111,-1,110,112,111,-1,111,112,113,-1,112,114,113,-1,113,114,115,-1,114,116,115,-1,115,116,117,-1,116,118,117,-1,117,118,119,-1,118,120,119,-1,119,120,121,-1,120,122,121,-1,121,122,123,-1,122,124,123,-1,123,124,125,-1,124,126,125,-1,125,126,127,-1,126,104,127,-1,127,104,106,-1,108,105,104,-1,104,126,108,-1,108,126,124,-1,108,124,110,-1,114,112,116,-1,116,112,110,-1,116,110,118,-1,118,110,124,-1,118,124,120,-1,120,124,122,-1,128,129,130,-1,130,129,131,-1,131,129,132,-1,133,134,135,-1,133,135,136,-1,136,135,137,-1,136,137,132,-1,132,137,138,-1,132,138,131,-1,139,140,141,-1,139,141,142,-1,142,141,143,-1,142,143,144,-1,144,143,145,-1,144,145,146,-1,146,145,147,-1,146,147,148,-1,148,147,149,-1,148,149,150,-1,149,151,150,-1,150,151,152,-1,150,152,153,-1,153,152,154,-1,153,154,133,-1,133,154,134,-1,155,156,157,-1,157,156,158,-1,157,159,155,-1,155,159,160,-1,155,160,161,-1,161,160,162,-1,161,162,163,-1,162,164,163,-1,163,164,165,-1,163,165,166,-1,166,165,167,-1,166,167,168,-1,168,167,169,-1,168,169,170,-1,170,169,140,-1,170,140,139,-1,158,156,171,-1,171,156,172,-1,171,172,173,-1,173,172,174,-1,173,174,175,-1,174,176,175,-1,175,176,177,-1,178,179,180,-1,178,180,181,-1,181,180,177,-1,181,177,176,-1,182,183,184,-1,182,184,185,-1,185,184,186,-1,185,186,187,-1,187,186,188,-1,187,188,189,-1,189,188,190,-1,189,190,191,-1,190,192,191,-1,191,192,193,-1,191,193,194,-1,194,193,195,-1,194,195,196,-1,196,195,179,-1,196,179,178,-1,197,198,199,-1,197,199,200,-1,200,199,201,-1,200,201,202,-1,202,201,203,-1,202,203,204,-1,204,203,205,-1,204,205,206,-1,205,207,206,-1,206,207,208,-1,206,208,209,-1,209,208,210,-1,209,210,211,-1,211,210,183,-1,211,183,182,-1,128,130,212,-1,128,212,213,-1,213,212,214,-1,213,214,215,-1,215,214,198,-1,215,198,197,-1,200,133,197,-1,197,133,136,-1,197,136,215,-1,215,136,132,-1,215,132,213,-1,213,132,129,-1,213,129,128,-1,176,174,181,-1,181,174,172,-1,181,172,178,-1,178,172,156,-1,178,156,196,-1,196,156,155,-1,196,155,194,-1,194,155,161,-1,194,161,191,-1,191,161,163,-1,191,163,189,-1,189,163,166,-1,189,166,187,-1,187,166,168,-1,187,168,185,-1,185,168,170,-1,185,170,182,-1,182,170,139,-1,182,139,211,-1,211,139,142,-1,211,142,209,-1,209,142,144,-1,209,144,206,-1,206,144,146,-1,206,146,204,-1,204,146,148,-1,204,148,202,-1,202,148,150,-1,202,150,200,-1,200,150,153,-1,200,153,133,-1,216,217,218,-1,218,217,219,-1,217,220,219,-1,219,220,221,-1,220,222,221,-1,221,222,223,-1,222,224,223,-1,223,224,225,-1,224,226,225,-1,225,226,227,-1,226,216,227,-1,227,216,218,-1,224,222,226,-1,226,222,220,-1,226,220,216,-1,216,220,217,-1,
        ]
    }
}
Shape{
    appearance Appearance {
        material  Material 	{
            diffuseColor 0.25098039215686274 0.25098039215686274 0.25098039215686274
            specularColor 0.12549019607843137 0.12549019607843137 0.12549019607843137
            ambientIntensity 0.251
            transparency 0.0
            shininess 0.5
        }
    }
    geometry IndexedFaceSet {
        ccw TRUE
        solid FALSE
        coord DEF co Coordinate {
            point [
                -1.1427 0.3738 -0.0787, -1.2085 0.3738 -0.0787, -1.1721 0.456 -0.0787, -1.1789 0.456 -0.0787, -1.1739 0.4628 -0.0787, -1.1771 0.4629 -0.0787, -1.1752 0.4698 -0.0787, -1.1758 0.4698 -0.0787, -0.942 0.4722 -0.0787, -0.942 0.3186 -0.0787, -0.971 0.4722 -0.0787, -0.97 0.3186 -0.0787, -0.9907 0.3205 -0.0787, -1.0476 0.3973 -0.0787, -1.046 0.4169 -0.0787, -1.0414 0.4325 -0.0787, -0.9943 0.4697 -0.0787, -1.0073 0.3257 -0.0787, -1.0207 0.3337 -0.0787, -1.0318 0.3446 -0.0787, -1.0401 0.3581 -0.0787, -1.0458 0.3766 -0.0787, -1.0345 0.4446 -0.0787, -1.025 0.4548 -0.0787, -1.0106 0.4641 -0.0787
            ]
        }
        coordIndex [
            0,1,2,-1,2,1,3,-1,2,3,4,-1,4,3,5,-1,4,5,6,-1,6,5,7,-1,8,9,10,-1,10,9,11,-1,10,11,12,-1,13,14,10,-1,10,14,15,-1,10,15,16,-1,12,17,10,-1,10,17,18,-1,10,18,19,-1,19,20,10,-1,10,20,21,-1,10,21,13,-1,22,23,15,-1,15,23,24,-1,15,24,16,-1,
        ]
    }
}
Shape{
    appearance Appearance {
        material  Material 	{
            diffuseColor 0.7529411764705882 0.7529411764705882 0.7529411764705882
            specularColor 0.3764705882352941 0.3764705882352941 0.3764705882352941
            ambientIntensity 0.7529
            transparency 0.0
            shininess 0.5
        }
    }
    geometry IndexedFaceSet {
        ccw TRUE
        solid FALSE
        coord DEF co Coordinate {
            point [
                0.0591 1.7717 1.1024, 0.0591 1.7717 0.7087, 0.1772 1.7717 1.1024, 0.1772 1.7717 0.7087, 0.0591 2.5984 1.1024, 0.1772 2.5984 1.1024, 0.0591 2.5984 -0.7087, 0.1772 2.5984 -0.7087, 0.0591 2.2835 -0.7874, 0.0591 2.5197 -0.7874, 0.1772 2.2835 -0.7874, 0.1772 2.5197 -0.7874, 0.1772 2.2047 -0.7087, 0.1772 2.2047 0.7087, 0.0591 2.2047 -0.7087, 0.0591 2.2047 0.7087, 0.0591 2.5879 -0.748, 0.0591 2.5754 -0.7643, 0.0591 2.5591 -0.7769, 0.0591 2.5957 -0.729, 0.0591 2.5401 -0.7847, 0.0591 2.2631 -0.7847, 0.0591 2.2441 -0.7769, 0.0591 2.2074 -0.729, 0.0591 2.2278 -0.7643, 0.0591 2.2153 -0.748, 0.1772 2.2153 -0.748, 0.1772 2.2278 -0.7643, 0.1772 2.2074 -0.729, 0.1772 2.2441 -0.7769, 0.1772 2.2631 -0.7847, 0.1772 2.5591 -0.7769, 0.1772 2.5754 -0.7643, 0.1772 2.5879 -0.748, 0.1772 2.5401 -0.7847, 0.1772 2.5957 -0.729, -1.4567 0.6299 0.9055, -1.4567 0.6299 1.6929, -1.4567 0.2362 0.9055, -1.4567 0.2362 1.6929, -1.5748 0.6299 0.9055, -1.5748 0.2362 0.9055, -1.5748 0.6299 1.6929, -1.5748 0.2362 1.6929, -1.5755 0.6299 1.698, -1.5755 0.2362 1.698, -1.5774 0.6299 1.7028, -1.5774 0.2362 1.7028, -1.5806 0.6299 1.7068, -1.5806 0.2362 1.7068, -1.5846 0.6299 1.71, -1.5846 0.2362 1.71, -1.5894 0.6299 1.7119, -1.5894 0.2362 1.7119, -1.5945 0.6299 1.7126, -1.5945 0.2362 1.7126, -1.6929 0.6299 1.7126, -1.6929 0.2362 1.7126, -1.698 0.6299 1.7119, -1.698 0.2362 1.7119, -1.7027 0.6299 1.71, -1.7027 0.2362 1.71, -1.7068 0.6299 1.7068, -1.7068 0.2362 1.7068, -1.7099 0.6299 1.7028, -1.7099 0.2362 1.7028, -1.7119 0.6299 1.698, -1.7119 0.2362 1.698, -1.7126 0.6299 1.6929, -1.7126 0.2362 1.6929, -1.7126 0.6299 -0.7087, -1.7126 0.5512 -0.7874, -1.7126 0.2946 -0.7847, -1.7126 0.315 -0.7874, -1.7126 0.2362 -0.7087, -1.7126 0.2468 -0.748, -1.7126 0.2593 -0.7643, -1.7126 0.2756 -0.7769, -1.7126 0.2389 -0.729, -1.7126 0.5906 -0.7769, -1.7126 0.6069 -0.7643, -1.7126 0.6194 -0.748, -1.7126 0.5716 -0.7847, -1.7126 0.6272 -0.729, -1.8307 0.315 -0.7874, -1.8307 0.5512 -0.7874, -1.8307 0.2362 -0.7087, -1.8307 0.2362 1.6929, -1.8307 0.6299 1.6929, -1.8307 0.5716 -0.7847, -1.8307 0.6299 -0.7087, -1.8307 0.6194 -0.748, -1.8307 0.6069 -0.7643, -1.8307 0.5906 -0.7769, -1.8307 0.2756 -0.7769, -1.8307 0.2593 -0.7643, -1.8307 0.2468 -0.748, -1.8307 0.2946 -0.7847, -1.8307 0.2389 -0.729, -1.8307 0.6272 -0.729, -1.826 0.2362 1.7286, -1.826 0.6299 1.7286, -1.8122 0.2362 1.7618, -1.8122 0.6299 1.7618, -1.7903 0.2362 1.7904, -1.7903 0.6299 1.7904, -1.7618 0.2362 1.8122, -1.7618 0.6299 1.8122, -1.7286 0.2362 1.826, -1.7286 0.6299 1.826, -1.6929 0.2362 1.8307, -1.6929 0.6299 1.8307, -1.5945 0.6299 1.8307, -1.5945 0.2362 1.8307, -1.5588 0.2362 1.826, -1.5588 0.6299 1.826, -1.5256 0.2362 1.8122, -1.5256 0.6299 1.8122, -1.497 0.2362 1.7904, -1.497 0.6299 1.7904, -1.4751 0.2362 1.7618, -1.4751 0.6299 1.7618, -1.4614 0.2362 1.7286, -1.4614 0.6299 1.7286
            ]
        }
        coordIndex [
            0,1,2,-1,2,1,3,-1,4,0,5,-1,5,0,2,-1,6,4,7,-1,7,4,5,-1,8,9,10,-1,10,9,11,-1,12,13,14,-1,14,13,15,-1,1,15,3,-1,3,15,13,-1,1,0,15,-1,15,0,4,-1,15,4,14,-1,16,17,18,-1,4,6,14,-1,14,6,9,-1,14,9,8,-1,6,19,9,-1,9,19,16,-1,9,16,20,-1,20,16,18,-1,8,21,14,-1,14,21,22,-1,14,22,23,-1,23,22,24,-1,23,24,25,-1,2,3,5,-1,5,3,13,-1,5,13,7,-1,13,12,7,-1,7,12,10,-1,7,10,11,-1,26,27,28,-1,28,27,29,-1,28,29,12,-1,12,29,30,-1,12,30,10,-1,31,32,33,-1,11,34,7,-1,7,34,31,-1,7,31,35,-1,35,31,33,-1,8,10,30,-1,8,30,21,-1,21,30,29,-1,21,29,22,-1,22,29,27,-1,22,27,24,-1,24,27,26,-1,24,26,25,-1,25,26,28,-1,25,28,23,-1,23,28,12,-1,23,12,14,-1,6,7,35,-1,6,35,19,-1,19,35,33,-1,19,33,16,-1,16,33,32,-1,16,32,17,-1,17,32,31,-1,17,31,18,-1,18,31,34,-1,18,34,20,-1,20,34,11,-1,20,11,9,-1,36,37,38,-1,38,37,39,-1,40,36,41,-1,41,36,38,-1,42,40,43,-1,43,40,41,-1,42,43,44,-1,44,43,45,-1,44,45,46,-1,46,45,47,-1,46,47,48,-1,48,47,49,-1,48,49,50,-1,50,49,51,-1,50,51,52,-1,52,51,53,-1,52,53,54,-1,54,53,55,-1,56,54,57,-1,57,54,55,-1,56,57,58,-1,58,57,59,-1,58,59,60,-1,60,59,61,-1,60,61,62,-1,62,61,63,-1,62,63,64,-1,64,63,65,-1,64,65,66,-1,66,65,67,-1,66,67,68,-1,68,67,69,-1,70,68,71,-1,72,73,74,-1,71,68,73,-1,73,68,69,-1,73,69,74,-1,75,76,77,-1,72,74,77,-1,77,74,78,-1,77,78,75,-1,79,80,81,-1,71,82,70,-1,70,82,79,-1,70,79,83,-1,83,79,81,-1,84,85,73,-1,73,85,71,-1,86,87,88,-1,89,85,90,-1,90,85,88,-1,88,85,84,-1,88,84,86,-1,91,92,93,-1,94,95,96,-1,84,97,86,-1,86,97,94,-1,86,94,98,-1,98,94,96,-1,89,90,93,-1,93,90,99,-1,93,99,91,-1,88,87,100,-1,88,100,101,-1,101,100,102,-1,101,102,103,-1,103,102,104,-1,103,104,105,-1,105,104,106,-1,105,106,107,-1,107,106,108,-1,107,108,109,-1,109,108,110,-1,109,110,111,-1,112,111,113,-1,113,111,110,-1,112,113,114,-1,112,114,115,-1,115,114,116,-1,115,116,117,-1,117,116,118,-1,117,118,119,-1,119,118,120,-1,119,120,121,-1,121,120,122,-1,121,122,123,-1,123,122,39,-1,123,39,37,-1,70,90,68,-1,68,90,88,-1,68,88,66,-1,66,88,101,-1,66,101,64,-1,64,101,103,-1,64,103,62,-1,62,103,105,-1,62,105,60,-1,60,105,107,-1,60,107,58,-1,58,107,109,-1,58,109,56,-1,56,109,111,-1,56,111,54,-1,54,111,112,-1,54,112,52,-1,52,112,115,-1,52,115,50,-1,50,115,117,-1,50,117,48,-1,48,117,119,-1,48,119,46,-1,46,119,121,-1,46,121,44,-1,44,121,123,-1,44,123,42,-1,42,123,37,-1,42,37,40,-1,40,37,36,-1,41,38,43,-1,43,38,39,-1,43,39,45,-1,45,39,122,-1,45,122,47,-1,47,122,120,-1,47,120,49,-1,49,120,118,-1,49,118,51,-1,51,118,116,-1,51,116,53,-1,53,116,114,-1,53,114,55,-1,55,114,113,-1,55,113,57,-1,57,113,110,-1,57,110,59,-1,59,110,108,-1,59,108,61,-1,61,108,106,-1,61,106,63,-1,63,106,104,-1,63,104,65,-1,65,104,102,-1,65,102,67,-1,67,102,100,-1,67,100,69,-1,69,100,87,-1,69,87,74,-1,74,87,86,-1,74,86,98,-1,74,98,78,-1,78,98,96,-1,78,96,75,-1,75,96,95,-1,75,95,76,-1,76,95,94,-1,76,94,77,-1,77,94,97,-1,77,97,72,-1,72,97,84,-1,72,84,73,-1,90,70,83,-1,90,83,99,-1,99,83,81,-1,99,81,91,-1,91,81,80,-1,91,80,92,-1,92,80,79,-1,92,79,93,-1,93,79,82,-1,93,82,89,-1,89,82,71,-1,89,71,85,-1,
        ]
    }
}