#VRML V2.0 utf8
# 3D model generated by easyeda2kicad.py (https://github.com/uPesy/easyeda2kicad.py)

Shape{
    appearance Appearance {
        material  Material 	{
            diffuseColor 1.0 1.0 1.0
            specularColor 0.30196078431372547 0.30196078431372547 0.30196078431372547
            ambientIntensity 1.0
            transparency 0.0
            shininess 0.5
        }
    }
    geometry IndexedFaceSet {
        ccw TRUE
        solid FALSE
        coord DEF co Coordinate {
            point [
                0.1002 0.0383 0.9055, 0.1002 -0.1979 0.9055, 0.1002 0.0383 0.7087, 0.1002 -0.1979 0.7087, -0.136 0.0383 0.9055, -0.136 0.0383 0.7087, -0.136 -0.1979 0.9055, -0.136 -0.1979 0.7087, 0.6002 0.0383 0.9055, 0.6002 -0.1979 0.9055, 0.6002 0.0383 0.7087, 0.6002 -0.1979 0.7087, 0.364 0.0383 0.9055, 0.364 0.0383 0.7087, 0.364 -0.1979 0.9055, 0.364 -0.1979 0.7087, -0.3998 0.0383 0.9055, -0.3998 -0.1979 0.9055, -0.3998 0.0383 0.7087, -0.3998 -0.1979 0.7087, -0.636 0.0383 0.9055, -0.636 0.0383 0.7087, -0.636 -0.1979 0.9055, -0.636 -0.1979 0.7087
            ]
        }
        coordIndex [
            0,1,2,-1,2,1,3,-1,4,0,5,-1,5,0,2,-1,6,4,7,-1,7,4,5,-1,1,6,3,-1,3,6,7,-1,4,6,0,-1,0,6,1,-1,7,5,3,-1,3,5,2,-1,8,9,10,-1,10,9,11,-1,12,8,13,-1,13,8,10,-1,14,12,15,-1,15,12,13,-1,9,14,11,-1,11,14,15,-1,12,14,8,-1,8,14,9,-1,15,13,11,-1,11,13,10,-1,16,17,18,-1,18,17,19,-1,20,16,21,-1,21,16,18,-1,22,20,23,-1,23,20,21,-1,17,22,19,-1,19,22,23,-1,20,22,16,-1,16,22,17,-1,23,21,19,-1,19,21,18,-1,
        ]
    }
}
Shape{
    appearance Appearance {
        material  Material 	{
            diffuseColor 0.9686274509803922 0.8784313725490196 0.6
            specularColor 0.6784313725490196 0.615686274509804 0.4196078431372549
            ambientIntensity 0.8737
            transparency 0.0
            shininess 0.5
        }
    }
    geometry IndexedFaceSet {
        ccw TRUE
        solid FALSE
        coord DEF co Coordinate {
            point [
                0.4033 1.0915 0.2559, 0.5608 1.0915 0.2559, 0.4033 1.1528 0.2559, 0.5608 1.1528 0.2559, 0.4033 1.3551 0.0591, 0.5608 1.3551 0.0591, 0.4033 1.682 0.0591, 0.5608 1.682 0.0591, 0.4033 1.3159 0.0817, 0.5608 1.3159 0.0817, 0.4033 1.3231 0.0723, 0.5608 1.3231 0.0723, 0.4033 1.3325 0.0651, 0.5608 1.3325 0.0651, 0.4033 1.3434 0.0606, 0.5608 1.3434 0.0606, 0.4033 1.2466 0.2018, 0.5608 1.2466 0.2018, 0.4033 1.2294 0.2242, 0.5608 1.2294 0.2242, 0.4033 1.207 0.2414, 0.5608 1.207 0.2414, 0.4033 1.1809 0.2522, 0.5608 1.1809 0.2522, 0.4033 1.1528 0.1969, 0.4033 1.0915 0.1969, 0.4033 1.1656 0.1952, 0.4033 1.1774 0.1903, 0.4033 1.1876 0.1824, 0.4033 1.1955 0.1722, 0.4033 1.2648 0.0522, 0.4033 1.3551 0.0, 0.4033 1.3281 0.0036, 0.4033 1.303 0.014, 0.4033 1.2814 0.0306, 0.4033 1.682 0.0, 0.5608 1.682 0.0, 0.5608 1.3551 0.0, 0.5608 1.2648 0.0522, 0.5608 1.2814 0.0306, 0.5608 1.303 0.014, 0.5608 1.3281 0.0036, 0.5608 1.1955 0.1722, 0.5608 1.1876 0.1824, 0.5608 1.1774 0.1903, 0.5608 1.1656 0.1952, 0.5608 1.1528 0.1969, 0.5608 1.0915 0.1969
            ]
        }
        coordIndex [
            0,1,2,-1,2,1,3,-1,4,5,6,-1,6,5,7,-1,8,9,10,-1,10,9,11,-1,10,11,12,-1,12,11,13,-1,12,13,14,-1,14,13,15,-1,14,15,4,-1,4,15,5,-1,16,17,8,-1,8,17,9,-1,17,16,18,-1,17,18,19,-1,19,18,20,-1,19,20,21,-1,21,20,22,-1,21,22,23,-1,23,22,2,-1,23,2,3,-1,24,25,2,-1,2,25,0,-1,24,2,26,-1,26,2,22,-1,26,22,27,-1,27,22,20,-1,27,20,28,-1,28,20,18,-1,28,18,29,-1,29,18,16,-1,30,29,8,-1,8,29,16,-1,4,31,14,-1,14,31,32,-1,14,32,12,-1,12,32,33,-1,12,33,10,-1,10,33,34,-1,10,34,8,-1,8,34,30,-1,35,31,6,-1,6,31,4,-1,35,6,36,-1,36,6,7,-1,7,5,36,-1,36,5,37,-1,9,38,11,-1,11,38,39,-1,11,39,13,-1,13,39,40,-1,13,40,15,-1,15,40,41,-1,15,41,5,-1,5,41,37,-1,9,17,38,-1,38,17,42,-1,42,17,43,-1,43,17,19,-1,43,19,44,-1,44,19,21,-1,44,21,45,-1,45,21,23,-1,45,23,46,-1,46,23,3,-1,3,1,46,-1,46,1,47,-1,46,24,45,-1,45,24,26,-1,45,26,44,-1,44,26,27,-1,44,27,43,-1,43,27,28,-1,43,28,42,-1,42,28,29,-1,38,42,30,-1,30,42,29,-1,31,37,41,-1,31,41,32,-1,32,41,40,-1,32,40,33,-1,33,40,39,-1,33,39,34,-1,34,39,38,-1,34,38,30,-1,36,37,35,-1,35,37,31,-1,
        ]
    }
}
Shape{
    appearance Appearance {
        material  Material 	{
            diffuseColor 0.10980392156862745 0.10980392156862745 0.10980392156862745
            specularColor 0.0784313725490196 0.0784313725490196 0.0784313725490196
            ambientIntensity 0.1098
            transparency 0.0
            shininess 0.5
        }
    }
    geometry IndexedFaceSet {
        ccw TRUE
        solid FALSE
        coord DEF co Coordinate {
            point [
                -0.0093 -0.0998 0.0, -0.0093 -0.0701 0.0, 0.0608 -0.0998 0.0, 1.0077 0.0029 0.0, 0.0608 -0.1104 0.0, 1.0077 -0.9754 0.0, -0.0179 -0.1104 0.0, -0.0184 -0.9754 0.0, 0.0531 -0.0232 0.0, -0.006 -0.0062 0.0, 0.0519 -0.0136 0.0, -0.0052 -0.0048 0.0, 0.0481 -0.0048 0.0, 0.0587 -0.0048 0.0, 0.0523 -0.031 0.0, 0.0502 -0.0368 0.0, 0.0464 -0.0424 0.0, 0.0411 -0.0471 0.0, 0.0351 -0.0503 0.0, 0.0265 -0.0524 0.0, 0.0206 -0.0528 0.0, 0.0121 -0.052 0.0, 0.0053 -0.0498 0.0, -0.0102 -0.025 0.0, -0.004 -0.0429 0.0, -0.0094 -0.0323 0.0, -0.0073 -0.0381 0.0, -0.0001 -0.0466 0.0, -0.0091 -0.0145 0.0, -0.0152 -0.0438 0.0, -0.0179 -0.0701 0.0, -0.0179 -0.0361 0.0, -0.0184 -0.0311 0.0, 0.0475 -0.0546 0.0, 0.0541 -0.0477 0.0, 0.0584 -0.0404 0.0, 0.061 -0.0317 0.0, -0.0111 -0.0502 0.0, -0.0048 -0.0561 0.0, 0.0027 -0.0603 0.0, 0.011 -0.0626 0.0, 0.0618 -0.0233 0.0, 0.0611 -0.0139 0.0, 0.02 -0.0633 0.0, 0.0312 -0.0622 0.0, 0.0401 -0.0592 0.0, -0.0138 -0.0048 0.0, -0.0173 -0.0132 0.0, -0.0184 0.0029 0.0, -0.0184 -0.0211 0.0, -1.0435 0.0029 0.0, -0.0188 -0.0243 0.0, -1.0435 -0.9754 0.0, -0.0189 -0.0264 0.0, -0.0179 0.0528 0.0, -0.0179 0.0106 0.0, 0.0608 0.0106 0.0, 0.0608 0.0509 0.0, 1.0077 1.0521 0.0, 0.0119 0.1305 0.0, 0.0037 0.1277 0.0, -0.0179 0.1374 0.0, -0.0034 0.1231 0.0, 0.0608 0.1671 0.0, 0.0608 0.1777 0.0, 0.0596 0.1018 0.0, 0.0564 0.111 0.0, -0.0184 1.0521 0.0, 0.0522 0.0212 0.0, 0.0263 0.0212 0.0, 0.0522 0.0509 0.0, 0.0263 0.049 0.0, 0.0176 0.049 0.0, 0.0176 0.0212 0.0, -0.0093 0.0212 0.0, -0.0096 0.1167 0.0, -0.0144 0.1084 0.0, -0.0171 0.0994 0.0, 0.0422 0.1267 0.0, 0.0345 0.13 0.0, 0.0263 0.1314 0.0, 0.0225 0.1316 0.0, -0.0093 0.0528 0.0, -0.0179 0.0682 0.0, 0.0608 0.0682 0.0, -0.0179 0.0896 0.0, 0.0513 0.1188 0.0, 0.0485 0.1219 0.0, 0.0608 0.0904 0.0, -0.0179 0.2084 0.0, -0.0179 0.1969 0.0, 0.0042 0.1889 0.0, 0.0042 0.1564 0.0, -0.0179 0.1489 0.0, -1.0435 1.0521 0.0, 1.0077 -0.9754 0.9055, 1.0077 -0.9189 0.9055, 0.2321 -0.9189 0.9055, 1.0077 -0.6077 0.9055, 0.2321 -0.6077 0.9055, 0.2321 0.6804 0.9055, 0.2321 1.0521 0.9055, -0.2436 1.0521 0.9055, -0.7337 0.7438 0.9055, -0.7472 0.7827 0.9055, -1.0435 0.6804 0.9055, -0.7525 0.8361 0.9055, -1.0435 1.0521 0.9055, -0.6869 0.691 0.9055, -0.7052 0.7045 0.9055, -0.7337 0.6804 0.9055, -0.7244 0.7273 0.9055, -0.7333 0.7427 0.9055, -0.6365 0.6785 0.9055, -0.6494 0.6802 0.9055, -0.6494 0.6537 0.9055, -0.6507 0.6804 0.9055, -0.4933 0.6537 0.9055, -0.4933 0.6804 0.9055, -0.6179 0.6804 0.9055, -0.612 0.681 0.9055, -0.6058 0.9978 0.9055, -0.4933 1.0521 0.9055, -0.6325 1.0011 0.9055, -0.6494 1.0521 0.9055, -0.6494 0.9992 0.9055, -0.5854 0.9898 0.9055, -0.5664 0.9764 0.9055, -0.5474 0.9541 0.9055, -0.5515 0.7217 0.9055, -0.5695 0.7022 0.9055, -0.5889 0.6892 0.9055, -0.5182 0.8435 0.9055, -0.5219 0.7961 0.9055, -0.5332 0.7545 0.9055, -0.5336 0.9286 0.9055, -0.5215 0.886 0.9055, -0.7489 0.8834 0.9055, -0.7375 0.9248 0.9055, -0.7337 1.0521 0.9055, -0.7337 0.9317 0.9055, -0.7194 0.9575 0.9055, -0.7013 0.9771 0.9055, -0.6822 0.9899 0.9055, -0.6594 0.9981 0.9055, -0.4933 0.6289 0.9055, -0.3211 0.6289 0.9055, -0.2967 0.6537 0.9055, -0.2967 -0.6077 0.9055, -0.3211 -0.5522 0.9055, -0.4933 -0.6077 0.9055, -0.7148 0.6289 0.9055, -0.7337 0.6537 0.9055, -0.7148 -0.5522 0.9055, -0.7337 -0.6077 0.9055, -0.6494 -0.5522 0.9055, -0.6666 0.6825 0.9055, -0.4414 0.6823 0.9055, -0.4722 0.6823 0.9055, -0.2724 0.6823 0.9055, -0.2967 0.6823 0.9055, -0.2967 0.6804 0.9055, -0.3093 0.6823 0.9055, -0.4722 0.9973 0.9055, -0.4414 0.9473 0.9055, -0.4424 0.9473 0.9055, -0.4376 0.9369 0.9055, -0.4415 0.9253 0.9055, -0.433 0.9268 0.9055, -0.3032 0.7818 0.9055, -0.3032 0.9973 0.9055, -0.4337 0.9973 0.9055, -0.3022 0.7361 0.9055, -0.3015 0.7361 0.9055, -0.3071 0.747 0.9055, -0.3029 0.7589 0.9055, -0.3125 0.7578 0.9055, -0.2967 1.0521 0.9055, -0.2967 0.9973 0.9055, 1.0077 1.0521 0.9055, 1.0077 0.6804 0.9055, 1.0077 0.6537 0.9055, -0.2436 0.6804 0.9055, -0.2436 0.6537 0.9055, 0.2321 0.6537 0.9055, -0.4414 0.9033 0.9055, -0.6494 0.6289 0.9055, -0.2724 0.9973 0.9055, 0.6789 0.6289 0.9055, 0.6789 -0.5522 0.9055, 0.2852 -0.5522 0.9055, 0.2852 0.6289 0.9055, -0.2148 0.6289 0.9055, -0.2148 -0.5522 0.9055, -0.2436 -0.6077 0.9055, 0.1789 -0.5522 0.9055, 0.1789 0.6289 0.9055, -0.2436 -0.9189 0.9055, -0.2967 -0.9189 0.9055, -0.4933 -0.9189 0.9055, -0.5803 -0.7174 0.9055, -0.584 -0.7184 0.9055, -0.6494 -0.9189 0.9055, -0.6494 -0.6077 0.9055, -0.5384 -0.8624 0.9055, -0.5384 -0.6952 0.9055, -0.5566 -0.7074 0.9055, -0.584 -0.6944 0.9055, -0.5524 -0.6816 0.9055, -0.5144 -0.8624 0.9055, -0.5144 -0.6631 0.9055, -0.5237 -0.6631 0.9055, -0.4933 -0.5522 0.9055, -0.7337 -0.9189 0.9055, -1.0435 0.6537 0.9055, -1.0435 -0.6077 0.9055, -1.0435 -0.9189 0.9055, 0.2321 -0.9754 0.9055, -0.2436 -0.9754 0.9055, -0.2967 -0.9754 0.9055, -0.4933 -0.9754 0.9055, -0.6494 -0.9754 0.9055, -0.7337 -0.9754 0.9055, -1.0435 -0.9754 0.9055, 1.0471 1.0915 0.5118, 1.0471 1.0915 0.1969, 0.5608 1.0915 0.1969, 0.4033 1.0915 0.1969, 0.0608 1.0915 0.1969, 0.4033 1.0915 0.2559, 0.0608 1.0915 0.2559, 0.5608 1.0915 0.2559, -1.0829 1.0915 0.5118, -0.0967 1.0915 0.2559, -0.5967 1.0915 0.1969, -1.0829 1.0915 0.1969, -0.5967 1.0915 0.2559, -0.4392 1.0915 0.2559, -0.4392 1.0915 0.1969, -0.0967 1.0915 0.1969, 0.0608 -1.0148 0.2559, 0.0608 -1.0148 0.1969, 0.4033 -1.0148 0.1969, 0.5608 -1.0148 0.1969, 1.0471 -1.0148 0.1969, 0.5608 -1.0148 0.2559, 1.0471 -1.0148 0.5118, 0.4033 -1.0148 0.2559, -1.0829 -1.0148 0.5118, -1.0829 -1.0148 0.1969, -0.5967 -1.0148 0.1969, -0.5967 -1.0148 0.2559, -0.4392 -1.0148 0.2559, -0.4392 -1.0148 0.1969, -0.0967 -1.0148 0.1969, -0.0967 -1.0148 0.2559
            ]
        }
        coordIndex [
            0,1,2,-1,2,1,3,-1,2,3,4,-1,4,3,5,-1,4,5,6,-1,6,5,7,-1,8,9,10,-1,10,9,11,-1,10,11,12,-1,12,11,3,-1,12,3,13,-1,8,14,9,-1,9,14,15,-1,9,15,16,-1,16,17,9,-1,9,17,18,-1,9,18,19,-1,19,20,9,-1,9,20,21,-1,9,21,22,-1,23,24,25,-1,25,24,26,-1,22,27,9,-1,9,27,24,-1,9,24,28,-1,28,24,23,-1,29,30,31,-1,31,30,32,-1,33,34,3,-1,3,34,35,-1,3,35,36,-1,29,37,30,-1,30,37,38,-1,30,38,1,-1,1,38,39,-1,1,39,40,-1,36,41,3,-1,3,41,42,-1,3,42,13,-1,40,43,1,-1,1,43,44,-1,1,44,3,-1,3,44,45,-1,3,45,33,-1,46,47,48,-1,48,47,49,-1,48,49,50,-1,50,49,51,-1,50,51,52,-1,52,51,53,-1,52,53,7,-1,7,53,32,-1,7,32,6,-1,6,32,30,-1,54,55,48,-1,48,55,56,-1,57,58,56,-1,56,58,3,-1,56,3,48,-1,48,3,11,-1,48,11,46,-1,59,60,61,-1,61,60,62,-1,63,64,58,-1,65,66,63,-1,58,64,67,-1,68,69,70,-1,70,69,71,-1,72,73,74,-1,62,75,61,-1,61,75,76,-1,61,76,77,-1,78,79,63,-1,63,79,80,-1,63,80,61,-1,61,80,81,-1,61,81,59,-1,74,82,72,-1,72,82,83,-1,72,83,71,-1,71,83,84,-1,71,84,70,-1,82,54,83,-1,83,54,48,-1,83,48,85,-1,66,86,63,-1,63,86,87,-1,63,87,78,-1,65,63,88,-1,88,63,58,-1,88,58,84,-1,84,58,57,-1,84,57,70,-1,89,90,48,-1,91,92,90,-1,90,92,93,-1,90,93,48,-1,48,93,61,-1,48,61,85,-1,85,61,77,-1,50,94,48,-1,48,94,67,-1,48,67,89,-1,89,67,64,-1,95,96,97,-1,96,98,99,-1,100,101,102,-1,103,104,105,-1,105,104,106,-1,105,106,107,-1,108,109,110,-1,110,109,111,-1,110,111,112,-1,113,114,115,-1,115,114,116,-1,115,117,118,-1,113,115,119,-1,119,115,118,-1,119,118,120,-1,121,122,123,-1,123,122,124,-1,123,124,125,-1,121,126,122,-1,122,126,127,-1,122,127,128,-1,129,130,118,-1,118,130,131,-1,118,131,120,-1,132,133,118,-1,118,133,134,-1,118,134,129,-1,128,135,122,-1,122,135,136,-1,122,136,132,-1,106,137,107,-1,107,137,138,-1,107,138,139,-1,139,138,140,-1,139,140,141,-1,141,142,139,-1,139,142,143,-1,139,143,124,-1,124,143,144,-1,124,144,125,-1,145,146,147,-1,147,146,148,-1,148,146,149,-1,148,149,150,-1,151,152,153,-1,153,152,154,-1,153,154,155,-1,151,115,152,-1,152,115,116,-1,152,116,110,-1,110,116,156,-1,110,156,108,-1,157,158,118,-1,159,160,161,-1,161,160,162,-1,132,118,122,-1,122,118,158,-1,122,158,163,-1,164,165,166,-1,166,165,167,-1,166,167,168,-1,168,167,162,-1,169,170,171,-1,172,173,174,-1,174,173,175,-1,169,171,175,-1,175,171,176,-1,175,176,174,-1,163,171,122,-1,122,171,170,-1,122,170,177,-1,177,170,178,-1,177,178,102,-1,179,101,180,-1,180,101,100,-1,180,100,181,-1,182,183,184,-1,167,185,162,-1,162,185,157,-1,162,157,161,-1,161,157,118,-1,161,118,147,-1,147,118,117,-1,147,117,145,-1,145,117,115,-1,145,115,186,-1,186,115,151,-1,178,187,102,-1,102,187,182,-1,102,182,100,-1,100,182,184,-1,100,184,181,-1,181,184,188,-1,181,188,98,-1,98,188,189,-1,98,189,99,-1,99,189,190,-1,99,190,184,-1,184,190,191,-1,184,191,188,-1,192,183,193,-1,193,183,194,-1,193,194,195,-1,195,194,99,-1,195,99,196,-1,196,99,184,-1,196,184,192,-1,192,184,183,-1,187,159,182,-1,182,159,161,-1,182,161,183,-1,183,161,147,-1,183,147,194,-1,194,147,148,-1,96,99,97,-1,97,99,194,-1,97,194,197,-1,197,194,148,-1,197,148,198,-1,198,148,150,-1,198,150,199,-1,200,201,202,-1,202,201,203,-1,204,205,206,-1,201,207,203,-1,203,207,208,-1,203,208,150,-1,206,200,204,-1,204,200,202,-1,204,202,209,-1,209,202,199,-1,209,199,210,-1,210,199,150,-1,210,150,211,-1,211,150,208,-1,149,212,150,-1,150,212,155,-1,150,155,203,-1,203,155,154,-1,203,154,202,-1,202,154,213,-1,112,103,110,-1,110,103,105,-1,110,105,152,-1,152,105,214,-1,152,214,154,-1,154,214,215,-1,154,215,213,-1,213,215,216,-1,95,97,217,-1,217,97,197,-1,217,197,218,-1,218,197,198,-1,218,198,219,-1,219,198,199,-1,219,199,220,-1,220,199,202,-1,220,202,221,-1,221,202,213,-1,221,213,222,-1,222,213,216,-1,222,216,223,-1,224,225,226,-1,227,228,229,-1,229,228,230,-1,226,231,224,-1,224,231,229,-1,224,229,232,-1,232,229,230,-1,232,230,233,-1,234,235,236,-1,236,235,232,-1,236,232,237,-1,237,232,233,-1,237,233,238,-1,238,233,239,-1,240,241,242,-1,243,244,245,-1,245,244,246,-1,245,246,247,-1,247,246,248,-1,249,250,248,-1,248,250,251,-1,248,251,252,-1,253,254,252,-1,252,254,255,-1,252,255,248,-1,248,255,240,-1,248,240,247,-1,247,240,242,-1,224,246,225,-1,225,246,244,-1,248,232,249,-1,249,232,235,-1,
        ]
    }
}
Shape{
    appearance Appearance {
        material  Material 	{
            diffuseColor 0.25098039215686274 0.25098039215686274 0.25098039215686274
            specularColor 0.17647058823529413 0.17647058823529413 0.17647058823529413
            ambientIntensity 0.251
            transparency 0.0
            shininess 0.5
        }
    }
    geometry IndexedFaceSet {
        ccw TRUE
        solid FALSE
        coord DEF co Coordinate {
            point [
                1.0471 -1.0148 0.5118, 1.0077 -0.9754 0.9055, 0.2321 -0.9754 0.9055, -1.0829 -1.0148 0.5118, -0.2436 -0.9754 0.9055, -0.2967 -0.9754 0.9055, -0.4933 -0.9754 0.9055, -0.6494 -0.9754 0.9055, -0.7337 -0.9754 0.9055, -1.0435 -0.9754 0.9055, 1.0077 -0.9189 0.9055, 1.0077 1.0521 0.9055, 1.0077 0.6804 0.9055, 1.0471 1.0915 0.5118, 1.0077 0.6537 0.9055, 1.0077 -0.6077 0.9055, -1.0435 0.6804 0.9055, -1.0435 1.0521 0.9055, -1.0829 1.0915 0.5118, -1.0435 -0.9189 0.9055, -1.0435 -0.6077 0.9055, -1.0435 0.6537 0.9055, -0.7337 1.0521 0.9055, -0.6494 1.0521 0.9055, -0.4933 1.0521 0.9055, -0.2967 1.0521 0.9055, -0.2436 1.0521 0.9055, 0.2321 1.0521 0.9055, -0.5967 1.0915 0.1969, -0.5967 1.1528 0.1969, -0.4392 1.1528 0.1969, -0.0967 -1.0148 0.1969, -0.4392 -1.0148 0.1969, -1.0435 -0.9754 0.1969, 0.4033 1.0915 0.1969, 0.4033 1.1528 0.1969, 0.5608 1.1528 0.1969, 0.0608 -1.0148 0.1969, 0.0608 -1.0762 0.1969, -0.0967 -1.0762 0.1969, -0.0967 1.1528 0.1969, 0.0608 1.1528 0.1969, -0.0967 1.0915 0.1969, 0.0608 1.0915 0.1969, 1.0077 -0.9754 0.1969, 0.5608 -1.0148 0.1969, 1.0471 -1.0148 0.1969, 1.0471 1.0915 0.1969, 1.0077 1.0521 0.1969, 0.5608 1.0915 0.1969, -0.4392 -1.0762 0.1969, -0.5967 -1.0762 0.1969, -0.5967 -1.0148 0.1969, -1.0829 -1.0148 0.1969, -1.0435 1.0521 0.1969, 0.4033 -1.0148 0.1969, 0.4033 -1.0762 0.1969, 0.5608 -1.0762 0.1969, -0.4392 1.0915 0.1969, -1.0829 1.0915 0.1969, -1.0435 1.0521 0.0, -0.0184 1.0521 0.0, 1.0077 1.0521 0.0, -1.0435 -0.9754 0.0, -1.0435 0.0029 0.0, 1.0077 -0.9754 0.0, -0.0184 -0.9754 0.0, 1.0077 0.0029 0.0, 0.1789 0.4714 0.748, 0.1789 -0.3947 0.748, 0.1789 0.6289 0.9055, 0.1789 -0.5522 0.9055, -0.2148 -0.3947 0.748, -0.2148 0.4714 0.748, -0.2148 -0.5522 0.9055, -0.2148 0.6289 0.9055, 0.1199 -0.1979 0.748, -0.1557 -0.1979 0.748, -0.1557 0.2746 0.748, 0.1199 0.2746 0.748
            ]
        }
        coordIndex [
            0,1,2,-1,0,2,3,-1,2,4,3,-1,3,4,5,-1,3,5,6,-1,6,7,3,-1,3,7,8,-1,3,8,9,-1,10,1,0,-1,11,12,13,-1,13,12,14,-1,13,14,0,-1,0,14,15,-1,0,15,10,-1,16,17,18,-1,9,19,3,-1,3,19,20,-1,3,20,18,-1,18,20,21,-1,18,21,16,-1,17,22,18,-1,18,22,23,-1,18,23,24,-1,24,25,18,-1,18,25,26,-1,18,26,13,-1,13,26,27,-1,13,27,11,-1,28,29,30,-1,31,32,33,-1,34,35,36,-1,37,38,39,-1,40,41,42,-1,42,41,43,-1,33,44,45,-1,45,44,46,-1,46,44,47,-1,47,44,48,-1,47,48,49,-1,50,51,32,-1,32,51,52,-1,32,52,33,-1,33,52,53,-1,33,53,54,-1,39,31,37,-1,37,31,33,-1,37,33,55,-1,55,33,45,-1,55,45,56,-1,56,45,57,-1,30,58,28,-1,28,58,54,-1,28,54,59,-1,59,54,53,-1,36,49,34,-1,34,49,48,-1,34,48,43,-1,43,48,54,-1,43,54,42,-1,42,54,58,-1,60,54,61,-1,61,54,48,-1,61,48,62,-1,63,33,64,-1,64,33,54,-1,64,54,60,-1,65,44,66,-1,66,44,33,-1,66,33,63,-1,62,48,67,-1,67,48,44,-1,67,44,65,-1,68,69,70,-1,70,69,71,-1,72,73,74,-1,74,73,75,-1,76,69,68,-1,69,76,72,-1,72,76,77,-1,72,77,73,-1,73,77,78,-1,73,78,68,-1,68,78,79,-1,68,79,76,-1,71,69,74,-1,74,69,72,-1,75,73,70,-1,70,73,68,-1,
        ]
    }
}
Shape{
    appearance Appearance {
        material  Material 	{
            diffuseColor 1.0 1.0 1.0
            specularColor 0.30196078431372547 0.30196078431372547 0.30196078431372547
            ambientIntensity 1.0
            transparency 0.0
            shininess 0.5
        }
    }
    geometry IndexedFaceSet {
        ccw TRUE
        solid FALSE
        coord DEF co Coordinate {
            point [
                0.1199 0.2746 0.7087, 0.1199 -0.1979 0.7087, 0.1199 0.2746 0.748, 0.1199 -0.1979 0.748, -0.1557 -0.1979 0.7087, -0.1557 -0.1979 0.748, -0.1557 0.2746 0.7087, -0.1557 0.2746 0.748
            ]
        }
        coordIndex [
            0,1,2,-1,2,1,3,-1,1,4,3,-1,3,4,5,-1,4,6,5,-1,5,6,7,-1,6,0,7,-1,7,0,2,-1,6,4,0,-1,0,4,1,-1,
        ]
    }
}
Shape{
    appearance Appearance {
        material  Material 	{
            diffuseColor 0.9686274509803922 0.8784313725490196 0.6
            specularColor 0.6784313725490196 0.615686274509804 0.4196078431372549
            ambientIntensity 0.8737
            transparency 0.0
            shininess 0.5
        }
    }
    geometry IndexedFaceSet {
        ccw TRUE
        solid FALSE
        coord DEF co Coordinate {
            point [
                -0.0967 -1.6054 0.0591, -0.0967 -1.6054 0.0, 0.0608 -1.6054 0.0591, 0.0608 -1.6054 0.0, -0.0967 -1.0762 0.2559, -0.0967 -1.0148 0.2559, -0.0967 -1.0762 0.1969, -0.0967 -1.0148 0.1969, 0.0608 -1.0762 0.1969, 0.0608 -1.0148 0.1969, 0.0608 -1.0762 0.2559, 0.0608 -1.0148 0.2559, -0.0967 -1.1188 0.1722, -0.0967 -1.1699 0.2018, -0.0967 -1.111 0.1824, -0.0967 -1.1527 0.2242, -0.0967 -1.1008 0.1903, -0.0967 -1.1303 0.2414, -0.0967 -1.0889 0.1952, -0.0967 -1.1042 0.2522, 0.0608 -1.0889 0.1952, 0.0608 -1.1008 0.1903, 0.0608 -1.111 0.1824, 0.0608 -1.1188 0.1722, 0.0608 -1.1042 0.2522, 0.0608 -1.1303 0.2414, 0.0608 -1.1527 0.2242, 0.0608 -1.1699 0.2018, -0.0967 -1.2393 0.0817, -0.0967 -1.1881 0.0522, 0.0608 -1.1881 0.0522, 0.0608 -1.2393 0.0817, -0.0967 -1.2465 0.0723, -0.0967 -1.2047 0.0306, -0.0967 -1.2558 0.0651, -0.0967 -1.2263 0.014, -0.0967 -1.2668 0.0606, -0.0967 -1.2515 0.0036, -0.0967 -1.2785 0.0591, -0.0967 -1.2785 0.0, 0.0608 -1.2785 0.0, 0.0608 -1.2515 0.0036, 0.0608 -1.2263 0.014, 0.0608 -1.2047 0.0306, 0.0608 -1.2785 0.0591, 0.0608 -1.2668 0.0606, 0.0608 -1.2558 0.0651, 0.0608 -1.2465 0.0723, -0.0967 1.682 0.0, -0.0967 1.682 0.0591, 0.0608 1.682 0.0, 0.0608 1.682 0.0591, 0.0608 1.1528 0.2559, 0.0608 1.0915 0.2559, 0.0608 1.1528 0.1969, 0.0608 1.0915 0.1969, -0.0967 1.1528 0.1969, -0.0967 1.0915 0.1969, -0.0967 1.1528 0.2559, -0.0967 1.0915 0.2559, 0.0608 1.1955 0.1722, 0.0608 1.2466 0.2018, 0.0608 1.1876 0.1824, 0.0608 1.2294 0.2242, 0.0608 1.1774 0.1903, 0.0608 1.207 0.2414, 0.0608 1.1656 0.1952, 0.0608 1.1809 0.2522, -0.0967 1.1656 0.1952, -0.0967 1.1774 0.1903, -0.0967 1.1876 0.1824, -0.0967 1.1955 0.1722, -0.0967 1.1809 0.2522, -0.0967 1.207 0.2414, -0.0967 1.2294 0.2242, -0.0967 1.2466 0.2018, 0.0608 1.3159 0.0817, 0.0608 1.2648 0.0522, -0.0967 1.2648 0.0522, -0.0967 1.3159 0.0817, 0.0608 1.3231 0.0723, 0.0608 1.2814 0.0306, 0.0608 1.3325 0.0651, 0.0608 1.303 0.014, 0.0608 1.3434 0.0606, 0.0608 1.3281 0.0036, 0.0608 1.3551 0.0591, 0.0608 1.3551 0.0, -0.0967 1.3551 0.0, -0.0967 1.3281 0.0036, -0.0967 1.303 0.014, -0.0967 1.2814 0.0306, -0.0967 1.3551 0.0591, -0.0967 1.3434 0.0606, -0.0967 1.3325 0.0651, -0.0967 1.3231 0.0723
            ]
        }
        coordIndex [
            0,1,2,-1,2,1,3,-1,4,5,6,-1,6,5,7,-1,8,9,10,-1,10,9,11,-1,11,5,10,-1,10,5,4,-1,12,13,14,-1,14,13,15,-1,14,15,16,-1,16,15,17,-1,16,17,18,-1,18,17,19,-1,18,19,6,-1,6,19,4,-1,6,8,18,-1,18,8,20,-1,18,20,16,-1,16,20,21,-1,16,21,14,-1,14,21,22,-1,14,22,12,-1,12,22,23,-1,8,10,20,-1,20,10,24,-1,20,24,21,-1,21,24,25,-1,21,25,22,-1,22,25,26,-1,22,26,23,-1,23,26,27,-1,13,27,26,-1,13,26,15,-1,15,26,25,-1,15,25,17,-1,17,25,24,-1,17,24,19,-1,19,24,10,-1,19,10,4,-1,28,13,29,-1,29,13,12,-1,29,12,30,-1,30,12,23,-1,30,23,31,-1,31,23,27,-1,27,13,31,-1,31,13,28,-1,28,29,32,-1,32,29,33,-1,32,33,34,-1,34,33,35,-1,34,35,36,-1,36,35,37,-1,36,37,38,-1,38,37,39,-1,40,39,37,-1,40,37,41,-1,41,37,35,-1,41,35,42,-1,42,35,33,-1,42,33,43,-1,43,33,29,-1,43,29,30,-1,44,40,45,-1,45,40,41,-1,45,41,46,-1,46,41,42,-1,46,42,47,-1,47,42,43,-1,47,43,31,-1,31,43,30,-1,31,28,47,-1,47,28,32,-1,47,32,46,-1,46,32,34,-1,46,34,45,-1,45,34,36,-1,45,36,44,-1,44,36,38,-1,0,38,1,-1,1,38,39,-1,1,39,3,-1,3,39,40,-1,3,40,2,-1,2,40,44,-1,44,38,2,-1,2,38,0,-1,48,49,50,-1,50,49,51,-1,52,53,54,-1,54,53,55,-1,56,57,58,-1,58,57,59,-1,59,53,58,-1,58,53,52,-1,60,61,62,-1,62,61,63,-1,62,63,64,-1,64,63,65,-1,64,65,66,-1,66,65,67,-1,66,67,54,-1,54,67,52,-1,54,56,66,-1,66,56,68,-1,66,68,64,-1,64,68,69,-1,64,69,62,-1,62,69,70,-1,62,70,60,-1,60,70,71,-1,56,58,68,-1,68,58,72,-1,68,72,69,-1,69,72,73,-1,69,73,70,-1,70,73,74,-1,70,74,71,-1,71,74,75,-1,61,75,74,-1,61,74,63,-1,63,74,73,-1,63,73,65,-1,65,73,72,-1,65,72,67,-1,67,72,58,-1,67,58,52,-1,76,61,77,-1,77,61,60,-1,77,60,78,-1,78,60,71,-1,78,71,79,-1,79,71,75,-1,75,61,79,-1,79,61,76,-1,76,77,80,-1,80,77,81,-1,80,81,82,-1,82,81,83,-1,82,83,84,-1,84,83,85,-1,84,85,86,-1,86,85,87,-1,88,87,85,-1,88,85,89,-1,89,85,83,-1,89,83,90,-1,90,83,81,-1,90,81,91,-1,91,81,77,-1,91,77,78,-1,92,88,93,-1,93,88,89,-1,93,89,94,-1,94,89,90,-1,94,90,95,-1,95,90,91,-1,95,91,79,-1,79,91,78,-1,79,76,95,-1,95,76,80,-1,95,80,94,-1,94,80,82,-1,94,82,93,-1,93,82,84,-1,93,84,92,-1,92,84,86,-1,51,86,50,-1,50,86,87,-1,50,87,48,-1,48,87,88,-1,48,88,49,-1,49,88,92,-1,92,86,49,-1,49,86,51,-1,
        ]
    }
}
Shape{
    appearance Appearance {
        material  Material 	{
            diffuseColor 0.25098039215686274 0.25098039215686274 0.25098039215686274
            specularColor 0.17647058823529413 0.17647058823529413 0.17647058823529413
            ambientIntensity 0.251
            transparency 0.0
            shininess 0.5
        }
    }
    geometry IndexedFaceSet {
        ccw TRUE
        solid FALSE
        coord DEF co Coordinate {
            point [
                -0.3211 0.4714 0.748, -0.3211 -0.3947 0.748, -0.3211 0.6289 0.9055, -0.3211 -0.5522 0.9055, -0.7148 -0.3947 0.748, -0.7148 0.4714 0.748, -0.7148 -0.5522 0.9055, -0.7148 0.6289 0.9055, -0.3801 -0.1979 0.748, -0.6557 -0.1979 0.748, -0.6557 0.2746 0.748, -0.3801 0.2746 0.748, -0.6494 -0.5522 0.9055, -0.4933 -0.5522 0.9055, -0.4933 0.6289 0.9055, -0.6494 0.6289 0.9055
            ]
        }
        coordIndex [
            0,1,2,-1,2,1,3,-1,4,5,6,-1,6,5,7,-1,8,1,0,-1,1,8,4,-1,4,8,9,-1,4,9,5,-1,5,9,10,-1,5,10,0,-1,0,10,11,-1,0,11,8,-1,4,6,12,-1,4,12,1,-1,1,12,13,-1,1,13,3,-1,0,2,14,-1,0,14,5,-1,5,14,15,-1,5,15,7,-1,
        ]
    }
}
Shape{
    appearance Appearance {
        material  Material 	{
            diffuseColor 1.0 1.0 1.0
            specularColor 0.30196078431372547 0.30196078431372547 0.30196078431372547
            ambientIntensity 1.0
            transparency 0.0
            shininess 0.5
        }
    }
    geometry IndexedFaceSet {
        ccw TRUE
        solid FALSE
        coord DEF co Coordinate {
            point [
                -0.3801 0.2746 0.7087, -0.3801 -0.1979 0.7087, -0.3801 0.2746 0.748, -0.3801 -0.1979 0.748, -0.6557 -0.1979 0.7087, -0.6557 -0.1979 0.748, -0.6557 0.2746 0.7087, -0.6557 0.2746 0.748
            ]
        }
        coordIndex [
            0,1,2,-1,2,1,3,-1,1,4,3,-1,3,4,5,-1,4,6,5,-1,5,6,7,-1,6,0,7,-1,7,0,2,-1,6,4,0,-1,0,4,1,-1,
        ]
    }
}
Shape{
    appearance Appearance {
        material  Material 	{
            diffuseColor 0.9686274509803922 0.8784313725490196 0.6
            specularColor 0.6784313725490196 0.615686274509804 0.4196078431372549
            ambientIntensity 0.8737
            transparency 0.0
            shininess 0.5
        }
    }
    geometry IndexedFaceSet {
        ccw TRUE
        solid FALSE
        coord DEF co Coordinate {
            point [
                -0.5967 -1.6054 0.0591, -0.5967 -1.6054 0.0, -0.4392 -1.6054 0.0591, -0.4392 -1.6054 0.0, -0.5967 -1.0762 0.2559, -0.5967 -1.0148 0.2559, -0.5967 -1.0762 0.1969, -0.5967 -1.0148 0.1969, -0.4392 -1.0762 0.1969, -0.4392 -1.0148 0.1969, -0.4392 -1.0762 0.2559, -0.4392 -1.0148 0.2559, -0.5967 -1.1188 0.1722, -0.5967 -1.1699 0.2018, -0.5967 -1.111 0.1824, -0.5967 -1.1527 0.2242, -0.5967 -1.1008 0.1903, -0.5967 -1.1303 0.2414, -0.5967 -1.0889 0.1952, -0.5967 -1.1042 0.2522, -0.4392 -1.0889 0.1952, -0.4392 -1.1008 0.1903, -0.4392 -1.111 0.1824, -0.4392 -1.1188 0.1722, -0.4392 -1.1042 0.2522, -0.4392 -1.1303 0.2414, -0.4392 -1.1527 0.2242, -0.4392 -1.1699 0.2018, -0.5967 -1.2393 0.0817, -0.5967 -1.1881 0.0522, -0.4392 -1.1881 0.0522, -0.4392 -1.2393 0.0817, -0.5967 -1.2465 0.0723, -0.5967 -1.2047 0.0306, -0.5967 -1.2558 0.0651, -0.5967 -1.2263 0.014, -0.5967 -1.2668 0.0606, -0.5967 -1.2515 0.0036, -0.5967 -1.2785 0.0591, -0.5967 -1.2785 0.0, -0.4392 -1.2785 0.0, -0.4392 -1.2515 0.0036, -0.4392 -1.2263 0.014, -0.4392 -1.2047 0.0306, -0.4392 -1.2785 0.0591, -0.4392 -1.2668 0.0606, -0.4392 -1.2558 0.0651, -0.4392 -1.2465 0.0723, -0.5967 1.682 0.0, -0.5967 1.682 0.0591, -0.4392 1.682 0.0, -0.4392 1.682 0.0591, -0.4392 1.1528 0.2559, -0.4392 1.0915 0.2559, -0.4392 1.1528 0.1969, -0.4392 1.0915 0.1969, -0.5967 1.1528 0.1969, -0.5967 1.0915 0.1969, -0.5967 1.1528 0.2559, -0.5967 1.0915 0.2559, -0.4392 1.1955 0.1722, -0.4392 1.2466 0.2018, -0.4392 1.1876 0.1824, -0.4392 1.2294 0.2242, -0.4392 1.1774 0.1903, -0.4392 1.207 0.2414, -0.4392 1.1656 0.1952, -0.4392 1.1809 0.2522, -0.5967 1.1656 0.1952, -0.5967 1.1774 0.1903, -0.5967 1.1876 0.1824, -0.5967 1.1955 0.1722, -0.5967 1.1809 0.2522, -0.5967 1.207 0.2414, -0.5967 1.2294 0.2242, -0.5967 1.2466 0.2018, -0.4392 1.3159 0.0817, -0.4392 1.2648 0.0522, -0.5967 1.2648 0.0522, -0.5967 1.3159 0.0817, -0.4392 1.3231 0.0723, -0.4392 1.2814 0.0306, -0.4392 1.3325 0.0651, -0.4392 1.303 0.014, -0.4392 1.3434 0.0606, -0.4392 1.3281 0.0036, -0.4392 1.3551 0.0591, -0.4392 1.3551 0.0, -0.5967 1.3551 0.0, -0.5967 1.3281 0.0036, -0.5967 1.303 0.014, -0.5967 1.2814 0.0306, -0.5967 1.3551 0.0591, -0.5967 1.3434 0.0606, -0.5967 1.3325 0.0651, -0.5967 1.3231 0.0723
            ]
        }
        coordIndex [
            0,1,2,-1,2,1,3,-1,4,5,6,-1,6,5,7,-1,8,9,10,-1,10,9,11,-1,11,5,10,-1,10,5,4,-1,12,13,14,-1,14,13,15,-1,14,15,16,-1,16,15,17,-1,16,17,18,-1,18,17,19,-1,18,19,6,-1,6,19,4,-1,6,8,18,-1,18,8,20,-1,18,20,16,-1,16,20,21,-1,16,21,14,-1,14,21,22,-1,14,22,12,-1,12,22,23,-1,8,10,20,-1,20,10,24,-1,20,24,21,-1,21,24,25,-1,21,25,22,-1,22,25,26,-1,22,26,23,-1,23,26,27,-1,13,27,26,-1,13,26,15,-1,15,26,25,-1,15,25,17,-1,17,25,24,-1,17,24,19,-1,19,24,10,-1,19,10,4,-1,28,13,29,-1,29,13,12,-1,29,12,30,-1,30,12,23,-1,30,23,31,-1,31,23,27,-1,27,13,31,-1,31,13,28,-1,28,29,32,-1,32,29,33,-1,32,33,34,-1,34,33,35,-1,34,35,36,-1,36,35,37,-1,36,37,38,-1,38,37,39,-1,40,39,37,-1,40,37,41,-1,41,37,35,-1,41,35,42,-1,42,35,33,-1,42,33,43,-1,43,33,29,-1,43,29,30,-1,44,40,45,-1,45,40,41,-1,45,41,46,-1,46,41,42,-1,46,42,47,-1,47,42,43,-1,47,43,31,-1,31,43,30,-1,31,28,47,-1,47,28,32,-1,47,32,46,-1,46,32,34,-1,46,34,45,-1,45,34,36,-1,45,36,44,-1,44,36,38,-1,0,38,1,-1,1,38,39,-1,1,39,3,-1,3,39,40,-1,3,40,2,-1,2,40,44,-1,44,38,2,-1,2,38,0,-1,48,49,50,-1,50,49,51,-1,52,53,54,-1,54,53,55,-1,56,57,58,-1,58,57,59,-1,59,53,58,-1,58,53,52,-1,60,61,62,-1,62,61,63,-1,62,63,64,-1,64,63,65,-1,64,65,66,-1,66,65,67,-1,66,67,54,-1,54,67,52,-1,54,56,66,-1,66,56,68,-1,66,68,64,-1,64,68,69,-1,64,69,62,-1,62,69,70,-1,62,70,60,-1,60,70,71,-1,56,58,68,-1,68,58,72,-1,68,72,69,-1,69,72,73,-1,69,73,70,-1,70,73,74,-1,70,74,71,-1,71,74,75,-1,61,75,74,-1,61,74,63,-1,63,74,73,-1,63,73,65,-1,65,73,72,-1,65,72,67,-1,67,72,58,-1,67,58,52,-1,76,61,77,-1,77,61,60,-1,77,60,78,-1,78,60,71,-1,78,71,79,-1,79,71,75,-1,75,61,79,-1,79,61,76,-1,76,77,80,-1,80,77,81,-1,80,81,82,-1,82,81,83,-1,82,83,84,-1,84,83,85,-1,84,85,86,-1,86,85,87,-1,88,87,85,-1,88,85,89,-1,89,85,83,-1,89,83,90,-1,90,83,81,-1,90,81,91,-1,91,81,77,-1,91,77,78,-1,92,88,93,-1,93,88,89,-1,93,89,94,-1,94,89,90,-1,94,90,95,-1,95,90,91,-1,95,91,79,-1,79,91,78,-1,79,76,95,-1,95,76,80,-1,95,80,94,-1,94,80,82,-1,94,82,93,-1,93,82,84,-1,93,84,92,-1,92,84,86,-1,51,86,50,-1,50,86,87,-1,50,87,48,-1,48,87,88,-1,48,88,49,-1,49,88,92,-1,92,86,49,-1,49,86,51,-1,
        ]
    }
}
Shape{
    appearance Appearance {
        material  Material 	{
            diffuseColor 0.25098039215686274 0.25098039215686274 0.25098039215686274
            specularColor 0.17647058823529413 0.17647058823529413 0.17647058823529413
            ambientIntensity 0.251
            transparency 0.0
            shininess 0.5
        }
    }
    geometry IndexedFaceSet {
        ccw TRUE
        solid FALSE
        coord DEF co Coordinate {
            point [
                0.6789 0.4714 0.748, 0.6789 -0.3947 0.748, 0.6789 0.6289 0.9055, 0.6789 -0.5522 0.9055, 0.2852 -0.3947 0.748, 0.2852 0.4714 0.748, 0.2852 -0.5522 0.9055, 0.2852 0.6289 0.9055, 0.6199 -0.1979 0.748, 0.3443 -0.1979 0.748, 0.3443 0.2746 0.748, 0.6199 0.2746 0.748
            ]
        }
        coordIndex [
            0,1,2,-1,2,1,3,-1,4,5,6,-1,6,5,7,-1,8,1,0,-1,1,8,4,-1,4,8,9,-1,4,9,5,-1,5,9,10,-1,5,10,0,-1,0,10,11,-1,0,11,8,-1,3,1,6,-1,6,1,4,-1,7,5,2,-1,2,5,0,-1,
        ]
    }
}
Shape{
    appearance Appearance {
        material  Material 	{
            diffuseColor 1.0 1.0 1.0
            specularColor 0.30196078431372547 0.30196078431372547 0.30196078431372547
            ambientIntensity 1.0
            transparency 0.0
            shininess 0.5
        }
    }
    geometry IndexedFaceSet {
        ccw TRUE
        solid FALSE
        coord DEF co Coordinate {
            point [
                0.6199 0.2746 0.7087, 0.6199 -0.1979 0.7087, 0.6199 0.2746 0.748, 0.6199 -0.1979 0.748, 0.3443 -0.1979 0.7087, 0.3443 -0.1979 0.748, 0.3443 0.2746 0.7087, 0.3443 0.2746 0.748
            ]
        }
        coordIndex [
            0,1,2,-1,2,1,3,-1,1,4,3,-1,3,4,5,-1,4,6,5,-1,5,6,7,-1,6,0,7,-1,7,0,2,-1,6,4,0,-1,0,4,1,-1,
        ]
    }
}
Shape{
    appearance Appearance {
        material  Material 	{
            diffuseColor 0.9686274509803922 0.8784313725490196 0.6
            specularColor 0.6784313725490196 0.615686274509804 0.4196078431372549
            ambientIntensity 0.8737
            transparency 0.0
            shininess 0.5
        }
    }
    geometry IndexedFaceSet {
        ccw TRUE
        solid FALSE
        coord DEF co Coordinate {
            point [
                0.4033 -1.6054 0.0591, 0.4033 -1.6054 0.0, 0.5608 -1.6054 0.0591, 0.5608 -1.6054 0.0, 0.4033 -1.0762 0.2559, 0.4033 -1.0148 0.2559, 0.4033 -1.0762 0.1969, 0.4033 -1.0148 0.1969, 0.5608 -1.0762 0.1969, 0.5608 -1.0148 0.1969, 0.5608 -1.0762 0.2559, 0.5608 -1.0148 0.2559, 0.4033 -1.1188 0.1722, 0.4033 -1.1699 0.2018, 0.4033 -1.111 0.1824, 0.4033 -1.1527 0.2242, 0.4033 -1.1008 0.1903, 0.4033 -1.1303 0.2414, 0.4033 -1.0889 0.1952, 0.4033 -1.1042 0.2522, 0.5608 -1.0889 0.1952, 0.5608 -1.1008 0.1903, 0.5608 -1.111 0.1824, 0.5608 -1.1188 0.1722, 0.5608 -1.1042 0.2522, 0.5608 -1.1303 0.2414, 0.5608 -1.1527 0.2242, 0.5608 -1.1699 0.2018, 0.4033 -1.2393 0.0817, 0.4033 -1.1881 0.0522, 0.5608 -1.1881 0.0522, 0.5608 -1.2393 0.0817, 0.4033 -1.2465 0.0723, 0.4033 -1.2047 0.0306, 0.4033 -1.2558 0.0651, 0.4033 -1.2263 0.014, 0.4033 -1.2668 0.0606, 0.4033 -1.2515 0.0036, 0.4033 -1.2785 0.0591, 0.4033 -1.2785 0.0, 0.5608 -1.2785 0.0, 0.5608 -1.2515 0.0036, 0.5608 -1.2263 0.014, 0.5608 -1.2047 0.0306, 0.5608 -1.2785 0.0591, 0.5608 -1.2668 0.0606, 0.5608 -1.2558 0.0651, 0.5608 -1.2465 0.0723
            ]
        }
        coordIndex [
            0,1,2,-1,2,1,3,-1,4,5,6,-1,6,5,7,-1,8,9,10,-1,10,9,11,-1,11,5,10,-1,10,5,4,-1,12,13,14,-1,14,13,15,-1,14,15,16,-1,16,15,17,-1,16,17,18,-1,18,17,19,-1,18,19,6,-1,6,19,4,-1,6,8,18,-1,18,8,20,-1,18,20,16,-1,16,20,21,-1,16,21,14,-1,14,21,22,-1,14,22,12,-1,12,22,23,-1,8,10,20,-1,20,10,24,-1,20,24,21,-1,21,24,25,-1,21,25,22,-1,22,25,26,-1,22,26,23,-1,23,26,27,-1,13,27,26,-1,13,26,15,-1,15,26,25,-1,15,25,17,-1,17,25,24,-1,17,24,19,-1,19,24,10,-1,19,10,4,-1,28,13,29,-1,29,13,12,-1,29,12,30,-1,30,12,23,-1,30,23,31,-1,31,23,27,-1,27,13,31,-1,31,13,28,-1,28,29,32,-1,32,29,33,-1,32,33,34,-1,34,33,35,-1,34,35,36,-1,36,35,37,-1,36,37,38,-1,38,37,39,-1,40,39,37,-1,40,37,41,-1,41,37,35,-1,41,35,42,-1,42,35,33,-1,42,33,43,-1,43,33,29,-1,43,29,30,-1,44,40,45,-1,45,40,41,-1,45,41,46,-1,46,41,42,-1,46,42,47,-1,47,42,43,-1,47,43,31,-1,31,43,30,-1,31,28,47,-1,47,28,32,-1,47,32,46,-1,46,32,34,-1,46,34,45,-1,45,34,36,-1,45,36,44,-1,44,36,38,-1,0,38,1,-1,1,38,39,-1,1,39,3,-1,3,39,40,-1,3,40,2,-1,2,40,44,-1,44,38,2,-1,2,38,0,-1,
        ]
    }
}
Shape{
    appearance Appearance {
        material  Material 	{
            diffuseColor 0.792156862745098 0.8196078431372549 0.9333333333333333
            specularColor 0.396078431372549 0.4117647058823529 0.4666666666666667
            ambientIntensity 0.8244
            transparency 0.0
            shininess 0.5
        }
    }
    geometry IndexedFaceSet {
        ccw TRUE
        solid FALSE
        coord DEF co Coordinate {
            point [
                -0.5182 0.8435 0.9016, -0.5182 0.8435 0.9055, -0.5215 0.886 0.9055, -0.5215 0.886 0.9016, -0.5336 0.9286 0.9055, -0.5336 0.9286 0.9016, -0.5474 0.9541 0.9055, -0.5474 0.9541 0.9016, -0.5664 0.9764 0.9055, -0.5664 0.9764 0.9016, -0.5854 0.9898 0.9055, -0.5854 0.9898 0.9016, -0.6058 0.9978 0.9055, -0.6058 0.9978 0.9016, -0.6325 1.0011 0.9055, -0.6325 1.0011 0.9016, -0.6365 0.6785 0.9016, -0.6365 0.6785 0.9055, -0.612 0.681 0.9016, -0.6179 0.6804 0.9055, -0.612 0.681 0.9055, -0.5889 0.6892 0.9055, -0.5889 0.6892 0.9016, -0.5695 0.7022 0.9055, -0.5695 0.7022 0.9016, -0.5515 0.7217 0.9055, -0.5515 0.7217 0.9016, -0.5332 0.7545 0.9055, -0.5332 0.7545 0.9016, -0.5219 0.7961 0.9055, -0.5219 0.7961 0.9016, -0.7525 0.8361 0.9016, -0.7525 0.8361 0.9055, -0.7472 0.7827 0.9055, -0.7472 0.7827 0.9016, -0.7337 0.7438 0.9055, -0.7333 0.7427 0.9016, -0.7333 0.7427 0.9055, -0.7244 0.7273 0.9055, -0.7244 0.7273 0.9016, -0.7052 0.7045 0.9055, -0.7052 0.7045 0.9016, -0.6869 0.691 0.9055, -0.6869 0.691 0.9016, -0.6666 0.6825 0.9055, -0.6666 0.6825 0.9016, -0.6507 0.6804 0.9055, -0.6494 0.6802 0.9055, -0.6594 0.9981 0.9016, -0.6494 0.9992 0.9055, -0.6594 0.9981 0.9055, -0.6822 0.9899 0.9055, -0.6822 0.9899 0.9016, -0.7013 0.9771 0.9055, -0.7013 0.9771 0.9016, -0.7194 0.9575 0.9055, -0.7337 0.9317 0.9055, -0.7375 0.9248 0.9016, -0.7194 0.9575 0.9016, -0.7375 0.9248 0.9055, -0.7489 0.8834 0.9055, -0.7489 0.8834 0.9016, -0.718 0.8395 0.9016, -0.7141 0.796 0.9016, -0.704 0.7634 0.9016, -0.6926 0.7435 0.9016, -0.6795 0.729 0.9016, -0.6655 0.7196 0.9016, -0.6502 0.7144 0.9016, -0.6364 0.713 0.9016, -0.618 0.7151 0.9016, -0.6032 0.7205 0.9016, -0.5903 0.7291 0.9016, -0.5787 0.7411 0.9016, -0.5666 0.7616 0.9016, -0.5566 0.7941 0.9016, -0.5528 0.8389 0.9016, -0.5562 0.8827 0.9016, -0.5654 0.9157 0.9016, -0.5782 0.9384 0.9016, -0.5905 0.9514 0.9016, -0.6038 0.96 0.9016, -0.6186 0.9649 0.9016, -0.6344 0.9665 0.9016, -0.6516 0.9645 0.9016, -0.6656 0.9592 0.9016, -0.6788 0.9501 0.9016, -0.6926 0.9347 0.9016, -0.7059 0.9104 0.9016, -0.7154 0.8748 0.9016, -0.5528 0.8389 0.9055, -0.5566 0.7941 0.9055, -0.5666 0.7616 0.9055, -0.5787 0.7411 0.9055, -0.5903 0.7291 0.9055, -0.6032 0.7205 0.9055, -0.618 0.7151 0.9055, -0.6364 0.713 0.9055, -0.6344 0.9665 0.9055, -0.6186 0.9649 0.9055, -0.6038 0.96 0.9055, -0.5905 0.9514 0.9055, -0.5782 0.9384 0.9055, -0.5654 0.9157 0.9055, -0.5562 0.8827 0.9055, -0.718 0.8395 0.9055, -0.7154 0.8748 0.9055, -0.7059 0.9104 0.9055, -0.6926 0.9347 0.9055, -0.6788 0.9501 0.9055, -0.6656 0.9592 0.9055, -0.6516 0.9645 0.9055, -0.6502 0.7144 0.9055, -0.6655 0.7196 0.9055, -0.6795 0.729 0.9055, -0.6926 0.7435 0.9055, -0.704 0.7634 0.9055, -0.7141 0.796 0.9055, -0.433 0.9268 0.9016, -0.433 0.9268 0.9055, -0.3093 0.6823 0.9016, -0.3093 0.6823 0.9055, -0.4414 0.9473 0.9016, -0.4414 0.9473 0.9055, -0.4376 0.9369 0.9055, -0.4376 0.9369 0.9016, -0.4424 0.9473 0.9016, -0.4424 0.9473 0.9055, -0.4414 0.9033 0.9016, -0.4414 0.9033 0.9055, -0.4415 0.9253 0.9055, -0.4415 0.9253 0.9016, -0.4414 0.6823 0.9016, -0.4414 0.6823 0.9055, -0.4722 0.6823 0.9016, -0.4722 0.6823 0.9055, -0.4722 0.9973 0.9016, -0.4722 0.9973 0.9055, -0.4337 0.9973 0.9016, -0.4337 0.9973 0.9055, -0.3125 0.7578 0.9016, -0.3125 0.7578 0.9055, -0.3022 0.7361 0.9016, -0.3022 0.7361 0.9055, -0.3071 0.747 0.9055, -0.3071 0.747 0.9016, -0.3015 0.7361 0.9016, -0.3015 0.7361 0.9055, -0.3032 0.7818 0.9016, -0.3032 0.7818 0.9055, -0.3029 0.7589 0.9055, -0.3029 0.7589 0.9016, -0.3032 0.9973 0.9016, -0.3032 0.9973 0.9055, -0.2724 0.9973 0.9016, -0.2724 0.9973 0.9055, -0.2967 0.9973 0.9055, -0.2724 0.6823 0.9016, -0.2724 0.6823 0.9055, -0.2967 0.6823 0.9055, -0.584 -0.7184 0.9016, -0.584 -0.7184 0.9055, -0.5803 -0.7174 0.9055, -0.5803 -0.7174 0.9016, -0.5566 -0.7074 0.9055, -0.5566 -0.7074 0.9016, -0.5384 -0.6952 0.9055, -0.5384 -0.6952 0.9016, -0.584 -0.6944 0.9016, -0.584 -0.6944 0.9055, -0.5237 -0.6631 0.9016, -0.5237 -0.6631 0.9055, -0.5524 -0.6816 0.9055, -0.5524 -0.6816 0.9016, -0.5144 -0.6631 0.9016, -0.5144 -0.6631 0.9055, -0.5144 -0.8624 0.9016, -0.5144 -0.8624 0.9055, -0.5384 -0.8624 0.9016, -0.5384 -0.8624 0.9055
            ]
        }
        coordIndex [
            0,1,2,-1,0,2,3,-1,3,2,4,-1,3,4,5,-1,5,4,6,-1,5,6,7,-1,7,6,8,-1,7,8,9,-1,9,8,10,-1,9,10,11,-1,11,10,12,-1,11,12,13,-1,13,12,14,-1,13,14,15,-1,16,17,18,-1,18,17,19,-1,19,20,18,-1,18,20,21,-1,18,21,22,-1,22,21,23,-1,22,23,24,-1,24,23,25,-1,24,25,26,-1,26,25,27,-1,26,27,28,-1,28,27,29,-1,28,29,30,-1,30,29,1,-1,30,1,0,-1,31,32,33,-1,31,33,34,-1,34,33,35,-1,34,35,36,-1,35,37,36,-1,36,37,38,-1,36,38,39,-1,39,38,40,-1,39,40,41,-1,41,40,42,-1,41,42,43,-1,43,42,44,-1,43,44,45,-1,45,44,46,-1,45,46,16,-1,16,46,47,-1,16,47,17,-1,15,14,48,-1,48,14,49,-1,49,50,48,-1,48,50,51,-1,48,51,52,-1,52,51,53,-1,52,53,54,-1,54,53,55,-1,56,57,55,-1,55,57,58,-1,55,58,54,-1,56,59,57,-1,57,59,60,-1,57,60,61,-1,61,60,32,-1,61,32,31,-1,62,31,63,-1,63,31,34,-1,63,34,64,-1,64,34,36,-1,64,36,65,-1,65,36,39,-1,65,39,66,-1,66,39,41,-1,66,41,67,-1,67,41,43,-1,67,43,68,-1,68,43,45,-1,68,45,69,-1,69,45,16,-1,69,16,70,-1,70,16,18,-1,70,18,71,-1,71,18,22,-1,71,22,72,-1,72,22,24,-1,72,24,73,-1,73,24,26,-1,73,26,74,-1,74,26,28,-1,74,28,75,-1,75,28,30,-1,75,30,76,-1,76,30,0,-1,76,0,77,-1,77,0,3,-1,77,3,78,-1,78,3,5,-1,78,5,79,-1,79,5,7,-1,79,7,80,-1,80,7,9,-1,80,9,81,-1,81,9,11,-1,81,11,82,-1,82,11,13,-1,82,13,83,-1,83,13,15,-1,83,15,84,-1,84,15,48,-1,84,48,85,-1,85,48,52,-1,85,52,86,-1,86,52,54,-1,86,54,87,-1,87,54,58,-1,87,58,88,-1,88,58,57,-1,88,57,89,-1,89,57,61,-1,89,61,62,-1,62,61,31,-1,76,90,91,-1,76,91,75,-1,75,91,92,-1,75,92,74,-1,74,92,93,-1,74,93,73,-1,73,93,94,-1,73,94,72,-1,72,94,95,-1,72,95,71,-1,71,95,96,-1,71,96,70,-1,70,96,97,-1,70,97,69,-1,83,98,99,-1,83,99,82,-1,82,99,100,-1,82,100,81,-1,81,100,101,-1,81,101,80,-1,80,101,102,-1,80,102,79,-1,79,102,103,-1,79,103,78,-1,78,103,104,-1,78,104,77,-1,77,104,90,-1,77,90,76,-1,62,105,106,-1,62,106,89,-1,89,106,107,-1,89,107,88,-1,88,107,108,-1,88,108,87,-1,87,108,109,-1,87,109,86,-1,86,109,110,-1,86,110,85,-1,85,110,111,-1,85,111,84,-1,84,111,98,-1,84,98,83,-1,69,97,112,-1,69,112,68,-1,68,112,113,-1,68,113,67,-1,67,113,114,-1,67,114,66,-1,66,114,115,-1,66,115,65,-1,65,115,116,-1,65,116,64,-1,64,116,117,-1,64,117,63,-1,63,117,105,-1,63,105,62,-1,118,119,120,-1,120,119,121,-1,122,123,124,-1,122,124,125,-1,125,124,119,-1,125,119,118,-1,126,127,122,-1,122,127,123,-1,128,129,130,-1,128,130,131,-1,131,130,127,-1,131,127,126,-1,132,133,128,-1,128,133,129,-1,134,135,132,-1,132,135,133,-1,136,137,134,-1,134,137,135,-1,138,139,136,-1,136,139,137,-1,140,141,138,-1,138,141,139,-1,142,143,144,-1,142,144,145,-1,145,144,141,-1,145,141,140,-1,146,147,142,-1,142,147,143,-1,148,149,150,-1,148,150,151,-1,151,150,147,-1,151,147,146,-1,152,153,148,-1,148,153,149,-1,154,155,152,-1,152,155,156,-1,152,156,153,-1,157,158,154,-1,154,158,155,-1,158,157,159,-1,159,157,120,-1,159,120,121,-1,157,154,148,-1,148,154,152,-1,134,132,136,-1,136,132,128,-1,128,131,136,-1,136,131,126,-1,136,126,138,-1,138,126,122,-1,148,151,157,-1,157,151,146,-1,157,146,120,-1,120,146,142,-1,142,145,120,-1,120,145,140,-1,120,140,118,-1,118,140,138,-1,118,138,125,-1,125,138,122,-1,160,161,162,-1,160,162,163,-1,163,162,164,-1,163,164,165,-1,165,164,166,-1,165,166,167,-1,168,169,160,-1,160,169,161,-1,170,171,172,-1,170,172,173,-1,173,172,169,-1,173,169,168,-1,174,175,170,-1,170,175,171,-1,176,177,174,-1,174,177,175,-1,178,179,176,-1,176,179,177,-1,178,167,179,-1,179,167,166,-1,178,176,167,-1,167,176,174,-1,174,170,167,-1,167,170,173,-1,167,173,165,-1,165,173,168,-1,165,168,163,-1,163,168,160,-1,
        ]
    }
}
Shape{
    appearance Appearance {
        material  Material 	{
            diffuseColor 0.10980392156862745 0.10980392156862745 0.10980392156862745
            specularColor 0.0784313725490196 0.0784313725490196 0.0784313725490196
            ambientIntensity 0.1098
            transparency 0.0
            shininess 0.5
        }
    }
    geometry IndexedFaceSet {
        ccw TRUE
        solid FALSE
        coord DEF co Coordinate {
            point [
                -0.718 0.8395 0.9055, -0.5528 0.8389 0.9055, -0.7154 0.8748 0.9055, -0.5562 0.8827 0.9055, -0.6032 0.7205 0.9055, -0.5903 0.7291 0.9055, -0.5787 0.7411 0.9055, -0.6344 0.9665 0.9055, -0.7059 0.9104 0.9055, -0.6926 0.9347 0.9055, -0.7141 0.796 0.9055, -0.704 0.7634 0.9055, -0.6364 0.713 0.9055, -0.6926 0.7435 0.9055, -0.6502 0.7144 0.9055, -0.6795 0.729 0.9055, -0.6655 0.7196 0.9055, -0.618 0.7151 0.9055, -0.5666 0.7616 0.9055, -0.5566 0.7941 0.9055, -0.6788 0.9501 0.9055, -0.6516 0.9645 0.9055, -0.6656 0.9592 0.9055, -0.5654 0.9157 0.9055, -0.5782 0.9384 0.9055, -0.5905 0.9514 0.9055, -0.6038 0.96 0.9055, -0.6186 0.9649 0.9055
            ]
        }
        coordIndex [
            0,1,2,-1,2,1,3,-1,4,5,0,-1,0,5,6,-1,2,7,8,-1,8,7,9,-1,10,11,12,-1,12,11,13,-1,12,13,14,-1,14,13,15,-1,14,15,16,-1,10,12,0,-1,0,12,17,-1,0,17,4,-1,6,18,0,-1,0,18,19,-1,0,19,1,-1,9,7,20,-1,20,7,21,-1,20,21,22,-1,3,23,2,-1,2,23,24,-1,2,24,25,-1,25,26,2,-1,2,26,27,-1,2,27,7,-1,
        ]
    }
}
Shape{
    appearance Appearance {
        material  Material 	{
            diffuseColor 0.792156862745098 0.8196078431372549 0.9333333333333333
            specularColor 0.396078431372549 0.4117647058823529 0.4666666666666667
            ambientIntensity 0.8244
            transparency 0.0
            shininess 0.5
        }
    }
    geometry IndexedFaceSet {
        ccw TRUE
        solid FALSE
        coord DEF co Coordinate {
            point [
                0.0128 0.159 0.0039, 0.0042 0.1564 0.0039, 0.0128 0.1854 0.0039, 0.0042 0.1889 0.0039, 0.0457 0.1708 0.0039, 0.0608 0.1671 0.0039, -0.0179 0.1374 0.0039, -0.0179 0.1489 0.0039, 0.0484 0.1716 0.0039, 0.0512 0.1721 0.0039, 0.0608 0.1777 0.0039, 0.0512 0.1723 0.0039, 0.0484 0.1728 0.0039, 0.0457 0.1735 0.0039, -0.0179 0.2084 0.0039, -0.0179 0.1969 0.0039, 0.0042 0.1889 0.0, -0.0179 0.1969 0.0, 0.0042 0.1564 0.0, -0.0179 0.1489 0.0, -0.0179 0.1374 0.0, 0.0608 0.1671 0.0, 0.0608 0.1777 0.0, -0.0179 0.2084 0.0, 0.0457 0.1735 0.0, 0.0484 0.1728 0.0, 0.0512 0.1723 0.0, 0.0512 0.1721 0.0, 0.0484 0.1716 0.0, 0.0457 0.1708 0.0, 0.0128 0.159 0.0, 0.0128 0.1854 0.0, 0.0608 0.0904 0.0039, 0.0608 0.0904 0.0, 0.0608 0.0682 0.0039, 0.0608 0.0682 0.0, 0.0596 0.1018 0.0039, 0.0596 0.1018 0.0, 0.0564 0.111 0.0039, 0.0564 0.111 0.0, 0.0513 0.1188 0.0039, 0.0513 0.1188 0.0, 0.0485 0.1219 0.0039, 0.0485 0.1219 0.0, 0.0422 0.1267 0.0039, 0.0422 0.1267 0.0, 0.0345 0.13 0.0039, 0.0345 0.13 0.0, 0.0263 0.1314 0.0039, 0.0263 0.1314 0.0, 0.0225 0.1316 0.0039, 0.0225 0.1316 0.0, 0.0119 0.1305 0.0039, 0.0119 0.1305 0.0, 0.0037 0.1277 0.0039, 0.0037 0.1277 0.0, -0.0034 0.1231 0.0039, -0.0034 0.1231 0.0, -0.0096 0.1167 0.0039, -0.0096 0.1167 0.0, -0.0144 0.1084 0.0039, -0.0144 0.1084 0.0, -0.0171 0.0994 0.0039, -0.0171 0.0994 0.0, -0.0179 0.0896 0.0039, -0.0179 0.0896 0.0, -0.0179 0.0682 0.0039, -0.0179 0.0682 0.0, 0.0222 0.121 0.0039, 0.0301 0.1204 0.0039, 0.0363 0.1185 0.0039, 0.0411 0.1158 0.0039, 0.0452 0.112 0.0039, 0.0489 0.1062 0.0039, 0.0512 0.0998 0.0039, 0.0522 0.0904 0.0039, 0.0522 0.0788 0.0039, -0.0093 0.0788 0.0039, -0.0093 0.09 0.0039, -0.0085 0.0982 0.0039, -0.0064 0.1049 0.0039, -0.0033 0.1102 0.0039, 0.001 0.1146 0.0039, 0.0065 0.118 0.0039, 0.0127 0.12 0.0039, -0.0093 0.09 0.0, -0.0093 0.0788 0.0, -0.0085 0.0982 0.0, -0.0064 0.1049 0.0, -0.0033 0.1102 0.0, 0.001 0.1146 0.0, 0.0065 0.118 0.0, 0.0127 0.12 0.0, 0.0222 0.121 0.0, 0.0301 0.1204 0.0, 0.0363 0.1185 0.0, 0.0411 0.1158 0.0, 0.0452 0.112 0.0, 0.0489 0.1062 0.0, 0.0512 0.0998 0.0, 0.0522 0.0904 0.0, 0.0522 0.0788 0.0, 0.0608 0.0106 0.0039, 0.0608 0.0106 0.0, -0.0179 0.0106 0.0039, -0.0179 0.0106 0.0, 0.0608 0.0509 0.0039, 0.0608 0.0509 0.0, 0.0522 0.0509 0.0039, 0.0522 0.0509 0.0, 0.0522 0.0212 0.0039, 0.0522 0.0212 0.0, 0.0263 0.0212 0.0039, 0.0263 0.0212 0.0, 0.0263 0.049 0.0039, 0.0263 0.049 0.0, 0.0176 0.049 0.0039, 0.0176 0.049 0.0, 0.0176 0.0212 0.0039, 0.0176 0.0212 0.0, -0.0093 0.0212 0.0039, -0.0093 0.0212 0.0, -0.0093 0.0528 0.0039, -0.0093 0.0528 0.0, -0.0179 0.0528 0.0039, -0.0179 0.0528 0.0, -0.0184 -0.0311 0.0, -0.0189 -0.0264 0.0, -0.0189 -0.0264 0.0039, -0.0179 -0.0361 0.0, -0.0179 -0.0361 0.0039, -0.0152 -0.0438 0.0039, -0.0152 -0.0438 0.0, -0.0111 -0.0502 0.0039, -0.0111 -0.0502 0.0, -0.0048 -0.0561 0.0039, -0.0048 -0.0561 0.0, 0.0027 -0.0603 0.0039, 0.0027 -0.0603 0.0, 0.011 -0.0626 0.0039, 0.011 -0.0626 0.0, 0.02 -0.0633 0.0039, 0.02 -0.0633 0.0, 0.0312 -0.0622 0.0039, 0.0312 -0.0622 0.0, 0.0401 -0.0592 0.0039, 0.0401 -0.0592 0.0, 0.0475 -0.0546 0.0039, 0.0475 -0.0546 0.0, 0.0541 -0.0477 0.0039, 0.0541 -0.0477 0.0, 0.0584 -0.0404 0.0039, 0.0584 -0.0404 0.0, 0.061 -0.0317 0.0039, 0.061 -0.0317 0.0, 0.0618 -0.0233 0.0039, 0.0618 -0.0233 0.0, 0.0611 -0.0139 0.0039, 0.0611 -0.0139 0.0, 0.0587 -0.0048 0.0039, 0.0587 -0.0048 0.0, 0.0481 -0.0048 0.0039, 0.0481 -0.0048 0.0, 0.0519 -0.0136 0.0039, 0.0519 -0.0136 0.0, 0.0531 -0.0232 0.0039, 0.0531 -0.0232 0.0, 0.0523 -0.031 0.0039, 0.0523 -0.031 0.0, 0.0502 -0.0368 0.0039, 0.0502 -0.0368 0.0, 0.0464 -0.0424 0.0039, 0.0464 -0.0424 0.0, 0.0411 -0.0471 0.0039, 0.0411 -0.0471 0.0, 0.0351 -0.0503 0.0039, 0.0351 -0.0503 0.0, 0.0265 -0.0524 0.0039, 0.0265 -0.0524 0.0, 0.0206 -0.0528 0.0039, 0.0206 -0.0528 0.0, 0.0121 -0.052 0.0039, 0.0121 -0.052 0.0, 0.0053 -0.0498 0.0039, 0.0053 -0.0498 0.0, -0.0001 -0.0466 0.0039, -0.0001 -0.0466 0.0, -0.004 -0.0429 0.0039, -0.004 -0.0429 0.0, -0.0073 -0.0381 0.0039, -0.0073 -0.0381 0.0, -0.0094 -0.0323 0.0039, -0.0094 -0.0323 0.0, -0.0102 -0.025 0.0039, -0.0102 -0.025 0.0, -0.0091 -0.0145 0.0039, -0.0091 -0.0145 0.0, -0.006 -0.0062 0.0039, -0.006 -0.0062 0.0, -0.0052 -0.0048 0.0039, -0.0052 -0.0048 0.0, -0.0138 -0.0048 0.0039, -0.0138 -0.0048 0.0, -0.0173 -0.0132 0.0, -0.0173 -0.0132 0.0039, -0.0184 -0.0211 0.0, -0.0188 -0.0243 0.0039, -0.0188 -0.0243 0.0, 0.0608 -0.1104 0.0039, 0.0608 -0.1104 0.0, -0.0179 -0.1104 0.0039, -0.0179 -0.1104 0.0, 0.0608 -0.0998 0.0039, 0.0608 -0.0998 0.0, -0.0093 -0.0998 0.0039, -0.0093 -0.0998 0.0, -0.0093 -0.0701 0.0039, -0.0093 -0.0701 0.0, -0.0179 -0.0701 0.0039, -0.0179 -0.0701 0.0
            ]
        }
        coordIndex [
            0,1,2,-1,2,1,3,-1,4,5,0,-1,0,5,6,-1,0,6,1,-1,1,6,7,-1,4,8,5,-1,5,8,9,-1,5,9,10,-1,10,9,11,-1,10,11,12,-1,12,13,10,-1,10,13,2,-1,10,2,14,-1,14,2,3,-1,14,3,15,-1,3,16,15,-1,15,16,17,-1,1,18,3,-1,3,18,16,-1,7,19,1,-1,1,19,18,-1,6,20,7,-1,7,20,19,-1,5,21,6,-1,6,21,20,-1,10,22,5,-1,5,22,21,-1,14,23,10,-1,10,23,22,-1,14,15,23,-1,23,15,17,-1,24,13,12,-1,24,12,25,-1,25,12,11,-1,25,11,26,-1,9,27,11,-1,11,27,26,-1,27,9,8,-1,27,8,28,-1,28,8,4,-1,28,4,29,-1,0,30,4,-1,4,30,29,-1,2,31,0,-1,0,31,30,-1,24,31,13,-1,13,31,2,-1,32,33,34,-1,34,33,35,-1,33,32,36,-1,33,36,37,-1,37,36,38,-1,37,38,39,-1,39,38,40,-1,39,40,41,-1,41,40,42,-1,41,42,43,-1,43,42,44,-1,43,44,45,-1,45,44,46,-1,45,46,47,-1,47,46,48,-1,47,48,49,-1,49,48,50,-1,49,50,51,-1,51,50,52,-1,51,52,53,-1,53,52,54,-1,53,54,55,-1,55,54,56,-1,55,56,57,-1,57,56,58,-1,57,58,59,-1,59,58,60,-1,59,60,61,-1,61,60,62,-1,61,62,63,-1,63,62,64,-1,63,64,65,-1,66,67,64,-1,64,67,65,-1,66,34,67,-1,67,34,35,-1,52,50,68,-1,68,50,48,-1,68,48,69,-1,69,48,46,-1,69,46,70,-1,70,46,44,-1,70,44,71,-1,71,44,42,-1,71,42,72,-1,72,42,40,-1,72,40,73,-1,73,40,38,-1,73,38,74,-1,74,38,36,-1,74,36,75,-1,75,36,32,-1,75,32,76,-1,76,32,34,-1,76,34,77,-1,77,34,66,-1,77,66,78,-1,78,66,64,-1,78,64,79,-1,79,64,62,-1,79,62,80,-1,80,62,60,-1,80,60,81,-1,81,60,58,-1,81,58,82,-1,82,58,56,-1,82,56,83,-1,83,56,54,-1,83,54,84,-1,84,54,52,-1,84,52,68,-1,78,85,77,-1,77,85,86,-1,85,78,79,-1,85,79,87,-1,87,79,80,-1,87,80,88,-1,88,80,81,-1,88,81,89,-1,89,81,82,-1,89,82,90,-1,90,82,83,-1,90,83,91,-1,91,83,84,-1,91,84,92,-1,92,84,68,-1,92,68,93,-1,93,68,69,-1,93,69,94,-1,94,69,70,-1,94,70,95,-1,95,70,71,-1,95,71,96,-1,96,71,72,-1,96,72,97,-1,97,72,73,-1,97,73,98,-1,98,73,74,-1,98,74,99,-1,99,74,75,-1,99,75,100,-1,76,101,75,-1,75,101,100,-1,86,101,77,-1,77,101,76,-1,102,103,104,-1,104,103,105,-1,106,107,102,-1,102,107,103,-1,108,109,106,-1,106,109,107,-1,110,111,108,-1,108,111,109,-1,112,113,110,-1,110,113,111,-1,114,115,112,-1,112,115,113,-1,116,117,114,-1,114,117,115,-1,118,119,116,-1,116,119,117,-1,120,121,118,-1,118,121,119,-1,122,123,120,-1,120,123,121,-1,124,125,122,-1,122,125,123,-1,124,104,125,-1,125,104,105,-1,104,124,122,-1,122,120,104,-1,104,120,118,-1,104,118,102,-1,108,106,110,-1,110,106,102,-1,110,102,112,-1,112,102,118,-1,112,118,114,-1,114,118,116,-1,126,127,128,-1,126,128,129,-1,128,130,129,-1,129,130,131,-1,129,131,132,-1,132,131,133,-1,132,133,134,-1,134,133,135,-1,134,135,136,-1,136,135,137,-1,136,137,138,-1,138,137,139,-1,138,139,140,-1,140,139,141,-1,140,141,142,-1,142,141,143,-1,142,143,144,-1,144,143,145,-1,144,145,146,-1,146,145,147,-1,146,147,148,-1,148,147,149,-1,148,149,150,-1,150,149,151,-1,150,151,152,-1,152,151,153,-1,152,153,154,-1,154,153,155,-1,154,155,156,-1,156,155,157,-1,156,157,158,-1,158,157,159,-1,158,159,160,-1,161,162,159,-1,159,162,160,-1,162,161,163,-1,162,163,164,-1,164,163,165,-1,164,165,166,-1,166,165,167,-1,166,167,168,-1,168,167,169,-1,168,169,170,-1,170,169,171,-1,170,171,172,-1,172,171,173,-1,172,173,174,-1,174,173,175,-1,174,175,176,-1,176,175,177,-1,176,177,178,-1,178,177,179,-1,178,179,180,-1,180,179,181,-1,180,181,182,-1,182,181,183,-1,182,183,184,-1,184,183,185,-1,184,185,186,-1,186,185,187,-1,186,187,188,-1,188,187,189,-1,188,189,190,-1,190,189,191,-1,190,191,192,-1,192,191,193,-1,192,193,194,-1,194,193,195,-1,194,195,196,-1,196,195,197,-1,196,197,198,-1,198,197,199,-1,198,199,200,-1,201,202,199,-1,199,202,200,-1,203,202,204,-1,204,202,201,-1,203,204,205,-1,205,204,206,-1,205,206,207,-1,207,206,128,-1,207,128,127,-1,191,128,193,-1,193,128,206,-1,193,206,195,-1,195,206,204,-1,195,204,197,-1,197,204,201,-1,197,201,199,-1,161,159,163,-1,163,159,157,-1,163,157,165,-1,165,157,155,-1,165,155,167,-1,167,155,153,-1,167,153,169,-1,169,153,151,-1,169,151,171,-1,171,151,149,-1,171,149,173,-1,173,149,147,-1,173,147,175,-1,175,147,145,-1,175,145,177,-1,177,145,143,-1,177,143,179,-1,179,143,141,-1,179,141,181,-1,181,141,139,-1,181,139,183,-1,183,139,137,-1,183,137,185,-1,185,137,135,-1,185,135,187,-1,187,135,133,-1,187,133,189,-1,189,133,131,-1,189,131,191,-1,191,131,130,-1,191,130,128,-1,208,209,210,-1,210,209,211,-1,212,213,208,-1,208,213,209,-1,214,215,212,-1,212,215,213,-1,216,217,214,-1,214,217,215,-1,218,219,216,-1,216,219,217,-1,218,210,219,-1,219,210,211,-1,212,208,214,-1,214,208,210,-1,214,210,216,-1,216,210,218,-1,
        ]
    }
}
Shape{
    appearance Appearance {
        material  Material 	{
            diffuseColor 0.10980392156862745 0.10980392156862745 0.10980392156862745
            specularColor 0.0784313725490196 0.0784313725490196 0.0784313725490196
            ambientIntensity 0.1098
            transparency 0.0
            shininess 0.5
        }
    }
    geometry IndexedFaceSet {
        ccw TRUE
        solid FALSE
        coord DEF co Coordinate {
            point [
                0.0128 0.159 0.0, 0.0128 0.1854 0.0, 0.0457 0.1708 0.0, 0.0457 0.1735 0.0, 0.0484 0.1716 0.0, 0.0484 0.1728 0.0, 0.0512 0.1721 0.0, 0.0512 0.1723 0.0, 0.0522 0.0904 0.0, 0.0522 0.0788 0.0, -0.0093 0.0788 0.0, 0.0127 0.12 0.0, 0.0222 0.121 0.0, 0.0065 0.118 0.0, 0.0301 0.1204 0.0, 0.0363 0.1185 0.0, 0.0512 0.0998 0.0, -0.0093 0.09 0.0, -0.0085 0.0982 0.0, -0.0064 0.1049 0.0, 0.0411 0.1158 0.0, 0.0452 0.112 0.0, 0.0489 0.1062 0.0, -0.0033 0.1102 0.0, 0.001 0.1146 0.0
            ]
        }
        coordIndex [
            0,1,2,-1,2,1,3,-1,2,3,4,-1,4,3,5,-1,4,5,6,-1,6,5,7,-1,8,9,10,-1,11,12,8,-1,11,8,13,-1,12,14,8,-1,8,14,15,-1,8,15,16,-1,10,17,8,-1,8,17,18,-1,8,18,19,-1,20,21,15,-1,15,21,22,-1,15,22,16,-1,19,23,8,-1,8,23,24,-1,8,24,13,-1,
        ]
    }
}