#VRML V2.0 utf8
# 3D model generated by easyeda2kicad.py (https://github.com/uPesy/easyeda2kicad.py)

Shape{
    appearance Appearance {
        material  Material 	{
            diffuseColor 0.8313725490196079 0.8313725490196079 0.8196078431372549
            specularColor 0.6666666666666666 0.6666666666666666 0.6549019607843137
            ambientIntensity 0.83
            transparency 0.0
            shininess 0.5
        }
    }
    geometry IndexedFaceSet {
        ccw TRUE
        solid FALSE
        coord DEF co Coordinate {
            point [
                -1.2709 0.5394 0.8268, -1.2709 0.2638 0.8268, -1.2795 0.5394 0.7283, -1.2795 0.2638 0.7283, -1.5255 0.5394 0.7283, -1.5255 0.2638 0.7283, -1.5399 0.5394 0.7266, -1.5399 0.2638 0.7266, -1.5535 0.5394 0.7213, -1.5535 0.2638 0.7213, -1.5654 0.5394 0.7128, -1.5654 0.2638 0.7128, -1.5748 0.5394 0.7017, -1.5748 0.2638 0.7017, -1.5812 0.5394 0.6887, -1.5812 0.2638 0.6887, -1.5843 0.5394 0.6744, -1.5843 0.2638 0.6744, -1.6054 0.5394 0.4331, -1.6339 0.2638 0.1078, -1.6054 0.7362 0.4331, -1.6339 0.7362 0.1078, -1.6387 0.2638 0.0833, -1.6387 0.7362 0.0833, -1.6485 0.2638 0.0603, -1.6485 0.7362 0.0603, -1.663 0.2638 0.04, -1.663 0.7362 0.04, -1.6814 0.2638 0.0231, -1.6814 0.7362 0.0231, -1.7029 0.2638 0.0105, -1.7029 0.7362 0.0105, -1.7267 0.2638 0.0026, -1.7267 0.7362 0.0026, -1.7515 0.2638 0.0, -1.7515 0.7362 0.0, -1.9094 0.2638 0.0, -2.0276 0.3819 0.0, -2.0276 0.6181 0.0, -1.9094 0.7362 0.0, -2.0276 0.6181 0.0984, -2.0276 0.3819 0.0984, -1.9094 0.2638 0.0984, -1.7876 0.2638 0.0984, -1.7876 0.7362 0.0984, -1.9094 0.7362 0.0984, -1.7731 0.7362 0.1002, -1.7731 0.2638 0.1002, -1.7596 0.7362 0.1055, -1.7596 0.2638 0.1055, -1.7477 0.7362 0.1139, -1.7477 0.2638 0.1139, -1.7383 0.7362 0.125, -1.7383 0.2638 0.125, -1.7318 0.7362 0.1381, -1.7318 0.2638 0.1381, -1.7288 0.7362 0.1523, -1.7288 0.2638 0.1523, -1.7042 0.7362 0.4331, -1.7042 0.5394 0.4331, -1.6792 0.5394 0.719, -1.6792 0.2638 0.719, -1.6744 0.2638 0.7435, -1.6744 0.5394 0.7435, -1.6645 0.2638 0.7664, -1.6645 0.5394 0.7664, -1.6501 0.2638 0.7868, -1.6501 0.5394 0.7868, -1.6317 0.2638 0.8037, -1.6317 0.5394 0.8037, -1.6101 0.2638 0.8163, -1.6101 0.5394 0.8163, -1.5864 0.2638 0.8241, -1.5864 0.5394 0.8241, -1.5615 0.2638 0.8268, -1.5615 0.5394 0.8268, -1.2795 -0.5394 0.7283, -1.2795 -0.2638 0.7283, -1.2709 -0.5394 0.8268, -1.2709 -0.2638 0.8268, -1.5255 -0.5394 0.7283, -1.5255 -0.2638 0.7283, -1.5843 -0.5394 0.6744, -1.5843 -0.2638 0.6744, -1.5812 -0.5394 0.6887, -1.5812 -0.2638 0.6887, -1.5748 -0.5394 0.7017, -1.5748 -0.2638 0.7017, -1.5654 -0.5394 0.7128, -1.5654 -0.2638 0.7128, -1.5535 -0.5394 0.7213, -1.5535 -0.2638 0.7213, -1.5399 -0.5394 0.7266, -1.5399 -0.2638 0.7266, -1.6054 -0.7362 0.4331, -1.6339 -0.7362 0.1078, -1.6054 -0.5394 0.4331, -1.6339 -0.2638 0.1078, -1.7515 -0.7362 0.0, -1.7515 -0.2638 0.0, -1.7267 -0.2638 0.0026, -1.7267 -0.7362 0.0026, -1.7029 -0.2638 0.0105, -1.7029 -0.7362 0.0105, -1.6814 -0.2638 0.0231, -1.6814 -0.7362 0.0231, -1.663 -0.2638 0.04, -1.663 -0.7362 0.04, -1.6485 -0.2638 0.0603, -1.6485 -0.7362 0.0603, -1.6387 -0.2638 0.0833, -1.6387 -0.7362 0.0833, -1.9094 -0.2638 0.0, -2.0276 -0.3819 0.0, -2.0276 -0.6181 0.0, -1.9094 -0.7362 0.0, -2.0276 -0.3819 0.0984, -2.0276 -0.6181 0.0984, -1.7876 -0.7362 0.0984, -1.7876 -0.2638 0.0984, -1.9094 -0.2638 0.0984, -1.9094 -0.7362 0.0984, -1.7288 -0.7362 0.1523, -1.7288 -0.2638 0.1523, -1.7318 -0.7362 0.1381, -1.7318 -0.2638 0.1381, -1.7383 -0.7362 0.125, -1.7383 -0.2638 0.125, -1.7477 -0.7362 0.1139, -1.7477 -0.2638 0.1139, -1.7596 -0.7362 0.1055, -1.7596 -0.2638 0.1055, -1.7731 -0.7362 0.1002, -1.7731 -0.2638 0.1002, -1.6792 -0.5394 0.719, -1.6792 -0.2638 0.719, -1.7042 -0.5394 0.4331, -1.7042 -0.7362 0.4331, -1.5615 -0.5394 0.8268, -1.5615 -0.2638 0.8268, -1.5864 -0.2638 0.8241, -1.5864 -0.5394 0.8241, -1.6101 -0.2638 0.8163, -1.6101 -0.5394 0.8163, -1.6317 -0.2638 0.8037, -1.6317 -0.5394 0.8037, -1.6501 -0.2638 0.7868, -1.6501 -0.5394 0.7868, -1.6645 -0.2638 0.7664, -1.6645 -0.5394 0.7664, -1.6744 -0.2638 0.7435, -1.6744 -0.5394 0.7435, 1.2709 -0.5394 0.8268, 1.2709 -0.2638 0.8268, 1.2795 -0.5394 0.7283, 1.2795 -0.2638 0.7283, 1.5255 -0.5394 0.7283, 1.5255 -0.2638 0.7283, 1.5399 -0.5394 0.7266, 1.5399 -0.2638 0.7266, 1.5535 -0.5394 0.7213, 1.5535 -0.2638 0.7213, 1.5654 -0.5394 0.7128, 1.5654 -0.2638 0.7128, 1.5748 -0.5394 0.7017, 1.5748 -0.2638 0.7017, 1.5812 -0.5394 0.6887, 1.5812 -0.2638 0.6887, 1.5843 -0.5394 0.6744, 1.5843 -0.2638 0.6744, 1.6054 -0.5394 0.4331, 1.6339 -0.2638 0.1078, 1.6054 -0.7362 0.4331, 1.6339 -0.7362 0.1078, 1.6387 -0.2638 0.0833, 1.6387 -0.7362 0.0833, 1.6485 -0.2638 0.0603, 1.6485 -0.7362 0.0603, 1.663 -0.2638 0.04, 1.663 -0.7362 0.04, 1.6814 -0.2638 0.0231, 1.6814 -0.7362 0.0231, 1.7029 -0.2638 0.0105, 1.7029 -0.7362 0.0105, 1.7267 -0.2638 0.0026, 1.7267 -0.7362 0.0026, 1.7515 -0.2638 0.0, 1.7515 -0.7362 0.0, 1.9094 -0.2638 0.0, 2.0276 -0.3819 0.0, 2.0276 -0.6181 0.0, 1.9094 -0.7362 0.0, 2.0276 -0.6181 0.0984, 2.0276 -0.3819 0.0984, 1.9094 -0.2638 0.0984, 1.7876 -0.2638 0.0984, 1.7876 -0.7362 0.0984, 1.9094 -0.7362 0.0984, 1.7731 -0.7362 0.1002, 1.7731 -0.2638 0.1002, 1.7596 -0.7362 0.1055, 1.7596 -0.2638 0.1055, 1.7477 -0.7362 0.1139, 1.7477 -0.2638 0.1139, 1.7383 -0.7362 0.125, 1.7383 -0.2638 0.125, 1.7318 -0.7362 0.1381, 1.7318 -0.2638 0.1381, 1.7288 -0.7362 0.1523, 1.7288 -0.2638 0.1523, 1.7042 -0.7362 0.4331, 1.7042 -0.5394 0.4331, 1.6792 -0.5394 0.719, 1.6792 -0.2638 0.719, 1.6744 -0.2638 0.7435, 1.6744 -0.5394 0.7435, 1.6645 -0.2638 0.7664, 1.6645 -0.5394 0.7664, 1.6501 -0.2638 0.7868, 1.6501 -0.5394 0.7868, 1.6317 -0.2638 0.8037, 1.6317 -0.5394 0.8037, 1.6101 -0.2638 0.8163, 1.6101 -0.5394 0.8163, 1.5864 -0.2638 0.8241, 1.5864 -0.5394 0.8241, 1.5615 -0.2638 0.8268, 1.5615 -0.5394 0.8268, 1.2795 0.5394 0.7283, 1.2795 0.2638 0.7283, 1.2709 0.5394 0.8268, 1.2709 0.2638 0.8268, 1.5255 0.5394 0.7283, 1.5255 0.2638 0.7283, 1.5843 0.5394 0.6744, 1.5843 0.2638 0.6744, 1.5812 0.5394 0.6887, 1.5812 0.2638 0.6887, 1.5748 0.5394 0.7017, 1.5748 0.2638 0.7017, 1.5654 0.5394 0.7128, 1.5654 0.2638 0.7128, 1.5535 0.5394 0.7213, 1.5535 0.2638 0.7213, 1.5399 0.5394 0.7266, 1.5399 0.2638 0.7266, 1.6054 0.7362 0.4331, 1.6339 0.7362 0.1078, 1.6054 0.5394 0.4331, 1.6339 0.2638 0.1078, 1.7515 0.7362 0.0, 1.7515 0.2638 0.0, 1.7267 0.2638 0.0026, 1.7267 0.7362 0.0026, 1.7029 0.2638 0.0105, 1.7029 0.7362 0.0105, 1.6814 0.2638 0.0231, 1.6814 0.7362 0.0231, 1.663 0.2638 0.04, 1.663 0.7362 0.04, 1.6485 0.2638 0.0603, 1.6485 0.7362 0.0603, 1.6387 0.2638 0.0833, 1.6387 0.7362 0.0833, 1.9094 0.2638 0.0, 2.0276 0.3819 0.0, 2.0276 0.6181 0.0, 1.9094 0.7362 0.0, 2.0276 0.3819 0.0984, 2.0276 0.6181 0.0984, 1.7876 0.7362 0.0984, 1.7876 0.2638 0.0984, 1.9094 0.2638 0.0984, 1.9094 0.7362 0.0984, 1.7288 0.7362 0.1523, 1.7288 0.2638 0.1523, 1.7318 0.7362 0.1381, 1.7318 0.2638 0.1381, 1.7383 0.7362 0.125, 1.7383 0.2638 0.125, 1.7477 0.7362 0.1139, 1.7477 0.2638 0.1139, 1.7596 0.7362 0.1055, 1.7596 0.2638 0.1055, 1.7731 0.7362 0.1002, 1.7731 0.2638 0.1002, 1.6792 0.5394 0.719, 1.6792 0.2638 0.719, 1.7042 0.5394 0.4331, 1.7042 0.7362 0.4331, 1.5615 0.5394 0.8268, 1.5615 0.2638 0.8268, 1.5864 0.2638 0.8241, 1.5864 0.5394 0.8241, 1.6101 0.2638 0.8163, 1.6101 0.5394 0.8163, 1.6317 0.2638 0.8037, 1.6317 0.5394 0.8037, 1.6501 0.2638 0.7868, 1.6501 0.5394 0.7868, 1.6645 0.2638 0.7664, 1.6645 0.5394 0.7664, 1.6744 0.2638 0.7435, 1.6744 0.5394 0.7435
            ]
        }
        coordIndex [
            0,1,2,-1,2,1,3,-1,2,3,4,-1,4,3,5,-1,4,5,6,-1,6,5,7,-1,6,7,8,-1,8,7,9,-1,8,9,10,-1,10,9,11,-1,10,11,12,-1,12,11,13,-1,12,13,14,-1,14,13,15,-1,14,15,16,-1,16,15,17,-1,16,17,18,-1,18,17,19,-1,18,19,20,-1,20,19,21,-1,21,19,22,-1,21,22,23,-1,23,22,24,-1,23,24,25,-1,25,24,26,-1,25,26,27,-1,27,26,28,-1,27,28,29,-1,29,28,30,-1,29,30,31,-1,31,30,32,-1,31,32,33,-1,33,32,34,-1,33,34,35,-1,35,34,36,-1,36,37,35,-1,35,37,38,-1,35,38,39,-1,38,37,40,-1,40,37,41,-1,42,43,44,-1,41,42,40,-1,40,42,44,-1,40,44,45,-1,44,43,46,-1,46,43,47,-1,46,47,48,-1,48,47,49,-1,48,49,50,-1,50,49,51,-1,50,51,52,-1,52,51,53,-1,52,53,54,-1,54,53,55,-1,54,55,56,-1,56,55,57,-1,58,56,59,-1,59,56,57,-1,59,57,60,-1,60,57,61,-1,60,61,62,-1,60,62,63,-1,63,62,64,-1,63,64,65,-1,65,64,66,-1,65,66,67,-1,67,66,68,-1,67,68,69,-1,69,68,70,-1,69,70,71,-1,71,70,72,-1,71,72,73,-1,73,72,74,-1,73,74,75,-1,75,74,0,-1,0,74,1,-1,52,27,50,-1,50,27,29,-1,50,29,48,-1,58,20,56,-1,56,20,21,-1,56,21,54,-1,54,21,23,-1,54,23,52,-1,52,23,25,-1,52,25,27,-1,35,39,45,-1,45,44,35,-1,35,44,46,-1,35,46,33,-1,33,46,48,-1,33,48,31,-1,31,48,29,-1,19,17,61,-1,61,17,15,-1,61,15,62,-1,62,15,13,-1,61,57,19,-1,19,57,55,-1,19,55,22,-1,22,55,53,-1,51,26,53,-1,53,26,24,-1,53,24,22,-1,42,36,43,-1,43,36,34,-1,43,34,47,-1,47,34,32,-1,47,32,49,-1,49,32,30,-1,49,30,51,-1,51,30,28,-1,51,28,26,-1,11,66,13,-1,13,66,64,-1,13,64,62,-1,3,1,5,-1,5,1,74,-1,5,74,7,-1,7,74,72,-1,7,72,9,-1,9,72,70,-1,9,70,11,-1,11,70,68,-1,11,68,66,-1,40,45,38,-1,38,45,39,-1,42,41,36,-1,36,41,37,-1,75,0,2,-1,18,59,16,-1,16,59,60,-1,16,60,14,-1,14,60,63,-1,14,63,12,-1,2,4,75,-1,75,4,6,-1,75,6,73,-1,73,6,8,-1,63,65,12,-1,12,65,67,-1,12,67,10,-1,10,67,69,-1,10,69,8,-1,8,69,71,-1,8,71,73,-1,59,18,58,-1,58,18,20,-1,76,77,78,-1,78,77,79,-1,80,81,76,-1,76,81,77,-1,82,83,84,-1,84,83,85,-1,84,85,86,-1,86,85,87,-1,86,87,88,-1,88,87,89,-1,88,89,90,-1,90,89,91,-1,90,91,92,-1,92,91,93,-1,92,93,80,-1,80,93,81,-1,94,95,96,-1,96,95,97,-1,96,97,82,-1,82,97,83,-1,98,99,100,-1,98,100,101,-1,101,100,102,-1,101,102,103,-1,103,102,104,-1,103,104,105,-1,105,104,106,-1,105,106,107,-1,107,106,108,-1,107,108,109,-1,109,108,110,-1,109,110,111,-1,111,110,97,-1,111,97,95,-1,112,99,98,-1,113,112,114,-1,114,112,98,-1,114,98,115,-1,113,114,116,-1,116,114,117,-1,118,119,120,-1,120,116,118,-1,118,116,117,-1,118,117,121,-1,122,123,124,-1,124,123,125,-1,124,125,126,-1,126,125,127,-1,126,127,128,-1,128,127,129,-1,128,129,130,-1,130,129,131,-1,130,131,132,-1,132,131,133,-1,132,133,118,-1,118,133,119,-1,134,135,136,-1,136,135,123,-1,136,123,137,-1,137,123,122,-1,138,139,140,-1,138,140,141,-1,141,140,142,-1,141,142,143,-1,143,142,144,-1,143,144,145,-1,145,144,146,-1,145,146,147,-1,147,146,148,-1,147,148,149,-1,149,148,150,-1,149,150,151,-1,151,150,135,-1,151,135,134,-1,78,79,138,-1,138,79,139,-1,95,94,137,-1,121,115,118,-1,118,115,98,-1,118,98,132,-1,132,98,101,-1,132,101,130,-1,130,101,103,-1,130,103,128,-1,137,122,95,-1,95,122,124,-1,95,124,111,-1,111,124,126,-1,103,105,128,-1,128,105,107,-1,128,107,126,-1,126,107,109,-1,126,109,111,-1,131,129,104,-1,139,79,77,-1,99,112,120,-1,77,81,139,-1,139,81,93,-1,139,93,140,-1,140,93,91,-1,89,144,91,-1,91,144,142,-1,91,142,140,-1,104,129,106,-1,106,129,127,-1,106,127,108,-1,120,119,99,-1,99,119,133,-1,99,133,100,-1,100,133,131,-1,100,131,102,-1,102,131,104,-1,108,127,110,-1,110,127,125,-1,110,125,97,-1,97,125,123,-1,97,123,83,-1,83,123,135,-1,83,135,85,-1,85,135,150,-1,85,150,87,-1,87,150,148,-1,87,148,89,-1,89,148,146,-1,89,146,144,-1,121,117,115,-1,115,117,114,-1,116,120,113,-1,113,120,112,-1,134,136,96,-1,90,145,88,-1,88,145,147,-1,88,147,86,-1,76,78,80,-1,80,78,138,-1,80,138,92,-1,92,138,141,-1,92,141,90,-1,90,141,143,-1,90,143,145,-1,96,82,134,-1,134,82,84,-1,134,84,151,-1,151,84,86,-1,151,86,149,-1,149,86,147,-1,137,94,136,-1,136,94,96,-1,152,153,154,-1,154,153,155,-1,154,155,156,-1,156,155,157,-1,156,157,158,-1,158,157,159,-1,158,159,160,-1,160,159,161,-1,160,161,162,-1,162,161,163,-1,162,163,164,-1,164,163,165,-1,164,165,166,-1,166,165,167,-1,166,167,168,-1,168,167,169,-1,168,169,170,-1,170,169,171,-1,170,171,172,-1,172,171,173,-1,173,171,174,-1,173,174,175,-1,175,174,176,-1,175,176,177,-1,177,176,178,-1,177,178,179,-1,179,178,180,-1,179,180,181,-1,181,180,182,-1,181,182,183,-1,183,182,184,-1,183,184,185,-1,185,184,186,-1,185,186,187,-1,187,186,188,-1,188,189,187,-1,187,189,190,-1,187,190,191,-1,190,189,192,-1,192,189,193,-1,194,195,196,-1,193,194,192,-1,192,194,196,-1,192,196,197,-1,196,195,198,-1,198,195,199,-1,198,199,200,-1,200,199,201,-1,200,201,202,-1,202,201,203,-1,202,203,204,-1,204,203,205,-1,204,205,206,-1,206,205,207,-1,206,207,208,-1,208,207,209,-1,210,208,211,-1,211,208,209,-1,211,209,212,-1,212,209,213,-1,212,213,214,-1,212,214,215,-1,215,214,216,-1,215,216,217,-1,217,216,218,-1,217,218,219,-1,219,218,220,-1,219,220,221,-1,221,220,222,-1,221,222,223,-1,223,222,224,-1,223,224,225,-1,225,224,226,-1,225,226,227,-1,227,226,152,-1,152,226,153,-1,204,179,202,-1,202,179,181,-1,202,181,200,-1,210,172,208,-1,208,172,173,-1,208,173,206,-1,206,173,175,-1,206,175,204,-1,204,175,177,-1,204,177,179,-1,187,191,197,-1,197,196,187,-1,187,196,198,-1,187,198,185,-1,185,198,200,-1,185,200,183,-1,183,200,181,-1,161,220,163,-1,163,220,218,-1,163,218,165,-1,155,153,157,-1,157,153,226,-1,157,226,159,-1,159,226,224,-1,159,224,161,-1,161,224,222,-1,161,222,220,-1,171,169,213,-1,213,169,167,-1,213,167,214,-1,214,167,165,-1,214,165,216,-1,216,165,218,-1,213,209,171,-1,171,209,207,-1,171,207,174,-1,174,207,205,-1,203,178,205,-1,205,178,176,-1,205,176,174,-1,194,188,195,-1,195,188,186,-1,195,186,199,-1,199,186,184,-1,199,184,201,-1,201,184,182,-1,201,182,203,-1,203,182,180,-1,203,180,178,-1,192,197,190,-1,190,197,191,-1,194,193,188,-1,188,193,189,-1,164,219,162,-1,162,219,221,-1,162,221,160,-1,227,152,154,-1,170,211,168,-1,168,211,212,-1,168,212,166,-1,166,212,215,-1,166,215,164,-1,164,215,217,-1,164,217,219,-1,154,156,227,-1,227,156,158,-1,227,158,225,-1,225,158,160,-1,225,160,223,-1,223,160,221,-1,211,170,210,-1,210,170,172,-1,228,229,230,-1,230,229,231,-1,232,233,228,-1,228,233,229,-1,234,235,236,-1,236,235,237,-1,236,237,238,-1,238,237,239,-1,238,239,240,-1,240,239,241,-1,240,241,242,-1,242,241,243,-1,242,243,244,-1,244,243,245,-1,244,245,232,-1,232,245,233,-1,246,247,248,-1,248,247,249,-1,248,249,234,-1,234,249,235,-1,250,251,252,-1,250,252,253,-1,253,252,254,-1,253,254,255,-1,255,254,256,-1,255,256,257,-1,257,256,258,-1,257,258,259,-1,259,258,260,-1,259,260,261,-1,261,260,262,-1,261,262,263,-1,263,262,249,-1,263,249,247,-1,264,251,250,-1,265,264,266,-1,266,264,250,-1,266,250,267,-1,265,266,268,-1,268,266,269,-1,270,271,272,-1,272,268,270,-1,270,268,269,-1,270,269,273,-1,274,275,276,-1,276,275,277,-1,276,277,278,-1,278,277,279,-1,278,279,280,-1,280,279,281,-1,280,281,282,-1,282,281,283,-1,282,283,284,-1,284,283,285,-1,284,285,270,-1,270,285,271,-1,286,287,288,-1,288,287,275,-1,288,275,289,-1,289,275,274,-1,290,291,292,-1,290,292,293,-1,293,292,294,-1,293,294,295,-1,295,294,296,-1,295,296,297,-1,297,296,298,-1,297,298,299,-1,299,298,300,-1,299,300,301,-1,301,300,302,-1,301,302,303,-1,303,302,287,-1,303,287,286,-1,230,231,290,-1,290,231,291,-1,247,246,289,-1,273,267,270,-1,270,267,250,-1,270,250,284,-1,284,250,253,-1,284,253,282,-1,282,253,255,-1,282,255,280,-1,289,274,247,-1,247,274,276,-1,247,276,263,-1,263,276,278,-1,255,257,280,-1,280,257,259,-1,280,259,278,-1,278,259,261,-1,278,261,263,-1,291,231,229,-1,283,281,256,-1,229,233,291,-1,291,233,245,-1,291,245,292,-1,292,245,243,-1,241,296,243,-1,243,296,294,-1,243,294,292,-1,251,264,272,-1,256,281,258,-1,258,281,279,-1,258,279,260,-1,272,271,251,-1,251,271,285,-1,251,285,252,-1,252,285,283,-1,252,283,254,-1,254,283,256,-1,260,279,262,-1,262,279,277,-1,262,277,249,-1,249,277,275,-1,249,275,235,-1,235,275,287,-1,235,287,237,-1,237,287,302,-1,237,302,239,-1,239,302,300,-1,239,300,241,-1,241,300,298,-1,241,298,296,-1,273,269,267,-1,267,269,266,-1,268,272,265,-1,265,272,264,-1,286,288,248,-1,248,234,286,-1,286,234,236,-1,286,236,303,-1,303,236,238,-1,240,299,238,-1,238,299,301,-1,238,301,303,-1,228,230,232,-1,232,230,290,-1,232,290,244,-1,244,290,293,-1,244,293,242,-1,242,293,295,-1,242,295,240,-1,240,295,297,-1,240,297,299,-1,289,246,288,-1,288,246,248,-1,
        ]
    }
}
Shape{
    appearance Appearance {
        material  Material 	{
            diffuseColor 0.20784313725490197 0.20784313725490197 0.20784313725490197
            specularColor 0.01568627450980392 0.01568627450980392 0.01568627450980392
            ambientIntensity 0.298
            transparency 0.0
            shininess 0.5
        }
    }
    geometry IndexedFaceSet {
        ccw TRUE
        solid FALSE
        coord DEF co Coordinate {
            point [
                0.1346 0.0697 0.0394, 0.1539 0.0675 0.0394, 0.092 -0.0781 0.0394, 1.1832 0.0901 0.0394, 1.1832 -0.8092 0.0394, 0.3525 -0.108 0.0394, 0.1112 0.0897 0.0394, 0.0885 0.0835 0.0394, 0.05 0.0889 0.0394, -0.0508 0.0889 0.0394, -0.0748 0.0901 0.0394, -0.0508 0.0673 0.0394, 0.0236 0.0673 0.0394, 0.0236 0.0025 0.0394, 0.1106 0.0666 0.0394, 0.0885 -0.0761 0.0394, 0.0885 0.0571 0.0394, 0.05 -0.108 0.0394, 0.0885 -0.0977 0.0394, 0.1094 -0.1064 0.0394, 0.0236 -0.0191 0.0394, 0.0236 -0.0863 0.0394, -0.046 -0.0191 0.0394, -0.0556 -0.0863 0.0394, -0.046 0.0025 0.0394, 0.2517 -0.108 0.0394, -0.0748 -0.8092 0.0394, 0.186 -0.1013 0.0394, 0.2245 0.0371 0.0394, 0.213 0.0555 0.0394, 0.3261 0.0889 0.0394, 0.1952 0.0725 0.0394, 0.1765 0.0833 0.0394, 0.1687 0.0622 0.0394, 0.1823 0.0531 0.0394, 0.1942 0.04 0.0394, 0.2085 -0.0116 0.0394, 0.2065 -0.0329 0.0394, 0.2011 -0.0499 0.0394, 0.1573 -0.0867 0.0394, 0.139 -0.0887 0.0394, 0.1717 -0.0814 0.0394, 0.1838 -0.0733 0.0394, 0.193 -0.0635 0.0394, 0.1128 -0.0858 0.0394, 0.1372 -0.1103 0.0394, 0.1426 -0.1104 0.0394, 0.1669 -0.1078 0.0394, 0.2018 -0.0912 0.0394, 0.2166 -0.0756 0.0394, 0.2517 -0.0863 0.0394, 0.2271 -0.0569 0.0394, 0.3261 -0.0863 0.0394, 0.1545 0.0897 0.0394, 0.1495 0.0901 0.0394, 0.3525 0.0889 0.0394, 0.2023 0.0248 0.0394, 0.2075 0.0037 0.0394, -0.0556 -0.108 0.0394, 0.233 -0.036 0.0394, 0.2349 -0.0132 0.0394, 0.2321 0.0147 0.0394, 1.1832 0.8092 0.0394, -0.0748 0.8092 0.0394, 0.1348 0.0913 0.0394, 0.1174 0.0901 0.0394, -0.3413 0.0889 0.0394, -0.3677 0.0889 0.0394, -0.2426 -0.054 0.0394, -0.2313 -0.0716 0.0394, -0.2668 -0.108 0.0394, -0.2151 -0.0871 0.0394, -0.1946 -0.0991 0.0394, -0.3958 -0.0527 0.0394, -0.3144 -0.0527 0.0394, -0.4157 -0.108 0.0394, -0.2956 -0.108 0.0394, -0.4445 -0.108 0.0394, -1.1832 -0.8092 0.0394, -0.1719 -0.1058 0.0394, -0.1475 -0.108 0.0394, -0.094 -0.108 0.0394, -1.1832 0.0901 0.0394, -0.201 0.0778 0.0394, -0.2224 0.0634 0.0394, -0.094 0.0889 0.0394, -0.1495 0.0889 0.0394, -0.178 0.0859 0.0394, -0.2226 0.0632 0.0394, -0.2366 0.0478 0.0394, -0.2457 0.0309 0.0394, -0.251 0.0115 0.0394, -0.2524 -0.007 0.0394, -0.2497 -0.0334 0.0394, -1.1832 0.8092 0.0394, 1.2795 -0.8663 0.7283, 1.2795 0.8663 0.7283, 1.2224 -0.8092 1.3814, 1.2224 0.8092 1.3814, -1.1832 0.8484 1.3814, 1.1832 0.8484 1.3814, -1.2403 0.9055 0.7283, 1.2403 0.9055 0.7283, -1.2224 -0.8092 1.3814, -1.2224 0.8092 1.3814, -1.2795 -0.8663 0.7283, -1.2795 0.8663 0.7283, 1.1832 -0.8484 1.3814, -1.1832 -0.8484 1.3814, 1.2403 -0.9055 0.7283, -1.2403 -0.9055 0.7283, -0.9204 0.5953 1.4173, -0.9017 0.5709 1.4173, 1.1832 0.8092 1.4173, -1.0039 0.3937 1.4173, -1.0345 0.3977 1.4173, -1.1832 -0.8092 1.4173, -1.063 0.4095 1.4173, -1.0875 0.4283 1.4173, -1.1062 0.4528 1.4173, -0.8899 0.5424 1.4173, -0.8858 0.5118 1.4173, 1.1832 -0.8092 1.4173, -0.8899 0.4812 1.4173, -0.9017 0.4528 1.4173, -1.1062 0.5709 1.4173, -1.0875 0.5953 1.4173, -1.1832 0.8092 1.4173, -1.063 0.6141 1.4173, -1.0345 0.6259 1.4173, -0.9204 0.4283 1.4173, -0.9449 0.4095 1.4173, -0.9734 0.3977 1.4173, -1.0039 0.6299 1.4173, -0.9734 0.6259 1.4173, -0.9449 0.6141 1.4173, -1.118 0.4812 1.4173, -1.122 0.5118 1.4173, -1.118 0.5424 1.4173, 1.2224 -0.8092 0.0753, 1.2224 0.8092 0.0753, -1.1832 -0.8484 0.0753, 1.1832 -0.8484 0.0753, -1.2224 0.8092 0.0753, -1.2224 -0.8092 0.0753, -1.1832 0.8484 0.0753, 1.1832 0.8484 0.0753
            ]
        }
        coordIndex [
            0,1,2,-1,3,4,5,-1,6,7,8,-1,8,9,10,-1,10,9,11,-1,11,12,13,-1,0,2,14,-1,14,2,15,-1,14,15,16,-1,7,16,8,-1,8,16,15,-1,8,15,17,-1,17,15,18,-1,17,18,19,-1,20,21,22,-1,22,21,23,-1,22,23,24,-1,5,4,25,-1,25,4,26,-1,25,26,27,-1,28,29,30,-1,30,29,31,-1,30,31,32,-1,1,33,2,-1,2,33,34,-1,2,34,35,-1,36,37,2,-1,2,37,38,-1,39,40,41,-1,41,40,42,-1,38,43,2,-1,2,43,42,-1,2,42,44,-1,44,42,40,-1,45,46,26,-1,26,46,47,-1,26,47,27,-1,27,48,25,-1,25,48,49,-1,25,49,50,-1,50,49,51,-1,50,51,52,-1,32,53,30,-1,30,53,54,-1,30,54,55,-1,35,56,2,-1,2,56,57,-1,2,57,36,-1,13,24,11,-1,11,24,23,-1,11,23,10,-1,10,23,58,-1,10,58,26,-1,26,58,17,-1,26,17,45,-1,45,17,19,-1,51,59,52,-1,52,59,60,-1,52,60,30,-1,30,60,61,-1,30,61,28,-1,5,55,3,-1,3,55,54,-1,3,54,62,-1,62,54,63,-1,63,54,64,-1,63,64,65,-1,66,67,10,-1,68,69,70,-1,70,69,71,-1,70,71,72,-1,73,74,75,-1,75,74,76,-1,77,75,78,-1,78,75,76,-1,78,76,26,-1,26,76,70,-1,72,79,70,-1,70,79,80,-1,70,80,26,-1,26,80,81,-1,26,81,10,-1,77,78,67,-1,67,78,82,-1,67,82,10,-1,66,83,84,-1,81,85,10,-1,10,85,86,-1,10,86,66,-1,66,86,87,-1,66,87,83,-1,84,88,66,-1,66,88,89,-1,66,89,90,-1,90,91,66,-1,66,91,92,-1,66,92,70,-1,70,92,93,-1,70,93,68,-1,6,8,65,-1,65,8,10,-1,65,10,63,-1,63,10,82,-1,63,82,94,-1,95,96,97,-1,97,96,98,-1,99,100,101,-1,101,100,102,-1,103,104,105,-1,105,104,106,-1,107,108,109,-1,109,108,110,-1,111,112,113,-1,114,115,116,-1,115,117,116,-1,116,117,118,-1,116,118,119,-1,112,120,113,-1,113,120,121,-1,113,121,122,-1,122,121,123,-1,122,123,124,-1,125,126,127,-1,127,126,128,-1,127,128,129,-1,124,130,122,-1,122,130,131,-1,122,131,116,-1,116,131,132,-1,116,132,114,-1,129,133,127,-1,127,133,134,-1,127,134,113,-1,113,134,135,-1,113,135,111,-1,119,136,116,-1,116,136,137,-1,116,137,127,-1,127,137,138,-1,127,138,125,-1,139,140,95,-1,95,140,96,-1,141,142,110,-1,110,142,109,-1,143,144,106,-1,106,144,105,-1,101,102,145,-1,145,102,146,-1,
        ]
    }
}
Shape{
    appearance Appearance {
        material  Material 	{
            diffuseColor 0.8313725490196079 0.8313725490196079 0.8196078431372549
            specularColor 0.6666666666666666 0.6666666666666666 0.6549019607843137
            ambientIntensity 0.83
            transparency 0.0
            shininess 0.5
        }
    }
    geometry IndexedFaceSet {
        ccw TRUE
        solid FALSE
        coord DEF co Coordinate {
            point [
                -0.3958 -0.0527 0.0433, -0.3958 -0.0527 0.0394, -0.4157 -0.108 0.0433, -0.4157 -0.108 0.0394, -0.3144 -0.0527 0.0433, -0.3144 -0.0527 0.0394, -0.2956 -0.108 0.0433, -0.2956 -0.108 0.0394, -0.2668 -0.108 0.0433, -0.2668 -0.108 0.0394, -0.3413 0.0889 0.0433, -0.3413 0.0889 0.0394, -0.3677 0.0889 0.0433, -0.3677 0.0889 0.0394, -0.4445 -0.108 0.0433, -0.4445 -0.108 0.0394, -0.3211 -0.0311 0.0433, -0.3869 -0.0311 0.0433, -0.3504 0.0511 0.0433, -0.3523 0.0579 0.0433, -0.3536 0.0649 0.0433, -0.3542 0.0649 0.0433, -0.3555 0.0579 0.0433, -0.3573 0.0511 0.0433, -0.3542 0.0649 0.0394, -0.3555 0.0579 0.0394, -0.3573 0.0511 0.0394, -0.3536 0.0649 0.0394, -0.3504 0.0511 0.0394, -0.3523 0.0579 0.0394, -0.3211 -0.0311 0.0394, -0.3869 -0.0311 0.0394, -0.1495 0.0889 0.0433, -0.1495 0.0889 0.0394, -0.094 0.0889 0.0433, -0.094 0.0889 0.0394, -0.2524 -0.007 0.0433, -0.2524 -0.007 0.0394, -0.251 0.0115 0.0394, -0.251 0.0115 0.0433, -0.2457 0.0309 0.0394, -0.2457 0.0309 0.0433, -0.2366 0.0478 0.0394, -0.2366 0.0478 0.0433, -0.2226 0.0632 0.0394, -0.2226 0.0632 0.0433, -0.2224 0.0634 0.0394, -0.2224 0.0634 0.0433, -0.201 0.0778 0.0394, -0.201 0.0778 0.0433, -0.178 0.0859 0.0394, -0.178 0.0859 0.0433, -0.1475 -0.108 0.0433, -0.1475 -0.108 0.0394, -0.1719 -0.1058 0.0394, -0.1719 -0.1058 0.0433, -0.1946 -0.0991 0.0394, -0.1946 -0.0991 0.0433, -0.2151 -0.0871 0.0394, -0.2151 -0.0871 0.0433, -0.2313 -0.0716 0.0394, -0.2313 -0.0716 0.0433, -0.2426 -0.054 0.0394, -0.2426 -0.054 0.0433, -0.2497 -0.0334 0.0394, -0.2497 -0.0334 0.0433, -0.094 -0.108 0.0433, -0.094 -0.108 0.0394, -0.2129 0.0397 0.0433, -0.2034 0.0498 0.0433, -0.189 0.0591 0.0433, -0.1727 0.0648 0.0433, -0.1494 0.0673 0.0433, -0.1204 0.0673 0.0433, -0.1204 -0.0863 0.0433, -0.1483 -0.0863 0.0433, -0.1691 -0.0844 0.0433, -0.1857 -0.0792 0.0433, -0.1991 -0.0713 0.0433, -0.2101 -0.0604 0.0433, -0.2184 -0.0468 0.0433, -0.2242 -0.0283 0.0433, -0.226 -0.0076 0.0433, -0.2244 0.012 0.0433, -0.2198 0.0275 0.0433, -0.1483 -0.0863 0.0394, -0.1204 -0.0863 0.0394, -0.226 -0.0076 0.0394, -0.2242 -0.0283 0.0394, -0.2184 -0.0468 0.0394, -0.2101 -0.0604 0.0394, -0.1991 -0.0713 0.0394, -0.1857 -0.0792 0.0394, -0.1691 -0.0844 0.0394, -0.1494 0.0673 0.0394, -0.1727 0.0648 0.0394, -0.189 0.0591 0.0394, -0.2034 0.0498 0.0394, -0.2129 0.0397 0.0394, -0.2198 0.0275 0.0394, -0.2244 0.012 0.0394, -0.1204 0.0673 0.0394, 0.05 0.0889 0.0433, 0.05 0.0889 0.0394, 0.05 -0.108 0.0433, 0.05 -0.108 0.0394, -0.0508 0.0889 0.0433, -0.0508 0.0889 0.0394, -0.0508 0.0673 0.0433, -0.0508 0.0673 0.0394, 0.0236 0.0673 0.0433, 0.0236 0.0673 0.0394, 0.0236 0.0025 0.0433, 0.0236 0.0025 0.0394, -0.046 0.0025 0.0433, -0.046 0.0025 0.0394, -0.046 -0.0191 0.0433, -0.046 -0.0191 0.0394, 0.0236 -0.0191 0.0433, 0.0236 -0.0191 0.0394, 0.0236 -0.0863 0.0433, 0.0236 -0.0863 0.0394, -0.0556 -0.0863 0.0433, -0.0556 -0.0863 0.0394, -0.0556 -0.108 0.0433, -0.0556 -0.108 0.0394, 0.2349 -0.0132 0.0433, 0.2349 -0.0132 0.0394, 0.233 -0.036 0.0394, 0.233 -0.036 0.0433, 0.2271 -0.0569 0.0394, 0.2271 -0.0569 0.0433, 0.2166 -0.0756 0.0394, 0.2166 -0.0756 0.0433, 0.2018 -0.0912 0.0394, 0.2018 -0.0912 0.0433, 0.186 -0.1013 0.0394, 0.186 -0.1013 0.0433, 0.1669 -0.1078 0.0394, 0.1669 -0.1078 0.0433, 0.1426 -0.1104 0.0394, 0.1426 -0.1104 0.0433, 0.1348 0.0913 0.0433, 0.1348 0.0913 0.0394, 0.1545 0.0897 0.0433, 0.1495 0.0901 0.0394, 0.1545 0.0897 0.0394, 0.1765 0.0833 0.0394, 0.1765 0.0833 0.0433, 0.1952 0.0725 0.0394, 0.1952 0.0725 0.0433, 0.213 0.0555 0.0394, 0.213 0.0555 0.0433, 0.2245 0.0371 0.0394, 0.2245 0.0371 0.0433, 0.2321 0.0147 0.0394, 0.2321 0.0147 0.0433, 0.1174 0.0901 0.0394, 0.1112 0.0897 0.0433, 0.1112 0.0897 0.0394, 0.0885 0.0835 0.0433, 0.0885 0.0835 0.0394, 0.0885 0.0571 0.0433, 0.0885 0.0571 0.0394, 0.1346 0.0697 0.0433, 0.1346 0.0697 0.0394, 0.1106 0.0666 0.0394, 0.1106 0.0666 0.0433, 0.2085 -0.0116 0.0433, 0.2085 -0.0116 0.0394, 0.2075 0.0037 0.0394, 0.2075 0.0037 0.0433, 0.2023 0.0248 0.0394, 0.2023 0.0248 0.0433, 0.1942 0.04 0.0394, 0.1942 0.04 0.0433, 0.1823 0.0531 0.0394, 0.1823 0.0531 0.0433, 0.1687 0.0622 0.0394, 0.1687 0.0622 0.0433, 0.1539 0.0675 0.0394, 0.1539 0.0675 0.0433, 0.139 -0.0887 0.0433, 0.139 -0.0887 0.0394, 0.1573 -0.0867 0.0394, 0.1573 -0.0867 0.0433, 0.1717 -0.0814 0.0394, 0.1717 -0.0814 0.0433, 0.1838 -0.0733 0.0394, 0.1838 -0.0733 0.0433, 0.193 -0.0635 0.0394, 0.193 -0.0635 0.0433, 0.2011 -0.0499 0.0394, 0.2011 -0.0499 0.0433, 0.2065 -0.0329 0.0394, 0.2065 -0.0329 0.0433, 0.0885 -0.0761 0.0433, 0.0885 -0.0761 0.0394, 0.092 -0.0781 0.0394, 0.092 -0.0781 0.0433, 0.1128 -0.0858 0.0394, 0.1128 -0.0858 0.0433, 0.0885 -0.0977 0.0433, 0.0885 -0.0977 0.0394, 0.1372 -0.1103 0.0394, 0.1372 -0.1103 0.0433, 0.1094 -0.1064 0.0394, 0.1094 -0.1064 0.0433, 0.3525 0.0889 0.0433, 0.3525 0.0889 0.0394, 0.3525 -0.108 0.0433, 0.3525 -0.108 0.0394, 0.3261 0.0889 0.0433, 0.3261 0.0889 0.0394, 0.3261 -0.0863 0.0433, 0.3261 -0.0863 0.0394, 0.2517 -0.0863 0.0433, 0.2517 -0.0863 0.0394, 0.2517 -0.108 0.0433, 0.2517 -0.108 0.0394
            ]
        }
        coordIndex [
            0,1,2,-1,2,1,3,-1,4,5,0,-1,0,5,1,-1,6,7,4,-1,4,7,5,-1,8,9,6,-1,6,9,7,-1,10,11,8,-1,8,11,9,-1,12,13,10,-1,10,13,11,-1,14,15,12,-1,12,15,13,-1,14,2,15,-1,15,2,3,-1,16,4,17,-1,17,4,0,-1,18,10,16,-1,16,10,8,-1,16,8,4,-1,4,8,6,-1,18,19,10,-1,10,19,20,-1,10,20,12,-1,12,20,21,-1,12,21,22,-1,22,23,12,-1,12,23,17,-1,12,17,14,-1,14,17,0,-1,14,0,2,-1,21,24,25,-1,21,25,22,-1,22,25,26,-1,22,26,23,-1,20,27,21,-1,21,27,24,-1,18,28,29,-1,18,29,19,-1,19,29,27,-1,19,27,20,-1,16,30,18,-1,18,30,28,-1,17,31,16,-1,16,31,30,-1,26,31,23,-1,23,31,17,-1,32,33,34,-1,34,33,35,-1,36,37,38,-1,36,38,39,-1,39,38,40,-1,39,40,41,-1,41,40,42,-1,41,42,43,-1,43,42,44,-1,43,44,45,-1,45,44,46,-1,45,46,47,-1,47,46,48,-1,47,48,49,-1,49,48,50,-1,49,50,51,-1,51,50,33,-1,51,33,32,-1,52,53,54,-1,52,54,55,-1,55,54,56,-1,55,56,57,-1,57,56,58,-1,57,58,59,-1,59,58,60,-1,59,60,61,-1,61,60,62,-1,61,62,63,-1,63,62,64,-1,63,64,65,-1,65,64,37,-1,65,37,36,-1,66,67,52,-1,52,67,53,-1,66,34,67,-1,67,34,35,-1,41,43,68,-1,68,43,45,-1,68,45,69,-1,69,45,47,-1,69,47,70,-1,70,47,49,-1,70,49,71,-1,71,49,51,-1,71,51,72,-1,72,51,32,-1,72,32,73,-1,73,32,34,-1,73,34,74,-1,74,34,66,-1,74,66,75,-1,75,66,52,-1,75,52,76,-1,76,52,55,-1,76,55,77,-1,77,55,57,-1,77,57,78,-1,78,57,59,-1,78,59,79,-1,79,59,61,-1,79,61,80,-1,80,61,63,-1,80,63,81,-1,81,63,65,-1,81,65,82,-1,82,65,36,-1,82,36,83,-1,83,36,39,-1,83,39,84,-1,84,39,41,-1,84,41,68,-1,75,85,74,-1,74,85,86,-1,82,87,88,-1,82,88,81,-1,81,88,89,-1,81,89,80,-1,80,89,90,-1,80,90,79,-1,79,90,91,-1,79,91,78,-1,78,91,92,-1,78,92,77,-1,77,92,93,-1,77,93,76,-1,76,93,85,-1,76,85,75,-1,72,94,95,-1,72,95,71,-1,71,95,96,-1,71,96,70,-1,70,96,97,-1,70,97,69,-1,69,97,98,-1,69,98,68,-1,68,98,99,-1,68,99,84,-1,84,99,100,-1,84,100,83,-1,83,100,87,-1,83,87,82,-1,73,101,72,-1,72,101,94,-1,86,101,74,-1,74,101,73,-1,102,103,104,-1,104,103,105,-1,106,107,102,-1,102,107,103,-1,108,109,106,-1,106,109,107,-1,110,111,108,-1,108,111,109,-1,112,113,110,-1,110,113,111,-1,114,115,112,-1,112,115,113,-1,116,117,114,-1,114,117,115,-1,118,119,116,-1,116,119,117,-1,120,121,118,-1,118,121,119,-1,122,123,120,-1,120,123,121,-1,124,125,122,-1,122,125,123,-1,124,104,125,-1,125,104,105,-1,104,124,122,-1,122,120,104,-1,104,120,118,-1,104,118,102,-1,108,106,110,-1,110,106,102,-1,110,102,112,-1,112,102,118,-1,112,118,114,-1,114,118,116,-1,126,127,128,-1,126,128,129,-1,129,128,130,-1,129,130,131,-1,131,130,132,-1,131,132,133,-1,133,132,134,-1,133,134,135,-1,135,134,136,-1,135,136,137,-1,137,136,138,-1,137,138,139,-1,139,138,140,-1,139,140,141,-1,142,143,144,-1,144,143,145,-1,145,146,144,-1,144,146,147,-1,144,147,148,-1,148,147,149,-1,148,149,150,-1,150,149,151,-1,150,151,152,-1,152,151,153,-1,152,153,154,-1,154,153,155,-1,154,155,156,-1,156,155,127,-1,156,127,126,-1,143,142,157,-1,157,142,158,-1,157,158,159,-1,159,158,160,-1,159,160,161,-1,162,163,160,-1,160,163,161,-1,164,165,166,-1,164,166,167,-1,167,166,163,-1,167,163,162,-1,168,169,170,-1,168,170,171,-1,171,170,172,-1,171,172,173,-1,173,172,174,-1,173,174,175,-1,175,174,176,-1,175,176,177,-1,177,176,178,-1,177,178,179,-1,179,178,180,-1,179,180,181,-1,181,180,165,-1,181,165,164,-1,182,183,184,-1,182,184,185,-1,185,184,186,-1,185,186,187,-1,187,186,188,-1,187,188,189,-1,189,188,190,-1,189,190,191,-1,191,190,192,-1,191,192,193,-1,193,192,194,-1,193,194,195,-1,195,194,169,-1,195,169,168,-1,196,197,198,-1,196,198,199,-1,199,198,200,-1,199,200,201,-1,201,200,183,-1,201,183,182,-1,202,203,196,-1,196,203,197,-1,141,140,204,-1,141,204,205,-1,205,204,206,-1,205,206,207,-1,207,206,203,-1,207,203,202,-1,185,141,182,-1,182,141,205,-1,182,205,201,-1,201,205,207,-1,201,207,199,-1,199,207,202,-1,199,202,196,-1,162,160,167,-1,167,160,158,-1,167,158,164,-1,164,158,142,-1,164,142,181,-1,181,142,144,-1,181,144,179,-1,179,144,148,-1,179,148,177,-1,177,148,150,-1,177,150,175,-1,175,150,152,-1,175,152,173,-1,173,152,154,-1,173,154,171,-1,171,154,156,-1,171,156,168,-1,168,156,126,-1,168,126,195,-1,195,126,129,-1,195,129,193,-1,193,129,131,-1,193,131,191,-1,191,131,133,-1,191,133,189,-1,189,133,135,-1,189,135,187,-1,187,135,137,-1,187,137,185,-1,185,137,139,-1,185,139,141,-1,208,209,210,-1,210,209,211,-1,212,213,208,-1,208,213,209,-1,214,215,212,-1,212,215,213,-1,216,217,214,-1,214,217,215,-1,218,219,216,-1,216,219,217,-1,218,210,219,-1,219,210,211,-1,212,208,214,-1,214,208,210,-1,214,210,216,-1,216,210,218,-1,
        ]
    }
}
Shape{
    appearance Appearance {
        material  Material 	{
            diffuseColor 0.20784313725490197 0.20784313725490197 0.20784313725490197
            specularColor 0.01568627450980392 0.01568627450980392 0.01568627450980392
            ambientIntensity 0.298
            transparency 0.0
            shininess 0.5
        }
    }
    geometry IndexedFaceSet {
        ccw TRUE
        solid FALSE
        coord DEF co Coordinate {
            point [
                -0.3211 -0.0311 0.0394, -0.3869 -0.0311 0.0394, -0.3504 0.0511 0.0394, -0.3573 0.0511 0.0394, -0.3523 0.0579 0.0394, -0.3555 0.0579 0.0394, -0.3536 0.0649 0.0394, -0.3542 0.0649 0.0394, -0.1204 0.0673 0.0394, -0.1204 -0.0863 0.0394, -0.1494 0.0673 0.0394, -0.1483 -0.0863 0.0394, -0.1691 -0.0844 0.0394, -0.226 -0.0076 0.0394, -0.2244 0.012 0.0394, -0.2198 0.0275 0.0394, -0.1727 0.0648 0.0394, -0.1857 -0.0792 0.0394, -0.1991 -0.0713 0.0394, -0.2101 -0.0604 0.0394, -0.2184 -0.0468 0.0394, -0.2242 -0.0283 0.0394, -0.2129 0.0397 0.0394, -0.2034 0.0498 0.0394, -0.189 0.0591 0.0394, -0.0748 0.8092 0.0394, -1.1832 0.8092 0.0394, -1.1832 0.8188 0.0406, -1.1832 0.8484 0.0753, 1.1832 0.8484 0.0753, -1.1832 0.8464 0.0661, 1.1832 0.8464 0.0661, -1.1832 0.8463 0.0658, 1.1832 0.8463 0.0658, -1.1832 0.8422 0.0573, 1.1832 0.8422 0.0573, -1.1832 0.842 0.0571, 1.1832 0.842 0.0571, -1.1832 0.8359 0.0498, 1.1832 0.8359 0.0498, -1.1832 0.8357 0.0497, 1.1832 0.8357 0.0497, -1.1832 0.8279 0.0441, 1.1832 0.8279 0.0441, -1.1832 0.8278 0.0441, 1.1832 0.8278 0.0441, -1.1832 0.8189 0.0406, 1.1832 0.8189 0.0406, 1.1832 0.8188 0.0406, 1.1832 0.8092 0.0394, -1.1857 0.8185 0.0406, -1.2019 0.8092 0.0441, -1.202 0.8092 0.0441, -1.2013 0.814 0.0441, -1.2098 0.8092 0.0497, -1.2099 0.8092 0.0498, -1.209 0.8161 0.0498, -1.2151 0.8177 0.0573, -1.2192 0.8188 0.0661, -1.2155 0.8278 0.0661, -1.1933 0.847 0.0745, -1.2027 0.843 0.0741, -1.1933 0.847 0.0745, -1.1928 0.8452 0.0661, -1.221 0.8193 0.0745, -1.221 0.8193 0.0745, -1.217 0.8287 0.0741, -1.217 0.8287 0.0741, -1.2108 0.8368 0.0739, -1.2224 0.8092 0.0753, -1.2205 0.8092 0.0661, -1.2203 0.8092 0.0658, -1.2162 0.8092 0.0573, -1.216 0.8092 0.0571, -1.1917 0.8411 0.0573, -1.2118 0.8257 0.0573, -1.2095 0.8355 0.0661, -1.1901 0.835 0.0498, -1.2063 0.8225 0.0498, -1.2065 0.8325 0.0573, -1.188 0.8273 0.0441, -1.2021 0.8281 0.0498, -1.1994 0.8186 0.0441, -1.1925 0.8117 0.0406, -1.2027 0.843 0.0741, -1.2018 0.8414 0.0661, -1.1997 0.8378 0.0573, -1.1965 0.8323 0.0498, -1.1926 0.8254 0.0441, -1.188 0.8176 0.0406, -1.1928 0.8092 0.0406, -1.1929 0.8092 0.0406, -1.1965 0.8224 0.0441, -1.1916 0.814 0.0406, -1.19 0.816 0.0406, 1.1928 0.8092 0.0406, 1.1925 0.8117 0.0406, 1.188 0.8273 0.0441, 1.1901 0.835 0.0498, 1.1917 0.8411 0.0573, 1.1928 0.8452 0.0661, 1.2018 0.8414 0.0661, 1.221 0.8193 0.0745, 1.2224 0.8092 0.0753, 1.2205 0.8092 0.0661, 1.217 0.8287 0.0741, 1.221 0.8193 0.0745, 1.2192 0.8188 0.0661, 1.1933 0.847 0.0745, 1.1933 0.847 0.0745, 1.2027 0.843 0.0741, 1.2027 0.843 0.0741, 1.2108 0.8368 0.0739, 1.2203 0.8092 0.0658, 1.2151 0.8177 0.0573, 1.1997 0.8378 0.0573, 1.2095 0.8355 0.0661, 1.2162 0.8092 0.0573, 1.216 0.8092 0.0571, 1.209 0.8161 0.0498, 1.1965 0.8323 0.0498, 1.2065 0.8325 0.0573, 1.2099 0.8092 0.0498, 1.2098 0.8092 0.0497, 1.2013 0.814 0.0441, 1.2021 0.8281 0.0498, 1.1926 0.8254 0.0441, 1.1857 0.8185 0.0406, 1.217 0.8287 0.0741, 1.2155 0.8278 0.0661, 1.2118 0.8257 0.0573, 1.2063 0.8225 0.0498, 1.1994 0.8186 0.0441, 1.1916 0.814 0.0406, 1.1965 0.8224 0.0441, 1.188 0.8176 0.0406, 1.19 0.816 0.0406, 1.202 0.8092 0.0441, 1.2019 0.8092 0.0441, 1.1929 0.8092 0.0406, -1.1832 0.0901 0.0394, -1.1832 -0.8092 0.0394, -1.1928 -0.8092 0.0406, -1.2224 -0.8092 0.0753, -1.2205 -0.8092 0.0661, -1.2203 -0.8092 0.0658, -1.2162 -0.8092 0.0573, -1.216 -0.8092 0.0571, -1.2099 -0.8092 0.0498, -1.2098 -0.8092 0.0497, -1.202 -0.8092 0.0441, -1.2019 -0.8092 0.0441, -1.1929 -0.8092 0.0406, -1.2403 0.9055 0.7283, -1.2505 0.9042 0.7283, -1.2553 0.9025 0.7283, -1.2599 0.9003 0.7283, -1.2642 0.8974 0.7283, -1.2681 0.894 0.7283, -1.2714 0.8902 0.7283, -1.2743 0.8859 0.7283, -1.2765 0.8813 0.7283, -1.2782 0.8765 0.7283, -1.2795 0.8663 0.7283, 1.2795 0.8663 0.7283, 1.2782 0.8765 0.7283, 1.2765 0.8813 0.7283, 1.2743 0.8859 0.7283, 1.2714 0.8902 0.7283, 1.2681 0.894 0.7283, 1.2642 0.8974 0.7283, 1.2599 0.9003 0.7283, 1.2553 0.9025 0.7283, 1.2505 0.9042 0.7283, 1.2403 0.9055 0.7283, 1.1832 0.0901 0.0394, 1.2224 -0.8092 0.0753, 1.2205 -0.8092 0.0661, 1.2203 -0.8092 0.0658, 1.2162 -0.8092 0.0573, 1.216 -0.8092 0.0571, 1.2099 -0.8092 0.0498, 1.2098 -0.8092 0.0497, 1.202 -0.8092 0.0441, 1.2019 -0.8092 0.0441, 1.1929 -0.8092 0.0406, 1.1928 -0.8092 0.0406, 1.1832 -0.8092 0.0394, -0.0748 -0.8092 0.0394, 1.1832 -0.8188 0.0406, 1.1832 -0.8484 0.0753, -1.1832 -0.8484 0.0753, 1.1832 -0.8464 0.0661, -1.1832 -0.8464 0.0661, 1.1832 -0.8463 0.0658, -1.1832 -0.8463 0.0658, 1.1832 -0.8422 0.0573, -1.1832 -0.8422 0.0573, 1.1832 -0.842 0.0571, -1.1832 -0.842 0.0571, 1.1832 -0.8359 0.0498, -1.1832 -0.8359 0.0498, 1.1832 -0.8357 0.0497, -1.1832 -0.8357 0.0497, 1.1832 -0.8279 0.0441, -1.1832 -0.8279 0.0441, 1.1832 -0.8278 0.0441, -1.1832 -0.8278 0.0441, 1.1832 -0.8189 0.0406, -1.1832 -0.8189 0.0406, -1.1832 -0.8188 0.0406, -1.1925 -0.8117 0.0406, -1.188 -0.8273 0.0441, -1.1901 -0.835 0.0498, -1.1917 -0.8411 0.0573, -1.1928 -0.8452 0.0661, -1.2018 -0.8414 0.0661, -1.221 -0.8193 0.0745, -1.217 -0.8287 0.0741, -1.221 -0.8193 0.0745, -1.2192 -0.8188 0.0661, -1.1933 -0.847 0.0745, -1.1933 -0.847 0.0745, -1.2027 -0.843 0.0741, -1.2027 -0.843 0.0741, -1.2108 -0.8368 0.0739, -1.2151 -0.8177 0.0573, -1.1997 -0.8378 0.0573, -1.2095 -0.8355 0.0661, -1.209 -0.8161 0.0498, -1.1965 -0.8323 0.0498, -1.2065 -0.8325 0.0573, -1.2013 -0.814 0.0441, -1.2021 -0.8281 0.0498, -1.1926 -0.8254 0.0441, -1.1857 -0.8185 0.0406, -1.217 -0.8287 0.0741, -1.2155 -0.8278 0.0661, -1.2118 -0.8257 0.0573, -1.2063 -0.8225 0.0498, -1.1994 -0.8186 0.0441, -1.1916 -0.814 0.0406, -1.1965 -0.8224 0.0441, -1.188 -0.8176 0.0406, -1.19 -0.816 0.0406, -1.2224 0.8092 1.3814, -1.221 0.8193 1.3821, -1.221 0.8193 1.3821, -1.217 0.8287 1.3826, -1.217 0.8287 1.3826, -1.2108 0.8368 1.3828, -1.2027 0.843 1.3826, -1.2027 0.843 1.3826, -1.1933 0.847 1.3821, -1.1933 0.847 1.3821, -1.1832 0.8484 1.3814, 1.1832 0.8484 1.3814, 1.1832 0.8464 1.3906, -1.1832 0.8464 1.3906, 1.1832 0.8463 1.3909, -1.1832 0.8463 1.3909, 1.1832 0.8422 1.3994, -1.1832 0.8422 1.3994, 1.1832 0.842 1.3996, -1.1832 0.842 1.3996, 1.1832 0.8359 1.4069, -1.1832 0.8359 1.4069, 1.1832 0.8357 1.407, -1.1832 0.8357 1.407, 1.1832 0.8279 1.4126, -1.1832 0.8279 1.4126, 1.1832 0.8278 1.4126, -1.1832 0.8278 1.4126, 1.1832 0.8189 1.4161, -1.1832 0.8189 1.4161, 1.1832 0.8188 1.4161, -1.1832 0.8188 1.4161, -1.1832 0.8092 1.4173, 1.1832 0.8092 1.4173, 1.1933 0.847 1.3821, 1.1933 0.847 1.3821, 1.2027 0.843 1.3826, 1.2027 0.843 1.3826, 1.2108 0.8368 1.3828, 1.217 0.8287 1.3826, 1.217 0.8287 1.3826, 1.221 0.8193 1.3821, 1.221 0.8193 1.3821, 1.2224 0.8092 1.3814, 1.1853 -0.8186 0.0406, 1.1908 -0.8152 0.0406, 1.1892 -0.8167 0.0406, 1.2015 -0.8133 0.0441, 1.2092 -0.8151 0.0498, 1.2154 -0.8165 0.0573, 1.2195 -0.8175 0.0661, 1.2168 -0.8253 0.0661, 1.2027 -0.843 0.0741, 1.2 -0.8441 0.0742, 1.1994 -0.8427 0.0661, 1.1933 -0.847 0.0745, 1.1919 -0.8472 0.0747, 1.1915 -0.8455 0.0661, 1.2123 -0.8324 0.0661, 1.2135 -0.8333 0.074, 1.2108 -0.8368 0.0739, 1.2182 -0.826 0.0742, 1.217 -0.8287 0.0741, 1.221 -0.8193 0.0745, 1.2212 -0.8178 0.0747, 1.1905 -0.8414 0.0573, 1.2129 -0.8235 0.0573, 1.1891 -0.8352 0.0498, 1.2073 -0.8208 0.0498, 1.209 -0.8297 0.0573, 1.2064 -0.8383 0.0661, 1.2073 -0.8395 0.074, 1.1874 -0.8275 0.0441, 1.2038 -0.835 0.0573, 1.2041 -0.8258 0.0498, 1.2001 -0.8173 0.0441, 1.1926 -0.8113 0.0406, 1.1949 -0.8238 0.0441, 1.1975 -0.8389 0.0573, 1.1948 -0.8332 0.0498, 1.1913 -0.8261 0.0441, 1.1874 -0.8179 0.0406, 1.1998 -0.8301 0.0498, 1.1979 -0.8209 0.0441, 1.1919 -0.8134 0.0406, -1.2795 -0.8663 0.7283, -1.2782 -0.8765 0.7283, -1.2765 -0.8813 0.7283, -1.2743 -0.8859 0.7283, -1.2714 -0.8902 0.7283, -1.2681 -0.894 0.7283, -1.2642 -0.8974 0.7283, -1.2599 -0.9003 0.7283, -1.2553 -0.9025 0.7283, -1.2505 -0.9042 0.7283, -1.2403 -0.9055 0.7283, -1.216 0.8092 1.3996, -1.2099 0.8092 1.4069, -1.209 0.8161 1.4069, -1.2013 0.814 1.4126, -1.1925 0.8117 1.4161, -1.1916 0.814 1.4161, -1.188 0.8176 1.4161, -1.19 0.816 1.4161, -1.1857 0.8185 1.4161, -1.1928 0.8092 1.4161, -1.2192 0.8188 1.3906, -1.2155 0.8278 1.3906, -1.2095 0.8355 1.3906, -1.2018 0.8414 1.3906, -1.1928 0.8452 1.3906, -1.2098 0.8092 1.407, -1.202 0.8092 1.4126, -1.2019 0.8092 1.4126, -1.1929 0.8092 1.4161, -1.1994 0.8186 1.4126, -1.1965 0.8224 1.4126, -1.1926 0.8254 1.4126, -1.188 0.8273 1.4126, -1.2063 0.8225 1.4069, -1.2021 0.8281 1.4069, -1.1965 0.8323 1.4069, -1.1901 0.835 1.4069, -1.2203 0.8092 1.3909, -1.2162 0.8092 1.3994, -1.2151 0.8177 1.3994, -1.2118 0.8257 1.3994, -1.2065 0.8325 1.3994, -1.1997 0.8378 1.3994, -1.1917 0.8411 1.3994, -1.2205 0.8092 1.3906, 1.1901 0.835 1.4069, 1.188 0.8273 1.4126, 1.1857 0.8185 1.4161, 1.188 0.8176 1.4161, 1.1916 0.814 1.4161, 1.19 0.816 1.4161, 1.1925 0.8117 1.4161, 1.1928 0.8452 1.3906, 1.2018 0.8414 1.3906, 1.2095 0.8355 1.3906, 1.2155 0.8278 1.3906, 1.2192 0.8188 1.3906, 1.2205 0.8092 1.3906, 1.1928 0.8092 1.4161, 1.1926 0.8254 1.4126, 1.1965 0.8224 1.4126, 1.1994 0.8186 1.4126, 1.2013 0.814 1.4126, 1.1929 0.8092 1.4161, 1.2019 0.8092 1.4126, 1.202 0.8092 1.4126, 1.2098 0.8092 1.407, 1.1965 0.8323 1.4069, 1.2021 0.8281 1.4069, 1.2063 0.8225 1.4069, 1.209 0.8161 1.4069, 1.1917 0.8411 1.3994, 1.1997 0.8378 1.3994, 1.2065 0.8325 1.3994, 1.2118 0.8257 1.3994, 1.2151 0.8177 1.3994, 1.2099 0.8092 1.4069, 1.216 0.8092 1.3996, 1.2162 0.8092 1.3994, 1.2203 0.8092 1.3909, 1.2403 -0.9055 0.7283, 1.2505 -0.9042 0.7283, 1.2553 -0.9025 0.7283, 1.2599 -0.9003 0.7283, 1.2642 -0.8974 0.7283, 1.2681 -0.894 0.7283, 1.2714 -0.8902 0.7283, 1.2743 -0.8859 0.7283, 1.2765 -0.8813 0.7283, 1.2782 -0.8765 0.7283, 1.2795 -0.8663 0.7283, -1.1832 -0.8484 1.3814, -1.1933 -0.847 1.3821, -1.1933 -0.847 1.3821, -1.2027 -0.843 1.3826, -1.2027 -0.843 1.3826, -1.2108 -0.8368 1.3828, -1.217 -0.8287 1.3826, -1.217 -0.8287 1.3826, -1.221 -0.8193 1.3821, -1.221 -0.8193 1.3821, -1.2224 -0.8092 1.3814, -1.2205 -0.8092 1.3906, -1.2203 -0.8092 1.3909, -1.2162 -0.8092 1.3994, -1.216 -0.8092 1.3996, -1.2099 -0.8092 1.4069, -1.2098 -0.8092 1.407, -1.202 -0.8092 1.4126, -1.2019 -0.8092 1.4126, -1.1929 -0.8092 1.4161, -1.1928 -0.8092 1.4161, -1.1832 -0.8092 1.4173, 1.2224 -0.8092 1.3814, 1.2205 -0.8092 1.3906, 1.2203 -0.8092 1.3909, 1.2162 -0.8092 1.3994, 1.216 -0.8092 1.3996, 1.2099 -0.8092 1.4069, 1.2098 -0.8092 1.407, 1.202 -0.8092 1.4126, 1.2019 -0.8092 1.4126, 1.1929 -0.8092 1.4161, 1.1928 -0.8092 1.4161, 1.1832 -0.8092 1.4173, 1.221 -0.8193 1.3821, 1.221 -0.8193 1.3821, 1.217 -0.8287 1.3826, 1.217 -0.8287 1.3826, 1.2108 -0.8368 1.3828, 1.2027 -0.843 1.3826, 1.2027 -0.843 1.3826, 1.1933 -0.847 1.3821, 1.1933 -0.847 1.3821, 1.1832 -0.8484 1.3814, -1.1832 -0.842 1.3996, -1.1832 -0.8359 1.4069, -1.1901 -0.835 1.4069, -1.188 -0.8273 1.4126, -1.1857 -0.8185 1.4161, -1.188 -0.8176 1.4161, -1.1916 -0.814 1.4161, -1.19 -0.816 1.4161, -1.1925 -0.8117 1.4161, -1.1832 -0.8188 1.4161, -1.1928 -0.8452 1.3906, -1.2018 -0.8414 1.3906, -1.2095 -0.8355 1.3906, -1.2155 -0.8278 1.3906, -1.2192 -0.8188 1.3906, -1.1832 -0.8357 1.407, -1.1832 -0.8279 1.4126, -1.1832 -0.8278 1.4126, -1.1832 -0.8189 1.4161, -1.1926 -0.8254 1.4126, -1.1965 -0.8224 1.4126, -1.1994 -0.8186 1.4126, -1.2013 -0.814 1.4126, -1.1965 -0.8323 1.4069, -1.2021 -0.8281 1.4069, -1.2063 -0.8225 1.4069, -1.209 -0.8161 1.4069, -1.1832 -0.8463 1.3909, -1.1832 -0.8422 1.3994, -1.1917 -0.8411 1.3994, -1.1997 -0.8378 1.3994, -1.2065 -0.8325 1.3994, -1.2118 -0.8257 1.3994, -1.2151 -0.8177 1.3994, -1.1832 -0.8464 1.3906, 1.209 -0.8161 1.4069, 1.2013 -0.814 1.4126, 1.1925 -0.8117 1.4161, 1.1916 -0.814 1.4161, 1.188 -0.8176 1.4161, 1.19 -0.816 1.4161, 1.1857 -0.8185 1.4161, 1.2192 -0.8188 1.3906, 1.2155 -0.8278 1.3906, 1.2095 -0.8355 1.3906, 1.2018 -0.8414 1.3906, 1.1928 -0.8452 1.3906, 1.1832 -0.8464 1.3906, 1.1832 -0.8188 1.4161, 1.1994 -0.8186 1.4126, 1.1965 -0.8224 1.4126, 1.1926 -0.8254 1.4126, 1.188 -0.8273 1.4126, 1.1832 -0.8189 1.4161, 1.1832 -0.8278 1.4126, 1.1832 -0.8279 1.4126, 1.1832 -0.8357 1.407, 1.2063 -0.8225 1.4069, 1.2021 -0.8281 1.4069, 1.1965 -0.8323 1.4069, 1.1901 -0.835 1.4069, 1.2151 -0.8177 1.3994, 1.2118 -0.8257 1.3994, 1.2065 -0.8325 1.3994, 1.1997 -0.8378 1.3994, 1.1917 -0.8411 1.3994, 1.1832 -0.8359 1.4069, 1.1832 -0.842 1.3996, 1.1832 -0.8422 1.3994, 1.1832 -0.8463 1.3909
            ]
        }
        coordIndex [
            0,1,2,-1,2,1,3,-1,2,3,4,-1,4,3,5,-1,4,5,6,-1,6,5,7,-1,8,9,10,-1,10,9,11,-1,10,11,12,-1,13,14,10,-1,10,14,15,-1,10,15,16,-1,12,17,10,-1,10,17,18,-1,10,18,19,-1,19,20,10,-1,10,20,21,-1,10,21,13,-1,22,23,15,-1,15,23,24,-1,15,24,16,-1,25,26,27,-1,28,29,30,-1,30,29,31,-1,30,31,32,-1,32,31,33,-1,32,33,34,-1,34,33,35,-1,34,35,36,-1,36,35,37,-1,36,37,38,-1,38,37,39,-1,38,39,40,-1,40,39,41,-1,40,41,42,-1,42,41,43,-1,42,43,44,-1,44,43,45,-1,44,45,46,-1,46,45,47,-1,46,47,27,-1,27,47,48,-1,27,48,25,-1,25,48,49,-1,27,26,50,-1,51,52,53,-1,54,55,56,-1,57,58,59,-1,60,28,30,-1,61,62,63,-1,63,62,60,-1,64,65,58,-1,58,65,66,-1,58,66,59,-1,59,66,67,-1,59,67,68,-1,69,64,70,-1,70,64,58,-1,70,58,71,-1,71,58,57,-1,71,57,72,-1,72,57,73,-1,60,30,63,-1,63,30,32,-1,63,32,74,-1,55,73,56,-1,56,73,57,-1,56,57,75,-1,75,57,59,-1,75,59,76,-1,76,59,68,-1,32,34,74,-1,74,34,36,-1,74,36,77,-1,52,54,53,-1,53,54,56,-1,53,56,78,-1,78,56,75,-1,78,75,79,-1,79,75,76,-1,36,38,77,-1,77,38,40,-1,77,40,80,-1,79,81,78,-1,78,81,82,-1,78,82,53,-1,53,82,83,-1,53,83,51,-1,84,61,85,-1,85,61,63,-1,85,63,86,-1,86,63,74,-1,86,74,87,-1,87,74,77,-1,87,77,88,-1,88,77,80,-1,88,80,89,-1,89,80,50,-1,89,50,26,-1,26,90,83,-1,83,90,91,-1,83,91,51,-1,81,92,82,-1,82,92,93,-1,82,93,83,-1,83,93,26,-1,92,94,93,-1,93,94,26,-1,40,42,80,-1,80,42,44,-1,80,44,50,-1,50,44,46,-1,50,46,27,-1,68,84,76,-1,76,84,85,-1,76,85,79,-1,79,85,86,-1,79,86,81,-1,81,86,87,-1,81,87,92,-1,92,87,88,-1,92,88,94,-1,94,88,89,-1,94,89,26,-1,95,49,96,-1,45,43,97,-1,41,39,98,-1,99,100,101,-1,102,103,104,-1,105,106,107,-1,107,106,102,-1,108,109,100,-1,100,109,110,-1,100,110,101,-1,101,110,111,-1,101,111,112,-1,29,108,31,-1,31,108,100,-1,31,100,33,-1,33,100,99,-1,33,99,35,-1,35,99,37,-1,102,104,107,-1,107,104,113,-1,107,113,114,-1,39,37,98,-1,98,37,99,-1,98,99,115,-1,115,99,101,-1,115,101,116,-1,116,101,112,-1,113,117,114,-1,114,117,118,-1,114,118,119,-1,43,41,97,-1,97,41,98,-1,97,98,120,-1,120,98,115,-1,120,115,121,-1,121,115,116,-1,118,122,119,-1,119,122,123,-1,119,123,124,-1,121,125,120,-1,120,125,126,-1,120,126,97,-1,97,126,127,-1,97,127,45,-1,128,105,129,-1,129,105,107,-1,129,107,130,-1,130,107,114,-1,130,114,131,-1,131,114,119,-1,131,119,132,-1,132,119,124,-1,132,124,133,-1,133,124,96,-1,133,96,49,-1,49,48,127,-1,127,48,47,-1,127,47,45,-1,125,134,126,-1,126,134,135,-1,126,135,127,-1,127,135,49,-1,134,136,135,-1,135,136,49,-1,123,137,124,-1,124,137,138,-1,124,138,96,-1,96,138,139,-1,96,139,95,-1,112,128,116,-1,116,128,129,-1,116,129,121,-1,121,129,130,-1,121,130,125,-1,125,130,131,-1,125,131,134,-1,134,131,132,-1,134,132,136,-1,136,132,133,-1,136,133,49,-1,140,141,142,-1,143,69,144,-1,144,69,70,-1,144,70,145,-1,145,70,71,-1,145,71,146,-1,146,71,72,-1,146,72,147,-1,147,72,73,-1,147,73,148,-1,148,73,55,-1,148,55,149,-1,149,55,54,-1,149,54,150,-1,150,54,52,-1,150,52,151,-1,151,52,51,-1,151,51,152,-1,152,51,91,-1,152,91,142,-1,142,91,90,-1,142,90,140,-1,140,90,26,-1,28,60,153,-1,153,60,154,-1,154,60,155,-1,155,60,62,-1,155,62,156,-1,156,62,61,-1,156,61,157,-1,157,61,84,-1,157,84,158,-1,158,84,68,-1,158,68,159,-1,159,68,67,-1,159,67,160,-1,160,67,66,-1,160,66,161,-1,161,66,65,-1,161,65,162,-1,65,64,162,-1,162,64,69,-1,162,69,163,-1,103,102,164,-1,164,102,165,-1,165,102,166,-1,166,102,106,-1,166,106,167,-1,167,106,105,-1,167,105,168,-1,168,105,128,-1,168,128,169,-1,169,128,112,-1,169,112,170,-1,170,112,111,-1,170,111,171,-1,171,111,110,-1,171,110,172,-1,172,110,109,-1,172,109,173,-1,109,108,173,-1,173,108,29,-1,173,29,174,-1,175,49,95,-1,103,176,104,-1,104,176,177,-1,104,177,113,-1,113,177,178,-1,113,178,117,-1,117,178,179,-1,117,179,118,-1,118,179,180,-1,118,180,122,-1,122,180,181,-1,122,181,123,-1,123,181,182,-1,123,182,137,-1,137,182,183,-1,137,183,138,-1,138,183,184,-1,138,184,139,-1,139,184,185,-1,139,185,95,-1,95,185,186,-1,95,186,175,-1,175,186,187,-1,188,187,189,-1,190,191,192,-1,192,191,193,-1,192,193,194,-1,194,193,195,-1,194,195,196,-1,196,195,197,-1,196,197,198,-1,198,197,199,-1,198,199,200,-1,200,199,201,-1,200,201,202,-1,202,201,203,-1,202,203,204,-1,204,203,205,-1,204,205,206,-1,206,205,207,-1,206,207,208,-1,208,207,209,-1,208,209,189,-1,189,209,210,-1,189,210,188,-1,188,210,141,-1,142,141,211,-1,207,205,212,-1,203,201,213,-1,214,215,216,-1,217,143,144,-1,218,219,220,-1,220,219,217,-1,221,222,215,-1,215,222,223,-1,215,223,216,-1,216,223,224,-1,216,224,225,-1,191,221,193,-1,193,221,215,-1,193,215,195,-1,195,215,214,-1,195,214,197,-1,197,214,199,-1,217,144,220,-1,220,144,145,-1,220,145,226,-1,201,199,213,-1,213,199,214,-1,213,214,227,-1,227,214,216,-1,227,216,228,-1,228,216,225,-1,145,146,226,-1,226,146,147,-1,226,147,229,-1,205,203,212,-1,212,203,213,-1,212,213,230,-1,230,213,227,-1,230,227,231,-1,231,227,228,-1,147,148,229,-1,229,148,149,-1,229,149,232,-1,231,233,230,-1,230,233,234,-1,230,234,212,-1,212,234,235,-1,212,235,207,-1,236,218,237,-1,237,218,220,-1,237,220,238,-1,238,220,226,-1,238,226,239,-1,239,226,229,-1,239,229,240,-1,240,229,232,-1,240,232,241,-1,241,232,211,-1,241,211,141,-1,141,210,235,-1,235,210,209,-1,235,209,207,-1,233,242,234,-1,234,242,243,-1,234,243,235,-1,235,243,141,-1,242,244,243,-1,243,244,141,-1,149,150,232,-1,232,150,151,-1,232,151,211,-1,211,151,152,-1,211,152,142,-1,225,236,228,-1,228,236,237,-1,228,237,231,-1,231,237,238,-1,231,238,233,-1,233,238,239,-1,233,239,242,-1,242,239,240,-1,242,240,244,-1,244,240,241,-1,244,241,141,-1,245,246,163,-1,163,246,162,-1,162,246,161,-1,161,246,247,-1,161,247,160,-1,160,247,248,-1,160,248,159,-1,159,248,249,-1,159,249,158,-1,158,249,250,-1,158,250,157,-1,157,250,251,-1,157,251,156,-1,156,251,252,-1,156,252,155,-1,155,252,253,-1,155,253,154,-1,253,254,154,-1,154,254,255,-1,154,255,153,-1,256,255,257,-1,257,255,258,-1,257,258,259,-1,259,258,260,-1,259,260,261,-1,261,260,262,-1,261,262,263,-1,263,262,264,-1,263,264,265,-1,265,264,266,-1,265,266,267,-1,267,266,268,-1,267,268,269,-1,269,268,270,-1,269,270,271,-1,271,270,272,-1,271,272,273,-1,273,272,274,-1,273,274,275,-1,274,276,275,-1,275,276,277,-1,275,277,278,-1,256,279,174,-1,174,279,173,-1,173,279,172,-1,172,279,280,-1,172,280,171,-1,171,280,281,-1,171,281,170,-1,170,281,282,-1,170,282,169,-1,169,282,283,-1,169,283,168,-1,168,283,284,-1,168,284,167,-1,167,284,285,-1,167,285,166,-1,166,285,286,-1,166,286,165,-1,286,287,165,-1,165,287,288,-1,165,288,164,-1,189,187,289,-1,290,291,187,-1,184,183,292,-1,182,181,293,-1,294,295,296,-1,297,298,299,-1,300,301,302,-1,302,301,190,-1,303,304,305,-1,296,306,307,-1,306,296,308,-1,308,296,295,-1,308,295,309,-1,176,309,177,-1,177,309,295,-1,177,295,178,-1,178,295,294,-1,178,294,179,-1,179,294,180,-1,190,192,302,-1,302,192,194,-1,302,194,310,-1,181,180,293,-1,293,180,294,-1,293,294,311,-1,311,294,296,-1,311,296,303,-1,303,296,307,-1,303,307,304,-1,194,196,310,-1,310,196,198,-1,310,198,312,-1,183,182,292,-1,292,182,293,-1,292,293,313,-1,313,293,311,-1,313,311,314,-1,314,311,303,-1,314,303,315,-1,315,303,305,-1,315,305,316,-1,198,200,312,-1,312,200,202,-1,312,202,317,-1,315,318,314,-1,314,318,319,-1,314,319,313,-1,313,319,320,-1,313,320,292,-1,292,320,321,-1,292,321,184,-1,291,290,322,-1,298,300,299,-1,299,300,302,-1,299,302,323,-1,323,302,310,-1,323,310,324,-1,324,310,312,-1,324,312,325,-1,325,312,317,-1,325,317,326,-1,326,317,289,-1,326,289,187,-1,187,186,321,-1,321,186,185,-1,321,185,184,-1,318,327,319,-1,319,327,328,-1,319,328,320,-1,320,328,329,-1,320,329,321,-1,321,329,187,-1,327,322,328,-1,328,322,290,-1,328,290,329,-1,329,290,187,-1,202,204,317,-1,317,204,206,-1,317,206,289,-1,289,206,208,-1,289,208,189,-1,316,297,315,-1,315,297,299,-1,315,299,318,-1,318,299,323,-1,318,323,327,-1,327,323,324,-1,327,324,322,-1,322,324,325,-1,322,325,291,-1,291,325,326,-1,291,326,187,-1,143,217,330,-1,330,217,331,-1,331,217,332,-1,332,217,219,-1,332,219,333,-1,333,219,218,-1,333,218,334,-1,334,218,236,-1,334,236,335,-1,335,236,225,-1,335,225,336,-1,336,225,224,-1,336,224,337,-1,337,224,223,-1,337,223,338,-1,338,223,222,-1,338,222,339,-1,222,221,339,-1,339,221,191,-1,339,191,340,-1,341,342,343,-1,344,345,346,-1,277,347,348,-1,349,347,277,-1,346,345,277,-1,350,277,345,-1,351,247,246,-1,247,351,248,-1,248,351,352,-1,248,352,249,-1,249,352,353,-1,249,353,250,-1,250,353,354,-1,250,354,251,-1,251,354,252,-1,252,354,355,-1,252,355,253,-1,253,355,254,-1,254,355,258,-1,254,258,255,-1,276,349,277,-1,356,357,344,-1,344,357,358,-1,344,358,345,-1,345,358,359,-1,345,359,350,-1,360,348,361,-1,361,348,347,-1,361,347,362,-1,362,347,349,-1,362,349,363,-1,276,274,349,-1,349,274,272,-1,349,272,363,-1,363,272,270,-1,363,270,268,-1,343,360,364,-1,364,360,361,-1,364,361,365,-1,365,361,362,-1,365,362,366,-1,366,362,363,-1,366,363,367,-1,367,363,268,-1,368,369,370,-1,370,369,341,-1,341,343,370,-1,370,343,364,-1,370,364,371,-1,371,364,365,-1,371,365,372,-1,372,365,366,-1,372,366,373,-1,373,366,367,-1,373,367,374,-1,342,356,343,-1,343,356,344,-1,343,344,360,-1,360,344,346,-1,360,346,348,-1,348,346,277,-1,368,351,375,-1,375,351,246,-1,375,246,245,-1,268,266,367,-1,367,266,264,-1,367,264,374,-1,374,264,262,-1,374,262,260,-1,368,370,351,-1,351,370,371,-1,351,371,352,-1,352,371,372,-1,352,372,353,-1,353,372,373,-1,353,373,354,-1,354,373,374,-1,354,374,355,-1,355,374,260,-1,355,260,258,-1,263,265,376,-1,377,378,379,-1,278,380,381,-1,382,380,278,-1,379,378,278,-1,275,278,378,-1,383,280,279,-1,280,383,281,-1,281,383,384,-1,281,384,282,-1,282,384,385,-1,282,385,283,-1,283,385,386,-1,283,386,284,-1,284,386,285,-1,285,386,387,-1,285,387,286,-1,286,387,287,-1,287,387,388,-1,287,388,288,-1,389,382,278,-1,267,269,377,-1,377,269,271,-1,377,271,378,-1,378,271,273,-1,378,273,275,-1,390,381,391,-1,391,381,380,-1,391,380,392,-1,392,380,382,-1,392,382,393,-1,389,394,382,-1,382,394,395,-1,382,395,393,-1,393,395,396,-1,393,396,397,-1,376,390,398,-1,398,390,391,-1,398,391,399,-1,399,391,392,-1,399,392,400,-1,400,392,393,-1,400,393,401,-1,401,393,397,-1,259,261,402,-1,402,261,263,-1,263,376,402,-1,402,376,398,-1,402,398,403,-1,403,398,399,-1,403,399,404,-1,404,399,400,-1,404,400,405,-1,405,400,401,-1,405,401,406,-1,265,267,376,-1,376,267,377,-1,376,377,390,-1,390,377,379,-1,390,379,381,-1,381,379,278,-1,259,383,257,-1,257,383,279,-1,257,279,256,-1,397,407,401,-1,401,407,408,-1,401,408,406,-1,406,408,409,-1,406,409,410,-1,259,402,383,-1,383,402,403,-1,383,403,384,-1,384,403,404,-1,384,404,385,-1,385,404,405,-1,385,405,386,-1,386,405,406,-1,386,406,387,-1,387,406,410,-1,387,410,388,-1,411,190,301,-1,411,301,412,-1,412,301,300,-1,412,300,413,-1,413,300,298,-1,413,298,414,-1,414,298,297,-1,414,297,415,-1,415,297,316,-1,415,316,416,-1,416,316,305,-1,416,305,417,-1,417,305,304,-1,417,304,418,-1,418,304,307,-1,418,307,419,-1,419,307,306,-1,419,306,420,-1,420,306,308,-1,420,308,421,-1,421,308,309,-1,421,309,176,-1,422,423,340,-1,340,423,339,-1,339,423,338,-1,338,423,424,-1,338,424,337,-1,337,424,425,-1,337,425,336,-1,336,425,426,-1,336,426,335,-1,335,426,427,-1,335,427,334,-1,334,427,428,-1,334,428,333,-1,333,428,429,-1,333,429,332,-1,332,429,430,-1,332,430,331,-1,430,431,331,-1,331,431,432,-1,331,432,330,-1,245,432,375,-1,375,432,433,-1,375,433,368,-1,368,433,434,-1,368,434,369,-1,369,434,435,-1,369,435,341,-1,341,435,436,-1,341,436,342,-1,342,436,437,-1,342,437,356,-1,356,437,438,-1,356,438,357,-1,357,438,439,-1,357,439,358,-1,358,439,440,-1,358,440,359,-1,359,440,441,-1,359,441,350,-1,441,442,350,-1,350,442,443,-1,350,443,277,-1,444,288,445,-1,445,288,388,-1,445,388,446,-1,446,388,410,-1,446,410,447,-1,447,410,409,-1,447,409,448,-1,448,409,408,-1,448,408,449,-1,449,408,407,-1,449,407,450,-1,450,407,397,-1,450,397,451,-1,451,397,396,-1,451,396,452,-1,452,396,395,-1,452,395,453,-1,453,395,394,-1,453,394,454,-1,394,389,454,-1,454,389,278,-1,454,278,455,-1,444,456,421,-1,421,456,420,-1,420,456,419,-1,419,456,457,-1,419,457,418,-1,418,457,458,-1,418,458,417,-1,417,458,459,-1,417,459,416,-1,416,459,460,-1,416,460,415,-1,415,460,461,-1,415,461,414,-1,414,461,462,-1,414,462,413,-1,413,462,463,-1,413,463,412,-1,463,464,412,-1,412,464,465,-1,412,465,411,-1,466,467,468,-1,469,470,471,-1,443,472,473,-1,474,472,443,-1,471,470,443,-1,475,443,470,-1,476,424,423,-1,424,476,425,-1,425,476,477,-1,425,477,426,-1,426,477,478,-1,426,478,427,-1,427,478,479,-1,427,479,428,-1,428,479,429,-1,429,479,480,-1,429,480,430,-1,430,480,431,-1,431,480,433,-1,431,433,432,-1,442,474,443,-1,481,482,469,-1,469,482,483,-1,469,483,470,-1,470,483,484,-1,470,484,475,-1,485,473,486,-1,486,473,472,-1,486,472,487,-1,487,472,474,-1,487,474,488,-1,442,441,474,-1,474,441,440,-1,474,440,488,-1,488,440,439,-1,488,439,438,-1,468,485,489,-1,489,485,486,-1,489,486,490,-1,490,486,487,-1,490,487,491,-1,491,487,488,-1,491,488,492,-1,492,488,438,-1,493,494,495,-1,495,494,466,-1,466,468,495,-1,495,468,489,-1,495,489,496,-1,496,489,490,-1,496,490,497,-1,497,490,491,-1,497,491,498,-1,498,491,492,-1,498,492,499,-1,467,481,468,-1,468,481,469,-1,468,469,485,-1,485,469,471,-1,485,471,473,-1,473,471,443,-1,493,476,500,-1,500,476,423,-1,500,423,422,-1,438,437,492,-1,492,437,436,-1,492,436,499,-1,499,436,435,-1,499,435,434,-1,493,495,476,-1,476,495,496,-1,476,496,477,-1,477,496,497,-1,477,497,478,-1,478,497,498,-1,478,498,479,-1,479,498,499,-1,479,499,480,-1,480,499,434,-1,480,434,433,-1,448,449,501,-1,502,503,504,-1,455,505,506,-1,507,505,455,-1,504,503,455,-1,454,455,503,-1,508,457,456,-1,457,508,458,-1,458,508,509,-1,458,509,459,-1,459,509,510,-1,459,510,460,-1,460,510,511,-1,460,511,461,-1,461,511,462,-1,462,511,512,-1,462,512,463,-1,463,512,464,-1,464,512,513,-1,464,513,465,-1,514,507,455,-1,450,451,502,-1,502,451,452,-1,502,452,503,-1,503,452,453,-1,503,453,454,-1,515,506,516,-1,516,506,505,-1,516,505,517,-1,517,505,507,-1,517,507,518,-1,514,519,507,-1,507,519,520,-1,507,520,518,-1,518,520,521,-1,518,521,522,-1,501,515,523,-1,523,515,516,-1,523,516,524,-1,524,516,517,-1,524,517,525,-1,525,517,518,-1,525,518,526,-1,526,518,522,-1,446,447,527,-1,527,447,448,-1,448,501,527,-1,527,501,523,-1,527,523,528,-1,528,523,524,-1,528,524,529,-1,529,524,525,-1,529,525,530,-1,530,525,526,-1,530,526,531,-1,449,450,501,-1,501,450,502,-1,501,502,515,-1,515,502,504,-1,515,504,506,-1,506,504,455,-1,446,508,445,-1,445,508,456,-1,445,456,444,-1,522,532,526,-1,526,532,533,-1,526,533,531,-1,531,533,534,-1,531,534,535,-1,446,527,508,-1,508,527,528,-1,508,528,509,-1,509,528,529,-1,509,529,510,-1,510,529,530,-1,510,530,511,-1,511,530,531,-1,511,531,512,-1,512,531,535,-1,512,535,513,-1,422,465,500,-1,500,465,513,-1,500,513,493,-1,493,513,535,-1,493,535,494,-1,494,535,534,-1,494,534,466,-1,466,534,533,-1,466,533,467,-1,467,533,532,-1,467,532,481,-1,481,532,522,-1,481,522,482,-1,482,522,521,-1,482,521,483,-1,483,521,520,-1,483,520,484,-1,484,520,519,-1,484,519,475,-1,519,514,475,-1,475,514,455,-1,475,455,443,-1,
        ]
    }
}
Shape{
    appearance Appearance {
        material  Material 	{
            diffuseColor 0.8313725490196079 0.8313725490196079 0.8196078431372549
            specularColor 0.6666666666666666 0.6666666666666666 0.6549019607843137
            ambientIntensity 0.83
            transparency 0.0
            shininess 0.5
        }
    }
    geometry IndexedFaceSet {
        ccw TRUE
        solid FALSE
        coord DEF co Coordinate {
            point [
                -0.8858 0.5118 1.4134, -0.8858 0.5118 1.4173, -0.8899 0.5424 1.4134, -0.8899 0.5424 1.4173, -0.9017 0.5709 1.4134, -0.9017 0.5709 1.4173, -0.9204 0.5953 1.4134, -0.9204 0.5953 1.4173, -0.9449 0.6141 1.4134, -0.9449 0.6141 1.4173, -0.9734 0.6259 1.4134, -0.9734 0.6259 1.4173, -1.0039 0.6299 1.4134, -1.0039 0.6299 1.4173, -1.0345 0.6259 1.4134, -1.0345 0.6259 1.4173, -1.063 0.6141 1.4134, -1.063 0.6141 1.4173, -1.0875 0.5953 1.4134, -1.0875 0.5953 1.4173, -1.1062 0.5709 1.4134, -1.1062 0.5709 1.4173, -1.118 0.5424 1.4134, -1.118 0.5424 1.4173, -1.122 0.5118 1.4134, -1.122 0.5118 1.4173, -1.118 0.4812 1.4134, -1.118 0.4812 1.4173, -1.1062 0.4528 1.4134, -1.1062 0.4528 1.4173, -1.0875 0.4283 1.4134, -1.0875 0.4283 1.4173, -1.063 0.4095 1.4134, -1.063 0.4095 1.4173, -1.0345 0.3977 1.4134, -1.0345 0.3977 1.4173, -1.0039 0.3937 1.4134, -1.0039 0.3937 1.4173, -0.9734 0.3977 1.4134, -0.9734 0.3977 1.4173, -0.9449 0.4095 1.4134, -0.9449 0.4095 1.4173, -0.9204 0.4283 1.4134, -0.9204 0.4283 1.4173, -0.9017 0.4528 1.4134, -0.9017 0.4528 1.4173, -0.8899 0.4812 1.4134, -0.8899 0.4812 1.4173, -1.0039 0.5118 1.4134
            ]
        }
        coordIndex [
            0,1,2,-1,2,1,3,-1,2,3,4,-1,4,3,5,-1,4,5,6,-1,6,5,7,-1,6,7,8,-1,8,7,9,-1,8,9,10,-1,10,9,11,-1,10,11,12,-1,12,11,13,-1,12,13,14,-1,14,13,15,-1,14,15,16,-1,16,15,17,-1,16,17,18,-1,18,17,19,-1,18,19,20,-1,20,19,21,-1,20,21,22,-1,22,21,23,-1,22,23,24,-1,24,23,25,-1,24,25,26,-1,26,25,27,-1,26,27,28,-1,28,27,29,-1,28,29,30,-1,30,29,31,-1,30,31,32,-1,32,31,33,-1,32,33,34,-1,34,33,35,-1,34,35,36,-1,36,35,37,-1,36,37,38,-1,38,37,39,-1,38,39,40,-1,40,39,41,-1,40,41,42,-1,42,41,43,-1,42,43,44,-1,44,43,45,-1,44,45,46,-1,46,45,47,-1,46,47,0,-1,0,47,1,-1,44,46,48,-1,48,46,0,-1,48,0,2,-1,38,40,48,-1,48,40,42,-1,48,42,44,-1,32,34,48,-1,48,34,36,-1,48,36,38,-1,26,28,48,-1,48,28,30,-1,48,30,32,-1,20,22,48,-1,48,22,24,-1,48,24,26,-1,14,16,48,-1,48,16,18,-1,48,18,20,-1,8,10,48,-1,48,10,12,-1,48,12,14,-1,2,4,48,-1,48,4,6,-1,48,6,8,-1,
        ]
    }
}