#VRML V2.0 utf8
# 3D model generated by easyeda2kicad.py (https://github.com/uPesy/easyeda2kicad.py)

Shape{
    appearance Appearance {
        material  Material 	{
            diffuseColor 0.2235294117647059 0.2235294117647059 0.2235294117647059
            specularColor 0.11372549019607843 0.11372549019607843 0.11372549019607843
            ambientIntensity 0.2235
            transparency 0.0
            shininess 0.5
        }
    }
    geometry IndexedFaceSet {
        ccw TRUE
        solid FALSE
        coord DEF co Coordinate {
            point [
                -0.6752 0.9311 2.6929, -0.5512 0.9311 2.6929, -0.5512 0.9311 1.4642, -0.0057 0.9311 1.2575, -0.0063 0.9311 1.3376, 0.0268 0.9311 1.3599, -0.3553 0.9311 1.255, -0.3553 0.9311 1.2553, -0.3532 0.9311 1.2553, -0.1906 0.9311 1.2476, -0.1877 0.9311 1.242, -0.2538 0.9311 1.242, -0.1758 0.9311 1.2403, -0.1773 0.9311 1.242, -0.1657 0.9311 1.2385, -0.1412 0.9311 1.256, -0.1337 0.9311 1.2553, -0.1594 0.9311 1.2553, -0.0175 0.9311 1.4645, -0.0175 0.9311 1.4642, -0.0506 0.9311 1.4642, -0.057 0.9311 1.4013, -0.0554 0.9311 1.4057, -0.0554 0.9311 1.3828, -0.1086 0.9311 1.4631, -0.1086 0.9311 1.4642, -0.105 0.9311 1.4642, 0.0955 0.9311 1.4029, 0.0801 0.9311 1.3897, 0.0268 0.9311 1.4642, 0.0268 0.9311 1.3828, 0.1685 0.9311 1.4736, 0.155 0.9311 1.4642, 0.1456 0.9311 1.4576, 0.1265 0.9311 1.435, 0.1151 0.9311 1.4124, 0.1124 0.9311 1.4114, 0.2758 0.9311 1.4753, 0.2494 0.9311 1.4848, 0.6752 0.9311 2.6929, 0.0268 0.9311 2.6929, 0.1967 0.9311 1.4845, 0.2228 0.9311 1.4877, 0.6752 0.9311 1.4642, 0.2934 0.9311 1.4642, 0.2912 0.9311 1.466, 0.6752 0.9311 1.3828, 0.4159 0.9311 1.3828, 0.409 0.9311 1.3981, 0.3952 0.9311 1.4155, 0.352 0.9311 1.4397, 0.3296 0.9311 1.4424, 0.3047 0.9311 1.4546, 0.323 0.9311 1.442, 0.3165 0.9311 1.4411, 0.3913 0.9311 1.4191, 0.3732 0.9311 1.4317, 0.3536 0.9311 1.2609, 0.3608 0.9311 1.2631, 0.6752 0.9311 1.2553, 0.3813 0.9311 1.2733, 0.399 0.9311 1.2886, 0.4118 0.9311 1.3072, 0.4198 0.9311 1.3285, 0.6752 0.9311 1.3599, 0.4224 0.9311 1.3508, 0.4222 0.9311 1.3563, 0.4216 0.9311 1.3599, 0.4183 0.9311 1.3776, 0.6752 0.9311 1.242, 0.348 0.9311 1.2487, 0.351 0.9311 1.2553, 0.2619 0.9311 1.236, 0.2733 0.9311 1.2282, 0.0268 0.9311 1.0066, 0.3154 0.9311 1.2241, 0.3285 0.9311 1.2297, 0.6752 0.9311 1.0066, 0.3396 0.9311 1.2382, 0.3426 0.9311 1.242, 0.2565 0.9311 1.242, 0.286 0.9311 1.2234, 0.2998 0.9311 1.2218, 0.302 0.9311 1.2219, 0.2479 0.9311 1.2553, 0.2531 0.9311 1.2457, 0.0268 0.9311 1.242, 0.1733 0.9311 1.2917, 0.1694 0.9311 1.2932, 0.1624 0.9311 1.3256, 0.2564 0.9311 1.3166, 0.1799 0.9311 1.3559, 0.2663 0.9311 1.3257, 0.2784 0.9311 1.3323, 0.1768 0.9311 1.2892, 0.0593 0.9311 1.3374, 0.0621 0.9311 1.3171, 0.0268 0.9311 1.2553, 0.0949 0.9311 1.3421, 0.0975 0.9311 1.353, 0.1011 0.9311 1.3599, 0.3855 0.9311 1.3599, 0.0963 0.9311 1.2705, 0.1138 0.9311 1.2621, 0.1649 0.9311 1.2937, 0.1644 0.9311 1.2937, 0.1627 0.9311 1.2933, 0.0694 0.9311 1.2991, 0.0808 0.9311 1.2835, 0.382 0.9311 1.3289, 0.3753 0.9311 1.3173, 0.3464 0.9311 1.3112, 0.3651 0.9311 1.3068, 0.3528 0.9311 1.2991, 0.3252 0.9311 1.3299, 0.3369 0.9311 1.3219, 0.3866 0.9311 1.3517, 0.3859 0.9311 1.3429, 0.3126 0.9311 1.3347, 0.299 0.9311 1.3362, 0.2921 0.9311 1.3358, 0.1064 0.9311 1.307, 0.1001 0.9311 1.3159, 0.0961 0.9311 1.326, 0.0946 0.9311 1.3371, 0.1827 0.9311 1.2762, 0.1826 0.9311 1.2785, 0.2424 0.9311 1.284, 0.1814 0.9311 1.2828, 0.1792 0.9311 1.2867, 0.1733 0.9311 1.2605, 0.177 0.9311 1.2632, 0.2463 0.9311 1.2584, 0.1783 0.9311 1.2645, 0.1807 0.9311 1.2681, 0.1822 0.9311 1.272, 0.2428 0.9311 1.2724, 0.2425 0.9311 1.2783, 0.1615 0.9311 1.2931, 0.1359 0.9311 1.293, 0.1257 0.9311 1.2949, 0.1327 0.9311 1.2582, 0.1663 0.9311 1.2585, 0.1695 0.9311 1.259, 0.1156 0.9311 1.2994, 0.1071 0.9311 1.3063, 0.1433 0.9311 1.3818, 0.3798 0.9311 1.3781, 0.3848 0.9311 1.3654, 0.1387 0.9311 1.3818, 0.1027 0.9311 1.3629, 0.1092 0.9311 1.3703, 0.118 0.9311 1.3765, 0.1279 0.9311 1.3804, 0.1553 0.9311 1.4161, 0.168 0.9311 1.4316, 0.2991 0.9311 1.3994, 0.1694 0.9311 1.4329, 0.1854 0.9311 1.4441, 0.2903 0.9311 1.4174, 0.3765 0.9311 1.3828, 0.3032 0.9311 1.4017, 0.1435 0.9311 1.3828, 0.1466 0.9311 1.3977, 0.3159 0.9311 1.4064, 0.3292 0.9311 1.4082, 0.3352 0.9311 1.4079, 0.2774 0.9311 1.4326, 0.2032 0.9311 1.451, 0.2621 0.9311 1.4436, 0.2225 0.9311 1.4536, 0.2434 0.9311 1.451, 0.3492 0.9311 1.4047, 0.362 0.9311 1.398, 0.3718 0.9311 1.3894, 0.0753 0.9311 1.3828, 0.0686 0.9311 1.3734, 0.0633 0.9311 1.3599, 0.0618 0.9311 1.356, -0.2781 0.9311 1.4642, -0.2869 0.9311 1.4626, -0.298 0.9311 1.4625, -0.2538 0.9311 1.3828, -0.2559 0.9311 1.3828, -0.2781 0.9311 1.4398, -0.2673 0.9311 1.3827, -0.2559 0.9311 1.3828, -0.2538 0.9311 1.3599, -0.2781 0.9311 1.3599, -0.2781 0.9311 1.3828, -0.2674 0.9311 1.3828, -0.2781 0.9311 1.4045, -0.2752 0.9311 1.4045, -0.3085 0.9311 1.4043, -0.3163 0.9311 1.3828, -0.3165 0.9311 1.3823, -0.3279 0.9311 1.3823, -0.3532 0.9311 1.3599, -0.3277 0.9311 1.3828, -0.3532 0.9311 1.3828, -0.3532 0.9311 1.4642, -0.1673 0.9311 1.4195, -0.1787 0.9311 1.3828, -0.1674 0.9311 1.4286, -0.1787 0.9311 1.4642, -0.1594 0.9311 1.4287, -0.1698 0.9311 1.4542, -0.1699 0.9311 1.4634, -0.1594 0.9311 1.4642, -0.1594 0.9311 1.4635, -0.1594 0.9311 1.4543, -0.1389 0.9311 1.4545, -0.1387 0.9311 1.4288, -0.1281 0.9311 1.3837, -0.123 0.9311 1.3828, -0.1594 0.9311 1.3828, -0.1387 0.9311 1.4197, -0.1385 0.9311 1.3927, -0.1594 0.9311 1.4195, -0.1594 0.9311 1.3926, -0.1712 0.9311 1.3925, -0.1711 0.9311 1.3834, -0.1594 0.9311 1.3834, -0.1286 0.9311 1.4637, -0.123 0.9311 1.4642, -0.1126 0.9311 1.4619, -0.1125 0.9311 1.4511, -0.0937 0.9311 1.456, -0.0901 0.9311 1.4559, -0.1086 0.9311 1.3954, -0.1035 0.9311 1.4548, -0.1121 0.9311 1.397, -0.1116 0.9311 1.4516, -0.1086 0.9311 1.4528, -0.0832 0.9311 1.4545, -0.0769 0.9311 1.4515, -0.0718 0.9311 1.4473, -0.0712 0.9311 1.4467, -0.0673 0.9311 1.4411, -0.0646 0.9311 1.4342, -0.0632 0.9311 1.4233, -0.0633 0.9311 1.4199, -0.1055 0.9311 1.3939, -0.0967 0.9311 1.392, -0.0914 0.9311 1.3918, -0.0646 0.9311 1.412, -0.0672 0.9311 1.4056, -0.0709 0.9311 1.4004, -0.073 0.9311 1.3983, -0.0842 0.9311 1.3926, -0.0784 0.9311 1.3947, -0.1041 0.9311 1.4644, -0.1086 0.9311 2.6929, -0.0936 0.9311 1.4653, -0.0554 0.9311 2.6929, -0.0834 0.9311 1.4642, -0.0554 0.9311 1.4642, -0.0583 0.9311 1.4462, -0.0641 0.9311 1.4538, -0.0662 0.9311 1.4556, -0.0737 0.9311 1.4608, -0.0821 0.9311 1.464, -0.0544 0.9311 1.4373, -0.0554 0.9311 1.4396, -0.0538 0.9311 1.4097, -0.0506 0.9311 1.3828, -0.0524 0.9311 1.4227, -0.0525 0.9311 1.4269, -0.0837 0.9311 1.383, -0.0753 0.9311 1.3851, -0.0679 0.9311 1.3889, -0.0624 0.9311 1.3937, -0.0618 0.9311 1.3945, -0.0924 0.9311 1.3828, -0.0899 0.9311 1.3826, -0.1086 0.9311 1.3599, -0.0866 0.9311 1.3828, -0.1121 0.9311 1.3871, -0.1107 0.9311 1.3864, -0.1086 0.9311 1.3828, -0.1086 0.9311 1.3858, -0.1021 0.9311 1.3837, -0.017 0.9311 1.3936, -0.0489 0.9311 1.3934, -0.0488 0.9311 1.3842, -0.0066 0.9311 1.3845, -0.0072 0.9311 1.4646, -0.0506 0.9311 2.6929, -0.1183 0.9311 1.2985, -0.1187 0.9311 1.3021, -0.1197 0.9311 1.2915, -0.1187 0.9311 1.2946, -0.118 0.9311 1.2691, -0.1218 0.9311 1.2667, -0.123 0.9311 1.2662, -0.123 0.9311 1.2875, -0.121 0.9311 1.2894, -0.1227 0.9311 1.2877, -0.1332 0.9311 1.2553, -0.1242 0.9311 1.2564, -0.123 0.9311 1.2553, -0.123 0.9311 1.2568, -0.1086 0.9311 1.2553, -0.1179 0.9311 1.2587, -0.1594 0.9311 1.242, -0.123 0.9311 1.242, -0.1334 0.9311 1.2553, -0.1542 0.9311 1.3124, -0.1541 0.9311 1.3027, -0.1248 0.9311 1.3106, -0.1279 0.9311 1.3124, -0.123 0.9311 1.3599, -0.1561 0.9311 1.268, -0.1549 0.9311 1.2648, -0.153 0.9311 1.2622, -0.1199 0.9311 1.3053, -0.1218 0.9311 1.308, -0.123 0.9311 1.309, -0.1334 0.9311 1.3143, -0.1406 0.9311 1.3151, -0.1594 0.9311 1.3599, -0.1475 0.9311 1.3144, -0.1533 0.9311 1.2815, -0.1552 0.9311 1.2787, -0.1562 0.9311 1.2757, -0.1566 0.9311 1.272, -0.1501 0.9311 1.2597, -0.1468 0.9311 1.2578, -0.1396 0.9311 1.3069, -0.1366 0.9311 1.3067, -0.1286 0.9311 1.2993, -0.1339 0.9311 1.306, -0.1317 0.9311 1.3048, -0.1287 0.9311 1.298, -0.1291 0.9311 1.2964, -0.1298 0.9311 1.295, -0.1307 0.9311 1.294, -0.1343 0.9311 1.2917, -0.1462 0.9311 1.3061, -0.1405 0.9311 1.289, -0.1519 0.9311 1.304, -0.1443 0.9311 1.2874, -0.151 0.9311 1.2836, -0.1302 0.9311 1.3035, -0.1293 0.9311 1.3022, -0.1288 0.9311 1.3009, -0.1281 0.9311 1.2642, -0.1333 0.9311 1.2817, -0.1274 0.9311 1.2845, -0.1344 0.9311 1.2634, -0.1349 0.9311 1.2634, -0.1399 0.9311 1.2789, -0.14 0.9311 1.264, -0.1463 0.9311 1.2711, -0.1462 0.9311 1.2723, -0.1426 0.9311 1.2649, -0.1435 0.9311 1.2654, -0.1447 0.9311 1.2665, -0.1456 0.9311 1.2678, -0.1461 0.9311 1.2692, -0.1458 0.9311 1.2739, -0.145 0.9311 1.2752, -0.1438 0.9311 1.2765, -0.188 0.9311 1.2704, -0.1892 0.9311 1.2657, -0.1895 0.9311 1.2657, -0.217 0.9311 1.3132, -0.1787 0.9311 1.3599, -0.2066 0.9311 1.3133, -0.1787 0.9311 1.2977, -0.1907 0.9311 1.2703, -0.1899 0.9311 1.2677, -0.1787 0.9311 1.2553, -0.1787 0.9311 1.2705, -0.1621 0.9311 1.3136, -0.1734 0.9311 1.3135, -0.1842 0.9311 1.2564, -0.1837 0.9311 1.2553, -0.1797 0.9311 1.246, -0.1637 0.9311 1.2392, -0.1636 0.9311 1.2303, -0.1777 0.9311 1.2424, -0.1787 0.9311 1.2443, -0.1787 0.9311 1.0066, -0.1787 0.9311 1.2318, -0.1781 0.9311 1.2313, -0.174 0.9311 1.2391, -0.1694 0.9311 1.238, -0.1718 0.9311 1.2383, -0.1741 0.9311 1.2298, -0.1701 0.9311 1.2294, -0.1594 0.9311 1.0066, -0.1679 0.9311 1.2295, -0.186 0.9311 1.2388, -0.1823 0.9311 1.2344, -0.2538 0.9311 1.0066, -0.1816 0.9311 1.2337, -0.1937 0.9311 1.2553, -0.228 0.9311 1.336, -0.2538 0.9311 1.3358, -0.2538 0.9311 1.301, -0.2667 0.9311 1.3009, -0.2692 0.9311 1.3265, -0.2692 0.9311 1.3357, -0.2781 0.9311 1.2553, -0.2667 0.9311 1.2917, -0.238 0.9311 1.2919, -0.2378 0.9311 1.265, -0.2538 0.9311 1.2918, -0.2538 0.9311 1.2649, -0.2706 0.9311 1.2648, -0.2705 0.9311 1.2556, -0.2538 0.9311 1.2553, -0.2538 0.9311 1.2558, -0.2274 0.9311 1.2559, -0.2538 0.9311 1.3266, -0.2383 0.9311 1.3267, -0.2381 0.9311 1.3011, -0.3863 0.9311 1.3349, -0.3974 0.9311 1.3348, -0.3668 0.9311 1.2553, -0.3667 0.9311 1.2549, -0.4159 0.9311 1.2546, -0.4273 0.9311 1.2545, -0.5512 0.9311 1.242, -0.3532 0.9311 1.242, -0.4156 0.9311 1.2553, -0.4079 0.9311 1.2766, -0.3745 0.9311 1.2768, -0.0506 0.9311 1.3599, -0.0072 0.9311 1.4642, -0.0163 0.9311 1.2935, -0.0161 0.9311 1.2666, -0.0449 0.9311 1.2933, -0.0488 0.9311 1.2663, -0.045 0.9311 1.3025, -0.0474 0.9311 1.3281, -0.0163 0.9311 1.3027, -0.0165 0.9311 1.3283, -0.0475 0.9311 1.3373, -0.0506 0.9311 1.2553, -0.0488 0.9311 1.2572, -0.0554 0.9311 1.3599, -0.0554 0.9311 1.2553, -0.0627 0.9311 1.2844, -0.0643 0.9311 1.3005, -0.0606 0.9311 1.2816, -0.0592 0.9311 1.2781, -0.0976 0.9311 1.3116, -0.1003 0.9311 1.309, -0.084 0.9311 1.3155, -0.0901 0.9311 1.3149, -0.0943 0.9311 1.3135, -0.0892 0.9311 1.2599, -0.0858 0.9311 1.2576, -0.0943 0.9311 1.2569, -0.0817 0.9311 1.2562, -0.0765 0.9311 1.2557, -0.0601 0.9311 1.2645, -0.0589 0.9311 1.2679, -0.0739 0.9311 1.3143, -0.0664 0.9311 1.3115, -0.0643 0.9311 1.3103, -0.0658 0.9311 1.2871, -0.0701 0.9311 1.2892, -0.0704 0.9311 1.3044, -0.0776 0.9311 1.291, -0.0864 0.9311 1.3069, -0.083 0.9311 1.3073, -0.0766 0.9311 1.3066, -0.1023 0.9311 1.3058, -0.1038 0.9311 1.3012, -0.1046 0.9311 1.2936, -0.1043 0.9311 1.2568, -0.0667 0.9311 1.2579, -0.0633 0.9311 1.2603, -0.0622 0.9311 1.2614, -0.0943 0.9311 1.2657, -0.0941 0.9311 1.2657, -0.0924 0.9311 1.2633, -0.0945 0.9311 1.2932, -0.0942 0.9311 1.2977, -0.0932 0.9311 1.3012, -0.092 0.9311 1.3033, -0.0705 0.9311 1.2564, -0.0585 0.9311 1.2724, -0.0585 0.9311 1.2738, -0.0905 0.9311 1.3049, -0.0888 0.9311 1.3061, -0.0506 0.9311 1.242, -0.0554 0.9311 1.242, -0.1086 0.9311 1.242, -0.0506 0.9311 1.0066, -0.0554 0.9311 1.0066, -0.1086 0.9311 1.0066, -0.123 0.9311 1.0066, -0.2515 0.9311 1.4187, -0.2494 0.9311 1.4094, -0.2476 0.9311 1.4425, -0.2505 0.9311 1.4349, -0.2538 0.9311 1.4642, -0.2517 0.9311 1.4238, -0.2454 0.9311 1.4011, -0.2394 0.9311 1.3941, -0.231 0.9311 1.3881, -0.2097 0.9311 1.4632, -0.2219 0.9311 1.4617, -0.2315 0.9311 1.4581, -0.2218 0.9311 1.3846, -0.2083 0.9311 1.3831, -0.1863 0.9311 1.3833, -0.1868 0.9311 1.4633, -0.2399 0.9311 1.4523, -0.2427 0.9311 1.4495, -0.123 0.9311 2.6929, -0.1594 0.9311 2.6929, -0.1787 0.9311 2.6929, -0.2538 0.9311 2.6929, -0.2781 0.9311 2.6929, -0.3532 0.9311 2.6929, -0.3488 0.9311 1.2817, -0.3448 0.9311 1.2734, -0.3388 0.9311 1.2664, -0.3304 0.9311 1.2604, -0.3212 0.9311 1.2569, -0.3076 0.9311 1.2554, -0.2856 0.9311 1.2555, -0.2862 0.9311 1.3356, -0.309 0.9311 1.3354, -0.3212 0.9311 1.334, -0.3309 0.9311 1.3304, -0.3392 0.9311 1.3246, -0.3421 0.9311 1.3218, -0.347 0.9311 1.3148, -0.3499 0.9311 1.3071, -0.3511 0.9311 1.2961, -0.3508 0.9311 1.291, -0.2781 0.9311 1.242, -0.427 0.9311 1.2553, -0.5512 0.9311 1.2553, -0.5512 0.9311 1.3599, -0.5512 0.9311 1.3828, -0.2781 0.9311 1.0066, -0.3532 0.9311 1.0066, -0.5512 0.9311 1.0066, -0.6752 0.9311 1.4642, -0.6752 0.9311 1.3828, -0.6752 0.9311 1.3599, -0.6752 0.9311 1.2553, -0.6752 0.9311 1.242, -0.6752 0.9311 1.0066, 0.6752 0.9311 0.7913, 0.0268 0.9311 0.7913, -0.0506 0.9311 0.7913, -0.0554 0.9311 0.7913, -0.1086 0.9311 0.7913, -0.123 0.9311 0.7913, -0.1594 0.9311 0.7913, -0.1787 0.9311 0.7913, -0.2538 0.9311 0.7913, -0.2781 0.9311 0.7913, -0.3532 0.9311 0.7913, -0.5512 0.9311 0.7913, -0.6752 0.9311 0.7913
            ]
        }
        coordIndex [
            0,1,2,-1,3,4,5,-1,6,7,8,-1,9,10,11,-1,12,13,14,-1,15,16,17,-1,18,19,20,-1,21,22,23,-1,24,25,26,-1,27,28,29,-1,29,28,30,-1,31,32,29,-1,29,32,33,-1,29,33,34,-1,34,35,29,-1,29,35,36,-1,29,36,27,-1,37,38,39,-1,40,41,31,-1,39,38,40,-1,40,38,42,-1,40,42,41,-1,43,44,39,-1,39,44,45,-1,39,45,37,-1,46,47,43,-1,43,47,48,-1,43,48,49,-1,43,50,44,-1,44,50,51,-1,44,51,52,-1,52,51,53,-1,52,53,54,-1,49,55,43,-1,43,55,56,-1,43,56,50,-1,57,58,59,-1,59,58,60,-1,59,60,61,-1,61,62,59,-1,59,62,63,-1,59,63,64,-1,64,63,65,-1,65,66,64,-1,64,66,67,-1,64,67,46,-1,46,67,68,-1,46,68,47,-1,69,70,59,-1,59,70,71,-1,59,71,57,-1,72,73,74,-1,75,76,77,-1,77,76,78,-1,77,78,69,-1,69,78,79,-1,69,79,70,-1,72,74,80,-1,73,81,74,-1,74,81,82,-1,74,82,77,-1,77,82,83,-1,77,83,75,-1,84,85,86,-1,87,88,89,-1,90,91,92,-1,92,91,93,-1,87,89,94,-1,95,96,97,-1,98,99,91,-1,91,99,100,-1,91,100,101,-1,97,102,103,-1,88,104,89,-1,89,104,105,-1,89,105,106,-1,96,107,97,-1,97,107,108,-1,97,108,102,-1,109,110,111,-1,111,110,112,-1,111,112,113,-1,114,101,115,-1,115,101,116,-1,115,116,111,-1,111,116,117,-1,111,117,109,-1,114,118,101,-1,101,118,119,-1,101,119,91,-1,91,119,120,-1,91,120,93,-1,121,122,89,-1,89,122,123,-1,89,123,91,-1,91,123,124,-1,91,124,98,-1,125,126,127,-1,127,126,128,-1,127,128,89,-1,89,128,129,-1,89,129,94,-1,130,131,132,-1,132,131,133,-1,133,134,132,-1,132,134,135,-1,132,135,136,-1,136,135,125,-1,136,125,137,-1,137,125,127,-1,106,138,89,-1,89,138,139,-1,89,139,140,-1,103,141,97,-1,97,141,142,-1,97,142,132,-1,132,142,143,-1,132,143,130,-1,140,144,89,-1,89,144,145,-1,89,145,121,-1,146,147,148,-1,148,101,146,-1,146,101,100,-1,146,100,149,-1,149,100,150,-1,150,151,149,-1,149,151,152,-1,149,152,153,-1,154,155,156,-1,155,157,156,-1,156,157,158,-1,156,158,159,-1,160,156,161,-1,147,146,160,-1,160,146,162,-1,160,162,156,-1,156,162,163,-1,156,163,154,-1,161,164,160,-1,160,164,165,-1,160,165,166,-1,159,158,167,-1,167,158,168,-1,167,168,169,-1,169,168,170,-1,169,170,171,-1,172,173,166,-1,166,173,174,-1,166,174,160,-1,28,175,30,-1,30,175,176,-1,30,176,5,-1,5,176,177,-1,5,177,178,-1,179,180,181,-1,182,183,184,-1,185,186,187,-1,188,189,190,-1,190,189,191,-1,190,191,192,-1,193,191,194,-1,194,191,189,-1,194,189,195,-1,195,189,188,-1,195,188,196,-1,196,188,197,-1,196,197,198,-1,198,197,199,-1,198,199,181,-1,181,199,200,-1,181,200,179,-1,201,202,203,-1,203,202,204,-1,205,203,206,-1,206,203,204,-1,206,204,207,-1,207,204,208,-1,207,208,209,-1,206,210,205,-1,205,210,211,-1,205,211,212,-1,213,214,215,-1,216,217,218,-1,218,217,219,-1,218,219,201,-1,201,219,220,-1,201,220,202,-1,202,220,221,-1,202,221,215,-1,215,221,222,-1,215,222,213,-1,209,208,223,-1,223,208,224,-1,223,224,213,-1,25,24,224,-1,224,24,225,-1,224,225,226,-1,227,228,229,-1,227,229,230,-1,213,224,214,-1,214,224,226,-1,214,226,231,-1,231,226,232,-1,231,232,229,-1,229,232,233,-1,229,233,230,-1,228,234,229,-1,229,234,235,-1,229,235,236,-1,236,237,229,-1,229,237,238,-1,229,238,239,-1,239,240,229,-1,229,240,241,-1,229,241,242,-1,242,241,243,-1,243,241,244,-1,244,241,245,-1,244,245,246,-1,246,247,244,-1,244,247,248,-1,244,248,249,-1,249,248,250,-1,251,252,253,-1,253,252,254,-1,253,254,255,-1,256,257,258,-1,258,259,256,-1,256,259,260,-1,256,260,261,-1,20,262,256,-1,256,262,263,-1,256,263,257,-1,22,264,265,-1,265,264,266,-1,265,266,20,-1,20,266,267,-1,20,267,262,-1,268,269,23,-1,23,269,270,-1,270,271,23,-1,23,271,272,-1,23,272,21,-1,273,274,275,-1,275,274,276,-1,231,277,214,-1,214,277,278,-1,214,278,279,-1,279,278,280,-1,279,280,281,-1,19,282,20,-1,20,282,283,-1,20,283,265,-1,265,283,284,-1,265,284,285,-1,31,29,40,-1,40,29,286,-1,40,286,287,-1,288,289,275,-1,290,291,292,-1,293,294,295,-1,290,292,296,-1,293,295,292,-1,292,295,297,-1,292,297,296,-1,298,299,300,-1,300,299,301,-1,300,301,302,-1,302,301,303,-1,302,303,292,-1,304,17,305,-1,305,17,16,-1,305,16,306,-1,307,308,17,-1,309,310,311,-1,312,313,17,-1,17,313,314,-1,289,315,275,-1,275,315,316,-1,275,316,311,-1,311,316,317,-1,311,317,309,-1,310,318,311,-1,311,318,319,-1,311,319,320,-1,320,319,321,-1,320,321,307,-1,322,323,308,-1,308,323,324,-1,308,324,17,-1,17,324,325,-1,17,325,312,-1,314,326,17,-1,17,326,327,-1,17,327,15,-1,328,329,330,-1,330,329,331,-1,330,331,332,-1,330,333,328,-1,328,333,334,-1,328,334,335,-1,335,336,328,-1,328,336,337,-1,328,337,338,-1,338,337,339,-1,338,339,340,-1,340,339,341,-1,340,341,308,-1,308,341,342,-1,308,342,322,-1,343,344,332,-1,332,344,345,-1,332,345,330,-1,346,347,294,-1,294,347,348,-1,294,348,295,-1,346,349,347,-1,347,349,350,-1,347,350,351,-1,351,350,352,-1,351,353,354,-1,352,355,351,-1,351,355,356,-1,351,356,357,-1,357,358,351,-1,351,358,359,-1,351,359,353,-1,354,360,351,-1,351,360,361,-1,351,361,362,-1,363,364,365,-1,366,367,368,-1,368,367,369,-1,368,369,370,-1,370,369,363,-1,370,363,371,-1,371,363,365,-1,372,373,17,-1,17,373,374,-1,307,17,320,-1,320,17,374,-1,320,374,367,-1,367,374,375,-1,367,375,369,-1,376,373,377,-1,377,373,372,-1,377,372,378,-1,14,13,379,-1,380,379,304,-1,304,379,13,-1,304,13,17,-1,17,13,381,-1,17,381,372,-1,372,381,382,-1,372,382,378,-1,383,384,385,-1,12,14,386,-1,386,14,387,-1,386,387,388,-1,385,389,383,-1,383,389,390,-1,383,390,391,-1,391,390,392,-1,393,394,395,-1,395,394,383,-1,383,394,396,-1,383,396,384,-1,9,11,397,-1,398,399,187,-1,187,399,188,-1,187,188,185,-1,185,188,190,-1,400,401,402,-1,399,403,188,-1,188,403,402,-1,188,402,404,-1,404,402,401,-1,404,401,405,-1,406,407,408,-1,408,407,409,-1,408,409,405,-1,405,409,410,-1,405,410,404,-1,404,410,411,-1,404,411,412,-1,412,411,413,-1,412,413,414,-1,402,415,400,-1,400,415,416,-1,400,416,417,-1,8,7,197,-1,197,7,418,-1,197,418,419,-1,420,421,422,-1,423,422,424,-1,424,422,421,-1,424,421,425,-1,422,426,420,-1,420,426,427,-1,420,427,428,-1,4,429,5,-1,5,429,265,-1,5,265,30,-1,30,265,285,-1,30,285,29,-1,29,285,430,-1,29,430,286,-1,431,432,433,-1,433,432,434,-1,433,434,435,-1,435,434,436,-1,435,436,437,-1,437,436,438,-1,4,439,429,-1,429,439,436,-1,429,436,440,-1,440,436,434,-1,434,441,440,-1,440,441,3,-1,440,3,97,-1,97,3,5,-1,97,5,95,-1,95,5,178,-1,286,18,287,-1,287,18,20,-1,287,20,254,-1,254,20,256,-1,254,256,255,-1,255,256,261,-1,22,265,23,-1,23,265,429,-1,23,429,442,-1,442,429,440,-1,442,440,443,-1,444,445,446,-1,446,445,447,-1,275,448,449,-1,450,451,275,-1,275,451,452,-1,275,452,448,-1,453,454,455,-1,455,454,456,-1,455,456,457,-1,443,458,459,-1,460,442,461,-1,461,442,462,-1,268,23,276,-1,276,23,442,-1,276,442,275,-1,275,442,460,-1,275,460,450,-1,444,463,445,-1,445,463,464,-1,445,464,465,-1,465,464,466,-1,467,468,466,-1,466,468,469,-1,466,469,465,-1,449,470,275,-1,275,470,471,-1,275,471,472,-1,291,288,292,-1,292,288,275,-1,292,275,302,-1,302,275,472,-1,302,472,473,-1,474,475,443,-1,443,475,476,-1,443,476,458,-1,477,478,455,-1,455,478,479,-1,455,479,453,-1,480,481,466,-1,466,481,482,-1,466,482,483,-1,473,455,302,-1,302,455,457,-1,302,457,443,-1,443,457,484,-1,443,484,474,-1,459,485,443,-1,443,485,486,-1,443,486,442,-1,442,486,447,-1,442,447,462,-1,462,447,445,-1,483,487,466,-1,466,487,488,-1,466,488,467,-1,132,84,97,-1,97,84,86,-1,97,86,440,-1,440,86,489,-1,440,489,443,-1,443,489,490,-1,443,490,302,-1,302,490,491,-1,302,491,300,-1,300,491,305,-1,300,305,298,-1,298,305,306,-1,85,80,86,-1,86,80,74,-1,86,74,489,-1,489,74,492,-1,489,492,490,-1,490,492,493,-1,490,493,491,-1,491,493,494,-1,491,494,305,-1,305,494,495,-1,305,495,304,-1,304,495,391,-1,304,391,380,-1,380,391,392,-1,281,273,279,-1,279,273,275,-1,279,275,214,-1,214,275,311,-1,214,311,215,-1,215,311,320,-1,215,320,202,-1,202,320,367,-1,202,367,182,-1,496,497,182,-1,498,499,500,-1,500,499,501,-1,497,502,182,-1,182,502,503,-1,182,503,504,-1,204,505,500,-1,500,505,506,-1,500,506,507,-1,504,508,182,-1,182,508,509,-1,182,509,202,-1,202,509,510,-1,202,510,204,-1,204,510,511,-1,204,511,505,-1,507,512,500,-1,500,512,513,-1,500,513,498,-1,180,179,184,-1,184,179,500,-1,184,500,182,-1,182,500,501,-1,182,501,496,-1,251,26,252,-1,252,26,25,-1,252,25,514,-1,514,25,224,-1,514,224,515,-1,515,224,208,-1,515,208,516,-1,516,208,204,-1,516,204,517,-1,517,204,500,-1,517,500,518,-1,518,500,179,-1,518,179,519,-1,519,179,200,-1,520,521,8,-1,8,521,522,-1,8,522,523,-1,523,524,8,-1,8,524,525,-1,8,525,404,-1,404,525,526,-1,404,526,188,-1,526,527,188,-1,188,527,528,-1,188,528,197,-1,197,528,529,-1,197,529,530,-1,530,531,197,-1,197,531,532,-1,197,532,533,-1,533,534,197,-1,197,534,535,-1,197,535,8,-1,8,535,536,-1,8,536,520,-1,421,6,425,-1,425,6,8,-1,425,8,537,-1,537,8,404,-1,537,404,11,-1,11,404,412,-1,11,412,397,-1,397,412,414,-1,397,414,366,-1,366,414,398,-1,366,398,367,-1,367,398,187,-1,367,187,182,-1,182,187,186,-1,182,186,183,-1,423,424,538,-1,538,424,539,-1,538,539,419,-1,419,539,540,-1,419,540,197,-1,197,540,541,-1,197,541,199,-1,199,541,2,-1,199,2,200,-1,200,2,1,-1,200,1,519,-1,10,393,11,-1,11,393,395,-1,11,395,537,-1,537,395,542,-1,537,542,425,-1,425,542,543,-1,425,543,424,-1,424,543,544,-1,0,2,545,-1,545,2,541,-1,545,541,546,-1,546,541,540,-1,546,540,547,-1,547,540,539,-1,547,539,548,-1,548,539,424,-1,548,424,549,-1,549,424,544,-1,549,544,550,-1,77,551,74,-1,74,551,552,-1,74,552,492,-1,492,552,553,-1,492,553,493,-1,493,553,554,-1,493,554,494,-1,494,554,555,-1,494,555,495,-1,495,555,556,-1,495,556,391,-1,391,556,557,-1,391,557,383,-1,383,557,558,-1,383,558,395,-1,395,558,559,-1,395,559,542,-1,542,559,560,-1,542,560,543,-1,543,560,561,-1,543,561,544,-1,544,561,562,-1,544,562,550,-1,550,562,563,-1,
        ]
    }
}
Shape{
    appearance Appearance {
        material  Material 	{
            diffuseColor 0.8509803921568627 0.8509803921568627 0.8509803921568627
            specularColor 0.4235294117647059 0.4235294117647059 0.4235294117647059
            ambientIntensity 0.851
            transparency 0.0
            shininess 0.5
        }
    }
    geometry IndexedFaceSet {
        ccw TRUE
        solid FALSE
        coord DEF co Coordinate {
            point [
                -0.4085 0.4842 0.2008, -0.4085 0.4842 0.7913, -0.4085 0.3307 0.2008, -0.4085 0.3307 0.7913, -0.3785 0.4842 0.2008, -0.3785 0.3307 0.2008, -0.3785 0.4842 0.0, -0.3785 0.3307 0.0, -0.4085 0.4842 0.0, -0.4085 0.3307 0.0, -0.4085 0.4842 -1.9685, -0.4085 0.3307 -1.9685, -0.5915 0.4842 -1.9685, -0.5915 0.3307 -1.9685, -0.5915 0.4842 0.0, -0.5915 0.3307 0.0, -0.6215 0.4842 0.0, -0.6215 0.3307 0.0, -0.6215 0.4842 0.2008, -0.6215 0.3307 0.2008, -0.5915 0.4842 0.2008, -0.5915 0.3307 0.2008, -0.5915 0.4842 0.7913, -0.5915 0.3307 0.7913
            ]
        }
        coordIndex [
            0,1,2,-1,2,1,3,-1,4,0,5,-1,5,0,2,-1,6,4,7,-1,7,4,5,-1,8,6,9,-1,9,6,7,-1,10,8,11,-1,11,8,9,-1,12,10,13,-1,13,10,11,-1,14,12,15,-1,15,12,13,-1,16,14,17,-1,17,14,15,-1,18,16,19,-1,19,16,17,-1,20,18,21,-1,21,18,19,-1,22,20,23,-1,23,20,21,-1,22,1,20,-1,20,1,0,-1,4,6,0,-1,0,6,8,-1,10,12,8,-1,8,12,14,-1,8,14,0,-1,0,14,16,-1,0,16,20,-1,20,16,18,-1,3,23,2,-1,2,23,21,-1,19,17,21,-1,21,17,15,-1,13,11,15,-1,15,11,9,-1,15,9,21,-1,21,9,7,-1,21,7,2,-1,2,7,5,-1,
        ]
    }
}
Shape{
    appearance Appearance {
        material  Material 	{
            diffuseColor 0.2235294117647059 0.2235294117647059 0.2235294117647059
            specularColor 0.11372549019607843 0.11372549019607843 0.11372549019607843
            ambientIntensity 0.2235
            transparency 0.0
            shininess 0.5
        }
    }
    geometry IndexedFaceSet {
        ccw TRUE
        solid FALSE
        coord DEF co Coordinate {
            point [
                0.0374 -0.5169 2.0541, 0.074 -0.5146 2.6537, 0.0 -0.5177 2.0564, -0.074 -0.5146 2.6537, -0.0374 -0.5169 2.0541, -0.22 -0.4899 2.6548, -0.1898 -0.4971 1.9922, -0.1563 -0.5038 2.0145, -0.1198 -0.5096 2.0325, -0.0809 -0.514 2.0457, -0.074 -0.5145 2.047, -0.3099 -0.4615 1.7028, -0.3126 -0.4605 1.7438, -0.3597 -0.441 0.8272, -0.3019 -0.4644 1.6629, -0.248 -0.4821 1.5536, -0.2707 -0.4752 1.5875, -0.2888 -0.4691 1.6242, -0.3099 -0.4615 1.7845, -0.3597 -0.441 2.6571, -0.3019 -0.4644 1.8247, -0.2887 -0.4691 1.8636, -0.2707 -0.4752 1.9001, -0.2479 -0.4822 1.9342, -0.221 -0.4896 1.9648, -0.22 -0.4898 1.9657, -0.0372 -0.517 1.4335, -0.074 -0.5146 1.4401, -0.074 -0.5146 0.8306, -0.0808 -0.5139 1.4423, -0.22 -0.4899 0.8294, -0.1196 -0.5096 1.455, -0.1563 -0.5038 1.4731, -0.1898 -0.4971 1.4955, -0.22 -0.4899 1.5218, -0.2209 -0.4896 1.5229, 0.074 -0.5146 0.8306, 0.0372 -0.517 1.4335, 0.0 -0.5177 1.4312, 0.22 -0.4899 0.8294, 0.1897 -0.4971 1.4954, 0.1563 -0.5038 1.4731, 0.1195 -0.5096 1.455, 0.0809 -0.514 1.4419, 0.074 -0.5145 1.4406, 0.2707 -0.4752 1.9001, 0.2887 -0.4691 1.8635, 0.3597 -0.441 2.6571, 0.2479 -0.4822 1.9342, 0.3019 -0.4644 1.8247, 0.3099 -0.4615 1.7845, 0.3126 -0.4605 1.7438, 0.3099 -0.4615 1.7028, 0.3019 -0.4644 1.6629, 0.3597 -0.441 0.8272, 0.2888 -0.4691 1.6242, 0.2707 -0.4752 1.5875, 0.248 -0.4821 1.5536, 0.221 -0.4896 1.5228, 0.22 -0.4898 1.5219, 0.074 -0.5146 2.0475, 0.0808 -0.5139 2.0453, 0.22 -0.4899 2.6548, 0.1198 -0.5096 2.0325, 0.1563 -0.5038 2.0145, 0.1896 -0.4971 1.9923, 0.22 -0.4899 1.9658, 0.2209 -0.4896 1.9648, 0.8811 0.3307 0.7913, 0.8814 0.3871 2.6929, 0.8811 0.3307 2.6929, 0.8729 0.2393 0.7956, 0.8729 0.2393 2.6887, 0.8397 0.095 2.682, 0.8397 0.095 0.8023, 0.7829 -0.0417 2.6756, 0.7829 -0.0417 0.8086, 0.7039 -0.167 2.6698, 0.7039 -0.167 0.8144, 0.6052 -0.2773 2.6647, 0.6052 -0.2773 0.8196, 0.4894 -0.3695 2.6604, 0.4894 -0.3695 0.8238, -0.4894 -0.3695 2.6604, -0.4894 -0.3695 0.8238, -0.6052 -0.2773 2.6647, -0.6052 -0.2773 0.8196, -0.7039 -0.167 2.6698, -0.7039 -0.167 0.8144, -0.7829 -0.0417 2.6756, -0.7829 -0.0417 0.8086, -0.8397 0.095 2.682, -0.8397 0.095 0.8023, -0.8729 0.2393 2.6887, -0.8729 0.2393 0.7956, -0.8811 0.3307 0.7913, -0.8811 0.3307 2.6929, -0.8814 0.3871 0.7913, -0.8814 0.3871 2.6929, -0.8652 0.5342 2.6929, -0.8652 0.5342 0.7913, -0.8245 0.6766 2.6929, -0.8245 0.6766 0.7913, -0.7606 0.8101 2.6929, -0.7606 0.8101 0.7913, -0.6752 0.9311 2.6929, -0.6752 0.9311 0.7913, 0.8814 0.3871 0.7913, 0.8652 0.5342 0.7913, 0.8652 0.5342 2.6929, 0.8245 0.6766 0.7913, 0.8245 0.6766 2.6929, 0.7606 0.8101 0.7913, 0.7606 0.8101 2.6929, 0.6752 0.9311 0.7913, 0.6752 0.9311 2.6929, 0.5915 0.4842 0.7913, 0.5915 0.3307 0.7913, 0.4085 0.4842 0.7913, -0.0915 0.4842 0.7913, -0.0915 0.3307 0.7913, -0.4085 0.3307 0.7913, -0.4085 0.4842 0.7913, 0.0915 0.4842 0.7913, 0.0915 0.3307 0.7913, 0.4085 0.3307 0.7913, -0.5915 0.3307 0.7913, -0.5915 0.4842 0.7913
            ]
        }
        coordIndex [
            0,1,2,-1,2,1,3,-1,2,3,4,-1,5,6,7,-1,7,8,5,-1,5,8,9,-1,5,9,3,-1,3,9,10,-1,3,10,4,-1,11,12,13,-1,11,13,14,-1,15,16,13,-1,13,16,17,-1,13,17,14,-1,12,18,19,-1,18,20,19,-1,19,20,21,-1,19,21,22,-1,22,23,19,-1,19,23,24,-1,19,24,5,-1,5,24,25,-1,5,25,6,-1,26,27,28,-1,28,27,29,-1,28,29,30,-1,30,29,31,-1,30,31,32,-1,32,33,30,-1,30,33,34,-1,30,34,13,-1,13,34,35,-1,13,35,15,-1,36,37,28,-1,28,37,38,-1,28,38,26,-1,39,40,41,-1,41,42,39,-1,39,42,43,-1,39,43,36,-1,36,43,44,-1,36,44,37,-1,45,46,47,-1,45,47,48,-1,46,49,47,-1,47,49,50,-1,47,50,51,-1,52,53,54,-1,54,53,55,-1,54,55,56,-1,56,57,54,-1,54,57,58,-1,54,58,39,-1,39,58,59,-1,39,59,40,-1,0,60,1,-1,1,60,61,-1,1,61,62,-1,62,61,63,-1,62,63,64,-1,64,65,62,-1,62,65,66,-1,62,66,47,-1,47,66,67,-1,47,67,48,-1,68,69,70,-1,68,70,71,-1,70,72,71,-1,71,72,73,-1,71,73,74,-1,74,73,75,-1,74,75,76,-1,76,75,77,-1,76,77,78,-1,78,77,79,-1,78,79,80,-1,80,79,81,-1,80,81,82,-1,82,81,47,-1,82,47,54,-1,54,47,51,-1,54,51,52,-1,12,19,13,-1,13,19,83,-1,13,83,84,-1,84,83,85,-1,84,85,86,-1,86,85,87,-1,86,87,88,-1,88,87,89,-1,88,89,90,-1,90,89,91,-1,90,91,92,-1,92,91,93,-1,92,93,94,-1,94,93,95,-1,95,93,96,-1,95,96,97,-1,96,98,97,-1,97,98,99,-1,97,99,100,-1,100,99,101,-1,100,101,102,-1,102,101,103,-1,102,103,104,-1,104,103,105,-1,104,105,106,-1,68,107,69,-1,69,107,108,-1,69,108,109,-1,109,108,110,-1,109,110,111,-1,111,110,112,-1,111,112,113,-1,113,112,114,-1,113,114,115,-1,109,98,69,-1,69,98,96,-1,69,96,70,-1,115,105,113,-1,113,105,103,-1,113,103,101,-1,109,111,98,-1,98,111,113,-1,98,113,99,-1,99,113,101,-1,116,108,117,-1,117,108,107,-1,117,107,68,-1,106,114,118,-1,118,114,112,-1,118,112,116,-1,116,112,110,-1,116,110,108,-1,119,120,121,-1,121,122,119,-1,119,122,106,-1,119,106,123,-1,123,106,118,-1,123,118,124,-1,124,118,125,-1,95,97,126,-1,126,97,100,-1,126,100,127,-1,127,100,102,-1,127,102,122,-1,122,102,104,-1,122,104,106,-1,
        ]
    }
}
Shape{
    appearance Appearance {
        material  Material 	{
            diffuseColor 0.8509803921568627 0.8509803921568627 0.8509803921568627
            specularColor 0.4235294117647059 0.4235294117647059 0.4235294117647059
            ambientIntensity 0.851
            transparency 0.0
            shininess 0.5
        }
    }
    geometry IndexedFaceSet {
        ccw TRUE
        solid FALSE
        coord DEF co Coordinate {
            point [
                -0.0915 0.4842 0.7913, -0.0915 0.4842 0.2008, -0.0915 0.3307 0.7913, -0.0915 0.3307 0.2008, 0.0915 0.4842 0.2008, 0.0915 0.4842 0.7913, 0.0915 0.3307 0.2008, 0.0915 0.3307 0.7913, 0.1215 0.4842 0.2008, 0.1215 0.3307 0.2008, 0.1215 0.4842 0.0, 0.1215 0.3307 0.0, 0.0915 0.4842 0.0, 0.0915 0.3307 0.0, 0.0915 0.4842 -1.9685, 0.0915 0.3307 -1.9685, -0.0915 0.4842 -1.9685, -0.0915 0.3307 -1.9685, -0.0915 0.4842 0.0, -0.0915 0.3307 0.0, -0.1215 0.4842 0.0, -0.1215 0.3307 0.0, -0.1215 0.4842 0.2008, -0.1215 0.3307 0.2008, 0.4085 0.4842 0.7913, 0.4085 0.4842 0.2008, 0.4085 0.3307 0.7913, 0.4085 0.3307 0.2008, 0.5915 0.4842 0.2008, 0.5915 0.4842 0.7913, 0.5915 0.3307 0.2008, 0.5915 0.3307 0.7913, 0.6215 0.4842 0.2008, 0.6215 0.3307 0.2008, 0.6215 0.4842 0.0, 0.6215 0.3307 0.0, 0.5915 0.4842 0.0, 0.5915 0.3307 0.0, 0.5915 0.4842 -1.9685, 0.5915 0.3307 -1.9685, 0.4085 0.4842 -1.9685, 0.4085 0.3307 -1.9685, 0.4085 0.4842 0.0, 0.4085 0.3307 0.0, 0.3785 0.4842 0.0, 0.3785 0.3307 0.0, 0.3785 0.4842 0.2008, 0.3785 0.3307 0.2008
            ]
        }
        coordIndex [
            0,1,2,-1,2,1,3,-1,4,5,6,-1,6,5,7,-1,8,4,9,-1,9,4,6,-1,10,8,11,-1,11,8,9,-1,12,10,13,-1,13,10,11,-1,14,12,15,-1,15,12,13,-1,16,14,17,-1,17,14,15,-1,18,16,19,-1,19,16,17,-1,20,18,21,-1,21,18,19,-1,22,20,23,-1,23,20,21,-1,1,22,3,-1,3,22,23,-1,0,5,1,-1,1,5,4,-1,8,10,4,-1,4,10,12,-1,14,16,12,-1,12,16,18,-1,12,18,4,-1,4,18,20,-1,4,20,1,-1,1,20,22,-1,7,2,6,-1,6,2,3,-1,23,21,3,-1,3,21,19,-1,17,15,19,-1,19,15,13,-1,19,13,3,-1,3,13,11,-1,3,11,6,-1,6,11,9,-1,24,25,26,-1,26,25,27,-1,28,29,30,-1,30,29,31,-1,32,28,33,-1,33,28,30,-1,34,32,35,-1,35,32,33,-1,36,34,37,-1,37,34,35,-1,38,36,39,-1,39,36,37,-1,40,38,41,-1,41,38,39,-1,42,40,43,-1,43,40,41,-1,44,42,45,-1,45,42,43,-1,46,44,47,-1,47,44,45,-1,25,46,27,-1,27,46,47,-1,24,29,25,-1,25,29,28,-1,32,34,28,-1,28,34,36,-1,38,40,36,-1,36,40,42,-1,36,42,28,-1,28,42,44,-1,28,44,25,-1,25,44,46,-1,31,26,30,-1,30,26,27,-1,47,45,27,-1,27,45,43,-1,41,39,43,-1,43,39,37,-1,43,37,27,-1,27,37,35,-1,27,35,30,-1,30,35,33,-1,
        ]
    }
}
Shape{
    appearance Appearance {
        material  Material 	{
            diffuseColor 0.2235294117647059 0.2235294117647059 0.2235294117647059
            specularColor 0.11372549019607843 0.11372549019607843 0.11372549019607843
            ambientIntensity 0.2235
            transparency 0.0
            shininess 0.5
        }
    }
    geometry IndexedFaceSet {
        ccw TRUE
        solid FALSE
        coord DEF co Coordinate {
            point [
                0.3099 -0.4615 1.7845, 0.3019 -0.4644 1.8247, 0.3019 -0.4193 1.8247, 0.0374 -0.5169 2.0541, 0.0 -0.4193 2.0564, 0.074 -0.5146 2.0475, 0.0809 -0.4193 2.0457, 0.1563 -0.4193 2.0145, 0.1198 -0.5096 2.0325, 0.0808 -0.5139 2.0453, 0.2209 -0.4896 1.9648, 0.22 -0.4899 1.9658, 0.221 -0.4193 1.9648, 0.1896 -0.4971 1.9923, 0.1563 -0.5038 2.0145, 0.2707 -0.4193 1.9001, 0.2887 -0.4691 1.8635, 0.2707 -0.4752 1.9001, 0.2479 -0.4822 1.9342, 0.3126 -0.4605 1.7438, 0.3126 -0.4193 1.7438, 0.3099 -0.4615 1.7028, 0.3019 -0.4193 1.6629, 0.3019 -0.4644 1.6629, 0.2888 -0.4691 1.6242, 0.2707 -0.4193 1.5875, 0.2707 -0.4752 1.5875, 0.248 -0.4821 1.5536, 0.221 -0.4193 1.5228, 0.221 -0.4896 1.5228, 0.1563 -0.4193 1.4731, 0.1897 -0.4971 1.4954, 0.22 -0.4898 1.5219, 0.074 -0.5145 1.4406, 0.0809 -0.514 1.4419, 0.0809 -0.4193 1.4419, 0.1195 -0.5096 1.455, 0.1563 -0.5038 1.4731, 0.0372 -0.517 1.4335, 0.0 -0.4193 1.4312, 0.0 -0.5177 1.4312, -0.0809 -0.4193 1.4419, -0.074 -0.5146 1.4401, -0.0372 -0.517 1.4335, -0.1563 -0.4193 1.4731, -0.1196 -0.5096 1.455, -0.0808 -0.5139 1.4423, -0.2209 -0.4896 1.5229, -0.22 -0.4899 1.5218, -0.221 -0.4193 1.5228, -0.1898 -0.4971 1.4955, -0.1563 -0.5038 1.4731, -0.2707 -0.4193 1.5875, -0.3019 -0.4193 1.6629, -0.3019 -0.4644 1.6629, -0.2888 -0.4691 1.6242, -0.2707 -0.4752 1.5875, -0.248 -0.4821 1.5536, -0.3019 -0.4193 1.8247, -0.3099 -0.4615 1.7845, -0.3126 -0.4193 1.7438, -0.3126 -0.4605 1.7438, -0.3099 -0.4615 1.7028, -0.2707 -0.4193 1.9001, -0.2887 -0.4691 1.8636, -0.3019 -0.4644 1.8247, -0.22 -0.4898 1.9657, -0.221 -0.4896 1.9648, -0.221 -0.4193 1.9648, -0.2479 -0.4822 1.9342, -0.2707 -0.4752 1.9001, -0.1898 -0.4971 1.9922, -0.1563 -0.4193 2.0145, -0.1563 -0.5038 2.0145, -0.1198 -0.5096 2.0325, -0.0809 -0.4193 2.0457, -0.0809 -0.514 2.0457, 0.0 -0.5177 2.0564, -0.0374 -0.5169 2.0541, -0.074 -0.5145 2.047, 0.0 -0.4193 1.7438, -0.8729 0.2393 0.7956, -0.8811 0.3307 0.7913, -0.5915 0.3307 0.7913, -0.4085 0.3307 0.7913, -0.3597 -0.441 0.8272, -0.4894 -0.3695 0.8238, -0.7039 -0.167 0.8144, -0.7829 -0.0417 0.8086, -0.8397 0.095 0.8023, -0.6052 -0.2773 0.8196, -0.22 -0.4899 0.8294, -0.0915 0.3307 0.7913, -0.074 -0.5146 0.8306, 0.074 -0.5146 0.8306, 0.0915 0.3307 0.7913, 0.22 -0.4899 0.8294, 0.4085 0.3307 0.7913, 0.3597 -0.441 0.8272, 0.8811 0.3307 0.7913, 0.8729 0.2393 0.7956, 0.5915 0.3307 0.7913, 0.8397 0.095 0.8023, 0.7829 -0.0417 0.8086, 0.7039 -0.167 0.8144, 0.6052 -0.2773 0.8196, 0.4894 -0.3695 0.8238, 0.8397 0.095 2.682, 0.8729 0.2393 2.6887, -0.8729 0.2393 2.6887, 0.8811 0.3307 2.6929, -0.8811 0.3307 2.6929, -0.8397 0.095 2.682, -0.7829 -0.0417 2.6756, 0.7829 -0.0417 2.6756, -0.7039 -0.167 2.6698, 0.7039 -0.167 2.6698, -0.6052 -0.2773 2.6647, 0.6052 -0.2773 2.6647, -0.4894 -0.3695 2.6604, 0.4894 -0.3695 2.6604, 0.3597 -0.441 2.6571, -0.3597 -0.441 2.6571, -0.22 -0.4899 2.6548, -0.074 -0.5146 2.6537, 0.074 -0.5146 2.6537, 0.22 -0.4899 2.6548
            ]
        }
        coordIndex [
            0,1,2,-1,3,4,5,-1,5,4,6,-1,7,8,6,-1,6,8,9,-1,6,9,5,-1,10,11,12,-1,12,11,13,-1,12,13,7,-1,7,13,14,-1,7,14,8,-1,2,1,15,-1,1,16,15,-1,15,16,17,-1,15,17,12,-1,12,17,18,-1,12,18,10,-1,0,2,19,-1,19,2,20,-1,19,20,21,-1,21,20,22,-1,21,22,23,-1,23,22,24,-1,24,22,25,-1,24,25,26,-1,26,25,27,-1,27,25,28,-1,27,28,29,-1,30,31,28,-1,28,31,32,-1,28,32,29,-1,33,34,35,-1,35,34,36,-1,35,36,30,-1,30,36,37,-1,30,37,31,-1,33,35,38,-1,38,35,39,-1,38,39,40,-1,41,42,39,-1,39,42,43,-1,39,43,40,-1,44,45,41,-1,41,45,46,-1,41,46,42,-1,47,48,49,-1,49,48,50,-1,49,50,44,-1,44,50,51,-1,44,51,45,-1,52,53,54,-1,54,55,52,-1,52,55,56,-1,52,56,49,-1,49,56,57,-1,49,57,47,-1,58,59,60,-1,60,59,61,-1,60,61,53,-1,53,61,62,-1,53,62,54,-1,63,64,58,-1,58,64,65,-1,58,65,59,-1,66,67,68,-1,68,67,69,-1,68,69,63,-1,63,69,70,-1,63,70,64,-1,66,68,71,-1,71,68,72,-1,71,72,73,-1,73,72,74,-1,74,72,75,-1,74,75,76,-1,3,77,4,-1,4,77,78,-1,4,78,75,-1,75,78,79,-1,75,79,76,-1,7,6,80,-1,80,6,4,-1,80,4,75,-1,2,15,80,-1,80,15,12,-1,80,12,7,-1,25,22,80,-1,80,22,20,-1,80,20,2,-1,35,30,80,-1,80,30,28,-1,80,28,25,-1,44,41,80,-1,80,41,39,-1,80,39,35,-1,53,52,80,-1,80,52,49,-1,80,49,44,-1,63,58,80,-1,80,58,60,-1,80,60,53,-1,75,72,80,-1,80,72,68,-1,80,68,63,-1,81,82,83,-1,84,85,86,-1,87,88,83,-1,83,88,89,-1,83,89,81,-1,84,86,83,-1,83,86,90,-1,83,90,87,-1,85,84,91,-1,91,84,92,-1,91,92,93,-1,93,92,94,-1,94,92,95,-1,94,95,96,-1,96,95,97,-1,96,97,98,-1,99,100,101,-1,101,100,102,-1,101,102,103,-1,103,104,101,-1,101,104,105,-1,101,105,97,-1,97,105,106,-1,97,106,98,-1,107,108,109,-1,109,108,110,-1,109,110,111,-1,109,112,107,-1,107,112,113,-1,107,113,114,-1,114,113,115,-1,114,115,116,-1,116,115,117,-1,116,117,118,-1,118,117,119,-1,118,119,120,-1,120,119,121,-1,121,119,122,-1,121,122,123,-1,124,125,123,-1,123,125,126,-1,123,126,121,-1,
        ]
    }
}
Shape{
    appearance Appearance {
        material  Material 	{
            diffuseColor 1.0 1.0 1.0
            specularColor 0.5019607843137255 0.5019607843137255 0.5019607843137255
            ambientIntensity 1.0
            transparency 0.0
            shininess 0.5
        }
    }
    geometry IndexedFaceSet {
        ccw TRUE
        solid FALSE
        coord DEF co Coordinate {
            point [
                -0.0489 0.9311 1.3934, -0.0488 0.9311 1.3842, -0.0489 0.9311 1.3934, -0.0488 0.9311 1.3842, -0.017 0.9311 1.3936, -0.017 0.9311 1.3936, -0.0175 0.9311 1.4645, -0.0175 0.9311 1.4645, -0.0175 0.9311 1.4642, -0.0072 0.9311 1.4646, -0.0072 0.9311 1.4646, -0.0066 0.9311 1.3845, -0.0066 0.9311 1.3845, -0.0072 0.9311 1.4642, -0.1121 0.9311 1.3871, -0.1121 0.9311 1.3871, -0.1107 0.9311 1.3864, -0.0899 0.9311 1.3826, -0.0899 0.9311 1.3826, -0.0924 0.9311 1.3828, -0.1021 0.9311 1.3837, -0.1021 0.9311 1.3837, -0.1086 0.9311 1.3858, -0.1107 0.9311 1.3864, -0.1121 0.9311 1.397, -0.1121 0.9311 1.397, -0.1055 0.9311 1.3939, -0.1086 0.9311 1.3954, -0.1055 0.9311 1.3939, -0.0967 0.9311 1.392, -0.0967 0.9311 1.392, -0.0914 0.9311 1.3918, -0.0914 0.9311 1.3918, -0.0842 0.9311 1.3926, -0.0842 0.9311 1.3926, -0.0784 0.9311 1.3947, -0.0784 0.9311 1.3947, -0.073 0.9311 1.3983, -0.073 0.9311 1.3983, -0.0709 0.9311 1.4004, -0.0709 0.9311 1.4004, -0.0672 0.9311 1.4056, -0.0672 0.9311 1.4056, -0.0646 0.9311 1.412, -0.0646 0.9311 1.412, -0.0633 0.9311 1.4199, -0.0633 0.9311 1.4199, -0.0632 0.9311 1.4233, -0.0632 0.9311 1.4233, -0.0646 0.9311 1.4342, -0.0646 0.9311 1.4342, -0.0673 0.9311 1.4411, -0.0673 0.9311 1.4411, -0.0712 0.9311 1.4467, -0.0712 0.9311 1.4467, -0.0718 0.9311 1.4473, -0.0718 0.9311 1.4473, -0.0769 0.9311 1.4515, -0.0769 0.9311 1.4515, -0.0832 0.9311 1.4545, -0.0832 0.9311 1.4545, -0.0901 0.9311 1.4559, -0.0901 0.9311 1.4559, -0.0937 0.9311 1.456, -0.0937 0.9311 1.456, -0.1125 0.9311 1.4511, -0.1125 0.9311 1.4511, -0.1116 0.9311 1.4516, -0.1035 0.9311 1.4548, -0.1035 0.9311 1.4548, -0.1086 0.9311 1.4528, -0.1116 0.9311 1.4516, -0.1126 0.9311 1.4619, -0.1126 0.9311 1.4619, -0.105 0.9311 1.4642, -0.1041 0.9311 1.4644, -0.1086 0.9311 1.4631, -0.1041 0.9311 1.4644, -0.0936 0.9311 1.4653, -0.0936 0.9311 1.4653, -0.0821 0.9311 1.464, -0.0834 0.9311 1.4642, -0.0821 0.9311 1.464, -0.0737 0.9311 1.4608, -0.0737 0.9311 1.4608, -0.0662 0.9311 1.4556, -0.0662 0.9311 1.4556, -0.0641 0.9311 1.4538, -0.0641 0.9311 1.4538, -0.0583 0.9311 1.4462, -0.0583 0.9311 1.4462, -0.0554 0.9311 1.4396, -0.0544 0.9311 1.4373, -0.0544 0.9311 1.4373, -0.0525 0.9311 1.4269, -0.0525 0.9311 1.4269, -0.0524 0.9311 1.4227, -0.0524 0.9311 1.4227, -0.0538 0.9311 1.4097, -0.0538 0.9311 1.4097, -0.0554 0.9311 1.4057, -0.057 0.9311 1.4013, -0.057 0.9311 1.4013, -0.0618 0.9311 1.3945, -0.0618 0.9311 1.3945, -0.0624 0.9311 1.3937, -0.0624 0.9311 1.3937, -0.0866 0.9311 1.3828, -0.0837 0.9311 1.383, -0.0837 0.9311 1.383, -0.0753 0.9311 1.3851, -0.0753 0.9311 1.3851, -0.0679 0.9311 1.3889, -0.0679 0.9311 1.3889, -0.1712 0.9311 1.3925, -0.1711 0.9311 1.3834, -0.1712 0.9311 1.3925, -0.1711 0.9311 1.3834, -0.1385 0.9311 1.3927, -0.1385 0.9311 1.3927, -0.1594 0.9311 1.3926, -0.1387 0.9311 1.4197, -0.1387 0.9311 1.4197, -0.1673 0.9311 1.4195, -0.1673 0.9311 1.4195, -0.1594 0.9311 1.4195, -0.1674 0.9311 1.4286, -0.1674 0.9311 1.4286, -0.1387 0.9311 1.4288, -0.1387 0.9311 1.4288, -0.1594 0.9311 1.4287, -0.1389 0.9311 1.4545, -0.1389 0.9311 1.4545, -0.1698 0.9311 1.4542, -0.1698 0.9311 1.4542, -0.1594 0.9311 1.4543, -0.1699 0.9311 1.4634, -0.1699 0.9311 1.4634, -0.1286 0.9311 1.4637, -0.1286 0.9311 1.4637, -0.1594 0.9311 1.4635, -0.1281 0.9311 1.3837, -0.1281 0.9311 1.3837, -0.1594 0.9311 1.3834, -0.2361 0.9311 1.4052, -0.2321 0.9311 1.4004, -0.2394 0.9311 1.3941, -0.2312 0.9311 1.3995, -0.231 0.9311 1.3881, -0.226 0.9311 1.396, -0.2218 0.9311 1.3846, -0.2193 0.9311 1.3935, -0.2083 0.9311 1.3831, -0.2083 0.9311 1.3922, -0.1863 0.9311 1.3833, -0.1967 0.9311 1.3923, -0.1868 0.9311 1.4633, -0.1971 0.9311 1.454, -0.2097 0.9311 1.4632, -0.2092 0.9311 1.454, -0.2219 0.9311 1.4617, -0.22 0.9311 1.4526, -0.2315 0.9311 1.4581, -0.2268 0.9311 1.45, -0.2399 0.9311 1.4523, -0.2322 0.9311 1.4463, -0.2427 0.9311 1.4495, -0.2345 0.9311 1.444, -0.2476 0.9311 1.4425, -0.2376 0.9311 1.4395, -0.2505 0.9311 1.4349, -0.2398 0.9311 1.4336, -0.2517 0.9311 1.4238, -0.2409 0.9311 1.4236, -0.2515 0.9311 1.4187, -0.2405 0.9311 1.4184, -0.2494 0.9311 1.4094, -0.2389 0.9311 1.4111, -0.2454 0.9311 1.4011, -0.2083 0.9311 1.3831, -0.1863 0.9311 1.3833, -0.2218 0.9311 1.3846, -0.231 0.9311 1.3881, -0.2394 0.9311 1.3941, -0.2454 0.9311 1.4011, -0.2494 0.9311 1.4094, -0.2515 0.9311 1.4187, -0.2517 0.9311 1.4238, -0.2505 0.9311 1.4349, -0.2476 0.9311 1.4425, -0.2427 0.9311 1.4495, -0.2399 0.9311 1.4523, -0.2315 0.9311 1.4581, -0.2219 0.9311 1.4617, -0.2097 0.9311 1.4632, -0.1868 0.9311 1.4633, -0.2092 0.9311 1.454, -0.1971 0.9311 1.454, -0.1967 0.9311 1.3923, -0.2083 0.9311 1.3922, -0.2321 0.9311 1.4004, -0.2312 0.9311 1.3995, -0.226 0.9311 1.396, -0.2193 0.9311 1.3935, -0.2409 0.9311 1.4236, -0.2405 0.9311 1.4184, -0.2389 0.9311 1.4111, -0.2361 0.9311 1.4052, -0.2322 0.9311 1.4463, -0.2345 0.9311 1.444, -0.2376 0.9311 1.4395, -0.2398 0.9311 1.4336, -0.22 0.9311 1.4526, -0.2268 0.9311 1.45
            ]
        }
        coordIndex [
            0,1,2,-1,2,1,3,-1,4,0,5,-1,5,0,2,-1,6,7,8,-1,8,7,4,-1,8,4,5,-1,9,7,10,-1,10,7,6,-1,11,12,13,-1,13,12,9,-1,13,9,10,-1,1,12,3,-1,3,12,11,-1,7,9,4,-1,4,9,12,-1,4,12,0,-1,0,12,1,-1,14,15,16,-1,17,18,19,-1,17,19,20,-1,19,21,20,-1,20,21,22,-1,20,22,16,-1,16,22,23,-1,16,23,14,-1,24,15,25,-1,25,15,14,-1,26,24,27,-1,27,24,25,-1,27,28,26,-1,26,28,29,-1,26,29,30,-1,30,29,31,-1,30,31,32,-1,32,31,33,-1,32,33,34,-1,34,33,35,-1,34,35,36,-1,36,35,37,-1,36,37,38,-1,38,37,39,-1,38,39,40,-1,40,39,41,-1,40,41,42,-1,42,41,43,-1,42,43,44,-1,44,43,45,-1,44,45,46,-1,46,45,47,-1,46,47,48,-1,48,47,49,-1,48,49,50,-1,50,49,51,-1,50,51,52,-1,52,51,53,-1,52,53,54,-1,54,53,55,-1,54,55,56,-1,56,55,57,-1,56,57,58,-1,58,57,59,-1,58,59,60,-1,60,59,61,-1,60,61,62,-1,62,61,63,-1,62,63,64,-1,65,66,67,-1,64,63,68,-1,64,68,69,-1,69,68,70,-1,69,70,67,-1,67,70,71,-1,67,71,65,-1,72,66,73,-1,73,66,65,-1,74,75,76,-1,76,75,72,-1,76,72,73,-1,74,77,75,-1,75,77,78,-1,75,78,79,-1,80,79,81,-1,81,79,78,-1,81,82,80,-1,80,82,83,-1,80,83,84,-1,84,83,85,-1,84,85,86,-1,86,85,87,-1,86,87,88,-1,88,87,89,-1,88,89,90,-1,90,89,91,-1,90,91,92,-1,91,93,92,-1,92,93,94,-1,92,94,95,-1,95,94,96,-1,95,96,97,-1,97,96,98,-1,97,98,99,-1,99,98,100,-1,99,100,101,-1,100,102,101,-1,101,102,103,-1,101,103,104,-1,104,103,105,-1,104,105,106,-1,18,17,107,-1,107,17,108,-1,107,108,109,-1,109,108,110,-1,109,110,111,-1,111,110,112,-1,111,112,113,-1,113,112,106,-1,113,106,105,-1,88,56,86,-1,86,56,58,-1,86,58,84,-1,97,48,95,-1,95,48,50,-1,95,50,92,-1,92,50,90,-1,90,50,52,-1,90,52,88,-1,88,52,54,-1,88,54,56,-1,84,58,80,-1,80,58,60,-1,80,60,79,-1,15,24,16,-1,16,24,26,-1,16,26,20,-1,20,26,30,-1,20,30,17,-1,17,30,32,-1,17,32,108,-1,108,32,34,-1,108,34,110,-1,110,34,36,-1,110,36,112,-1,112,36,38,-1,112,38,106,-1,106,38,40,-1,106,40,104,-1,104,40,42,-1,104,42,101,-1,101,42,99,-1,99,42,44,-1,99,44,97,-1,97,44,46,-1,97,46,48,-1,60,62,79,-1,79,62,64,-1,79,64,75,-1,75,64,69,-1,75,69,72,-1,72,69,67,-1,72,67,66,-1,114,115,116,-1,116,115,117,-1,118,119,120,-1,120,119,114,-1,120,114,116,-1,121,119,122,-1,122,119,118,-1,123,124,125,-1,125,124,121,-1,125,121,122,-1,126,124,127,-1,127,124,123,-1,128,129,130,-1,130,129,126,-1,130,126,127,-1,131,129,132,-1,132,129,128,-1,133,134,135,-1,135,134,131,-1,135,131,132,-1,136,134,137,-1,137,134,133,-1,138,139,140,-1,140,139,136,-1,140,136,137,-1,141,139,142,-1,142,139,138,-1,117,115,143,-1,143,115,141,-1,143,141,142,-1,141,115,114,-1,114,119,141,-1,141,119,121,-1,141,121,139,-1,134,136,131,-1,131,136,139,-1,131,139,129,-1,129,139,121,-1,129,121,126,-1,126,121,124,-1,144,145,146,-1,146,145,147,-1,146,147,148,-1,148,147,149,-1,148,149,150,-1,150,149,151,-1,150,151,152,-1,152,151,153,-1,152,153,154,-1,154,153,155,-1,154,155,156,-1,156,155,157,-1,156,157,158,-1,158,157,159,-1,158,159,160,-1,160,159,161,-1,160,161,162,-1,162,161,163,-1,162,163,164,-1,164,163,165,-1,164,165,166,-1,166,165,167,-1,166,167,168,-1,168,167,169,-1,168,169,170,-1,170,169,171,-1,170,171,172,-1,172,171,173,-1,172,173,174,-1,174,173,175,-1,174,175,176,-1,176,175,177,-1,176,177,178,-1,178,177,144,-1,178,144,146,-1,152,154,179,-1,179,154,180,-1,152,179,181,-1,152,181,150,-1,150,181,182,-1,150,182,148,-1,148,182,183,-1,148,183,146,-1,146,183,184,-1,146,184,178,-1,178,184,185,-1,178,185,176,-1,176,185,186,-1,176,186,174,-1,174,186,187,-1,174,187,172,-1,172,187,188,-1,172,188,170,-1,170,188,189,-1,170,189,168,-1,168,189,190,-1,168,190,166,-1,166,190,191,-1,166,191,164,-1,164,191,192,-1,164,192,162,-1,162,192,193,-1,162,193,160,-1,160,193,194,-1,160,194,158,-1,156,158,195,-1,195,158,194,-1,154,156,180,-1,180,156,195,-1,159,157,196,-1,196,157,197,-1,157,155,197,-1,197,155,198,-1,155,153,198,-1,198,153,199,-1,145,200,201,-1,145,201,147,-1,147,201,202,-1,147,202,149,-1,149,202,203,-1,149,203,151,-1,151,203,199,-1,151,199,153,-1,173,204,205,-1,173,205,175,-1,175,205,206,-1,175,206,177,-1,177,206,207,-1,177,207,144,-1,144,207,200,-1,144,200,145,-1,165,208,209,-1,165,209,167,-1,167,209,210,-1,167,210,169,-1,169,210,211,-1,169,211,171,-1,171,211,204,-1,171,204,173,-1,159,196,212,-1,159,212,161,-1,161,212,213,-1,161,213,163,-1,163,213,208,-1,163,208,165,-1,
        ]
    }
}
Shape{
    appearance Appearance {
        material  Material 	{
            diffuseColor 0.2235294117647059 0.2235294117647059 0.2235294117647059
            specularColor 0.11372549019607843 0.11372549019607843 0.11372549019607843
            ambientIntensity 0.2235
            transparency 0.0
            shininess 0.5
        }
    }
    geometry IndexedFaceSet {
        ccw TRUE
        solid FALSE
        coord DEF co Coordinate {
            point [
                -0.1971 0.9311 1.454, -0.1967 0.9311 1.3923, -0.2092 0.9311 1.454, -0.2083 0.9311 1.3922, -0.2193 0.9311 1.3935, -0.226 0.9311 1.396, -0.2312 0.9311 1.3995, -0.2321 0.9311 1.4004, -0.2361 0.9311 1.4052, -0.2389 0.9311 1.4111, -0.2409 0.9311 1.4236, -0.2322 0.9311 1.4463, -0.2268 0.9311 1.45, -0.2398 0.9311 1.4336, -0.2376 0.9311 1.4395, -0.2345 0.9311 1.444, -0.2405 0.9311 1.4184, -0.22 0.9311 1.4526
            ]
        }
        coordIndex [
            0,1,2,-1,2,1,3,-1,3,4,2,-1,2,4,5,-1,2,5,6,-1,6,7,2,-1,2,7,8,-1,2,8,9,-1,10,11,12,-1,13,14,10,-1,10,14,15,-1,10,15,11,-1,9,16,2,-1,2,16,10,-1,2,10,17,-1,17,10,12,-1,
        ]
    }
}
Shape{
    appearance Appearance {
        material  Material 	{
            diffuseColor 1.0 1.0 1.0
            specularColor 0.5019607843137255 0.5019607843137255 0.5019607843137255
            ambientIntensity 1.0
            transparency 0.0
            shininess 0.5
        }
    }
    geometry IndexedFaceSet {
        ccw TRUE
        solid FALSE
        coord DEF co Coordinate {
            point [
                -0.2785 0.9311 1.4135, -0.2907 0.9311 1.4467, -0.2869 0.9311 1.4626, -0.2559 0.9311 1.3828, -0.2673 0.9311 1.3827, -0.2752 0.9311 1.4045, -0.2914 0.9311 1.4491, -0.2921 0.9311 1.4523, -0.298 0.9311 1.4625, -0.2923 0.9311 1.4523, -0.2929 0.9311 1.4489, -0.2935 0.9311 1.4467, -0.3054 0.9311 1.4134, -0.3279 0.9311 1.3823, -0.3165 0.9311 1.3823, -0.3085 0.9311 1.4043, -0.298 0.9311 1.4625, -0.3277 0.9311 1.3828, -0.3279 0.9311 1.3823, -0.2869 0.9311 1.4626, -0.2559 0.9311 1.3828, -0.2559 0.9311 1.3828, -0.2781 0.9311 1.4398, -0.2673 0.9311 1.3827, -0.2752 0.9311 1.4045, -0.2674 0.9311 1.3828, -0.3085 0.9311 1.4043, -0.2781 0.9311 1.4045, -0.3165 0.9311 1.3823, -0.3163 0.9311 1.3828, -0.2785 0.9311 1.4135, -0.3054 0.9311 1.4134, -0.2935 0.9311 1.4467, -0.2923 0.9311 1.4523, -0.2929 0.9311 1.4489, -0.2921 0.9311 1.4523, -0.2907 0.9311 1.4467, -0.2914 0.9311 1.4491
            ]
        }
        coordIndex [
            0,1,2,-1,3,4,5,-1,1,6,2,-1,2,6,7,-1,2,7,8,-1,8,7,9,-1,8,9,10,-1,10,11,8,-1,8,11,12,-1,8,12,13,-1,14,13,15,-1,15,13,12,-1,15,12,5,-1,5,12,0,-1,5,0,3,-1,3,0,2,-1,16,8,17,-1,17,8,13,-1,17,13,18,-1,2,8,19,-1,19,8,16,-1,20,21,3,-1,20,3,22,-1,22,3,2,-1,22,2,19,-1,4,3,23,-1,23,3,21,-1,24,5,25,-1,25,5,4,-1,25,4,23,-1,26,15,27,-1,27,15,5,-1,27,5,24,-1,28,14,29,-1,29,14,15,-1,29,15,26,-1,13,14,18,-1,18,14,28,-1,0,12,30,-1,30,12,31,-1,12,11,31,-1,31,11,32,-1,9,33,34,-1,9,34,10,-1,10,34,32,-1,10,32,11,-1,9,7,33,-1,33,7,35,-1,1,36,37,-1,1,37,6,-1,6,37,35,-1,6,35,7,-1,1,0,36,-1,36,0,30,-1,
        ]
    }
}
Shape{
    appearance Appearance {
        material  Material 	{
            diffuseColor 0.2235294117647059 0.2235294117647059 0.2235294117647059
            specularColor 0.11372549019607843 0.11372549019607843 0.11372549019607843
            ambientIntensity 0.2235
            transparency 0.0
            shininess 0.5
        }
    }
    geometry IndexedFaceSet {
        ccw TRUE
        solid FALSE
        coord DEF co Coordinate {
            point [
                -0.2923 0.9311 1.4523, -0.2921 0.9311 1.4523, -0.2929 0.9311 1.4489, -0.2914 0.9311 1.4491, -0.2935 0.9311 1.4467, -0.2907 0.9311 1.4467, -0.3054 0.9311 1.4134, -0.2785 0.9311 1.4135
            ]
        }
        coordIndex [
            0,1,2,-1,2,1,3,-1,2,3,4,-1,4,3,5,-1,4,5,6,-1,6,5,7,-1,
        ]
    }
}
Shape{
    appearance Appearance {
        material  Material 	{
            diffuseColor 1.0 1.0 1.0
            specularColor 0.5019607843137255 0.5019607843137255 0.5019607843137255
            ambientIntensity 1.0
            transparency 0.0
            shininess 0.5
        }
    }
    geometry IndexedFaceSet {
        ccw TRUE
        solid FALSE
        coord DEF co Coordinate {
            point [
                -0.0488 0.9311 1.2663, -0.0488 0.9311 1.2572, -0.0488 0.9311 1.2663, -0.0488 0.9311 1.2572, -0.0161 0.9311 1.2666, -0.0161 0.9311 1.2666, -0.0163 0.9311 1.2935, -0.0163 0.9311 1.2935, -0.0449 0.9311 1.2933, -0.0449 0.9311 1.2933, -0.045 0.9311 1.3025, -0.045 0.9311 1.3025, -0.0163 0.9311 1.3027, -0.0163 0.9311 1.3027, -0.0165 0.9311 1.3283, -0.0165 0.9311 1.3283, -0.0474 0.9311 1.3281, -0.0474 0.9311 1.3281, -0.0475 0.9311 1.3373, -0.0475 0.9311 1.3373, -0.0063 0.9311 1.3376, -0.0063 0.9311 1.3376, -0.0057 0.9311 1.2575, -0.0057 0.9311 1.2575, -0.0943 0.9311 1.2569, -0.1043 0.9311 1.2568, -0.0943 0.9311 1.2657, -0.1046 0.9311 1.2936, -0.0945 0.9311 1.2932, -0.0726 0.9311 1.2814, -0.0749 0.9311 1.2825, -0.0941 0.9311 1.2657, -0.0888 0.9311 1.2672, -0.0924 0.9311 1.2633, -0.0859 0.9311 1.2653, -0.0811 0.9311 1.2839, -0.0945 0.9311 1.2856, -0.0944 0.9311 1.2801, -0.0944 0.9311 1.2794, -0.0937 0.9311 1.275, -0.0923 0.9311 1.2714, -0.0901 0.9311 1.2685, -0.0942 0.9311 1.2977, -0.1038 0.9311 1.3012, -0.0932 0.9311 1.3012, -0.1023 0.9311 1.3058, -0.092 0.9311 1.3033, -0.1003 0.9311 1.309, -0.0905 0.9311 1.3049, -0.0976 0.9311 1.3116, -0.0888 0.9311 1.3061, -0.0943 0.9311 1.3135, -0.0864 0.9311 1.3069, -0.0901 0.9311 1.3149, -0.083 0.9311 1.3073, -0.084 0.9311 1.3155, -0.0766 0.9311 1.3066, -0.0739 0.9311 1.3143, -0.0704 0.9311 1.3044, -0.0664 0.9311 1.3115, -0.0643 0.9311 1.3005, -0.0643 0.9311 1.3103, -0.0707 0.9311 1.2674, -0.0633 0.9311 1.2603, -0.0715 0.9311 1.2665, -0.0667 0.9311 1.2579, -0.0735 0.9311 1.2651, -0.0705 0.9311 1.2564, -0.0758 0.9311 1.2643, -0.0765 0.9311 1.2557, -0.0791 0.9311 1.2639, -0.0817 0.9311 1.2562, -0.0829 0.9311 1.2643, -0.0858 0.9311 1.2576, -0.0892 0.9311 1.2599, -0.0687 0.9311 1.2748, -0.0585 0.9311 1.2738, -0.0686 0.9311 1.2732, -0.0585 0.9311 1.2724, -0.0689 0.9311 1.2709, -0.0589 0.9311 1.2679, -0.0695 0.9311 1.2691, -0.0601 0.9311 1.2645, -0.0622 0.9311 1.2614, -0.0776 0.9311 1.291, -0.0701 0.9311 1.2892, -0.0714 0.9311 1.2804, -0.0658 0.9311 1.2871, -0.0701 0.9311 1.2789, -0.0627 0.9311 1.2844, -0.0692 0.9311 1.2771, -0.0606 0.9311 1.2816, -0.0592 0.9311 1.2781, -0.084 0.9311 1.3155, -0.0739 0.9311 1.3143, -0.0664 0.9311 1.3115, -0.0643 0.9311 1.3103, -0.0643 0.9311 1.3005, -0.0704 0.9311 1.3044, -0.0766 0.9311 1.3066, -0.083 0.9311 1.3073, -0.0864 0.9311 1.3069, -0.0888 0.9311 1.3061, -0.0905 0.9311 1.3049, -0.092 0.9311 1.3033, -0.0932 0.9311 1.3012, -0.0942 0.9311 1.2977, -0.0945 0.9311 1.2932, -0.0776 0.9311 1.291, -0.0701 0.9311 1.2892, -0.0658 0.9311 1.2871, -0.0627 0.9311 1.2844, -0.0606 0.9311 1.2816, -0.0592 0.9311 1.2781, -0.0585 0.9311 1.2738, -0.0585 0.9311 1.2724, -0.0589 0.9311 1.2679, -0.0601 0.9311 1.2645, -0.0622 0.9311 1.2614, -0.0633 0.9311 1.2603, -0.0667 0.9311 1.2579, -0.0705 0.9311 1.2564, -0.0765 0.9311 1.2557, -0.0817 0.9311 1.2562, -0.0858 0.9311 1.2576, -0.0892 0.9311 1.2599, -0.0924 0.9311 1.2633, -0.0941 0.9311 1.2657, -0.0943 0.9311 1.2657, -0.0943 0.9311 1.2569, -0.1043 0.9311 1.2568, -0.1046 0.9311 1.2936, -0.1038 0.9311 1.3012, -0.1023 0.9311 1.3058, -0.1003 0.9311 1.309, -0.0976 0.9311 1.3116, -0.0943 0.9311 1.3135, -0.0901 0.9311 1.3149, -0.0714 0.9311 1.2804, -0.0726 0.9311 1.2814, -0.0749 0.9311 1.2825, -0.0811 0.9311 1.2839, -0.0686 0.9311 1.2732, -0.0687 0.9311 1.2748, -0.0692 0.9311 1.2771, -0.0701 0.9311 1.2789, -0.0715 0.9311 1.2665, -0.0707 0.9311 1.2674, -0.0695 0.9311 1.2691, -0.0689 0.9311 1.2709, -0.0791 0.9311 1.2639, -0.0758 0.9311 1.2643, -0.0735 0.9311 1.2651, -0.0901 0.9311 1.2685, -0.0888 0.9311 1.2672, -0.0859 0.9311 1.2653, -0.0829 0.9311 1.2643, -0.0944 0.9311 1.2801, -0.0944 0.9311 1.2794, -0.0937 0.9311 1.275, -0.0923 0.9311 1.2714, -0.0945 0.9311 1.2856
            ]
        }
        coordIndex [
            0,1,2,-1,2,1,3,-1,4,0,5,-1,5,0,2,-1,6,4,7,-1,7,4,5,-1,8,6,9,-1,9,6,7,-1,10,8,11,-1,11,8,9,-1,12,10,13,-1,13,10,11,-1,14,12,15,-1,15,12,13,-1,16,14,17,-1,17,14,15,-1,18,16,19,-1,19,16,17,-1,20,18,21,-1,21,18,19,-1,22,20,23,-1,23,20,21,-1,1,22,3,-1,3,22,23,-1,22,1,0,-1,0,4,22,-1,22,4,6,-1,22,6,20,-1,16,18,14,-1,14,18,20,-1,14,20,12,-1,12,20,6,-1,12,6,10,-1,10,6,8,-1,24,25,26,-1,26,25,27,-1,28,29,30,-1,31,32,33,-1,33,32,34,-1,35,36,27,-1,27,36,37,-1,37,38,27,-1,27,38,39,-1,27,39,26,-1,26,39,40,-1,26,40,31,-1,31,40,41,-1,31,41,32,-1,30,35,28,-1,28,35,27,-1,28,27,42,-1,42,27,43,-1,42,43,44,-1,44,43,45,-1,44,45,46,-1,46,45,47,-1,46,47,48,-1,48,47,49,-1,48,49,50,-1,50,49,51,-1,50,51,52,-1,52,51,53,-1,52,53,54,-1,54,53,55,-1,54,55,56,-1,56,55,57,-1,56,57,58,-1,58,57,59,-1,58,59,60,-1,60,59,61,-1,62,63,64,-1,64,63,65,-1,64,65,66,-1,66,65,67,-1,66,67,68,-1,68,67,69,-1,68,69,70,-1,70,69,71,-1,70,71,72,-1,72,71,73,-1,72,73,34,-1,34,73,74,-1,34,74,33,-1,75,76,77,-1,77,76,78,-1,77,78,79,-1,79,78,80,-1,79,80,81,-1,81,80,82,-1,81,82,62,-1,62,82,83,-1,62,83,63,-1,28,84,29,-1,29,84,85,-1,29,85,86,-1,86,85,87,-1,86,87,88,-1,88,87,89,-1,88,89,90,-1,90,89,91,-1,90,91,75,-1,75,91,92,-1,75,92,76,-1,55,93,94,-1,55,94,57,-1,57,94,95,-1,57,95,59,-1,59,95,96,-1,59,96,61,-1,60,61,97,-1,97,61,96,-1,60,97,98,-1,60,98,58,-1,58,98,99,-1,58,99,56,-1,56,99,100,-1,56,100,54,-1,54,100,101,-1,54,101,52,-1,52,101,102,-1,52,102,50,-1,50,102,103,-1,50,103,48,-1,48,103,104,-1,48,104,46,-1,46,104,105,-1,46,105,44,-1,44,105,106,-1,44,106,42,-1,42,106,107,-1,42,107,28,-1,84,28,108,-1,108,28,107,-1,84,108,109,-1,84,109,85,-1,85,109,110,-1,85,110,87,-1,87,110,111,-1,87,111,89,-1,89,111,112,-1,89,112,91,-1,91,112,113,-1,91,113,92,-1,92,113,114,-1,92,114,76,-1,76,114,115,-1,76,115,78,-1,78,115,116,-1,78,116,80,-1,80,116,117,-1,80,117,82,-1,82,117,118,-1,82,118,83,-1,83,118,119,-1,83,119,63,-1,63,119,120,-1,63,120,65,-1,65,120,121,-1,65,121,67,-1,67,121,122,-1,67,122,69,-1,69,122,123,-1,69,123,71,-1,71,123,124,-1,71,124,73,-1,73,124,125,-1,73,125,74,-1,74,125,126,-1,74,126,33,-1,33,126,127,-1,33,127,31,-1,26,31,128,-1,128,31,127,-1,24,26,129,-1,129,26,128,-1,25,24,130,-1,130,24,129,-1,27,25,131,-1,131,25,130,-1,27,131,132,-1,27,132,43,-1,43,132,133,-1,43,133,45,-1,45,133,134,-1,45,134,47,-1,47,134,135,-1,47,135,49,-1,49,135,136,-1,49,136,51,-1,51,136,137,-1,51,137,53,-1,53,137,93,-1,53,93,55,-1,86,138,139,-1,86,139,29,-1,29,139,140,-1,29,140,30,-1,30,140,141,-1,30,141,35,-1,77,142,143,-1,77,143,75,-1,75,143,144,-1,75,144,90,-1,90,144,145,-1,90,145,88,-1,88,145,138,-1,88,138,86,-1,64,146,147,-1,64,147,62,-1,62,147,148,-1,62,148,81,-1,81,148,149,-1,81,149,79,-1,79,149,142,-1,79,142,77,-1,70,150,151,-1,70,151,68,-1,68,151,152,-1,68,152,66,-1,66,152,146,-1,66,146,64,-1,41,153,154,-1,41,154,32,-1,32,154,155,-1,32,155,34,-1,34,155,156,-1,34,156,72,-1,72,156,150,-1,72,150,70,-1,37,157,158,-1,37,158,38,-1,38,158,159,-1,38,159,39,-1,39,159,160,-1,39,160,40,-1,40,160,153,-1,40,153,41,-1,37,36,157,-1,157,36,161,-1,36,35,161,-1,161,35,141,-1,
        ]
    }
}
Shape{
    appearance Appearance {
        material  Material 	{
            diffuseColor 0.2235294117647059 0.2235294117647059 0.2235294117647059
            specularColor 0.11372549019607843 0.11372549019607843 0.11372549019607843
            ambientIntensity 0.2235
            transparency 0.0
            shininess 0.5
        }
    }
    geometry IndexedFaceSet {
        ccw TRUE
        solid FALSE
        coord DEF co Coordinate {
            point [
                -0.0944 0.9311 1.2794, -0.0944 0.9311 1.2801, -0.0714 0.9311 1.2804, -0.0945 0.9311 1.2856, -0.0811 0.9311 1.2839, -0.0749 0.9311 1.2825, -0.0726 0.9311 1.2814, -0.0937 0.9311 1.275, -0.0701 0.9311 1.2789, -0.0923 0.9311 1.2714, -0.0707 0.9311 1.2674, -0.0715 0.9311 1.2665, -0.0888 0.9311 1.2672, -0.0695 0.9311 1.2691, -0.0859 0.9311 1.2653, -0.0829 0.9311 1.2643, -0.0791 0.9311 1.2639, -0.0692 0.9311 1.2771, -0.0687 0.9311 1.2748, -0.0901 0.9311 1.2685, -0.0686 0.9311 1.2732, -0.0689 0.9311 1.2709, -0.0735 0.9311 1.2651, -0.0758 0.9311 1.2643
            ]
        }
        coordIndex [
            0,1,2,-1,1,3,4,-1,4,5,1,-1,1,5,6,-1,1,6,2,-1,0,2,7,-1,7,2,8,-1,7,8,9,-1,10,11,12,-1,10,12,13,-1,14,12,15,-1,15,12,16,-1,8,17,9,-1,9,17,18,-1,9,18,19,-1,19,18,20,-1,19,20,12,-1,12,20,21,-1,12,21,13,-1,11,22,12,-1,12,22,23,-1,12,23,16,-1,
        ]
    }
}
Shape{
    appearance Appearance {
        material  Material 	{
            diffuseColor 1.0 1.0 1.0
            specularColor 0.5019607843137255 0.5019607843137255 0.5019607843137255
            ambientIntensity 1.0
            transparency 0.0
            shininess 0.5
        }
    }
    geometry IndexedFaceSet {
        ccw TRUE
        solid FALSE
        coord DEF co Coordinate {
            point [
                -0.118 0.9311 1.2691, -0.118 0.9311 1.2691, -0.1218 0.9311 1.2667, -0.1344 0.9311 1.2634, -0.1344 0.9311 1.2634, -0.1281 0.9311 1.2642, -0.1281 0.9311 1.2642, -0.123 0.9311 1.2662, -0.1218 0.9311 1.2667, -0.1179 0.9311 1.2587, -0.1179 0.9311 1.2587, -0.1242 0.9311 1.2564, -0.123 0.9311 1.2568, -0.1242 0.9311 1.2564, -0.1332 0.9311 1.2553, -0.1334 0.9311 1.2553, -0.1334 0.9311 1.2553, -0.1337 0.9311 1.2553, -0.1412 0.9311 1.256, -0.1412 0.9311 1.256, -0.1468 0.9311 1.2578, -0.1468 0.9311 1.2578, -0.1501 0.9311 1.2597, -0.1501 0.9311 1.2597, -0.153 0.9311 1.2622, -0.153 0.9311 1.2622, -0.1549 0.9311 1.2648, -0.1549 0.9311 1.2648, -0.1561 0.9311 1.268, -0.1561 0.9311 1.268, -0.1566 0.9311 1.272, -0.1566 0.9311 1.272, -0.1562 0.9311 1.2757, -0.1562 0.9311 1.2757, -0.1552 0.9311 1.2787, -0.1552 0.9311 1.2787, -0.1533 0.9311 1.2815, -0.1533 0.9311 1.2815, -0.151 0.9311 1.2836, -0.151 0.9311 1.2836, -0.1443 0.9311 1.2874, -0.1443 0.9311 1.2874, -0.1405 0.9311 1.289, -0.1405 0.9311 1.289, -0.1343 0.9311 1.2917, -0.1343 0.9311 1.2917, -0.1307 0.9311 1.294, -0.1307 0.9311 1.294, -0.1298 0.9311 1.295, -0.1298 0.9311 1.295, -0.1291 0.9311 1.2964, -0.1291 0.9311 1.2964, -0.1287 0.9311 1.298, -0.1287 0.9311 1.298, -0.1286 0.9311 1.2993, -0.1286 0.9311 1.2993, -0.1288 0.9311 1.3009, -0.1288 0.9311 1.3009, -0.1293 0.9311 1.3022, -0.1293 0.9311 1.3022, -0.1302 0.9311 1.3035, -0.1302 0.9311 1.3035, -0.1317 0.9311 1.3048, -0.1317 0.9311 1.3048, -0.1339 0.9311 1.306, -0.1339 0.9311 1.306, -0.1366 0.9311 1.3067, -0.1366 0.9311 1.3067, -0.1396 0.9311 1.3069, -0.1396 0.9311 1.3069, -0.1462 0.9311 1.3061, -0.1462 0.9311 1.3061, -0.1519 0.9311 1.304, -0.1519 0.9311 1.304, -0.1541 0.9311 1.3027, -0.1541 0.9311 1.3027, -0.1542 0.9311 1.3124, -0.1542 0.9311 1.3124, -0.1475 0.9311 1.3144, -0.1475 0.9311 1.3144, -0.1406 0.9311 1.3151, -0.1406 0.9311 1.3151, -0.1334 0.9311 1.3143, -0.1334 0.9311 1.3143, -0.1279 0.9311 1.3124, -0.1279 0.9311 1.3124, -0.1248 0.9311 1.3106, -0.1248 0.9311 1.3106, -0.1218 0.9311 1.308, -0.123 0.9311 1.309, -0.1218 0.9311 1.308, -0.1199 0.9311 1.3053, -0.1199 0.9311 1.3053, -0.1187 0.9311 1.3021, -0.1187 0.9311 1.3021, -0.1183 0.9311 1.2985, -0.1183 0.9311 1.2985, -0.1187 0.9311 1.2946, -0.1187 0.9311 1.2946, -0.1197 0.9311 1.2915, -0.1197 0.9311 1.2915, -0.121 0.9311 1.2894, -0.121 0.9311 1.2894, -0.1333 0.9311 1.2817, -0.1333 0.9311 1.2817, -0.1274 0.9311 1.2845, -0.1227 0.9311 1.2877, -0.1227 0.9311 1.2877, -0.123 0.9311 1.2875, -0.1274 0.9311 1.2845, -0.1399 0.9311 1.2789, -0.1399 0.9311 1.2789, -0.1438 0.9311 1.2765, -0.1438 0.9311 1.2765, -0.145 0.9311 1.2752, -0.145 0.9311 1.2752, -0.1458 0.9311 1.2739, -0.1458 0.9311 1.2739, -0.1462 0.9311 1.2723, -0.1462 0.9311 1.2723, -0.1463 0.9311 1.2711, -0.1463 0.9311 1.2711, -0.1461 0.9311 1.2692, -0.1461 0.9311 1.2692, -0.1456 0.9311 1.2678, -0.1456 0.9311 1.2678, -0.1447 0.9311 1.2665, -0.1447 0.9311 1.2665, -0.1435 0.9311 1.2654, -0.1435 0.9311 1.2654, -0.1426 0.9311 1.2649, -0.1426 0.9311 1.2649, -0.14 0.9311 1.264, -0.14 0.9311 1.264, -0.1349 0.9311 1.2634, -0.1349 0.9311 1.2634, -0.2066 0.9311 1.3133, -0.217 0.9311 1.3132, -0.2066 0.9311 1.3133, -0.217 0.9311 1.3132, -0.1907 0.9311 1.2703, -0.1907 0.9311 1.2703, -0.1899 0.9311 1.2677, -0.1899 0.9311 1.2677, -0.1895 0.9311 1.2657, -0.1895 0.9311 1.2657, -0.1892 0.9311 1.2657, -0.1892 0.9311 1.2657, -0.188 0.9311 1.2704, -0.188 0.9311 1.2704, -0.1734 0.9311 1.3135, -0.1734 0.9311 1.3135, -0.1787 0.9311 1.2977, -0.1621 0.9311 1.3136, -0.1621 0.9311 1.3136, -0.1842 0.9311 1.2564, -0.1842 0.9311 1.2564, -0.1787 0.9311 1.2705, -0.1797 0.9311 1.246, -0.1797 0.9311 1.246, -0.1837 0.9311 1.2553, -0.1787 0.9311 1.2443, -0.1777 0.9311 1.2424, -0.1777 0.9311 1.2424, -0.1773 0.9311 1.242, -0.1758 0.9311 1.2403, -0.1758 0.9311 1.2403, -0.174 0.9311 1.2391, -0.174 0.9311 1.2391, -0.1718 0.9311 1.2383, -0.1718 0.9311 1.2383, -0.1694 0.9311 1.238, -0.1694 0.9311 1.238, -0.1657 0.9311 1.2385, -0.1657 0.9311 1.2385, -0.1637 0.9311 1.2392, -0.1637 0.9311 1.2392, -0.1636 0.9311 1.2303, -0.1636 0.9311 1.2303, -0.1679 0.9311 1.2295, -0.1679 0.9311 1.2295, -0.1701 0.9311 1.2294, -0.1701 0.9311 1.2294, -0.1741 0.9311 1.2298, -0.1741 0.9311 1.2298, -0.1781 0.9311 1.2313, -0.1781 0.9311 1.2313, -0.1787 0.9311 1.2318, -0.1816 0.9311 1.2337, -0.1906 0.9311 1.2476, -0.1906 0.9311 1.2476, -0.1877 0.9311 1.242, -0.186 0.9311 1.2388, -0.186 0.9311 1.2388, -0.1823 0.9311 1.2344, -0.1823 0.9311 1.2344, -0.1816 0.9311 1.2337, -0.1937 0.9311 1.2553, -0.2706 0.9311 1.2648, -0.2705 0.9311 1.2556, -0.2706 0.9311 1.2648, -0.2705 0.9311 1.2556, -0.2378 0.9311 1.265, -0.2378 0.9311 1.265, -0.2538 0.9311 1.2649, -0.238 0.9311 1.2919, -0.238 0.9311 1.2919, -0.2667 0.9311 1.2917, -0.2667 0.9311 1.2917, -0.2538 0.9311 1.2918, -0.2667 0.9311 1.3009, -0.2667 0.9311 1.3009, -0.2381 0.9311 1.3011, -0.2381 0.9311 1.3011, -0.2538 0.9311 1.301, -0.2383 0.9311 1.3267, -0.2383 0.9311 1.3267, -0.2692 0.9311 1.3265, -0.2692 0.9311 1.3265, -0.2538 0.9311 1.3266, -0.2692 0.9311 1.3357, -0.2692 0.9311 1.3357, -0.228 0.9311 1.336, -0.228 0.9311 1.336, -0.2538 0.9311 1.3358, -0.2274 0.9311 1.2559, -0.2274 0.9311 1.2559, -0.2538 0.9311 1.2558, -0.3355 0.9311 1.2775, -0.3315 0.9311 1.2727, -0.3388 0.9311 1.2664, -0.3305 0.9311 1.2718, -0.3304 0.9311 1.2604, -0.3253 0.9311 1.2682, -0.3212 0.9311 1.2569, -0.3187 0.9311 1.2657, -0.3076 0.9311 1.2554, -0.3076 0.9311 1.2645, -0.2856 0.9311 1.2555, -0.296 0.9311 1.2646, -0.2862 0.9311 1.3356, -0.2965 0.9311 1.3263, -0.309 0.9311 1.3354, -0.3086 0.9311 1.3262, -0.3212 0.9311 1.334, -0.3194 0.9311 1.3249, -0.3309 0.9311 1.3304, -0.3262 0.9311 1.3222, -0.3392 0.9311 1.3246, -0.3316 0.9311 1.3185, -0.3421 0.9311 1.3218, -0.3339 0.9311 1.3163, -0.347 0.9311 1.3148, -0.3369 0.9311 1.3118, -0.3499 0.9311 1.3071, -0.3391 0.9311 1.3059, -0.3511 0.9311 1.2961, -0.3402 0.9311 1.2959, -0.3508 0.9311 1.291, -0.3399 0.9311 1.2907, -0.3488 0.9311 1.2817, -0.3383 0.9311 1.2834, -0.3448 0.9311 1.2734, -0.3076 0.9311 1.2554, -0.2856 0.9311 1.2555, -0.3212 0.9311 1.2569, -0.3304 0.9311 1.2604, -0.3388 0.9311 1.2664, -0.3448 0.9311 1.2734, -0.3488 0.9311 1.2817, -0.3508 0.9311 1.291, -0.3511 0.9311 1.2961, -0.3499 0.9311 1.3071, -0.347 0.9311 1.3148, -0.3421 0.9311 1.3218, -0.3392 0.9311 1.3246, -0.3309 0.9311 1.3304, -0.3212 0.9311 1.334, -0.309 0.9311 1.3354, -0.2862 0.9311 1.3356, -0.3086 0.9311 1.3262, -0.2965 0.9311 1.3263, -0.296 0.9311 1.2646, -0.3076 0.9311 1.2645, -0.3315 0.9311 1.2727, -0.3305 0.9311 1.2718, -0.3253 0.9311 1.2682, -0.3187 0.9311 1.2657, -0.3402 0.9311 1.2959, -0.3399 0.9311 1.2907, -0.3383 0.9311 1.2834, -0.3355 0.9311 1.2775, -0.3316 0.9311 1.3185, -0.3339 0.9311 1.3163, -0.3369 0.9311 1.3118, -0.3391 0.9311 1.3059, -0.3194 0.9311 1.3249, -0.3262 0.9311 1.3222
            ]
        }
        coordIndex [
            0,1,2,-1,3,4,5,-1,3,5,6,-1,6,5,7,-1,6,7,2,-1,2,7,8,-1,2,8,0,-1,9,1,10,-1,10,1,0,-1,11,9,12,-1,12,9,10,-1,12,13,11,-1,11,13,14,-1,11,14,15,-1,15,14,16,-1,15,16,17,-1,15,17,18,-1,17,19,18,-1,18,19,20,-1,18,20,21,-1,21,20,22,-1,21,22,23,-1,23,22,24,-1,23,24,25,-1,25,24,26,-1,25,26,27,-1,27,26,28,-1,27,28,29,-1,29,28,30,-1,29,30,31,-1,31,30,32,-1,31,32,33,-1,33,32,34,-1,33,34,35,-1,35,34,36,-1,35,36,37,-1,37,36,38,-1,37,38,39,-1,39,38,40,-1,39,40,41,-1,41,40,42,-1,41,42,43,-1,43,42,44,-1,43,44,45,-1,45,44,46,-1,45,46,47,-1,47,46,48,-1,47,48,49,-1,49,48,50,-1,49,50,51,-1,51,50,52,-1,51,52,53,-1,53,52,54,-1,53,54,55,-1,55,54,56,-1,55,56,57,-1,57,56,58,-1,57,58,59,-1,59,58,60,-1,59,60,61,-1,61,60,62,-1,61,62,63,-1,63,62,64,-1,63,64,65,-1,65,64,66,-1,65,66,67,-1,67,66,68,-1,67,68,69,-1,69,68,70,-1,69,70,71,-1,71,70,72,-1,71,72,73,-1,73,72,74,-1,73,74,75,-1,76,75,77,-1,77,75,74,-1,76,77,78,-1,76,78,79,-1,79,78,80,-1,79,80,81,-1,81,80,82,-1,81,82,83,-1,83,82,84,-1,83,84,85,-1,85,84,86,-1,85,86,87,-1,88,87,89,-1,89,87,86,-1,89,90,88,-1,88,90,91,-1,88,91,92,-1,92,91,93,-1,92,93,94,-1,94,93,95,-1,94,95,96,-1,96,95,97,-1,96,97,98,-1,98,97,99,-1,98,99,100,-1,100,99,101,-1,100,101,102,-1,103,104,105,-1,102,101,106,-1,102,106,107,-1,107,106,108,-1,107,108,105,-1,105,108,109,-1,105,109,103,-1,104,103,110,-1,104,110,111,-1,111,110,112,-1,111,112,113,-1,113,112,114,-1,113,114,115,-1,115,114,116,-1,115,116,117,-1,117,116,118,-1,117,118,119,-1,119,118,120,-1,119,120,121,-1,121,120,122,-1,121,122,123,-1,123,122,124,-1,123,124,125,-1,125,124,126,-1,125,126,127,-1,127,126,128,-1,127,128,129,-1,129,128,130,-1,129,130,131,-1,131,130,132,-1,131,132,133,-1,133,132,134,-1,133,134,135,-1,135,134,4,-1,135,4,3,-1,61,63,85,-1,85,63,83,-1,45,104,43,-1,43,104,111,-1,43,111,41,-1,15,3,11,-1,11,3,6,-1,11,6,9,-1,9,6,2,-1,9,2,1,-1,63,65,83,-1,83,65,67,-1,83,67,81,-1,81,67,69,-1,81,69,79,-1,79,69,71,-1,79,71,76,-1,76,71,73,-1,76,73,75,-1,41,111,39,-1,39,111,113,-1,39,113,37,-1,37,113,115,-1,37,115,35,-1,35,115,117,-1,35,117,33,-1,33,117,119,-1,33,119,31,-1,31,119,121,-1,31,121,29,-1,29,121,123,-1,29,123,27,-1,27,123,125,-1,27,125,25,-1,25,125,127,-1,25,127,23,-1,23,127,129,-1,23,129,21,-1,21,129,131,-1,21,131,18,-1,18,131,133,-1,18,133,15,-1,15,133,135,-1,15,135,3,-1,85,87,61,-1,61,87,88,-1,61,88,59,-1,59,88,92,-1,59,92,57,-1,57,92,94,-1,57,94,55,-1,55,94,96,-1,55,96,53,-1,53,96,98,-1,53,98,51,-1,51,98,100,-1,51,100,49,-1,49,100,102,-1,49,102,47,-1,47,102,107,-1,47,107,45,-1,45,107,105,-1,45,105,104,-1,136,137,138,-1,138,137,139,-1,140,136,141,-1,141,136,138,-1,140,141,142,-1,140,142,143,-1,143,142,144,-1,143,144,145,-1,146,145,147,-1,147,145,144,-1,148,146,149,-1,149,146,147,-1,150,151,152,-1,152,151,148,-1,152,148,149,-1,153,151,154,-1,154,151,150,-1,155,156,157,-1,157,156,153,-1,157,153,154,-1,158,159,160,-1,160,159,156,-1,160,156,155,-1,159,158,161,-1,159,161,162,-1,161,163,162,-1,162,163,164,-1,162,164,165,-1,164,166,165,-1,165,166,167,-1,165,167,168,-1,168,167,169,-1,168,169,170,-1,170,169,171,-1,170,171,172,-1,172,171,173,-1,172,173,174,-1,174,173,175,-1,174,175,176,-1,177,176,178,-1,178,176,175,-1,177,178,179,-1,177,179,180,-1,180,179,181,-1,180,181,182,-1,182,181,183,-1,182,183,184,-1,184,183,185,-1,184,185,186,-1,186,185,187,-1,186,187,188,-1,189,190,191,-1,191,190,192,-1,191,192,193,-1,193,192,194,-1,193,194,195,-1,195,194,188,-1,195,188,196,-1,196,188,187,-1,139,137,197,-1,197,137,190,-1,197,190,189,-1,143,145,190,-1,137,136,190,-1,190,136,140,-1,190,140,143,-1,151,153,148,-1,148,153,156,-1,148,156,146,-1,176,177,174,-1,174,177,180,-1,174,180,172,-1,172,180,182,-1,172,182,170,-1,170,182,184,-1,170,184,168,-1,168,184,186,-1,168,186,165,-1,145,146,190,-1,190,146,156,-1,190,156,192,-1,156,159,192,-1,192,159,162,-1,192,162,194,-1,194,162,165,-1,194,165,188,-1,188,165,186,-1,198,199,200,-1,200,199,201,-1,202,203,204,-1,204,203,198,-1,204,198,200,-1,205,203,206,-1,206,203,202,-1,207,208,209,-1,209,208,205,-1,209,205,206,-1,210,208,211,-1,211,208,207,-1,212,213,214,-1,214,213,210,-1,214,210,211,-1,215,213,216,-1,216,213,212,-1,217,218,219,-1,219,218,215,-1,219,215,216,-1,220,218,221,-1,221,218,217,-1,222,223,224,-1,224,223,220,-1,224,220,221,-1,225,223,226,-1,226,223,222,-1,201,199,227,-1,227,199,225,-1,227,225,226,-1,225,199,198,-1,198,203,225,-1,225,203,205,-1,225,205,223,-1,218,220,215,-1,215,220,223,-1,215,223,213,-1,213,223,205,-1,213,205,210,-1,210,205,208,-1,228,229,230,-1,230,229,231,-1,230,231,232,-1,232,231,233,-1,232,233,234,-1,234,233,235,-1,234,235,236,-1,236,235,237,-1,236,237,238,-1,238,237,239,-1,238,239,240,-1,240,239,241,-1,240,241,242,-1,242,241,243,-1,242,243,244,-1,244,243,245,-1,244,245,246,-1,246,245,247,-1,246,247,248,-1,248,247,249,-1,248,249,250,-1,250,249,251,-1,250,251,252,-1,252,251,253,-1,252,253,254,-1,254,253,255,-1,254,255,256,-1,256,255,257,-1,256,257,258,-1,258,257,259,-1,258,259,260,-1,260,259,261,-1,260,261,262,-1,262,261,228,-1,262,228,230,-1,236,238,263,-1,263,238,264,-1,236,263,265,-1,236,265,234,-1,234,265,266,-1,234,266,232,-1,232,266,267,-1,232,267,230,-1,230,267,268,-1,230,268,262,-1,262,268,269,-1,262,269,260,-1,260,269,270,-1,260,270,258,-1,258,270,271,-1,258,271,256,-1,256,271,272,-1,256,272,254,-1,254,272,273,-1,254,273,252,-1,252,273,274,-1,252,274,250,-1,250,274,275,-1,250,275,248,-1,248,275,276,-1,248,276,246,-1,246,276,277,-1,246,277,244,-1,244,277,278,-1,244,278,242,-1,240,242,279,-1,279,242,278,-1,238,240,264,-1,264,240,279,-1,243,241,280,-1,280,241,281,-1,241,239,281,-1,281,239,282,-1,239,237,282,-1,282,237,283,-1,229,284,285,-1,229,285,231,-1,231,285,286,-1,231,286,233,-1,233,286,287,-1,233,287,235,-1,235,287,283,-1,235,283,237,-1,257,288,289,-1,257,289,259,-1,259,289,290,-1,259,290,261,-1,261,290,291,-1,261,291,228,-1,228,291,284,-1,228,284,229,-1,249,292,293,-1,249,293,251,-1,251,293,294,-1,251,294,253,-1,253,294,295,-1,253,295,255,-1,255,295,288,-1,255,288,257,-1,243,280,296,-1,243,296,245,-1,245,296,297,-1,245,297,247,-1,247,297,292,-1,247,292,249,-1,
        ]
    }
}
Shape{
    appearance Appearance {
        material  Material 	{
            diffuseColor 0.2235294117647059 0.2235294117647059 0.2235294117647059
            specularColor 0.11372549019607843 0.11372549019607843 0.11372549019607843
            ambientIntensity 0.2235
            transparency 0.0
            shininess 0.5
        }
    }
    geometry IndexedFaceSet {
        ccw TRUE
        solid FALSE
        coord DEF co Coordinate {
            point [
                -0.2965 0.9311 1.3263, -0.296 0.9311 1.2646, -0.3086 0.9311 1.3262, -0.3076 0.9311 1.2645, -0.3187 0.9311 1.2657, -0.3253 0.9311 1.2682, -0.3305 0.9311 1.2718, -0.3315 0.9311 1.2727, -0.3355 0.9311 1.2775, -0.3383 0.9311 1.2834, -0.3402 0.9311 1.2959, -0.3316 0.9311 1.3185, -0.3262 0.9311 1.3222, -0.3391 0.9311 1.3059, -0.3369 0.9311 1.3118, -0.3339 0.9311 1.3163, -0.3399 0.9311 1.2907, -0.3194 0.9311 1.3249
            ]
        }
        coordIndex [
            0,1,2,-1,2,1,3,-1,3,4,2,-1,2,4,5,-1,2,5,6,-1,6,7,2,-1,2,7,8,-1,2,8,9,-1,10,11,12,-1,13,14,10,-1,10,14,15,-1,10,15,11,-1,9,16,2,-1,2,16,10,-1,2,10,17,-1,17,10,12,-1,
        ]
    }
}
Shape{
    appearance Appearance {
        material  Material 	{
            diffuseColor 1.0 1.0 1.0
            specularColor 0.5019607843137255 0.5019607843137255 0.5019607843137255
            ambientIntensity 1.0
            transparency 0.0
            shininess 0.5
        }
    }
    geometry IndexedFaceSet {
        ccw TRUE
        solid FALSE
        coord DEF co Coordinate {
            point [
                -0.3779 0.9311 1.2858, -0.3901 0.9311 1.319, -0.3863 0.9311 1.3349, -0.3553 0.9311 1.255, -0.3667 0.9311 1.2549, -0.3745 0.9311 1.2768, -0.3908 0.9311 1.3214, -0.3914 0.9311 1.3246, -0.3974 0.9311 1.3348, -0.3917 0.9311 1.3246, -0.3923 0.9311 1.3212, -0.3929 0.9311 1.319, -0.4047 0.9311 1.2856, -0.4273 0.9311 1.2545, -0.4159 0.9311 1.2546, -0.4079 0.9311 1.2766, -0.3974 0.9311 1.3348, -0.427 0.9311 1.2553, -0.4273 0.9311 1.2545, -0.3863 0.9311 1.3349, -0.3553 0.9311 1.255, -0.3553 0.9311 1.2553, -0.3667 0.9311 1.2549, -0.3745 0.9311 1.2768, -0.3668 0.9311 1.2553, -0.4079 0.9311 1.2766, -0.4159 0.9311 1.2546, -0.4156 0.9311 1.2553, -0.3779 0.9311 1.2858, -0.4047 0.9311 1.2856, -0.3929 0.9311 1.319, -0.3917 0.9311 1.3246, -0.3923 0.9311 1.3212, -0.3914 0.9311 1.3246, -0.3901 0.9311 1.319, -0.3908 0.9311 1.3214
            ]
        }
        coordIndex [
            0,1,2,-1,3,4,5,-1,1,6,2,-1,2,6,7,-1,2,7,8,-1,8,7,9,-1,8,9,10,-1,10,11,8,-1,8,11,12,-1,8,12,13,-1,14,13,15,-1,15,13,12,-1,15,12,5,-1,5,12,0,-1,5,0,3,-1,3,0,2,-1,16,8,17,-1,17,8,13,-1,17,13,18,-1,2,8,19,-1,19,8,16,-1,20,3,21,-1,21,3,2,-1,21,2,19,-1,4,3,22,-1,22,3,20,-1,23,5,24,-1,24,5,4,-1,24,4,22,-1,15,5,25,-1,25,5,23,-1,26,14,27,-1,27,14,15,-1,27,15,25,-1,13,14,18,-1,18,14,26,-1,0,12,28,-1,28,12,29,-1,12,11,29,-1,29,11,30,-1,9,31,32,-1,9,32,10,-1,10,32,30,-1,10,30,11,-1,9,7,31,-1,31,7,33,-1,1,34,35,-1,1,35,6,-1,6,35,33,-1,6,33,7,-1,1,0,34,-1,34,0,28,-1,
        ]
    }
}
Shape{
    appearance Appearance {
        material  Material 	{
            diffuseColor 0.2235294117647059 0.2235294117647059 0.2235294117647059
            specularColor 0.11372549019607843 0.11372549019607843 0.11372549019607843
            ambientIntensity 0.2235
            transparency 0.0
            shininess 0.5
        }
    }
    geometry IndexedFaceSet {
        ccw TRUE
        solid FALSE
        coord DEF co Coordinate {
            point [
                -0.3917 0.9311 1.3246, -0.3914 0.9311 1.3246, -0.3923 0.9311 1.3212, -0.3908 0.9311 1.3214, -0.3929 0.9311 1.319, -0.3901 0.9311 1.319, -0.4047 0.9311 1.2856, -0.3779 0.9311 1.2858
            ]
        }
        coordIndex [
            0,1,2,-1,2,1,3,-1,2,3,4,-1,4,3,5,-1,4,5,6,-1,6,5,7,-1,
        ]
    }
}
Shape{
    appearance Appearance {
        material  Material 	{
            diffuseColor 1.0 1.0 1.0
            specularColor 0.5019607843137255 0.5019607843137255 0.5019607843137255
            ambientIntensity 1.0
            transparency 0.0
            shininess 0.5
        }
    }
    geometry IndexedFaceSet {
        ccw TRUE
        solid FALSE
        coord DEF co Coordinate {
            point [
                0.348 0.9311 1.2487, 0.3396 0.9311 1.2382, 0.3528 0.9311 1.2991, 0.1624 0.9311 1.3256, 0.1799 0.9311 1.3559, 0.2564 0.9311 1.3166, 0.2957 0.9311 1.3, 0.2903 0.9311 1.2982, 0.362 0.9311 1.398, 0.3492 0.9311 1.4047, 0.352 0.9311 1.4397, 0.3165 0.9311 1.4411, 0.2991 0.9311 1.3994, 0.2903 0.9311 1.4174, 0.3651 0.9311 1.3068, 0.3608 0.9311 1.2631, 0.3536 0.9311 1.2609, 0.3296 0.9311 1.4424, 0.2857 0.9311 1.2952, 0.282 0.9311 1.2911, 0.2424 0.9311 1.284, 0.2794 0.9311 1.2865, 0.278 0.9311 1.2813, 0.2425 0.9311 1.2783, 0.2779 0.9311 1.2758, 0.2428 0.9311 1.2724, 0.3054 0.9311 1.2997, 0.3126 0.9311 1.3347, 0.3104 0.9311 1.2978, 0.3252 0.9311 1.3299, 0.3149 0.9311 1.2947, 0.3369 0.9311 1.3219, 0.3171 0.9311 1.2923, 0.3464 0.9311 1.3112, 0.3201 0.9311 1.2876, 0.3218 0.9311 1.2823, 0.3221 0.9311 1.2767, 0.2784 0.9311 1.3323, 0.2921 0.9311 1.3358, 0.299 0.9311 1.3362, 0.1433 0.9311 1.3818, 0.1387 0.9311 1.3818, 0.1151 0.9311 1.4124, 0.1279 0.9311 1.3804, 0.1124 0.9311 1.4114, 0.118 0.9311 1.3765, 0.0955 0.9311 1.4029, 0.0801 0.9311 1.3897, 0.3047 0.9311 1.4546, 0.2774 0.9311 1.4326, 0.2912 0.9311 1.466, 0.2621 0.9311 1.4436, 0.2758 0.9311 1.4753, 0.3352 0.9311 1.4079, 0.3292 0.9311 1.4082, 0.323 0.9311 1.442, 0.3159 0.9311 1.4064, 0.3032 0.9311 1.4017, 0.0808 0.9311 1.2835, 0.1071 0.9311 1.3063, 0.0963 0.9311 1.2705, 0.1156 0.9311 1.2994, 0.1138 0.9311 1.2621, 0.1257 0.9311 1.2949, 0.1327 0.9311 1.2582, 0.1359 0.9311 1.293, 0.1663 0.9311 1.2585, 0.1615 0.9311 1.2931, 0.1695 0.9311 1.259, 0.2998 0.9311 1.3004, 0.2663 0.9311 1.3257, 0.1092 0.9311 1.3703, 0.1027 0.9311 1.3629, 0.0686 0.9311 1.3734, 0.0975 0.9311 1.353, 0.0618 0.9311 1.356, 0.0949 0.9311 1.3421, 0.0593 0.9311 1.3374, 0.0946 0.9311 1.3371, 0.0621 0.9311 1.3171, 0.0961 0.9311 1.326, 0.0694 0.9311 1.2991, 0.1001 0.9311 1.3159, 0.1064 0.9311 1.307, 0.1456 0.9311 1.4576, 0.168 0.9311 1.4316, 0.1265 0.9311 1.435, 0.1553 0.9311 1.4161, 0.1466 0.9311 1.3977, 0.3848 0.9311 1.3654, 0.4222 0.9311 1.3563, 0.3866 0.9311 1.3517, 0.4224 0.9311 1.3508, 0.3859 0.9311 1.3429, 0.4198 0.9311 1.3285, 0.382 0.9311 1.3289, 0.4118 0.9311 1.3072, 0.3753 0.9311 1.3173, 0.399 0.9311 1.2886, 0.3813 0.9311 1.2733, 0.3211 0.9311 1.2714, 0.3189 0.9311 1.2666, 0.2494 0.9311 1.4848, 0.2434 0.9311 1.451, 0.2228 0.9311 1.4877, 0.2225 0.9311 1.4536, 0.1967 0.9311 1.4845, 0.2032 0.9311 1.451, 0.1685 0.9311 1.4736, 0.1854 0.9311 1.4441, 0.1694 0.9311 1.4329, 0.3732 0.9311 1.4317, 0.3913 0.9311 1.4191, 0.3718 0.9311 1.3894, 0.3952 0.9311 1.4155, 0.3798 0.9311 1.3781, 0.409 0.9311 1.3981, 0.4183 0.9311 1.3776, 0.2463 0.9311 1.2584, 0.2792 0.9311 1.2703, 0.2531 0.9311 1.2457, 0.2819 0.9311 1.2654, 0.2619 0.9311 1.236, 0.2852 0.9311 1.2616, 0.2733 0.9311 1.2282, 0.2896 0.9311 1.2586, 0.286 0.9311 1.2234, 0.2945 0.9311 1.2567, 0.2998 0.9311 1.2218, 0.3001 0.9311 1.256, 0.302 0.9311 1.2219, 0.3011 0.9311 1.256, 0.3154 0.9311 1.2241, 0.3062 0.9311 1.2569, 0.3285 0.9311 1.2297, 0.3113 0.9311 1.2591, 0.3157 0.9311 1.2625, 0.1644 0.9311 1.2937, 0.1783 0.9311 1.2645, 0.177 0.9311 1.2632, 0.1627 0.9311 1.2933, 0.1733 0.9311 1.2605, 0.1827 0.9311 1.2762, 0.1822 0.9311 1.272, 0.1807 0.9311 1.2681, 0.1694 0.9311 1.2932, 0.1733 0.9311 1.2917, 0.1826 0.9311 1.2785, 0.1768 0.9311 1.2892, 0.1792 0.9311 1.2867, 0.1814 0.9311 1.2828, 0.1649 0.9311 1.2937, 0.0593 0.9311 1.3374, 0.0618 0.9311 1.356, 0.0633 0.9311 1.3599, 0.0686 0.9311 1.3734, 0.0753 0.9311 1.3828, 0.0801 0.9311 1.3897, 0.0955 0.9311 1.4029, 0.1124 0.9311 1.4114, 0.1151 0.9311 1.4124, 0.1265 0.9311 1.435, 0.1456 0.9311 1.4576, 0.155 0.9311 1.4642, 0.1685 0.9311 1.4736, 0.1967 0.9311 1.4845, 0.2228 0.9311 1.4877, 0.2494 0.9311 1.4848, 0.2758 0.9311 1.4753, 0.2912 0.9311 1.466, 0.3165 0.9311 1.4411, 0.2934 0.9311 1.4642, 0.3047 0.9311 1.4546, 0.323 0.9311 1.442, 0.3296 0.9311 1.4424, 0.352 0.9311 1.4397, 0.3732 0.9311 1.4317, 0.3913 0.9311 1.4191, 0.3952 0.9311 1.4155, 0.4224 0.9311 1.3508, 0.409 0.9311 1.3981, 0.4159 0.9311 1.3828, 0.4183 0.9311 1.3776, 0.4216 0.9311 1.3599, 0.4222 0.9311 1.3563, 0.4198 0.9311 1.3285, 0.4118 0.9311 1.3072, 0.399 0.9311 1.2886, 0.3813 0.9311 1.2733, 0.3608 0.9311 1.2631, 0.3536 0.9311 1.2609, 0.351 0.9311 1.2553, 0.3426 0.9311 1.242, 0.348 0.9311 1.2487, 0.3396 0.9311 1.2382, 0.3285 0.9311 1.2297, 0.3154 0.9311 1.2241, 0.302 0.9311 1.2219, 0.2998 0.9311 1.2218, 0.286 0.9311 1.2234, 0.2479 0.9311 1.2553, 0.2733 0.9311 1.2282, 0.2619 0.9311 1.236, 0.2565 0.9311 1.242, 0.2531 0.9311 1.2457, 0.2463 0.9311 1.2584, 0.2428 0.9311 1.2724, 0.2425 0.9311 1.2783, 0.2424 0.9311 1.284, 0.1624 0.9311 1.3256, 0.1799 0.9311 1.3559, 0.2564 0.9311 1.3166, 0.2663 0.9311 1.3257, 0.2784 0.9311 1.3323, 0.2921 0.9311 1.3358, 0.299 0.9311 1.3362, 0.3126 0.9311 1.3347, 0.3252 0.9311 1.3299, 0.3369 0.9311 1.3219, 0.3464 0.9311 1.3112, 0.3528 0.9311 1.2991, 0.3651 0.9311 1.3068, 0.3753 0.9311 1.3173, 0.382 0.9311 1.3289, 0.3859 0.9311 1.3429, 0.3866 0.9311 1.3517, 0.3855 0.9311 1.3599, 0.3848 0.9311 1.3654, 0.3798 0.9311 1.3781, 0.3765 0.9311 1.3828, 0.3718 0.9311 1.3894, 0.362 0.9311 1.398, 0.3492 0.9311 1.4047, 0.3352 0.9311 1.4079, 0.3292 0.9311 1.4082, 0.3159 0.9311 1.4064, 0.3032 0.9311 1.4017, 0.2991 0.9311 1.3994, 0.2903 0.9311 1.4174, 0.2774 0.9311 1.4326, 0.2621 0.9311 1.4436, 0.2434 0.9311 1.451, 0.2225 0.9311 1.4536, 0.1433 0.9311 1.3818, 0.1435 0.9311 1.3828, 0.1466 0.9311 1.3977, 0.1553 0.9311 1.4161, 0.168 0.9311 1.4316, 0.1694 0.9311 1.4329, 0.1854 0.9311 1.4441, 0.2032 0.9311 1.451, 0.1387 0.9311 1.3818, 0.1279 0.9311 1.3804, 0.118 0.9311 1.3765, 0.1092 0.9311 1.3703, 0.1027 0.9311 1.3629, 0.1011 0.9311 1.3599, 0.0975 0.9311 1.353, 0.0949 0.9311 1.3421, 0.0946 0.9311 1.3371, 0.0961 0.9311 1.326, 0.1001 0.9311 1.3159, 0.1064 0.9311 1.307, 0.1071 0.9311 1.3063, 0.1156 0.9311 1.2994, 0.1257 0.9311 1.2949, 0.1359 0.9311 1.293, 0.1615 0.9311 1.2931, 0.1627 0.9311 1.2933, 0.1644 0.9311 1.2937, 0.1649 0.9311 1.2937, 0.1694 0.9311 1.2932, 0.1733 0.9311 1.2917, 0.1768 0.9311 1.2892, 0.1792 0.9311 1.2867, 0.1814 0.9311 1.2828, 0.1826 0.9311 1.2785, 0.1827 0.9311 1.2762, 0.1822 0.9311 1.272, 0.1807 0.9311 1.2681, 0.1783 0.9311 1.2645, 0.177 0.9311 1.2632, 0.1733 0.9311 1.2605, 0.1695 0.9311 1.259, 0.1663 0.9311 1.2585, 0.1327 0.9311 1.2582, 0.1138 0.9311 1.2621, 0.0963 0.9311 1.2705, 0.0808 0.9311 1.2835, 0.0694 0.9311 1.2991, 0.0621 0.9311 1.3171, 0.2998 0.9311 1.3004, 0.2957 0.9311 1.3, 0.2903 0.9311 1.2982, 0.2857 0.9311 1.2952, 0.282 0.9311 1.2911, 0.2794 0.9311 1.2865, 0.278 0.9311 1.2813, 0.2779 0.9311 1.2758, 0.2792 0.9311 1.2703, 0.2819 0.9311 1.2654, 0.2852 0.9311 1.2616, 0.2896 0.9311 1.2586, 0.2945 0.9311 1.2567, 0.3001 0.9311 1.256, 0.3011 0.9311 1.256, 0.3062 0.9311 1.2569, 0.3113 0.9311 1.2591, 0.3157 0.9311 1.2625, 0.3189 0.9311 1.2666, 0.3211 0.9311 1.2714, 0.3221 0.9311 1.2767, 0.3218 0.9311 1.2823, 0.3201 0.9311 1.2876, 0.3171 0.9311 1.2923, 0.3149 0.9311 1.2947, 0.3104 0.9311 1.2978, 0.3054 0.9311 1.2997
            ]
        }
        coordIndex [
            0,1,2,-1,3,4,5,-1,6,7,3,-1,8,9,10,-1,11,12,13,-1,14,15,2,-1,2,15,16,-1,2,16,0,-1,10,9,17,-1,7,18,3,-1,3,18,19,-1,3,19,20,-1,19,21,20,-1,20,21,22,-1,20,22,23,-1,23,22,24,-1,23,24,25,-1,26,27,28,-1,28,27,29,-1,28,29,30,-1,30,29,31,-1,30,31,32,-1,32,31,33,-1,32,33,34,-1,34,33,2,-1,34,2,35,-1,35,2,36,-1,37,38,26,-1,26,38,39,-1,26,39,27,-1,40,41,42,-1,42,41,43,-1,42,43,44,-1,44,43,45,-1,44,45,46,-1,46,45,47,-1,11,13,48,-1,48,13,49,-1,48,49,50,-1,50,49,51,-1,50,51,52,-1,9,53,17,-1,17,53,54,-1,17,54,55,-1,55,54,56,-1,55,56,11,-1,11,56,57,-1,11,57,12,-1,58,59,60,-1,60,59,61,-1,60,61,62,-1,62,61,63,-1,62,63,64,-1,64,63,65,-1,64,65,66,-1,66,65,67,-1,66,67,68,-1,6,3,69,-1,69,3,5,-1,69,5,26,-1,26,5,70,-1,26,70,37,-1,45,71,47,-1,47,71,72,-1,47,72,73,-1,73,72,74,-1,73,74,75,-1,75,74,76,-1,75,76,77,-1,77,76,78,-1,77,78,79,-1,79,78,80,-1,79,80,81,-1,81,80,82,-1,81,82,58,-1,58,82,83,-1,58,83,59,-1,84,85,86,-1,86,85,87,-1,86,87,42,-1,42,87,88,-1,42,88,40,-1,89,90,91,-1,91,90,92,-1,91,92,93,-1,93,92,94,-1,93,94,95,-1,95,94,96,-1,95,96,97,-1,97,96,98,-1,97,98,14,-1,14,98,99,-1,14,99,15,-1,36,2,100,-1,100,2,1,-1,100,1,101,-1,52,51,102,-1,102,51,103,-1,102,103,104,-1,104,103,105,-1,104,105,106,-1,106,105,107,-1,106,107,108,-1,108,107,109,-1,108,109,84,-1,84,109,110,-1,84,110,85,-1,10,111,8,-1,8,111,112,-1,8,112,113,-1,113,112,114,-1,113,114,115,-1,115,114,116,-1,115,116,89,-1,89,116,117,-1,89,117,90,-1,25,24,118,-1,118,24,119,-1,118,119,120,-1,120,119,121,-1,120,121,122,-1,122,121,123,-1,122,123,124,-1,124,123,125,-1,124,125,126,-1,126,125,127,-1,126,127,128,-1,128,127,129,-1,128,129,130,-1,130,129,131,-1,130,131,132,-1,132,131,133,-1,132,133,134,-1,134,133,135,-1,134,135,1,-1,1,135,136,-1,1,136,101,-1,137,138,139,-1,67,140,68,-1,68,140,137,-1,68,137,141,-1,141,137,139,-1,142,143,137,-1,137,143,144,-1,137,144,138,-1,145,146,147,-1,146,148,147,-1,147,148,149,-1,147,149,150,-1,142,137,147,-1,147,137,151,-1,147,151,145,-1,77,152,153,-1,77,153,75,-1,75,153,154,-1,75,154,73,-1,154,155,73,-1,73,155,156,-1,73,156,47,-1,156,157,47,-1,47,157,158,-1,47,158,46,-1,46,158,159,-1,46,159,44,-1,44,159,160,-1,44,160,42,-1,42,160,161,-1,42,161,86,-1,86,161,162,-1,86,162,84,-1,84,162,163,-1,84,163,108,-1,163,164,108,-1,108,164,165,-1,108,165,106,-1,106,165,166,-1,106,166,104,-1,104,166,167,-1,104,167,102,-1,102,167,168,-1,102,168,52,-1,52,168,169,-1,52,169,50,-1,170,11,48,-1,50,169,171,-1,50,171,48,-1,48,171,172,-1,48,172,170,-1,11,170,173,-1,11,173,55,-1,55,173,174,-1,55,174,17,-1,17,174,175,-1,17,175,10,-1,10,175,176,-1,10,176,111,-1,111,176,177,-1,111,177,112,-1,112,177,178,-1,112,178,114,-1,179,92,90,-1,114,178,180,-1,114,180,116,-1,116,180,181,-1,116,181,117,-1,181,182,117,-1,117,182,183,-1,117,183,90,-1,90,183,184,-1,90,184,179,-1,92,179,185,-1,92,185,94,-1,94,185,186,-1,94,186,96,-1,96,186,187,-1,96,187,98,-1,98,187,188,-1,98,188,99,-1,99,188,189,-1,99,189,15,-1,15,189,190,-1,15,190,16,-1,16,190,191,-1,192,1,0,-1,16,191,0,-1,0,191,193,-1,0,193,192,-1,192,194,1,-1,1,194,195,-1,1,195,134,-1,134,195,196,-1,134,196,132,-1,132,196,197,-1,132,197,130,-1,130,197,198,-1,130,198,128,-1,128,198,199,-1,200,118,120,-1,128,199,126,-1,126,199,201,-1,126,201,124,-1,124,201,202,-1,124,202,122,-1,122,202,203,-1,122,203,120,-1,120,203,204,-1,120,204,200,-1,200,205,118,-1,118,205,206,-1,118,206,25,-1,25,206,207,-1,25,207,23,-1,20,23,208,-1,208,23,207,-1,3,20,209,-1,209,20,208,-1,4,3,210,-1,210,3,209,-1,5,4,211,-1,211,4,210,-1,5,211,212,-1,5,212,70,-1,70,212,213,-1,70,213,37,-1,37,213,214,-1,37,214,38,-1,38,214,215,-1,38,215,39,-1,39,215,216,-1,39,216,27,-1,27,216,217,-1,27,217,29,-1,29,217,218,-1,29,218,31,-1,31,218,219,-1,31,219,33,-1,33,219,220,-1,33,220,2,-1,2,220,221,-1,2,221,14,-1,14,221,222,-1,14,222,97,-1,97,222,223,-1,97,223,95,-1,95,223,224,-1,95,224,93,-1,93,224,225,-1,93,225,91,-1,89,91,226,-1,226,91,225,-1,226,227,89,-1,89,227,228,-1,89,228,115,-1,115,228,229,-1,115,229,113,-1,229,230,113,-1,113,230,231,-1,113,231,8,-1,8,231,232,-1,8,232,9,-1,9,232,233,-1,9,233,53,-1,53,233,234,-1,53,234,54,-1,54,234,235,-1,54,235,56,-1,56,235,236,-1,56,236,57,-1,57,236,237,-1,57,237,12,-1,12,237,238,-1,12,238,13,-1,13,238,239,-1,13,239,49,-1,49,239,240,-1,49,240,51,-1,51,240,241,-1,51,241,103,-1,103,241,242,-1,103,242,105,-1,243,40,244,-1,244,40,88,-1,244,88,245,-1,245,88,87,-1,245,87,246,-1,246,87,85,-1,246,85,247,-1,247,85,110,-1,247,110,248,-1,248,110,109,-1,248,109,249,-1,249,109,107,-1,249,107,250,-1,250,107,105,-1,250,105,242,-1,41,40,251,-1,251,40,243,-1,41,251,252,-1,41,252,43,-1,43,252,253,-1,43,253,45,-1,45,253,254,-1,45,254,71,-1,71,254,255,-1,71,255,72,-1,72,255,256,-1,72,256,74,-1,256,257,74,-1,74,257,258,-1,74,258,76,-1,76,258,259,-1,76,259,78,-1,78,259,260,-1,78,260,80,-1,80,260,261,-1,80,261,82,-1,82,261,262,-1,82,262,83,-1,83,262,263,-1,83,263,59,-1,59,263,264,-1,59,264,61,-1,61,264,265,-1,61,265,63,-1,63,265,266,-1,63,266,65,-1,67,65,267,-1,267,65,266,-1,67,267,268,-1,67,268,140,-1,140,268,269,-1,140,269,137,-1,137,269,270,-1,137,270,151,-1,151,270,271,-1,151,271,145,-1,145,271,272,-1,145,272,146,-1,146,272,273,-1,146,273,148,-1,148,273,274,-1,148,274,149,-1,149,274,275,-1,149,275,150,-1,150,275,276,-1,150,276,147,-1,147,276,277,-1,147,277,142,-1,142,277,278,-1,142,278,143,-1,143,278,279,-1,143,279,144,-1,144,279,280,-1,144,280,138,-1,138,280,281,-1,138,281,139,-1,139,281,282,-1,139,282,141,-1,141,282,283,-1,141,283,68,-1,68,283,284,-1,68,284,66,-1,64,66,285,-1,285,66,284,-1,64,285,286,-1,64,286,62,-1,62,286,287,-1,62,287,60,-1,60,287,288,-1,60,288,58,-1,58,288,289,-1,58,289,81,-1,81,289,290,-1,81,290,79,-1,79,290,152,-1,79,152,77,-1,69,291,292,-1,69,292,6,-1,6,292,293,-1,6,293,7,-1,7,293,294,-1,7,294,18,-1,18,294,295,-1,18,295,19,-1,19,295,296,-1,19,296,21,-1,21,296,297,-1,21,297,22,-1,22,297,298,-1,22,298,24,-1,24,298,299,-1,24,299,119,-1,119,299,300,-1,119,300,121,-1,121,300,301,-1,121,301,123,-1,123,301,302,-1,123,302,125,-1,125,302,303,-1,125,303,127,-1,127,303,304,-1,127,304,129,-1,129,304,305,-1,129,305,131,-1,131,305,306,-1,131,306,133,-1,133,306,307,-1,133,307,135,-1,135,307,308,-1,135,308,136,-1,136,308,309,-1,136,309,101,-1,101,309,310,-1,101,310,100,-1,100,310,311,-1,100,311,36,-1,36,311,312,-1,36,312,35,-1,35,312,313,-1,35,313,34,-1,34,313,314,-1,34,314,32,-1,32,314,315,-1,32,315,30,-1,30,315,316,-1,30,316,28,-1,28,316,317,-1,28,317,26,-1,26,317,291,-1,26,291,69,-1,
        ]
    }
}
Shape{
    appearance Appearance {
        material  Material 	{
            diffuseColor 0.2235294117647059 0.2235294117647059 0.2235294117647059
            specularColor 0.11372549019607843 0.11372549019607843 0.11372549019607843
            ambientIntensity 0.2235
            transparency 0.0
            shininess 0.5
        }
    }
    geometry IndexedFaceSet {
        ccw TRUE
        solid FALSE
        coord DEF co Coordinate {
            point [
                0.3011 0.9311 1.256, 0.3149 0.9311 1.2947, 0.3171 0.9311 1.2923, 0.2945 0.9311 1.2567, 0.2896 0.9311 1.2586, 0.2957 0.9311 1.3, 0.2998 0.9311 1.3004, 0.3054 0.9311 1.2997, 0.3104 0.9311 1.2978, 0.3211 0.9311 1.2714, 0.3189 0.9311 1.2666, 0.3157 0.9311 1.2625, 0.3001 0.9311 1.256, 0.2794 0.9311 1.2865, 0.282 0.9311 1.2911, 0.2819 0.9311 1.2654, 0.2857 0.9311 1.2952, 0.3201 0.9311 1.2876, 0.3218 0.9311 1.2823, 0.3221 0.9311 1.2767, 0.3113 0.9311 1.2591, 0.3062 0.9311 1.2569, 0.2852 0.9311 1.2616, 0.2903 0.9311 1.2982, 0.2792 0.9311 1.2703, 0.2779 0.9311 1.2758, 0.278 0.9311 1.2813
            ]
        }
        coordIndex [
            0,1,2,-1,3,4,5,-1,6,7,0,-1,0,7,8,-1,0,8,1,-1,9,10,2,-1,2,10,11,-1,6,0,5,-1,5,0,12,-1,5,12,3,-1,13,14,15,-1,15,14,16,-1,17,18,2,-1,2,18,19,-1,2,19,9,-1,11,20,2,-1,2,20,21,-1,2,21,0,-1,4,22,5,-1,5,22,15,-1,5,15,23,-1,23,15,16,-1,24,25,15,-1,15,25,26,-1,15,26,13,-1,
        ]
    }
}